<svg width="288" height="268" viewBox="0 0 288 268" fill="none" xmlns="http://www.w3.org/2000/svg">
<path d="M239.051 200.922C239.051 200.922 235.055 225.748 240.523 254.664C240.523 254.664 241.965 258.299 245.188 258.662C248.412 259.029 249.293 258.08 249.692 256.41C250.092 254.744 244.775 230.234 248.668 204.797L249.399 202.451L239.051 200.922Z" fill="#EFCAA6"/>
<path d="M248.227 208.02C248.36 206.95 248.505 205.875 248.667 204.797L249.398 202.451L239.051 200.922C239.051 200.922 238.666 203.303 238.301 207.438C241.583 208.013 244.927 208.253 248.227 208.02Z" fill="#EFCAA6"/>
<path d="M238.902 244.133C239.315 247.553 239.844 251.074 240.523 254.66C240.523 254.66 241.965 258.295 245.188 258.658C248.412 259.025 249.293 258.076 249.692 256.406C249.849 255.756 249.131 251.593 248.427 245.256C245.171 245.703 241.86 245.447 238.902 244.133Z" fill="#E30613"/>
<path d="M222.045 264.388C222.045 264.388 221.615 266.472 223.535 267.314C225.453 268.154 248.906 268.099 253.353 265.164C253.353 265.164 253.313 264.48 253.243 263.453C250.146 264.652 244.386 265.154 236.495 265.822C224.558 266.82 222.045 264.388 222.045 264.388Z" fill="#006AB0"/>
<path d="M251.627 253.458C250.523 253.099 246.427 253.095 246.319 256.616C246.319 256.616 243.098 252.157 238.516 255.087C238.516 255.087 223.492 257.851 222.045 264.39C222.045 264.39 224.558 266.822 236.495 265.824C244.386 265.156 250.146 264.654 253.243 263.455C253.021 260.28 252.466 253.729 251.627 253.458Z" fill="#FFA900"/>
<path d="M287.328 198.133C287.328 198.133 292.907 224.377 288.811 253.52C288.811 253.52 287.542 257.215 284.341 257.735C281.139 258.255 280.214 257.348 279.738 255.698C279.26 254.053 283.411 229.319 278.322 204.096L277.441 200.063L287.328 198.133Z" fill="#EFCAA6"/>
<path d="M278.736 206.264C281.999 205.969 285.219 205.147 288.343 204.061C287.787 200.297 287.328 198.133 287.328 198.133L277.441 200.063L278.322 204.096C278.468 204.819 278.606 205.542 278.736 206.264Z" fill="#EFCAA6"/>
<path d="M289.933 242.922C289.681 246.361 289.321 249.904 288.811 253.518C288.811 253.518 287.542 257.213 284.341 257.733C281.139 258.253 280.214 257.346 279.738 255.696C279.552 255.053 280.071 250.864 280.472 244.497C283.75 244.793 287.04 244.381 289.933 242.922Z" fill="#E30613"/>
<path d="M307.729 262.359C307.729 262.359 308.256 264.427 306.377 265.357C304.502 266.289 281.074 267.339 276.496 264.611C276.496 264.611 276.5 263.929 276.522 262.906C279.673 263.953 285.453 264.183 293.365 264.476C305.335 264.916 307.729 262.359 307.729 262.359Z" fill="#006AB0"/>
<path d="M277.664 252.844C278.751 252.432 282.843 252.233 283.116 255.746C283.116 255.746 286.122 251.139 290.838 253.85C290.838 253.85 305.976 255.903 307.729 262.362C307.729 262.362 305.334 264.919 293.366 264.479C285.454 264.186 279.675 263.956 276.523 262.909C276.595 259.72 276.842 253.156 277.664 252.844Z" fill="#FFA900"/>
<path d="M231.706 197.992C231.543 199.244 231.393 200.504 231.275 201.771C231.275 201.771 244.271 205.904 258.045 202.726C258.045 202.726 258.178 201.695 258.408 200.124C247.391 201.672 236.439 199.275 231.706 197.992Z" fill="#294381"/>
<path d="M291.873 180.592C290.577 175.279 289.219 170.254 288.314 168.391L280.316 168.102C281.074 172.137 283.408 179.953 291.873 180.592Z" fill="#294381"/>
<path d="M247.781 166.943L240.172 166.672C240.172 166.672 237.871 172.088 235.568 180.065C245.365 181.486 247.385 170.502 247.781 166.943Z" fill="#294381"/>
<path d="M265.838 199.766C266.191 201.246 266.411 202.241 266.389 202.313C266.289 202.633 283.519 202.545 295.54 196.76C295.54 196.76 295.331 195.75 294.98 194.125C283.945 198.511 270.209 199.542 265.838 199.766Z" fill="#294381"/>
<path d="M291.874 180.593C283.409 179.954 281.075 172.138 280.317 168.103L247.782 166.945C247.386 170.504 245.366 181.488 235.569 180.066C234.076 185.226 232.584 191.461 231.707 197.994C236.44 199.277 247.392 201.674 258.409 200.127C259.034 195.861 260.397 187.49 261.941 184.135C261.941 184.135 264.645 194.764 265.837 199.77C270.208 199.545 283.944 198.514 294.979 194.129C294.306 191.036 293.123 185.684 291.874 180.593Z" fill="#006AB0"/>
<path opacity="0.5" d="M252.666 180.969L257.171 183.614C255.913 185.35 253.276 197.96 252.133 203.671C254.064 203.483 256.046 203.189 258.046 202.73C258.046 202.73 258.179 201.699 258.409 200.128C259.034 195.862 260.397 187.491 261.941 184.136C264.464 183.65 267.071 181.179 267.071 181.179C258.79 183.189 252.666 180.969 252.666 180.969Z" fill="#0A5790"/>
<path opacity="0.5" d="M294.978 194.126C294.304 191.034 293.121 185.683 291.873 180.591C290.577 175.278 289.219 170.253 288.314 168.39L280.316 168.101L247.781 166.943L240.172 166.672C240.172 166.672 239.408 168.479 238.32 171.526C238.975 171.258 239.716 171.049 240.478 171.247C243.298 171.97 260.632 178.032 282.581 173.284C282.581 173.284 289.091 188.229 290.469 198.792C292.219 198.21 293.928 197.538 295.539 196.763C295.539 196.761 295.33 195.751 294.978 194.126Z" fill="#0A5790"/>
<path d="M233.396 119.68C233.396 119.68 213.331 141.44 209.225 164.516C209.225 164.516 206.716 165.842 203.909 169.293C201.104 172.74 197.934 175.918 198.747 177.52C199.563 179.124 201.264 176.686 202.286 175.112C203.304 173.534 204.4 172.169 204.4 172.169C204.4 172.169 201.233 178.235 201.946 181.603C201.946 181.603 202.324 182.722 203.296 181.994C204.265 181.267 206.074 174.387 207.093 172.812C207.093 172.812 204.991 182.306 207.061 183.246C207.061 183.246 208.548 183.564 208.918 181.301C209.288 179.031 209.713 173.317 210.324 172.242C210.324 172.242 209.723 182.617 211.576 183.492C213.43 184.363 213.819 182.873 213.619 180.41C213.418 177.949 213.611 171.107 214.801 170.656C215.984 170.205 217.852 171.642 218.97 174.222C220.088 176.806 221.806 174.929 220.963 172.062C220.12 169.195 217.072 165.527 214.391 165.523C214.391 165.523 224.56 139.343 237.877 125.919L233.396 119.68Z" fill="#EFCAA6"/>
<path d="M233.957 130.328C235.229 128.758 236.533 127.268 237.875 125.918L233.395 119.68C233.395 119.68 231.864 121.342 229.568 124.23C230.74 126.441 232.201 128.539 233.957 130.328Z" fill="#EFCAA6"/>
<path d="M229.906 118.489C229.906 118.489 233.908 126.712 238.346 129.708L239.477 128.817C235.94 124.247 233.448 119.783 232.002 116.891C230.726 117.858 229.906 118.489 229.906 118.489Z" fill="#FFA900"/>
<path d="M261.528 114.501C268.795 117.712 274.576 113.827 275.546 106.302C275.08 106.286 274.867 106.289 274.867 106.289C274.867 106.289 274.336 105.12 272.261 105.124C270.189 105.132 262.422 104.612 262.422 104.612C262.422 104.612 258.594 103.573 256.519 105.315C256.519 105.315 254.267 111.286 261.528 114.501Z" fill="#FFA900"/>
<path d="M280.801 106.753C278.005 106.433 276.371 106.333 275.547 106.302C274.576 113.827 268.795 117.712 261.529 114.501C254.267 111.286 256.52 105.315 256.52 105.315C256.52 105.315 251.284 104.452 246.41 106.963C242.822 108.813 235.576 114.181 232.004 116.889C233.449 119.781 235.942 124.244 239.479 128.815L246.445 123.312C246.445 123.312 240.075 143.057 236.985 167.375C236.985 167.375 263.419 176.479 290.454 169.354C290.454 169.354 288.774 134.011 286.572 124.337L293.857 127.876C296.025 123.535 297.976 118.051 299.055 114.783C294.917 112.604 284.297 107.151 280.801 106.753Z" fill="#E30613"/>
<path d="M246.443 123.312C246.443 123.316 246.442 123.319 246.438 123.323C246.441 123.319 246.443 123.312 246.443 123.312Z" fill="#CECECE"/>
<path d="M234.84 126.299C235.928 127.646 237.119 128.879 238.346 129.71L239.477 128.819L246.443 123.316C247.886 118.818 251.257 112.383 251.257 112.383C246.338 115.862 237.815 123.575 234.84 126.299Z" fill="#CECECE"/>
<path d="M246.273 123.843C246.323 123.676 246.378 123.495 246.436 123.32C246.435 123.337 246.376 123.512 246.273 123.843Z" fill="#CECECE"/>
<path d="M299.053 114.785C294.916 112.605 284.296 107.152 280.8 106.754C278.004 106.434 276.37 106.334 275.546 106.303C275.08 106.287 274.867 106.29 274.867 106.29C274.867 106.29 274.336 105.121 272.261 105.125C270.189 105.133 262.422 104.613 262.422 104.613C262.422 104.613 261.008 104.237 259.439 104.326C259.359 104.832 259.265 105.404 259.145 106.062C258.117 111.797 259.965 114.042 266.046 114.533C272.367 115.045 273.363 108.371 273.363 108.371C273.363 108.371 276.083 108.566 285.488 112.525C293.444 115.871 298.074 117.72 300.194 119.51C300.527 118.252 300.743 116.953 300.743 115.687C300.743 115.687 300.097 115.336 299.053 114.785Z" fill="#CECECE"/>
<path d="M279.979 113.203C279.979 113.203 284.186 146.444 282.289 171.038C284.987 170.624 287.717 170.077 290.451 169.354C290.451 169.354 288.771 134.011 286.569 124.337C286.569 124.337 286.251 115.606 279.979 113.203Z" fill="#CECECE"/>
<path d="M271.352 110.221C271.931 109.199 272.033 107.852 272.18 106.071C272.512 102.118 272.632 101.266 272.632 101.266L260.518 101.554L259.881 108.991C262.394 112.837 267.85 113.268 271.352 110.221Z" fill="#EFCAA6"/>
<path d="M272.212 105.732C272.519 102.088 272.634 101.266 272.634 101.266L260.52 101.554L260.17 105.655C263.96 106.823 268.142 106.583 272.212 105.732Z" fill="#EFCAA6"/>
<path d="M246.303 163.014C246.303 230.794 191.355 285.743 123.572 285.743C55.7907 285.743 0.84375 230.794 0.84375 163.014C0.84375 95.2323 55.7897 40.2812 123.572 40.2812C191.354 40.2812 246.303 95.2323 246.303 163.014Z" fill="#009A9A"/>
<path d="M123.571 286.359C55.5604 286.359 0.234375 231.027 0.234375 163.018C0.234375 95.0049 55.5604 39.6719 123.571 39.6719C191.584 39.6719 246.916 95.0049 246.916 163.018C246.916 231.027 191.584 286.359 123.571 286.359ZM123.571 40.8949C56.2354 40.8949 1.45538 95.6789 1.45538 163.018C1.45538 230.351 56.2354 285.136 123.571 285.136C190.911 285.136 245.696 230.351 245.696 163.018C245.696 95.6799 190.911 40.8949 123.571 40.8949Z" fill="#026663"/>
<path d="M238.962 164.158C238.962 227.885 187.301 279.547 123.571 279.547C59.8456 279.547 8.18359 227.885 8.18359 164.158C8.18359 100.428 59.8456 48.7656 123.571 48.7656C187.301 48.7656 238.962 100.428 238.962 164.158Z" fill="#E396B6"/>
<path d="M234.769 163.329C234.769 224.743 184.985 274.52 123.572 274.52C62.1619 274.52 12.3789 224.743 12.3789 163.329C12.3789 101.917 62.1619 52.1328 123.572 52.1328C184.984 52.1328 234.769 104.741 234.769 163.329Z" fill="#E364B6"/>
<path d="M231.247 163.021C231.247 222.483 183.036 270.688 123.572 270.688C64.1103 270.688 15.9043 222.483 15.9043 163.021C15.9043 103.555 64.1103 55.3438 123.572 55.3438C183.036 55.3448 231.247 103.556 231.247 163.021Z" fill="#C0C0C0"/>
<path d="M123.572 271.3C63.8669 271.3 15.2969 222.722 15.2969 163.022C15.2969 103.312 63.8669 54.7344 123.572 54.7344C183.281 54.7344 231.856 103.312 231.856 163.022C231.856 222.722 183.281 271.3 123.572 271.3ZM123.572 55.9564C64.5439 55.9564 16.5159 103.987 16.5159 163.021C16.5159 222.055 64.5429 270.079 123.572 270.079C182.608 270.079 230.636 222.056 230.636 163.021C230.637 103.987 182.608 55.9564 123.572 55.9564Z" fill="#A4A3A3"/>
<path d="M227.889 161.973C227.889 219.585 181.187 266.29 123.572 266.29C65.9618 266.29 19.2578 219.585 19.2578 161.973C19.2578 104.365 65.9618 57.6563 123.572 57.6563C181.187 57.6553 227.889 104.364 227.889 161.973Z" fill="white"/>
<path opacity="0.8" d="M123.507 41.9707C123.507 41.9707 31.1803 40.2847 6.82031 135.049C6.82031 135.049 27.3563 50.4567 123.507 41.9707Z" fill="white"/>
<path opacity="0.8" d="M244.098 170.484C244.098 170.484 240.755 262.771 144.809 281.949C144.809 281.949 230.388 266.035 244.098 170.484Z" fill="white"/>
<rect x="37" y="135" width="174" height="56" rx="10" fill="url(#paint0_linear_5779_18323)"/>
<path d="M72.3 157.18C72.6467 157.353 72.8467 157.627 72.9 158C72.9667 158.373 72.8733 158.713 72.62 159.02C72.4467 159.26 72.22 159.393 71.94 159.42C71.6733 159.447 71.4 159.393 71.12 159.26C70.8 159.113 70.46 159 70.1 158.92C69.7533 158.84 69.3867 158.8 69 158.8C68.28 158.8 67.6333 158.913 67.06 159.14C66.5 159.367 66.02 159.693 65.62 160.12C65.22 160.533 64.9133 161.027 64.7 161.6C64.5 162.173 64.4 162.807 64.4 163.5C64.4 164.313 64.5133 165.02 64.74 165.62C64.98 166.22 65.3067 166.72 65.72 167.12C66.1333 167.52 66.62 167.82 67.18 168.02C67.74 168.207 68.3467 168.3 69 168.3C69.36 168.3 69.72 168.267 70.08 168.2C70.44 168.133 70.7867 168.013 71.12 167.84C71.4 167.707 71.6733 167.66 71.94 167.7C72.22 167.74 72.4533 167.88 72.64 168.12C72.9067 168.453 73 168.8 72.92 169.16C72.8533 169.507 72.6533 169.76 72.32 169.92C71.9733 170.093 71.6133 170.24 71.24 170.36C70.88 170.467 70.5133 170.547 70.14 170.6C69.7667 170.667 69.3867 170.7 69 170.7C68.04 170.7 67.1267 170.547 66.26 170.24C65.4067 169.933 64.64 169.48 63.96 168.88C63.2933 168.28 62.7667 167.533 62.38 166.64C61.9933 165.733 61.8 164.687 61.8 163.5C61.8 162.473 61.9733 161.527 62.32 160.66C62.68 159.793 63.18 159.047 63.82 158.42C64.4733 157.78 65.24 157.287 66.12 156.94C67 156.58 67.96 156.4 69 156.4C69.5867 156.4 70.16 156.467 70.72 156.6C71.28 156.733 71.8067 156.927 72.3 157.18ZM80.4591 159.6C81.4191 159.6 82.1457 159.807 82.6391 160.22C83.1457 160.633 83.4924 161.187 83.6791 161.88C83.8657 162.56 83.9591 163.32 83.9591 164.16V169.28C83.9591 169.627 83.8457 169.92 83.6191 170.16C83.3924 170.387 83.1057 170.5 82.7591 170.5C82.4124 170.5 82.1257 170.387 81.8991 170.16C81.6724 169.92 81.5591 169.627 81.5591 169.28V164.16C81.5591 163.72 81.5057 163.327 81.3991 162.98C81.2924 162.62 81.0991 162.333 80.8191 162.12C80.5391 161.907 80.1391 161.8 79.6191 161.8C79.1124 161.8 78.6791 161.907 78.3191 162.12C77.9591 162.333 77.6857 162.62 77.4991 162.98C77.3257 163.327 77.2391 163.72 77.2391 164.16V169.28C77.2391 169.627 77.1257 169.92 76.8991 170.16C76.6724 170.387 76.3857 170.5 76.0391 170.5C75.6924 170.5 75.4057 170.387 75.1791 170.16C74.9524 169.92 74.8391 169.627 74.8391 169.28V156.92C74.8391 156.573 74.9524 156.287 75.1791 156.06C75.4057 155.82 75.6924 155.7 76.0391 155.7C76.3857 155.7 76.6724 155.82 76.8991 156.06C77.1257 156.287 77.2391 156.573 77.2391 156.92V161.88L76.9391 161.82C77.0591 161.593 77.2257 161.353 77.4391 161.1C77.6524 160.833 77.9124 160.587 78.2191 160.36C78.5257 160.133 78.8657 159.953 79.2391 159.82C79.6124 159.673 80.0191 159.6 80.4591 159.6ZM91.5978 170.7C90.4645 170.7 89.4778 170.467 88.6378 170C87.8111 169.52 87.1711 168.873 86.7178 168.06C86.2778 167.247 86.0578 166.327 86.0578 165.3C86.0578 164.1 86.2978 163.08 86.7778 162.24C87.2711 161.387 87.9111 160.733 88.6978 160.28C89.4845 159.827 90.3178 159.6 91.1978 159.6C91.8778 159.6 92.5178 159.74 93.1178 160.02C93.7311 160.3 94.2711 160.687 94.7378 161.18C95.2045 161.66 95.5711 162.22 95.8378 162.86C96.1178 163.5 96.2578 164.18 96.2578 164.9C96.2445 165.22 96.1178 165.48 95.8778 165.68C95.6378 165.88 95.3578 165.98 95.0378 165.98H87.3978L86.7978 163.98H94.1378L93.6978 164.38V163.84C93.6711 163.453 93.5311 163.107 93.2778 162.8C93.0378 162.493 92.7311 162.253 92.3578 162.08C91.9978 161.893 91.6111 161.8 91.1978 161.8C90.7978 161.8 90.4245 161.853 90.0778 161.96C89.7311 162.067 89.4311 162.247 89.1778 162.5C88.9245 162.753 88.7245 163.093 88.5778 163.52C88.4311 163.947 88.3578 164.487 88.3578 165.14C88.3578 165.86 88.5045 166.473 88.7978 166.98C89.1045 167.473 89.4911 167.853 89.9578 168.12C90.4378 168.373 90.9445 168.5 91.4778 168.5C91.9711 168.5 92.3645 168.46 92.6578 168.38C92.9511 168.3 93.1845 168.207 93.3578 168.1C93.5445 167.98 93.7111 167.88 93.8578 167.8C94.0978 167.68 94.3245 167.62 94.5378 167.62C94.8311 167.62 95.0711 167.72 95.2578 167.92C95.4578 168.12 95.5578 168.353 95.5578 168.62C95.5578 168.98 95.3711 169.307 94.9978 169.6C94.6511 169.893 94.1645 170.153 93.5378 170.38C92.9111 170.593 92.2645 170.7 91.5978 170.7ZM103.115 159.6C103.875 159.6 104.535 159.68 105.095 159.84C105.668 160 106.108 160.227 106.415 160.52C106.735 160.8 106.895 161.14 106.895 161.54C106.895 161.807 106.815 162.06 106.655 162.3C106.495 162.527 106.261 162.64 105.955 162.64C105.741 162.64 105.561 162.613 105.415 162.56C105.281 162.493 105.161 162.413 105.055 162.32C104.948 162.227 104.821 162.14 104.675 162.06C104.541 161.98 104.335 161.92 104.055 161.88C103.788 161.827 103.588 161.8 103.455 161.8C102.775 161.8 102.195 161.947 101.715 162.24C101.248 162.533 100.888 162.933 100.635 163.44C100.381 163.933 100.255 164.507 100.255 165.16C100.255 165.8 100.381 166.373 100.635 166.88C100.901 167.373 101.261 167.767 101.715 168.06C102.181 168.353 102.715 168.5 103.315 168.5C103.648 168.5 103.935 168.48 104.175 168.44C104.415 168.4 104.615 168.34 104.775 168.26C104.961 168.153 105.128 168.04 105.275 167.92C105.421 167.8 105.641 167.74 105.935 167.74C106.281 167.74 106.548 167.853 106.735 168.08C106.921 168.293 107.015 168.56 107.015 168.88C107.015 169.213 106.828 169.52 106.455 169.8C106.081 170.067 105.588 170.287 104.975 170.46C104.375 170.62 103.721 170.7 103.015 170.7C101.961 170.7 101.048 170.46 100.275 169.98C99.5014 169.487 98.9014 168.82 98.4747 167.98C98.0614 167.14 97.8547 166.2 97.8547 165.16C97.8547 164.067 98.0747 163.107 98.5147 162.28C98.968 161.44 99.588 160.787 100.375 160.32C101.175 159.84 102.088 159.6 103.115 159.6ZM110.145 170.5C109.799 170.5 109.512 170.387 109.285 170.16C109.059 169.92 108.945 169.627 108.945 169.28V156.92C108.945 156.573 109.059 156.287 109.285 156.06C109.512 155.82 109.799 155.7 110.145 155.7C110.492 155.7 110.779 155.82 111.005 156.06C111.232 156.287 111.345 156.573 111.345 156.92V169.28C111.345 169.627 111.232 169.92 111.005 170.16C110.779 170.387 110.492 170.5 110.145 170.5ZM116.505 159.8C116.812 159.8 117.079 159.927 117.305 160.18C117.532 160.433 117.645 160.68 117.645 160.92C117.645 161.24 117.485 161.54 117.165 161.82L111.145 167.36L111.045 164.6L115.625 160.18C115.879 159.927 116.172 159.8 116.505 159.8ZM116.805 170.48C116.459 170.48 116.165 170.347 115.925 170.08L112.225 166.16L114.045 164.48L117.645 168.4C117.899 168.667 118.025 168.967 118.025 169.3C118.025 169.647 117.885 169.933 117.605 170.16C117.339 170.373 117.072 170.48 116.805 170.48ZM126.938 170.5C126.591 170.5 126.304 170.387 126.078 170.16C125.851 169.92 125.738 169.627 125.738 169.28V161.02C125.738 160.673 125.851 160.387 126.078 160.16C126.304 159.92 126.591 159.8 126.938 159.8C127.284 159.8 127.571 159.92 127.798 160.16C128.024 160.387 128.138 160.673 128.138 161.02V162.9L127.998 161.56C128.144 161.24 128.331 160.96 128.558 160.72C128.798 160.467 129.064 160.26 129.358 160.1C129.651 159.927 129.964 159.8 130.298 159.72C130.631 159.64 130.964 159.6 131.298 159.6C131.698 159.6 132.031 159.713 132.298 159.94C132.578 160.167 132.718 160.433 132.718 160.74C132.718 161.18 132.604 161.5 132.378 161.7C132.151 161.887 131.904 161.98 131.638 161.98C131.384 161.98 131.151 161.933 130.938 161.84C130.738 161.747 130.504 161.7 130.238 161.7C129.998 161.7 129.751 161.76 129.498 161.88C129.258 161.987 129.031 162.16 128.818 162.4C128.618 162.64 128.451 162.94 128.318 163.3C128.198 163.647 128.138 164.06 128.138 164.54V169.28C128.138 169.627 128.024 169.92 127.798 170.16C127.571 170.387 127.284 170.5 126.938 170.5ZM139 170.7C137.867 170.7 136.88 170.467 136.04 170C135.213 169.52 134.573 168.873 134.12 168.06C133.68 167.247 133.46 166.327 133.46 165.3C133.46 164.1 133.7 163.08 134.18 162.24C134.673 161.387 135.313 160.733 136.1 160.28C136.887 159.827 137.72 159.6 138.6 159.6C139.28 159.6 139.92 159.74 140.52 160.02C141.133 160.3 141.673 160.687 142.14 161.18C142.607 161.66 142.973 162.22 143.24 162.86C143.52 163.5 143.66 164.18 143.66 164.9C143.647 165.22 143.52 165.48 143.28 165.68C143.04 165.88 142.76 165.98 142.44 165.98H134.8L134.2 163.98H141.54L141.1 164.38V163.84C141.073 163.453 140.933 163.107 140.68 162.8C140.44 162.493 140.133 162.253 139.76 162.08C139.4 161.893 139.013 161.8 138.6 161.8C138.2 161.8 137.827 161.853 137.48 161.96C137.133 162.067 136.833 162.247 136.58 162.5C136.327 162.753 136.127 163.093 135.98 163.52C135.833 163.947 135.76 164.487 135.76 165.14C135.76 165.86 135.907 166.473 136.2 166.98C136.507 167.473 136.893 167.853 137.36 168.12C137.84 168.373 138.347 168.5 138.88 168.5C139.373 168.5 139.767 168.46 140.06 168.38C140.353 168.3 140.587 168.207 140.76 168.1C140.947 167.98 141.113 167.88 141.26 167.8C141.5 167.68 141.727 167.62 141.94 167.62C142.233 167.62 142.473 167.72 142.66 167.92C142.86 168.12 142.96 168.353 142.96 168.62C142.96 168.98 142.773 169.307 142.4 169.6C142.053 169.893 141.567 170.153 140.94 170.38C140.313 170.593 139.667 170.7 139 170.7ZM151.297 159.6C152.23 159.6 153.064 159.84 153.797 160.32C154.544 160.787 155.13 161.433 155.557 162.26C155.997 163.087 156.217 164.047 156.217 165.14C156.217 166.233 155.997 167.2 155.557 168.04C155.13 168.867 154.55 169.52 153.817 170C153.097 170.467 152.284 170.7 151.377 170.7C150.844 170.7 150.344 170.613 149.877 170.44C149.41 170.267 148.997 170.047 148.637 169.78C148.29 169.513 148.017 169.247 147.817 168.98C147.63 168.7 147.537 168.467 147.537 168.28L148.157 168.02V173.28C148.157 173.627 148.044 173.913 147.817 174.14C147.59 174.38 147.304 174.5 146.957 174.5C146.61 174.5 146.324 174.387 146.097 174.16C145.87 173.933 145.757 173.64 145.757 173.28V161.02C145.757 160.673 145.87 160.387 146.097 160.16C146.324 159.92 146.61 159.8 146.957 159.8C147.304 159.8 147.59 159.92 147.817 160.16C148.044 160.387 148.157 160.673 148.157 161.02V162L147.817 161.82C147.817 161.647 147.91 161.44 148.097 161.2C148.284 160.947 148.537 160.7 148.857 160.46C149.177 160.207 149.544 160 149.957 159.84C150.384 159.68 150.83 159.6 151.297 159.6ZM150.997 161.8C150.41 161.8 149.897 161.947 149.457 162.24C149.017 162.533 148.67 162.933 148.417 163.44C148.177 163.933 148.057 164.5 148.057 165.14C148.057 165.767 148.177 166.34 148.417 166.86C148.67 167.367 149.017 167.767 149.457 168.06C149.897 168.353 150.41 168.5 150.997 168.5C151.584 168.5 152.09 168.353 152.517 168.06C152.957 167.767 153.297 167.367 153.537 166.86C153.79 166.34 153.917 165.767 153.917 165.14C153.917 164.5 153.79 163.933 153.537 163.44C153.297 162.933 152.957 162.533 152.517 162.24C152.09 161.947 151.584 161.8 150.997 161.8ZM168.696 165.16C168.696 166.253 168.449 167.22 167.956 168.06C167.476 168.887 166.822 169.533 165.996 170C165.182 170.467 164.269 170.7 163.256 170.7C162.242 170.7 161.322 170.467 160.496 170C159.682 169.533 159.029 168.887 158.536 168.06C158.056 167.22 157.816 166.253 157.816 165.16C157.816 164.067 158.056 163.107 158.536 162.28C159.029 161.44 159.682 160.787 160.496 160.32C161.322 159.84 162.242 159.6 163.256 159.6C164.269 159.6 165.182 159.84 165.996 160.32C166.822 160.787 167.476 161.44 167.956 162.28C168.449 163.107 168.696 164.067 168.696 165.16ZM166.296 165.16C166.296 164.48 166.156 163.893 165.876 163.4C165.609 162.893 165.242 162.5 164.776 162.22C164.322 161.94 163.816 161.8 163.256 161.8C162.696 161.8 162.182 161.94 161.716 162.22C161.262 162.5 160.896 162.893 160.616 163.4C160.349 163.893 160.216 164.48 160.216 165.16C160.216 165.827 160.349 166.413 160.616 166.92C160.896 167.413 161.262 167.8 161.716 168.08C162.182 168.36 162.696 168.5 163.256 168.5C163.816 168.5 164.322 168.36 164.776 168.08C165.242 167.8 165.609 167.413 165.876 166.92C166.156 166.413 166.296 165.827 166.296 165.16ZM171.996 170.5C171.649 170.5 171.363 170.387 171.136 170.16C170.909 169.92 170.796 169.627 170.796 169.28V161.02C170.796 160.673 170.909 160.387 171.136 160.16C171.363 159.92 171.649 159.8 171.996 159.8C172.343 159.8 172.629 159.92 172.856 160.16C173.083 160.387 173.196 160.673 173.196 161.02V162.9L173.056 161.56C173.203 161.24 173.389 160.96 173.616 160.72C173.856 160.467 174.123 160.26 174.416 160.1C174.709 159.927 175.023 159.8 175.356 159.72C175.689 159.64 176.023 159.6 176.356 159.6C176.756 159.6 177.089 159.713 177.356 159.94C177.636 160.167 177.776 160.433 177.776 160.74C177.776 161.18 177.663 161.5 177.436 161.7C177.209 161.887 176.963 161.98 176.696 161.98C176.443 161.98 176.209 161.933 175.996 161.84C175.796 161.747 175.563 161.7 175.296 161.7C175.056 161.7 174.809 161.76 174.556 161.88C174.316 161.987 174.089 162.16 173.876 162.4C173.676 162.64 173.509 162.94 173.376 163.3C173.256 163.647 173.196 164.06 173.196 164.54V169.28C173.196 169.627 173.083 169.92 172.856 170.16C172.629 170.387 172.343 170.5 171.996 170.5ZM179.588 160H184.328C184.648 160 184.915 160.107 185.128 160.32C185.341 160.533 185.448 160.8 185.448 161.12C185.448 161.427 185.341 161.687 185.128 161.9C184.915 162.1 184.648 162.2 184.328 162.2H179.588C179.268 162.2 179.001 162.093 178.788 161.88C178.575 161.667 178.468 161.4 178.468 161.08C178.468 160.773 178.575 160.52 178.788 160.32C179.001 160.107 179.268 160 179.588 160ZM181.728 157.5C182.075 157.5 182.355 157.62 182.568 157.86C182.795 158.087 182.908 158.373 182.908 158.72V167.62C182.908 167.807 182.941 167.96 183.008 168.08C183.088 168.2 183.188 168.287 183.308 168.34C183.441 168.393 183.581 168.42 183.728 168.42C183.888 168.42 184.035 168.393 184.168 168.34C184.301 168.273 184.455 168.24 184.628 168.24C184.815 168.24 184.981 168.327 185.128 168.5C185.288 168.673 185.368 168.913 185.368 169.22C185.368 169.593 185.161 169.9 184.748 170.14C184.348 170.38 183.915 170.5 183.448 170.5C183.168 170.5 182.855 170.48 182.508 170.44C182.175 170.387 181.855 170.273 181.548 170.1C181.255 169.913 181.008 169.633 180.808 169.26C180.608 168.887 180.508 168.373 180.508 167.72V158.72C180.508 158.373 180.621 158.087 180.848 157.86C181.088 157.62 181.381 157.5 181.728 157.5Z" fill="white"/>
<path d="M259.307 5.52457C259.307 5.52457 259.484 1.19857 263.77 0.616569C268.058 0.0285692 269.929 1.67857 270.368 5.26057L259.307 5.52457Z" fill="#E30613"/>
<path d="M217.192 57.6641C217.192 57.6641 204.762 68.5561 205.129 83.9841C205.493 99.4121 227.98 111.566 245.397 96.9881L217.192 57.6641Z" fill="#006AB0"/>
<path opacity="0.4" d="M217.193 57.6641C217.193 57.6641 214.437 60.1021 211.557 64.2661C211.945 63.9951 212.35 63.7391 212.782 63.5151C213.469 63.1511 214.16 63.6961 214.046 64.4381C212.687 73.1761 215.452 83.2931 220.811 90.3551C222.167 92.1481 223.628 93.8941 225.341 95.3601C226.473 96.3311 228.007 97.1001 229.003 98.1791C229.553 98.7741 230.213 99.5301 229.718 100.427C228.448 102.715 223.573 102.463 221.427 102.186C220.424 102.057 219.46 101.838 218.512 101.578C226.41 104.893 236.556 104.39 245.399 96.9891L217.193 57.6641Z" fill="#006AB0"/>
<path d="M223.092 29.8505C223.092 29.8505 212.416 52.3015 216.252 71.6635C217.824 79.5715 221.839 86.3745 227.998 91.6425C226.389 87.3015 225.262 81.4055 227.337 75.3195C231.424 63.3455 233.901 54.8265 234.065 43.8265C234.065 43.8265 235.122 62.8345 237.897 61.9235C240.673 61.0105 244.344 52.4665 244.344 52.4665C244.344 52.4665 244.404 63.8815 248.278 60.7615C252.15 57.6395 257.668 52.4345 257.668 52.4345C257.668 52.4345 254.534 62.9385 259.831 60.4875C265.129 58.0385 270.077 52.5625 270.077 52.5625C270.077 52.5625 266.379 63.2225 271.68 60.8415C276.977 58.4615 282.757 52.4035 282.757 52.4035C282.757 52.4035 278.597 61.2415 282.923 59.4485C287.248 57.6555 292.069 52.3235 292.069 52.3235C292.069 52.3235 292.884 62.8755 295.832 59.6365C298.781 56.3985 300.99 54.4075 300.99 54.4075C300.99 54.4075 309.759 63.4915 310.643 77.7085C314.026 70.2005 316 60.9545 316.388 49.8475C317.643 13.6595 247.77 -8.36948 223.092 29.8505Z" fill="black"/>
<path d="M229.916 75.4012C229.916 75.4012 228.827 66.7182 222.541 69.1942C216.253 71.6662 214.599 82.0312 228.128 81.9392L229.916 75.4012Z" fill="#E1B78C"/>
<path d="M295.83 59.6381C292.882 62.8771 292.067 52.3251 292.067 52.3251C292.067 52.3251 287.247 57.6571 282.921 59.4501C278.595 61.2431 282.755 52.4051 282.755 52.4051C282.755 52.4051 276.975 58.4641 271.678 60.8431C266.376 63.2241 270.075 52.5641 270.075 52.5641C270.075 52.5641 265.127 58.0401 259.829 60.4891C254.532 62.9401 257.666 52.4361 257.666 52.4361C257.666 52.4361 252.148 57.6411 248.276 60.7631C244.402 63.8831 244.342 52.4681 244.342 52.4681C244.342 52.4681 240.671 61.0121 237.895 61.9251C235.12 62.8361 234.063 43.8281 234.063 43.8281C233.9 54.8281 231.422 63.3481 227.335 75.3211C225.26 81.4071 226.387 87.3031 227.996 91.6441C236.915 99.2641 250.368 103.634 267.746 103.222C288.103 102.743 302.455 96.4721 310.104 79.5191C310.857 63.5111 300.988 54.4081 300.988 54.4081C300.988 54.4081 298.779 56.3991 295.83 59.6381Z" fill="#EFCAA6"/>
<path d="M242.49 18.5992C246.804 8.13825 258.364 4.47225 262.164 3.53125C253.369 4.47225 244.855 6.96925 237.643 10.4122C218.406 19.5942 211.342 47.4123 214.323 61.5583L223.136 58.5993C223.136 58.5993 229.21 57.8072 238.756 56.8972C238.526 48.0792 238.515 28.2323 242.49 18.5992Z" fill="#009A9A"/>
<path d="M303.712 14.6189C293.316 5.63994 279.664 2.54294 266.285 3.21294C269.028 3.35394 283.032 4.66594 289.601 17.0669C294.368 26.0569 295.188 43.3279 295.18 54.2469C302.497 54.3429 309.744 54.6619 316.558 55.3069C316.558 55.3069 322.06 30.4669 303.712 14.6189Z" fill="#009A9A"/>
<path d="M289.603 17.0649C283.033 4.66394 269.029 3.35094 266.286 3.21094C264.908 3.27894 263.532 3.38294 262.164 3.53094C258.364 4.47194 246.805 8.13794 242.49 18.5989C238.514 28.2319 238.526 48.0779 238.756 56.8969C252.766 55.5589 274.272 53.9689 295.182 54.2449C295.189 43.3259 294.369 26.0549 289.603 17.0649Z" fill="#006AB0"/>
<path d="M250.65 51.1104L281.607 50.3804C281.607 50.3804 283.56 29.3234 266.388 29.7324C249.211 30.1404 250.219 45.3764 250.65 51.1104Z" fill="#CC4509"/>
<path d="M249.358 75.2601C249.547 77.8031 248.791 79.9291 247.678 80.0091C246.567 80.0881 245.516 78.0961 245.328 75.5511C245.144 73.0111 245.896 70.8871 247.011 70.8071C248.129 70.7261 249.178 72.7151 249.358 75.2601Z" fill="#461A00"/>
<path d="M246.914 73.4948C246.908 74.2698 246.629 74.8928 246.293 74.8888C245.95 74.8848 245.682 74.2588 245.694 73.4838C245.698 72.7128 245.978 72.0888 246.319 72.0938C246.654 72.0968 246.924 72.7228 246.914 73.4948Z" fill="white"/>
<path d="M285.166 74.4162C285.355 76.9612 284.598 79.0862 283.488 79.1602C282.374 79.2452 281.323 77.2522 281.134 74.7082C280.952 72.1682 281.707 70.0432 282.818 69.9632C283.933 69.8842 284.982 71.8732 285.166 74.4162Z" fill="#461A00"/>
<path d="M282.722 72.6638C282.712 73.4338 282.439 74.0568 282.099 74.0528C281.759 74.0488 281.493 73.4218 281.5 72.6478C281.504 71.8768 281.785 71.2528 282.127 71.2578C282.464 71.2618 282.734 71.8888 282.722 72.6638Z" fill="white"/>
<path d="M247.447 64.7158C248.679 65.5468 249.61 66.7088 250.309 68.0118C249.66 65.1358 248.665 61.8848 245.167 62.1478C242.404 62.3568 240.387 64.8888 240.416 67.5208C241.77 64.9678 244.604 62.7948 247.447 64.7158Z" fill="#7D2D05"/>
<path d="M286.153 61.633C287.644 61.773 288.926 62.364 289.978 63.239C288.86 61.065 287.366 59.423 284.292 59.999C281.075 60.603 278.724 64.077 278.762 67.236C280.424 64.723 283.075 61.336 286.153 61.633Z" fill="#7D2D05"/>
<path d="M252.686 92.1584C252.686 92.1584 269.367 94.1594 279.901 89.6094C279.901 89.6094 278.208 98.3924 267.657 99.3424C257.107 100.302 252.716 93.4964 252.686 92.1584Z" fill="#EF795F"/>
<path d="M257.451 97.3903C259.846 98.7593 263.196 99.7493 267.655 99.3423C271.242 99.0193 273.792 97.7803 275.611 96.2983C270.438 92.9293 261.292 92.8083 257.451 97.3903Z" fill="#F6B1AF"/>
<path d="M263.446 86.4392C262.748 86.1922 262.131 85.7892 261.67 85.2772C261.165 84.7742 260.8 84.1472 260.718 83.3722C260.554 81.8432 261.577 80.9322 263.03 80.9522C263.602 80.9562 264.144 81.1322 264.668 81.3472C264.847 81.4192 264.987 81.5272 265.129 81.6312C265.065 81.0172 264.746 80.5532 264.28 80.2172C264.212 80.1812 264.164 80.1322 264.09 80.1052C263.385 79.8302 262.749 79.8142 262.019 79.9902C260.55 80.3412 259.803 81.7162 259.605 83.0972C259.123 86.4152 263.446 87.8982 266.086 86.8122C265.211 86.8552 264.334 86.7512 263.446 86.4392Z" fill="#E1B78C"/>
<path d="M225.352 75.702C224.994 74.704 224.407 73.865 223.332 73.627C222.406 73.419 221.461 73.718 220.872 74.465C220.641 74.76 220.5 75.153 220.419 75.516C220.362 75.783 220.331 76.032 220.323 76.306C220.308 76.602 220.459 76.586 220.499 76.762C220.488 76.717 220.435 76.758 220.429 76.785C220.424 76.809 220.422 76.832 220.421 76.861C220.412 76.922 220.494 76.888 220.509 76.848C220.718 76.205 221.033 75.05 221.883 74.975C222.502 74.915 222.99 75.115 223.444 75.527C223.467 75.55 223.493 75.584 223.52 75.606C223.41 75.986 223.326 76.374 223.188 76.752C223.008 77.247 222.445 78.386 221.796 78.362C221.748 78.362 221.65 78.462 221.716 78.501C222.291 78.868 223.094 78.015 223.459 77.626C223.734 77.327 224.034 76.88 224.198 76.413C224.784 77.227 225.286 78.259 225.35 79.064C225.368 79.272 225.641 79.1 225.673 78.989C226.025 77.935 225.718 76.724 225.352 75.702Z" fill="#E1B78C"/>
<path d="M244.963 82.806C245.088 84.248 242.371 85.646 238.904 85.934C235.437 86.221 232.526 85.294 232.41 83.844C232.288 82.406 234.999 80.996 238.469 80.717C241.934 80.426 244.85 81.363 244.963 82.806Z" fill="#F9CBC0"/>
<path d="M299.44 81.4603C299.572 82.9013 296.873 84.3243 293.407 84.6433C289.944 84.9633 287.023 84.0613 286.891 82.6143C286.759 81.1733 289.459 79.7443 292.923 79.4313C296.39 79.1113 299.313 80.0213 299.44 81.4603Z" fill="#F9CBC0"/>
<path d="M303.297 14.6316C292.902 5.65361 279.249 2.55861 265.869 3.22861C264.491 3.29361 263.116 3.40061 261.748 3.54861C252.955 4.48761 244.441 6.98761 237.228 10.4296C237.039 10.5216 236.854 10.6246 236.665 10.7206C255.068 2.28561 277.374 3.13661 285.358 17.8066C293.158 32.1406 289.994 51.5906 289.994 51.5906C281.744 51.3626 254.492 53.3536 254.492 53.3536C218.238 56.3246 213.91 61.5726 213.91 61.5726L222.723 58.6176C222.723 58.6176 228.794 57.8226 238.34 56.9126C252.35 55.5726 273.855 53.9886 294.772 54.2606C302.087 54.3606 309.329 54.6756 316.148 55.3236C316.148 55.3236 321.647 30.4806 303.297 14.6316Z" fill="#0046B0"/>
<defs>
<linearGradient id="paint0_linear_5779_18323" x1="211" y1="191" x2="64.881" y2="117.91" gradientUnits="userSpaceOnUse">
<stop stop-color="#0780B9"/>
<stop offset="1" stop-color="#4CC5FF"/>
</linearGradient>
</defs>
</svg>
