<svg width="108" height="124" viewBox="0 0 108 124" fill="none" xmlns="http://www.w3.org/2000/svg">
<path d="M87.639 19.4097L80.3555 30.3594L86.2374 34.2753L93.5209 23.3256L87.639 19.4097Z" fill="#29383A"/>
<path d="M85.8209 21.5529L92.0332 25.8902C93.0223 26.5811 94.3831 26.3389 95.0737 25.3494L98.141 20.9519C98.8316 19.9624 98.5889 18.6009 97.6005 17.9101L91.3882 13.5728C90.3991 12.8826 89.0376 13.1248 88.3477 14.1143L85.2797 18.5118C84.5898 19.5006 84.8318 20.8628 85.8209 21.5529Z" fill="#3A4D51"/>
<path d="M53.6228 19.8323C50.8509 19.8323 48.6035 19.1342 48.6035 18.2729V6.89537C48.6035 6.0341 50.8509 5.33594 53.6228 5.33594C56.3948 5.33594 58.6422 6.0341 58.6422 6.89537V18.273C58.6422 19.1342 56.3948 19.8323 53.6228 19.8323Z" fill="#29383A"/>
<path d="M19.6046 19.4122L13.7227 23.3281L21.0062 34.2778L26.8881 30.3619L19.6046 19.4122Z" fill="#29383A"/>
<path d="M53.6207 123.998C83.2346 123.998 107.241 99.9811 107.241 70.3545C107.241 40.728 83.2346 16.7109 53.6207 16.7109C24.0068 16.7109 0 40.728 0 70.3545C0 99.9811 24.0068 123.998 53.6207 123.998Z" fill="#E85454"/>
<path d="M53.6236 113.859C77.6419 113.859 97.1125 94.3796 97.1125 70.3512C97.1125 46.3227 77.6419 26.8438 53.6236 26.8438C29.6054 26.8438 10.1348 46.3227 10.1348 70.3512C10.1348 94.3796 29.6054 113.859 53.6236 113.859Z" fill="white"/>
<path d="M53.9851 115.829C41.9525 115.829 30.6399 111.141 22.1317 102.629C13.6234 94.1172 8.9375 82.7999 8.9375 70.7621C8.9375 58.7243 13.6233 47.407 22.1317 38.895C30.6399 30.3831 41.9524 25.6953 53.9851 25.6953C66.0179 25.6953 77.3303 30.3831 85.8385 38.8951C94.3469 47.4071 99.0327 58.7244 99.0327 70.7622C99.0327 82.8 94.347 94.1172 85.8385 102.629C77.3303 111.141 66.0177 115.829 53.9851 115.829ZM53.9851 29.6688C43.0134 29.6688 32.6983 33.9432 24.9401 41.7047C17.1819 49.4663 12.9093 59.7857 12.9093 70.7622C12.9093 81.7386 17.1818 92.0581 24.9401 99.8196C32.6983 107.581 43.0134 111.856 53.9851 111.856C64.9569 111.856 75.2719 107.581 83.0301 99.8196C90.7883 92.0581 95.061 81.7386 95.061 70.7622C95.061 59.7857 90.7884 49.4663 83.0301 41.7047C75.2719 33.9432 64.9569 29.6688 53.9851 29.6688Z" fill="#BA4949"/>
<path d="M53.6252 39.021C52.7643 39.021 52.0664 38.3229 52.0664 37.4616V34.1454C52.0664 33.2841 52.7643 32.5859 53.6252 32.5859C54.486 32.5859 55.184 33.2841 55.184 34.1454V37.4616C55.184 38.3229 54.486 39.021 53.6252 39.021Z" fill="#3A4D51" fill-opacity="0.4"/>
<path d="M30.3736 48.6435C29.9746 48.6435 29.5758 48.4913 29.2713 48.1867L26.9273 45.8418C26.3185 45.2328 26.3185 44.2455 26.9273 43.6365C27.5359 43.0275 28.5229 43.0274 29.1317 43.6364L31.4758 45.9813C32.0845 46.5903 32.0845 47.5777 31.4758 48.1867C31.1715 48.4912 30.7725 48.6435 30.3736 48.6435Z" fill="#3A4D51" fill-opacity="0.4"/>
<path d="M20.7446 71.9079H17.4299C16.569 71.9079 15.8711 71.2098 15.8711 70.3485C15.8711 69.4872 16.569 68.7891 17.4299 68.7891H20.7446C21.6054 68.7891 22.3034 69.4872 22.3034 70.3485C22.3034 71.2098 21.6054 71.9079 20.7446 71.9079Z" fill="#3A4D51" fill-opacity="0.4"/>
<path d="M28.0295 97.5183C27.6305 97.5183 27.2317 97.366 26.9273 97.0616C26.3185 96.4524 26.3185 95.4652 26.9273 94.8562L29.2713 92.5113C29.8803 91.9024 30.8671 91.9026 31.4758 92.5113C32.0845 93.1204 32.0845 94.1077 31.4758 94.7167L29.1317 97.0616C28.8273 97.366 28.4283 97.5183 28.0295 97.5183Z" fill="#3A4D51" fill-opacity="0.4"/>
<path d="M53.6252 108.123C52.7643 108.123 52.0664 107.424 52.0664 106.563V103.247C52.0664 102.386 52.7643 101.688 53.6252 101.688C54.486 101.688 55.184 102.386 55.184 103.247V106.563C55.184 107.424 54.486 108.123 53.6252 108.123Z" fill="#3A4D51" fill-opacity="0.4"/>
<path d="M79.2173 97.5184C78.8183 97.5184 78.4195 97.3661 78.1151 97.0617L75.771 94.7168C75.1623 94.1077 75.1623 93.1205 75.771 92.5113C76.3796 91.9025 77.3666 91.9025 77.9755 92.5113L80.3195 94.8562C80.9283 95.4653 80.9283 96.4525 80.3195 97.0617C80.0152 97.3661 79.6163 97.5184 79.2173 97.5184Z" fill="#3A4D51" fill-opacity="0.4"/>
<path d="M89.8188 71.9079H86.5041C85.6432 71.9079 84.9453 71.2098 84.9453 70.3485C84.9453 69.4872 85.6432 68.7891 86.5041 68.7891H89.8188C90.6796 68.7891 91.3776 69.4872 91.3776 70.3485C91.3776 71.2098 90.6796 71.9079 89.8188 71.9079Z" fill="#3A4D51" fill-opacity="0.4"/>
<path d="M76.8733 48.6434C76.4743 48.6434 76.0755 48.4912 75.771 48.1866C75.1623 47.5776 75.1623 46.5903 75.771 45.9813L78.1151 43.6364C78.7242 43.0275 79.7109 43.0274 80.3195 43.6364C80.9283 44.2454 80.9283 45.2328 80.3195 45.8418L77.9755 48.1867C77.671 48.4911 77.272 48.6434 76.8733 48.6434Z" fill="#3A4D51" fill-opacity="0.4"/>
<path d="M60.9902 9.28545H46.2599C43.6971 9.28545 41.6191 7.20686 41.6191 4.64272C41.6191 2.07859 43.6971 0 46.2599 0H60.9902C63.5531 0 65.631 2.07859 65.631 4.64272C65.631 7.20686 63.5531 9.28545 60.9902 9.28545Z" fill="#3A4D51"/>
<path d="M21.4243 21.5529L15.2121 25.8902C14.223 26.5811 12.8621 26.3389 12.1716 25.3494L9.10422 20.9519C8.41367 19.9624 8.65641 18.6009 9.6448 17.9101L15.857 13.5728C16.8461 12.8826 18.2077 13.1248 18.8975 14.1143L21.9656 18.5118C22.6555 19.5006 22.4134 20.8628 21.4243 21.5529Z" fill="#3A4D51"/>
</svg>
