<svg width="249" height="44" viewBox="0 0 249 44" fill="none" xmlns="http://www.w3.org/2000/svg">
<mask id="mask0_5537_17800" style="mask-type:luminance" maskUnits="userSpaceOnUse" x="0" y="0" width="249" height="44">
<path d="M248.064 20.377C247.546 20.377 247.127 20.6141 247.127 20.9062V22V23.0938C247.127 23.386 247.546 23.623 248.064 23.623C248.581 23.623 249 23.386 249 23.0938V22V20.9062C249 20.6141 248.581 20.377 248.064 20.377ZM244.678 19.3147C244.161 19.3147 243.742 19.5516 243.742 19.8439V22V24.1563C243.742 24.4484 244.161 24.6855 244.678 24.6855C245.196 24.6855 245.615 24.4484 245.615 24.1563V22V19.8439C245.615 19.5516 245.196 19.3147 244.678 19.3147ZM241.293 18.0634C240.776 18.0634 240.356 18.3005 240.356 18.5927V22V25.4074C240.356 25.6995 240.776 25.9366 241.293 25.9366C241.81 25.9366 242.229 25.6995 242.229 25.4074V22V18.5927C242.229 18.3005 241.81 18.0634 241.293 18.0634ZM237.908 19.7672C237.39 19.7672 236.971 20.0041 236.971 20.2964V22V23.7036C236.971 23.9959 237.39 24.2328 237.908 24.2328C238.425 24.2328 238.844 23.9959 238.844 23.7036V22V20.2964C238.844 20.0041 238.425 19.7672 237.908 19.7672ZM234.522 13.8029C234.005 13.8029 233.586 14.0398 233.586 14.3323V22V29.6679C233.586 29.9602 234.005 30.1971 234.522 30.1971C235.04 30.1971 235.459 29.9602 235.459 29.6679V22V14.3323C235.459 14.0398 235.04 13.8029 234.522 13.8029ZM231.137 11.629C230.62 11.629 230.2 11.8661 230.2 12.1584V22V31.8416C230.2 32.1339 230.62 32.3708 231.137 32.3708C231.654 32.3708 232.073 32.1339 232.073 31.8416V22V12.1584C232.073 11.8661 231.654 11.629 231.137 11.629ZM227.752 16.2744C227.235 16.2744 226.815 16.5113 226.815 16.8036V22V27.1966C226.815 27.4887 227.235 27.7258 227.752 27.7258C228.269 27.7258 228.688 27.4887 228.688 27.1966V22V16.8036C228.688 16.5113 228.269 16.2744 227.752 16.2744ZM224.366 14.3763C223.849 14.3763 223.43 14.6132 223.43 14.9055V22V29.0947C223.43 29.3869 223.849 29.6239 224.366 29.6239C224.884 29.6239 225.303 29.3869 225.303 29.0947V22V14.9055C225.303 14.6132 224.884 14.3763 224.366 14.3763ZM220.981 11.9966C220.464 11.9966 220.045 12.2335 220.045 12.5258V22V31.4742C220.045 31.7665 220.464 32.0034 220.981 32.0034C221.499 32.0034 221.918 31.7665 221.918 31.4742V22V12.5258C221.918 12.2335 221.499 11.9966 220.981 11.9966ZM217.596 9.56223C217.079 9.56223 216.659 9.79916 216.659 10.0914V22V33.9086C216.659 34.201 217.079 34.4378 217.596 34.4378C218.113 34.4378 218.532 34.201 218.532 33.9086V22V10.0914C218.532 9.79916 218.113 9.56223 217.596 9.56223ZM214.211 11.8267C213.694 11.8267 213.274 12.0636 213.274 12.3559V22V31.6441C213.274 31.9364 213.694 32.1733 214.211 32.1733C214.728 32.1733 215.147 31.9364 215.147 31.6441V22V12.3559C215.147 12.0636 214.728 11.8267 214.211 11.8267ZM210.825 14.7588C210.308 14.7588 209.889 14.9956 209.889 15.288V22V28.7123C209.889 29.0044 210.308 29.2415 210.825 29.2415C211.343 29.2415 211.761 29.0044 211.761 28.7123V22V15.288C211.761 14.9956 211.343 14.7588 210.825 14.7588ZM207.44 16.55C206.923 16.55 206.503 16.7869 206.503 17.0792V22V26.921C206.503 27.2131 206.923 27.4502 207.44 27.4502C207.957 27.4502 208.376 27.2131 208.376 26.921V22V17.0792C208.376 16.7869 207.957 16.55 207.44 16.55ZM204.055 17.6369C203.538 17.6369 203.118 17.8738 203.118 18.1661V22V25.834C203.118 26.1262 203.538 26.3631 204.055 26.3631C204.572 26.3631 204.991 26.1262 204.991 25.834V22V18.1661C204.991 17.8738 204.572 17.6369 204.055 17.6369ZM200.669 19.554C200.152 19.554 199.733 19.7908 199.733 20.0832V22V23.9171C199.733 24.2092 200.152 24.4463 200.669 24.4463C201.186 24.4463 201.606 24.2092 201.606 23.9171V22V20.0832C201.606 19.7908 201.186 19.554 200.669 19.554ZM197.284 20.2404C196.767 20.2404 196.348 20.4773 196.348 20.7696V22V23.2306C196.348 23.5228 196.767 23.7599 197.284 23.7599C197.801 23.7599 198.221 23.5228 198.221 23.2306V22V20.7696C198.221 20.4773 197.801 20.2404 197.284 20.2404ZM193.899 19.0105C193.381 19.0105 192.962 19.2473 192.962 19.5397V22V24.4605C192.962 24.7528 193.381 24.9897 193.899 24.9897C194.416 24.9897 194.835 24.7528 194.835 24.4605V22V19.5397C194.835 19.2473 194.416 19.0105 193.899 19.0105ZM190.514 18.4981C189.996 18.4981 189.577 18.735 189.577 19.0273V22V24.9727C189.577 25.2651 189.996 25.5021 190.514 25.5021C191.031 25.5021 191.45 25.2651 191.45 24.9727V22V19.0273C191.45 18.735 191.031 18.4981 190.514 18.4981ZM187.128 17.0959C186.611 17.0959 186.192 17.3328 186.192 17.6251V22V26.3749C186.192 26.6674 186.611 26.9043 187.128 26.9043C187.645 26.9043 188.064 26.6674 188.064 26.3749V22V17.6251C188.064 17.3328 187.645 17.0959 187.128 17.0959ZM183.743 19.0105C183.226 19.0105 182.806 19.2473 182.806 19.5397V22V24.4605C182.806 24.7528 183.226 24.9897 183.743 24.9897C184.26 24.9897 184.679 24.7528 184.679 24.4605V22V19.5397C184.679 19.2473 184.26 19.0105 183.743 19.0105ZM180.358 17.9235C179.841 17.9235 179.421 18.1604 179.421 18.4528V22V25.5473C179.421 25.8396 179.841 26.0765 180.358 26.0765C180.875 26.0765 181.294 25.8396 181.294 25.5473V22V18.4528C181.294 18.1604 180.875 17.9235 180.358 17.9235ZM176.972 16.0758C176.455 16.0758 176.036 16.3129 176.036 16.6052V22V27.395C176.036 27.6871 176.455 27.9242 176.972 27.9242C177.489 27.9242 177.909 27.6871 177.909 27.395V22V16.6052C177.909 16.3129 177.489 16.0758 176.972 16.0758ZM173.587 18.1146C173.07 18.1146 172.651 18.3516 172.651 18.6438V22V25.3562C172.651 25.6483 173.07 25.8854 173.587 25.8854C174.104 25.8854 174.524 25.6483 174.524 25.3562V22V18.6438C174.524 18.3516 174.104 18.1146 173.587 18.1146ZM170.202 13.0165C169.684 13.0165 169.265 13.2534 169.265 13.5457V22V30.4545C169.265 30.7467 169.684 30.9837 170.202 30.9837C170.719 30.9837 171.138 30.7467 171.138 30.4545V22V13.5457C171.138 13.2534 170.719 13.0165 170.202 13.0165ZM166.817 15.2687C166.299 15.2687 165.88 15.5056 165.88 15.7979V22V28.2021C165.88 28.4946 166.299 28.7315 166.817 28.7315C167.334 28.7315 167.753 28.4946 167.753 28.2021V22V15.7979C167.753 15.5056 167.334 15.2687 166.817 15.2687ZM163.431 13.2272C162.914 13.2272 162.495 13.4641 162.495 13.7565V22V30.2436C162.495 30.5359 162.914 30.773 163.431 30.773C163.948 30.773 164.367 30.5359 164.367 30.2436V22V13.7565C164.367 13.4641 163.948 13.2272 163.431 13.2272ZM160.046 11.0778C159.529 11.0778 159.109 11.3148 159.109 11.6072V22V32.393C159.109 32.6852 159.529 32.9222 160.046 32.9222C160.563 32.9222 160.982 32.6852 160.982 32.393V22V11.6072C160.982 11.3148 160.563 11.0778 160.046 11.0778ZM156.66 8.63967C156.143 8.63967 155.724 8.87661 155.724 9.16888V22V34.8311C155.724 35.1236 156.143 35.3605 156.66 35.3605C157.177 35.3605 157.597 35.1236 157.597 34.8311V22V9.16888C157.597 8.87661 157.177 8.63967 156.66 8.63967ZM153.275 5.11262C152.758 5.11262 152.339 5.3497 152.339 5.64182V22V38.358C152.339 38.6503 152.758 38.8872 153.275 38.8872C153.792 38.8872 154.212 38.6503 154.212 38.358V22V5.64182C154.212 5.3497 153.792 5.11262 153.275 5.11262ZM149.89 0C149.373 0 148.954 0.236938 148.954 0.529366V22V43.4708C148.954 43.7631 149.373 44 149.89 44C150.407 44 150.826 43.7631 150.826 43.4708V22V0.529366C150.826 0.236938 150.407 0 149.89 0ZM146.505 1.82422C145.987 1.82422 145.568 2.06115 145.568 2.35342V22V41.6467C145.568 41.9389 145.987 42.1759 146.505 42.1759C147.022 42.1759 147.441 41.9389 147.441 41.6467V22V2.35342C147.441 2.06115 147.022 1.82422 146.505 1.82422ZM143.119 4.20719C142.602 4.20719 142.183 4.44412 142.183 4.73639V22V39.2638C142.183 39.5559 142.602 39.793 143.119 39.793C143.637 39.793 144.056 39.5559 144.056 39.2638V22V4.73639C144.056 4.44412 143.637 4.20719 143.119 4.20719ZM139.734 8.17525C139.217 8.17525 138.797 8.41218 138.797 8.70445V22V35.2956C138.797 35.5878 139.217 35.8249 139.734 35.8249C140.251 35.8249 140.67 35.5878 140.67 35.2956V22V8.70445C140.67 8.41218 140.251 8.17525 139.734 8.17525ZM136.349 11.629C135.831 11.629 135.412 11.8661 135.412 12.1584V22V31.8416C135.412 32.1339 135.831 32.3708 136.349 32.3708C136.866 32.3708 137.285 32.1339 137.285 31.8416V22V12.1584C137.285 11.8661 136.866 11.629 136.349 11.629ZM132.963 13.0165C132.446 13.0165 132.027 13.2534 132.027 13.5457V22V30.4545C132.027 30.7467 132.446 30.9837 132.963 30.9837C133.48 30.9837 133.9 30.7467 133.9 30.4545V22V13.5457C133.9 13.2534 133.48 13.0165 132.963 13.0165ZM129.578 11.4651C129.061 11.4651 128.642 11.702 128.642 11.9944V22V32.0057C128.642 32.2979 129.061 32.5349 129.578 32.5349C130.095 32.5349 130.515 32.2979 130.515 32.0057V22V11.9944C130.515 11.702 130.095 11.4651 129.578 11.4651ZM126.193 9.56223C125.675 9.56223 125.256 9.79916 125.256 10.0914V22V33.9086C125.256 34.201 125.675 34.4378 126.193 34.4378C126.71 34.4378 127.129 34.201 127.129 33.9086V22V10.0914C127.129 9.79916 126.71 9.56223 126.193 9.56223ZM122.808 7.44779C122.29 7.44779 121.871 7.68457 121.871 7.97699V22V36.023C121.871 36.3153 122.29 36.5524 122.808 36.5524C123.325 36.5524 123.744 36.3153 123.744 36.023V22V7.97699C123.744 7.68457 123.325 7.44779 122.808 7.44779ZM119.422 11.4651C118.905 11.4651 118.486 11.702 118.486 11.9944V22V32.0057C118.486 32.2979 118.905 32.5349 119.422 32.5349C119.94 32.5349 120.359 32.2979 120.359 32.0057V22V11.9944C120.359 11.702 119.94 11.4651 119.422 11.4651ZM116.037 13.2918C115.519 13.2918 115.101 13.5287 115.101 13.821V22V30.1792C115.101 30.4714 115.519 30.7084 116.037 30.7084C116.554 30.7084 116.973 30.4714 116.973 30.1792V22V13.821C116.973 13.5287 116.554 13.2918 116.037 13.2918ZM112.651 14.7588C112.134 14.7588 111.715 14.9956 111.715 15.288V22V28.7123C111.715 29.0044 112.134 29.2415 112.651 29.2415C113.169 29.2415 113.588 29.0044 113.588 28.7123V22V15.288C113.588 14.9956 113.169 14.7588 112.651 14.7588ZM109.266 16.4681C108.749 16.4681 108.33 16.7049 108.33 16.9973V22V27.0029C108.33 27.2951 108.749 27.5322 109.266 27.5322C109.783 27.5322 110.202 27.2951 110.202 27.0029V22V16.9973C110.202 16.7049 109.783 16.4681 109.266 16.4681ZM105.881 14.4593C105.364 14.4593 104.944 14.6962 104.944 14.9885V22V29.0115C104.944 29.3038 105.364 29.5407 105.881 29.5407C106.398 29.5407 106.817 29.3038 106.817 29.0115V22V14.9885C106.817 14.6962 106.398 14.4593 105.881 14.4593ZM102.495 13.5797C101.978 13.5797 101.559 13.8164 101.559 14.1089V22V29.8913C101.559 30.1836 101.978 30.4205 102.495 30.4205C103.013 30.4205 103.432 30.1836 103.432 29.8913V22V14.1089C103.432 13.8164 103.013 13.5797 102.495 13.5797ZM99.1102 11.629C98.5932 11.629 98.174 11.8661 98.174 12.1584V22V31.8416C98.174 32.1339 98.5932 32.3708 99.1102 32.3708C99.6276 32.3708 100.047 32.1339 100.047 31.8416V22V12.1584C100.047 11.8661 99.6276 11.629 99.1102 11.629ZM95.725 15.5164C95.2079 15.5164 94.7887 15.7535 94.7887 16.0456V22V27.9544C94.7887 28.2466 95.2079 28.4836 95.725 28.4836C96.2423 28.4836 96.6617 28.2466 96.6617 27.9544V22V16.0456C96.6617 15.7535 96.2423 15.5164 95.725 15.5164ZM92.3397 9.03366C91.8224 9.03366 91.4032 9.27043 91.4032 9.56286V22V34.4373C91.4032 34.7296 91.8224 34.9665 92.3397 34.9665C92.8568 34.9665 93.2762 34.7296 93.2762 34.4373V22V9.56286C93.2762 9.27043 92.8568 9.03366 92.3397 9.03366ZM88.9545 13.2918C88.4374 13.2918 88.018 13.5287 88.018 13.821V22V30.1792C88.018 30.4714 88.4374 30.7084 88.9545 30.7084C89.4718 30.7084 89.891 30.4714 89.891 30.1792V22V13.821C89.891 13.5287 89.4718 13.2918 88.9545 13.2918ZM85.5689 10.7354C85.0519 10.7354 84.6327 10.9725 84.6327 11.2646V22V32.7352C84.6327 33.0277 85.0519 33.2646 85.5689 33.2646C86.0863 33.2646 86.5054 33.0277 86.5054 32.7352V22V11.2646C86.5054 10.9725 86.0863 10.7354 85.5689 10.7354ZM82.184 9.56223C81.6666 9.56223 81.2475 9.79916 81.2475 10.0914V22V33.9086C81.2475 34.201 81.6666 34.4378 82.184 34.4378C82.701 34.4378 83.1205 34.201 83.1205 33.9086V22V10.0914C83.1205 9.79916 82.701 9.56223 82.184 9.56223ZM78.7984 6.14397C78.2814 6.14397 77.8619 6.38074 77.8619 6.67317V22V37.327C77.8619 37.6193 78.2814 37.8563 78.7984 37.8563C79.3155 37.8563 79.7349 37.6193 79.7349 37.327V22V6.67317C79.7349 6.38074 79.3155 6.14397 78.7984 6.14397ZM75.4132 11.0104C74.8961 11.0104 74.4767 11.2473 74.4767 11.5396V22V32.4604C74.4767 32.7529 74.8961 32.9898 75.4132 32.9898C75.9305 32.9898 76.3497 32.7529 76.3497 32.4604V22V11.5396C76.3497 11.2473 75.9305 11.0104 75.4132 11.0104ZM72.0279 13.2272C71.5106 13.2272 71.0912 13.4641 71.0912 13.7565V22V30.2436C71.0912 30.5359 71.5106 30.773 72.0279 30.773C72.545 30.773 72.9641 30.5359 72.9641 30.2436V22V13.7565C72.9641 13.4641 72.545 13.2272 72.0279 13.2272ZM68.6427 14.3763C68.1253 14.3763 67.7062 14.6132 67.7062 14.9055V22V29.0947C67.7062 29.3869 68.1253 29.6239 68.6427 29.6239C69.1598 29.6239 69.5789 29.3869 69.5789 29.0947V22V14.9055C69.5789 14.6132 69.1598 14.3763 68.6427 14.3763ZM65.2574 16.6806C64.7404 16.6806 64.3209 16.9177 64.3209 17.2098V22V26.7902C64.3209 27.0824 64.7404 27.3194 65.2574 27.3194C65.7745 27.3194 66.1939 27.0824 66.1939 26.7902V22V17.2098C66.1939 16.9177 65.7745 16.6806 65.2574 16.6806ZM61.8719 17.155C61.3548 17.155 60.9354 17.3919 60.9354 17.6842V22V26.316C60.9354 26.6083 61.3548 26.8453 61.8719 26.8453C62.3892 26.8453 62.8084 26.6083 62.8084 26.316V22V17.6842C62.8084 17.3919 62.3892 17.155 61.8719 17.155ZM58.4869 16.4681C57.9696 16.4681 57.5504 16.7049 57.5504 16.9973V22V27.0029C57.5504 27.2951 57.9696 27.5322 58.4869 27.5322C59.004 27.5322 59.4232 27.2951 59.4232 27.0029V22V16.9973C59.4232 16.7049 59.004 16.4681 58.4869 16.4681ZM55.1014 19.2833C54.5841 19.2833 54.1649 19.5203 54.1649 19.8125V22V24.1875C54.1649 24.4798 54.5841 24.7168 55.1014 24.7168C55.6185 24.7168 56.0376 24.4798 56.0376 24.1875V22V19.8125C56.0376 19.5203 55.6185 19.2833 55.1014 19.2833ZM51.7162 20.377C51.1988 20.377 50.7797 20.6141 50.7797 20.9062V22V23.0938C50.7797 23.386 51.1988 23.623 51.7162 23.623C52.2335 23.623 52.6527 23.386 52.6527 23.0938V22V20.9062C52.6527 20.6141 52.2335 20.377 51.7162 20.377ZM48.3306 19.3128C47.8136 19.3128 47.3941 19.5497 47.3941 19.8422V22V24.158C47.3941 24.4503 47.8136 24.6872 48.3306 24.6872C48.848 24.6872 49.2671 24.4503 49.2671 24.158V22V19.8422C49.2671 19.5497 48.848 19.3128 48.3306 19.3128ZM44.9457 20.2047C44.4283 20.2047 44.0092 20.4416 44.0092 20.7339V22V23.2661C44.0092 23.5584 44.4283 23.7953 44.9457 23.7953C45.4627 23.7953 45.8819 23.5584 45.8819 23.2661V22V20.7339C45.8819 20.4416 45.4627 20.2047 44.9457 20.2047ZM41.5604 19.0759C41.0431 19.0759 40.6239 19.3127 40.6239 19.6051V22V24.3952C40.6239 24.6874 41.0431 24.9244 41.5604 24.9244C42.0775 24.9244 42.4966 24.6874 42.4966 24.3952V22V19.6051C42.4966 19.3127 42.0775 19.0759 41.5604 19.0759ZM38.1749 17.155C37.6575 17.155 37.2384 17.3919 37.2384 17.6842V22V26.316C37.2384 26.6083 37.6575 26.8453 38.1749 26.8453C38.6922 26.8453 39.1114 26.6083 39.1114 26.316V22V17.6842C39.1114 17.3919 38.6922 17.155 38.1749 17.155ZM34.7896 19.3128C34.2723 19.3128 33.8534 19.5497 33.8534 19.8422V22V24.158C33.8534 24.4503 34.2723 24.6872 34.7896 24.6872C35.307 24.6872 35.7261 24.4503 35.7261 24.158V22V19.8422C35.7261 19.5497 35.307 19.3128 34.7896 19.3128ZM31.4041 20.377C30.887 20.377 30.4679 20.6141 30.4679 20.9062V22V23.0938C30.4679 23.386 30.887 23.623 31.4041 23.623C31.9214 23.623 32.3406 23.386 32.3406 23.0938V22V20.9062C32.3406 20.6141 31.9214 20.377 31.4041 20.377ZM28.0191 18.4935C27.5018 18.4935 27.0826 18.7305 27.0826 19.0229V22V24.9773C27.0826 25.2694 27.5018 25.5065 28.0191 25.5065C28.5362 25.5065 28.9553 25.2694 28.9553 24.9773V22V19.0229C28.9553 18.7305 28.5362 18.4935 28.0191 18.4935ZM24.6336 17.349C24.1162 17.349 23.6971 17.5859 23.6971 17.8782V22V26.1218C23.6971 26.4141 24.1162 26.651 24.6336 26.651C25.1509 26.651 25.5701 26.4141 25.5701 26.1218V22V17.8782C25.5701 17.5859 25.1509 17.349 24.6336 17.349ZM21.2483 18.4935C20.7313 18.4935 20.3121 18.7305 20.3121 19.0229V22V24.9773C20.3121 25.2694 20.7313 25.5065 21.2483 25.5065C21.7657 25.5065 22.1848 25.2694 22.1848 24.9773V22V19.0229C22.1848 18.7305 21.7657 18.4935 21.2483 18.4935ZM17.8628 20.2733C17.3457 20.2733 16.9266 20.5102 16.9266 20.8025V22V23.1975C16.9266 23.4898 17.3457 23.7269 17.8628 23.7269C18.3801 23.7269 18.7993 23.4898 18.7993 23.1975V22V20.8025C18.7993 20.5102 18.3801 20.2733 17.8628 20.2733ZM14.4778 16.9125C13.9605 16.9125 13.5413 17.1496 13.5413 17.4419V22V26.5583C13.5413 26.8505 13.9605 27.0876 14.4778 27.0876C14.9949 27.0876 15.4143 26.8505 15.4143 26.5583V22V17.4419C15.4143 17.1496 14.9949 16.9125 14.4778 16.9125ZM11.0926 17.882C10.5752 17.882 10.1561 18.1189 10.1561 18.4112V22V25.5888C10.1561 25.8813 10.5752 26.1182 11.0926 26.1182C11.6097 26.1182 12.0291 25.8813 12.0291 25.5888V22V18.4112C12.0291 18.1189 11.6097 17.882 11.0926 17.882ZM7.70708 19.3169C7.18994 19.3169 6.77064 19.554 6.77064 19.8461V22V24.1539C6.77064 24.4463 7.18994 24.6833 7.70708 24.6833C8.22426 24.6833 8.64353 24.4463 8.64353 24.1539V22V19.8461C8.64353 19.554 8.22426 19.3169 7.70708 19.3169ZM0.936555 20.377C0.419269 20.377 0 20.6141 0 20.9062V22V23.0938C0 23.386 0.419269 23.623 0.936555 23.623C1.4537 23.623 1.873 23.386 1.873 23.0938V22V20.9062C1.873 20.6141 1.4537 20.377 0.936555 20.377ZM5.25825 20.9062V23.0938C5.25825 23.386 4.8392 23.623 4.32192 23.623C3.80477 23.623 3.38547 23.386 3.38547 23.0938V22V20.9062C3.38547 20.6141 3.80477 20.377 4.32192 20.377C4.8392 20.377 5.25825 20.6141 5.25825 20.9062Z" fill="white"/>
</mask>
<g mask="url(#mask0_5537_17800)">
<path d="M248.064 20.377C247.546 20.377 247.127 20.6141 247.127 20.9062V22V23.0938C247.127 23.386 247.546 23.623 248.064 23.623C248.581 23.623 249 23.386 249 23.0938V22V20.9062C249 20.6141 248.581 20.377 248.064 20.377ZM244.678 19.3147C244.161 19.3147 243.742 19.5516 243.742 19.8439V22V24.1563C243.742 24.4484 244.161 24.6855 244.678 24.6855C245.196 24.6855 245.615 24.4484 245.615 24.1563V22V19.8439C245.615 19.5516 245.196 19.3147 244.678 19.3147ZM241.293 18.0634C240.776 18.0634 240.356 18.3005 240.356 18.5927V22V25.4074C240.356 25.6995 240.776 25.9366 241.293 25.9366C241.81 25.9366 242.229 25.6995 242.229 25.4074V22V18.5927C242.229 18.3005 241.81 18.0634 241.293 18.0634ZM237.908 19.7672C237.39 19.7672 236.971 20.0041 236.971 20.2964V22V23.7036C236.971 23.9959 237.39 24.2328 237.908 24.2328C238.425 24.2328 238.844 23.9959 238.844 23.7036V22V20.2964C238.844 20.0041 238.425 19.7672 237.908 19.7672ZM234.522 13.8029C234.005 13.8029 233.586 14.0398 233.586 14.3323V22V29.6679C233.586 29.9602 234.005 30.1971 234.522 30.1971C235.04 30.1971 235.459 29.9602 235.459 29.6679V22V14.3323C235.459 14.0398 235.04 13.8029 234.522 13.8029ZM231.137 11.629C230.62 11.629 230.2 11.8661 230.2 12.1584V22V31.8416C230.2 32.1339 230.62 32.3708 231.137 32.3708C231.654 32.3708 232.073 32.1339 232.073 31.8416V22V12.1584C232.073 11.8661 231.654 11.629 231.137 11.629ZM227.752 16.2744C227.235 16.2744 226.815 16.5113 226.815 16.8036V22V27.1966C226.815 27.4887 227.235 27.7258 227.752 27.7258C228.269 27.7258 228.688 27.4887 228.688 27.1966V22V16.8036C228.688 16.5113 228.269 16.2744 227.752 16.2744ZM224.366 14.3763C223.849 14.3763 223.43 14.6132 223.43 14.9055V22V29.0947C223.43 29.3869 223.849 29.6239 224.366 29.6239C224.884 29.6239 225.303 29.3869 225.303 29.0947V22V14.9055C225.303 14.6132 224.884 14.3763 224.366 14.3763ZM220.981 11.9966C220.464 11.9966 220.045 12.2335 220.045 12.5258V22V31.4742C220.045 31.7665 220.464 32.0034 220.981 32.0034C221.499 32.0034 221.918 31.7665 221.918 31.4742V22V12.5258C221.918 12.2335 221.499 11.9966 220.981 11.9966ZM217.596 9.56223C217.079 9.56223 216.659 9.79916 216.659 10.0914V22V33.9086C216.659 34.201 217.079 34.4378 217.596 34.4378C218.113 34.4378 218.532 34.201 218.532 33.9086V22V10.0914C218.532 9.79916 218.113 9.56223 217.596 9.56223ZM214.211 11.8267C213.694 11.8267 213.274 12.0636 213.274 12.3559V22V31.6441C213.274 31.9364 213.694 32.1733 214.211 32.1733C214.728 32.1733 215.147 31.9364 215.147 31.6441V22V12.3559C215.147 12.0636 214.728 11.8267 214.211 11.8267ZM210.825 14.7588C210.308 14.7588 209.889 14.9956 209.889 15.288V22V28.7123C209.889 29.0044 210.308 29.2415 210.825 29.2415C211.343 29.2415 211.761 29.0044 211.761 28.7123V22V15.288C211.761 14.9956 211.343 14.7588 210.825 14.7588ZM207.44 16.55C206.923 16.55 206.503 16.7869 206.503 17.0792V22V26.921C206.503 27.2131 206.923 27.4502 207.44 27.4502C207.957 27.4502 208.376 27.2131 208.376 26.921V22V17.0792C208.376 16.7869 207.957 16.55 207.44 16.55ZM204.055 17.6369C203.538 17.6369 203.118 17.8738 203.118 18.1661V22V25.834C203.118 26.1262 203.538 26.3632 204.055 26.3632C204.572 26.3632 204.991 26.1262 204.991 25.834V22V18.1661C204.991 17.8738 204.572 17.6369 204.055 17.6369ZM200.669 19.554C200.152 19.554 199.733 19.7908 199.733 20.0832V22V23.9171C199.733 24.2092 200.152 24.4463 200.669 24.4463C201.186 24.4463 201.606 24.2092 201.606 23.9171V22V20.0832C201.606 19.7908 201.186 19.554 200.669 19.554ZM197.284 20.2404C196.767 20.2404 196.348 20.4773 196.348 20.7696V22V23.2306C196.348 23.5228 196.767 23.7599 197.284 23.7599C197.801 23.7599 198.221 23.5228 198.221 23.2306V22V20.7696C198.221 20.4773 197.801 20.2404 197.284 20.2404ZM193.899 19.0105C193.381 19.0105 192.962 19.2473 192.962 19.5397V22V24.4605C192.962 24.7528 193.381 24.9897 193.899 24.9897C194.416 24.9897 194.835 24.7528 194.835 24.4605V22V19.5397C194.835 19.2473 194.416 19.0105 193.899 19.0105ZM190.514 18.4981C189.996 18.4981 189.577 18.735 189.577 19.0273V22V24.9727C189.577 25.2651 189.996 25.5021 190.514 25.5021C191.031 25.5021 191.45 25.2651 191.45 24.9727V22V19.0273C191.45 18.735 191.031 18.4981 190.514 18.4981ZM187.128 17.0959C186.611 17.0959 186.192 17.3328 186.192 17.6251V22V26.3749C186.192 26.6674 186.611 26.9043 187.128 26.9043C187.645 26.9043 188.064 26.6674 188.064 26.3749V22V17.6251C188.064 17.3328 187.645 17.0959 187.128 17.0959ZM183.743 19.0105C183.226 19.0105 182.806 19.2473 182.806 19.5397V22V24.4605C182.806 24.7528 183.226 24.9897 183.743 24.9897C184.26 24.9897 184.679 24.7528 184.679 24.4605V22V19.5397C184.679 19.2473 184.26 19.0105 183.743 19.0105ZM180.358 17.9235C179.841 17.9235 179.421 18.1604 179.421 18.4528V22V25.5473C179.421 25.8396 179.841 26.0765 180.358 26.0765C180.875 26.0765 181.294 25.8396 181.294 25.5473V22V18.4528C181.294 18.1604 180.875 17.9235 180.358 17.9235ZM176.972 16.0758C176.455 16.0758 176.036 16.3129 176.036 16.6052V22V27.395C176.036 27.6871 176.455 27.9242 176.972 27.9242C177.489 27.9242 177.909 27.6871 177.909 27.395V22V16.6052C177.909 16.3129 177.489 16.0758 176.972 16.0758ZM173.587 18.1146C173.07 18.1146 172.651 18.3516 172.651 18.6438V22V25.3562C172.651 25.6483 173.07 25.8854 173.587 25.8854C174.104 25.8854 174.524 25.6483 174.524 25.3562V22V18.6438C174.524 18.3516 174.104 18.1146 173.587 18.1146ZM170.202 13.0165C169.684 13.0165 169.265 13.2534 169.265 13.5457V22V30.4545C169.265 30.7467 169.684 30.9837 170.202 30.9837C170.719 30.9837 171.138 30.7467 171.138 30.4545V22V13.5457C171.138 13.2534 170.719 13.0165 170.202 13.0165ZM166.817 15.2687C166.299 15.2687 165.88 15.5056 165.88 15.7979V22V28.2021C165.88 28.4946 166.299 28.7315 166.817 28.7315C167.334 28.7315 167.753 28.4946 167.753 28.2021V22V15.7979C167.753 15.5056 167.334 15.2687 166.817 15.2687ZM163.431 13.2272C162.914 13.2272 162.495 13.4641 162.495 13.7565V22V30.2436C162.495 30.5359 162.914 30.773 163.431 30.773C163.948 30.773 164.367 30.5359 164.367 30.2436V22V13.7565C164.367 13.4641 163.948 13.2272 163.431 13.2272ZM160.046 11.0778C159.529 11.0778 159.109 11.3148 159.109 11.6072V22V32.393C159.109 32.6853 159.529 32.9222 160.046 32.9222C160.563 32.9222 160.982 32.6853 160.982 32.393V22V11.6072C160.982 11.3148 160.563 11.0778 160.046 11.0778ZM156.66 8.63968C156.143 8.63968 155.724 8.87661 155.724 9.16888V22V34.8311C155.724 35.1236 156.143 35.3605 156.66 35.3605C157.177 35.3605 157.597 35.1236 157.597 34.8311V22V9.16888C157.597 8.87661 157.177 8.63968 156.66 8.63968ZM153.275 5.11262C152.758 5.11262 152.339 5.3497 152.339 5.64182V22V38.358C152.339 38.6503 152.758 38.8872 153.275 38.8872C153.792 38.8872 154.212 38.6503 154.212 38.358V22V5.64182C154.212 5.3497 153.792 5.11262 153.275 5.11262ZM149.89 0C149.373 0 148.954 0.236938 148.954 0.529366V22V43.4708C148.954 43.7631 149.373 44 149.89 44C150.407 44 150.826 43.7631 150.826 43.4708V22V0.529366C150.826 0.236938 150.407 0 149.89 0ZM146.505 1.82422C145.987 1.82422 145.568 2.06115 145.568 2.35342V22V41.6467C145.568 41.9389 145.987 42.1759 146.505 42.1759C147.022 42.1759 147.441 41.9389 147.441 41.6467V22V2.35342C147.441 2.06115 147.022 1.82422 146.505 1.82422ZM143.119 4.20719C142.602 4.20719 142.183 4.44412 142.183 4.73639V22V39.2638C142.183 39.5559 142.602 39.793 143.119 39.793C143.637 39.793 144.056 39.5559 144.056 39.2638V22V4.73639C144.056 4.44412 143.637 4.20719 143.119 4.20719ZM139.734 8.17525C139.217 8.17525 138.797 8.41218 138.797 8.70445V22V35.2956C138.797 35.5878 139.217 35.8249 139.734 35.8249C140.251 35.8249 140.67 35.5878 140.67 35.2956V22V8.70445C140.67 8.41218 140.251 8.17525 139.734 8.17525ZM136.349 11.629C135.831 11.629 135.412 11.8661 135.412 12.1584V22V31.8416C135.412 32.1339 135.831 32.3708 136.349 32.3708C136.866 32.3708 137.285 32.1339 137.285 31.8416V22V12.1584C137.285 11.8661 136.866 11.629 136.349 11.629ZM132.963 13.0165C132.446 13.0165 132.027 13.2534 132.027 13.5457V22V30.4545C132.027 30.7467 132.446 30.9837 132.963 30.9837C133.48 30.9837 133.9 30.7467 133.9 30.4545V22V13.5457C133.9 13.2534 133.48 13.0165 132.963 13.0165ZM129.578 11.4651C129.061 11.4651 128.642 11.702 128.642 11.9944V22V32.0057C128.642 32.2979 129.061 32.5349 129.578 32.5349C130.095 32.5349 130.515 32.2979 130.515 32.0057V22V11.9944C130.515 11.702 130.095 11.4651 129.578 11.4651ZM126.193 9.56223C125.675 9.56223 125.256 9.79916 125.256 10.0914V22V33.9086C125.256 34.201 125.675 34.4378 126.193 34.4378C126.71 34.4378 127.129 34.201 127.129 33.9086V22V10.0914C127.129 9.79916 126.71 9.56223 126.193 9.56223ZM122.808 7.44779C122.29 7.44779 121.871 7.68457 121.871 7.977V22V36.023C121.871 36.3153 122.29 36.5524 122.808 36.5524C123.325 36.5524 123.744 36.3153 123.744 36.023V22V7.977C123.744 7.68457 123.325 7.44779 122.808 7.44779ZM119.422 11.4651C118.905 11.4651 118.486 11.702 118.486 11.9944V22V32.0057C118.486 32.2979 118.905 32.5349 119.422 32.5349C119.94 32.5349 120.359 32.2979 120.359 32.0057V22V11.9944C120.359 11.702 119.94 11.4651 119.422 11.4651ZM116.037 13.2918C115.519 13.2918 115.101 13.5287 115.101 13.821V22V30.1792C115.101 30.4714 115.519 30.7084 116.037 30.7084C116.554 30.7084 116.973 30.4714 116.973 30.1792V22V13.821C116.973 13.5287 116.554 13.2918 116.037 13.2918ZM112.651 14.7588C112.134 14.7588 111.715 14.9956 111.715 15.288V22V28.7123C111.715 29.0044 112.134 29.2415 112.651 29.2415C113.169 29.2415 113.588 29.0044 113.588 28.7123V22V15.288C113.588 14.9956 113.169 14.7588 112.651 14.7588ZM109.266 16.4681C108.749 16.4681 108.33 16.7049 108.33 16.9973V22V27.0029C108.33 27.2951 108.749 27.5322 109.266 27.5322C109.783 27.5322 110.202 27.2951 110.202 27.0029V22V16.9973C110.202 16.7049 109.783 16.4681 109.266 16.4681ZM105.881 14.4593C105.364 14.4593 104.944 14.6962 104.944 14.9885V22V29.0115C104.944 29.3038 105.364 29.5407 105.881 29.5407C106.398 29.5407 106.817 29.3038 106.817 29.0115V22V14.9885C106.817 14.6962 106.398 14.4593 105.881 14.4593ZM102.495 13.5797C101.978 13.5797 101.559 13.8164 101.559 14.1089V22V29.8913C101.559 30.1836 101.978 30.4205 102.495 30.4205C103.013 30.4205 103.432 30.1836 103.432 29.8913V22V14.1089C103.432 13.8164 103.013 13.5797 102.495 13.5797ZM99.1102 11.629C98.5932 11.629 98.174 11.8661 98.174 12.1584V22V31.8416C98.174 32.1339 98.5932 32.3708 99.1102 32.3708C99.6276 32.3708 100.047 32.1339 100.047 31.8416V22V12.1584C100.047 11.8661 99.6276 11.629 99.1102 11.629ZM95.725 15.5164C95.2079 15.5164 94.7887 15.7535 94.7887 16.0456V22V27.9544C94.7887 28.2466 95.2079 28.4836 95.725 28.4836C96.2423 28.4836 96.6617 28.2466 96.6617 27.9544V22V16.0456C96.6617 15.7535 96.2423 15.5164 95.725 15.5164ZM92.3397 9.03366C91.8224 9.03366 91.4032 9.27043 91.4032 9.56286V22V34.4373C91.4032 34.7296 91.8224 34.9665 92.3397 34.9665C92.8568 34.9665 93.2762 34.7296 93.2762 34.4373V22V9.56286C93.2762 9.27043 92.8568 9.03366 92.3397 9.03366ZM88.9545 13.2918C88.4374 13.2918 88.018 13.5287 88.018 13.821V22V30.1792C88.018 30.4714 88.4374 30.7084 88.9545 30.7084C89.4718 30.7084 89.891 30.4714 89.891 30.1792V22V13.821C89.891 13.5287 89.4718 13.2918 88.9545 13.2918ZM85.5689 10.7354C85.0519 10.7354 84.6327 10.9725 84.6327 11.2646V22V32.7352C84.6327 33.0277 85.0519 33.2646 85.5689 33.2646C86.0863 33.2646 86.5054 33.0277 86.5054 32.7352V22V11.2646C86.5054 10.9725 86.0863 10.7354 85.5689 10.7354ZM82.184 9.56223C81.6666 9.56223 81.2475 9.79916 81.2475 10.0914V22V33.9086C81.2475 34.201 81.6666 34.4378 82.184 34.4378C82.701 34.4378 83.1205 34.201 83.1205 33.9086V22V10.0914C83.1205 9.79916 82.701 9.56223 82.184 9.56223ZM78.7984 6.14397C78.2814 6.14397 77.8619 6.38075 77.8619 6.67318V22V37.327C77.8619 37.6193 78.2814 37.8563 78.7984 37.8563C79.3155 37.8563 79.7349 37.6193 79.7349 37.327V22V6.67318C79.7349 6.38075 79.3155 6.14397 78.7984 6.14397ZM75.4132 11.0104C74.8961 11.0104 74.4767 11.2473 74.4767 11.5396V22V32.4604C74.4767 32.7529 74.8961 32.9898 75.4132 32.9898C75.9305 32.9898 76.3497 32.7529 76.3497 32.4604V22V11.5396C76.3497 11.2473 75.9305 11.0104 75.4132 11.0104ZM72.0279 13.2272C71.5106 13.2272 71.0912 13.4641 71.0912 13.7565V22V30.2436C71.0912 30.5359 71.5106 30.773 72.0279 30.773C72.545 30.773 72.9642 30.5359 72.9642 30.2436V22V13.7565C72.9642 13.4641 72.545 13.2272 72.0279 13.2272ZM68.6427 14.3763C68.1253 14.3763 67.7062 14.6132 67.7062 14.9055V22V29.0947C67.7062 29.3869 68.1253 29.6239 68.6427 29.6239C69.1598 29.6239 69.5789 29.3869 69.5789 29.0947V22V14.9055C69.5789 14.6132 69.1598 14.3763 68.6427 14.3763ZM65.2574 16.6806C64.7404 16.6806 64.3209 16.9177 64.3209 17.2098V22V26.7902C64.3209 27.0824 64.7404 27.3194 65.2574 27.3194C65.7745 27.3194 66.1939 27.0824 66.1939 26.7902V22V17.2098C66.1939 16.9177 65.7745 16.6806 65.2574 16.6806ZM61.8719 17.155C61.3548 17.155 60.9354 17.3919 60.9354 17.6842V22V26.316C60.9354 26.6083 61.3548 26.8453 61.8719 26.8453C62.3892 26.8453 62.8084 26.6083 62.8084 26.316V22V17.6842C62.8084 17.3919 62.3892 17.155 61.8719 17.155ZM58.4869 16.4681C57.9696 16.4681 57.5504 16.7049 57.5504 16.9973V22V27.0029C57.5504 27.2951 57.9696 27.5322 58.4869 27.5322C59.004 27.5322 59.4231 27.2951 59.4231 27.0029V22V16.9973C59.4231 16.7049 59.004 16.4681 58.4869 16.4681ZM55.1014 19.2833C54.5841 19.2833 54.1649 19.5203 54.1649 19.8125V22V24.1875C54.1649 24.4798 54.5841 24.7168 55.1014 24.7168C55.6185 24.7168 56.0376 24.4798 56.0376 24.1875V22V19.8125C56.0376 19.5203 55.6185 19.2833 55.1014 19.2833ZM51.7162 20.377C51.1988 20.377 50.7797 20.6141 50.7797 20.9062V22V23.0938C50.7797 23.386 51.1988 23.623 51.7162 23.623C52.2335 23.623 52.6527 23.386 52.6527 23.0938V22V20.9062C52.6527 20.6141 52.2335 20.377 51.7162 20.377ZM48.3306 19.3128C47.8136 19.3128 47.3941 19.5497 47.3941 19.8422V22V24.158C47.3941 24.4503 47.8136 24.6872 48.3306 24.6872C48.848 24.6872 49.2671 24.4503 49.2671 24.158V22V19.8422C49.2671 19.5497 48.848 19.3128 48.3306 19.3128ZM44.9457 20.2047C44.4283 20.2047 44.0092 20.4416 44.0092 20.7339V22V23.2661C44.0092 23.5584 44.4283 23.7953 44.9457 23.7953C45.4627 23.7953 45.8819 23.5584 45.8819 23.2661V22V20.7339C45.8819 20.4416 45.4627 20.2047 44.9457 20.2047ZM41.5604 19.0759C41.0431 19.0759 40.6239 19.3127 40.6239 19.6051V22V24.3952C40.6239 24.6874 41.0431 24.9244 41.5604 24.9244C42.0775 24.9244 42.4966 24.6874 42.4966 24.3952V22V19.6051C42.4966 19.3127 42.0775 19.0759 41.5604 19.0759ZM38.1749 17.155C37.6575 17.155 37.2384 17.3919 37.2384 17.6842V22V26.316C37.2384 26.6083 37.6575 26.8453 38.1749 26.8453C38.6922 26.8453 39.1114 26.6083 39.1114 26.316V22V17.6842C39.1114 17.3919 38.6922 17.155 38.1749 17.155ZM34.7896 19.3128C34.2723 19.3128 33.8534 19.5497 33.8534 19.8422V22V24.158C33.8534 24.4503 34.2723 24.6872 34.7896 24.6872C35.307 24.6872 35.7261 24.4503 35.7261 24.158V22V19.8422C35.7261 19.5497 35.307 19.3128 34.7896 19.3128ZM31.4041 20.377C30.887 20.377 30.4679 20.6141 30.4679 20.9062V22V23.0938C30.4679 23.386 30.887 23.623 31.4041 23.623C31.9214 23.623 32.3406 23.386 32.3406 23.0938V22V20.9062C32.3406 20.6141 31.9214 20.377 31.4041 20.377ZM28.0191 18.4935C27.5018 18.4935 27.0826 18.7305 27.0826 19.0229V22V24.9773C27.0826 25.2694 27.5018 25.5065 28.0191 25.5065C28.5362 25.5065 28.9553 25.2694 28.9553 24.9773V22V19.0229C28.9553 18.7305 28.5362 18.4935 28.0191 18.4935ZM24.6336 17.349C24.1162 17.349 23.6971 17.5859 23.6971 17.8782V22V26.1218C23.6971 26.4141 24.1162 26.651 24.6336 26.651C25.1509 26.651 25.5701 26.4141 25.5701 26.1218V22V17.8782C25.5701 17.5859 25.1509 17.349 24.6336 17.349ZM21.2483 18.4935C20.7313 18.4935 20.3121 18.7305 20.3121 19.0229V22V24.9773C20.3121 25.2694 20.7313 25.5065 21.2483 25.5065C21.7657 25.5065 22.1848 25.2694 22.1848 24.9773V22V19.0229C22.1848 18.7305 21.7657 18.4935 21.2483 18.4935ZM17.8628 20.2733C17.3457 20.2733 16.9266 20.5102 16.9266 20.8025V22V23.1975C16.9266 23.4898 17.3457 23.7269 17.8628 23.7269C18.3801 23.7269 18.7993 23.4898 18.7993 23.1975V22V20.8025C18.7993 20.5102 18.3801 20.2733 17.8628 20.2733ZM14.4778 16.9125C13.9605 16.9125 13.5413 17.1496 13.5413 17.4419V22V26.5583C13.5413 26.8505 13.9605 27.0876 14.4778 27.0876C14.9949 27.0876 15.4143 26.8505 15.4143 26.5583V22V17.4419C15.4143 17.1496 14.9949 16.9125 14.4778 16.9125ZM11.0926 17.882C10.5752 17.882 10.1561 18.1189 10.1561 18.4112V22V25.5888C10.1561 25.8813 10.5752 26.1182 11.0926 26.1182C11.6096 26.1182 12.0291 25.8813 12.0291 25.5888V22V18.4112C12.0291 18.1189 11.6096 17.882 11.0926 17.882ZM7.70708 19.3169C7.18994 19.3169 6.77064 19.554 6.77064 19.8461V22V24.1539C6.77064 24.4463 7.18994 24.6833 7.70708 24.6833C8.22426 24.6833 8.64353 24.4463 8.64353 24.1539V22V19.8461C8.64353 19.554 8.22426 19.3169 7.70708 19.3169ZM0.936555 20.377C0.419269 20.377 0 20.6141 0 20.9062V22V23.0938C0 23.386 0.419269 23.623 0.936555 23.623C1.4537 23.623 1.873 23.386 1.873 23.0938V22V20.9062C1.873 20.6141 1.4537 20.377 0.936555 20.377ZM5.25825 20.9062V23.0938C5.25825 23.386 4.8392 23.623 4.32192 23.623C3.80477 23.623 3.38547 23.386 3.38547 23.0938V22V20.9062C3.38547 20.6141 3.80477 20.377 4.32192 20.377C4.8392 20.377 5.25825 20.6141 5.25825 20.9062Z" fill="url(#paint0_linear_5537_17800)"/>
</g>
<defs>
<linearGradient id="paint0_linear_5537_17800" x1="5.56281e-05" y1="22" x2="249" y2="22" gradientUnits="userSpaceOnUse">
<stop stop-color="#FFB74B"/>
<stop offset="0.515625" stop-color="#00BBE4"/>
<stop offset="1" stop-color="#46D77D"/>
</linearGradient>
</defs>
</svg>
