<svg width="539" height="353" viewBox="0 0 539 353" fill="none" xmlns="http://www.w3.org/2000/svg">
<g filter="url(#filter0_d_6028_68541)">
<path d="M53.8476 7.21876C57.4639 5.60551 63.9733 3.45452 68.313 2.51346C74.5813 1.03465 111.95 0.765781 423.318 1.16909L432.961 5.2022C438.265 7.48763 445.016 10.8486 448.029 12.7307C451.043 14.7472 456.829 19.3181 460.928 23.2168C465.147 26.981 471.295 34.5095 474.549 39.887C477.925 45.13 482.264 53.734 484.193 58.977C486.122 64.2201 488.533 73.8995 489.497 80.4869C491.064 90.4353 491.426 104.954 491.426 233.745L510.713 255.255C524.214 270.312 530 277.706 530 279.857C530 281.47 529.036 283.756 527.83 284.966C526.745 286.176 524.575 287.789 523.129 288.327C521.562 288.999 512.4 289.536 484.796 289.536L478.768 299.754C475.514 305.4 468.402 314.542 463.098 320.054C456.106 327.313 450.44 331.75 442.605 336.052C436.578 339.278 428.501 342.908 424.523 343.983C418.255 345.731 395.11 346 74.9429 346L64.0939 342.639C58.1872 340.623 49.9901 337.127 46.0122 334.573C42.0342 332.153 35.6453 327.179 31.6673 323.549C27.8099 320.054 21.7826 312.929 18.2868 307.685C14.791 302.442 10.572 294.914 8.88432 290.881C7.19669 286.848 4.90634 279.857 3.70089 275.421C1.77217 268.027 1.53108 259.019 1.16945 175.937C0.807815 97.426 0.92836 83.1757 2.49544 75.1095C3.58035 69.8664 6.83506 60.0525 9.84868 53.3307C13.8267 44.1889 17.443 38.2737 23.3497 31.283C27.9304 26.0399 35.0426 19.1837 39.3822 16.0916C43.7218 12.8651 50.2312 8.96644 53.8476 7.21876Z" fill="white"/>
<path d="M53.8476 7.21876C57.4639 5.60551 63.9733 3.45452 68.313 2.51346C74.5813 1.03465 111.95 0.765781 423.318 1.16909L432.961 5.2022C438.265 7.48763 445.016 10.8486 448.029 12.7307C451.043 14.7472 456.829 19.3181 460.928 23.2168C465.147 26.981 471.295 34.5095 474.549 39.887C477.925 45.13 482.264 53.734 484.193 58.977C486.122 64.2201 488.533 73.8995 489.497 80.4869C491.064 90.4353 491.426 104.954 491.426 233.745L510.713 255.255C524.214 270.312 530 277.706 530 279.857C530 281.47 529.036 283.756 527.83 284.966C526.745 286.176 524.575 287.789 523.129 288.327C521.562 288.999 512.4 289.536 484.796 289.536L478.768 299.754C475.514 305.4 468.402 314.542 463.098 320.054C456.106 327.313 450.44 331.75 442.605 336.052C436.578 339.278 428.501 342.908 424.523 343.983C418.255 345.731 395.11 346 74.9429 346L64.0939 342.639C58.1872 340.623 49.9901 337.127 46.0122 334.573C42.0342 332.153 35.6453 327.179 31.6673 323.549C27.8099 320.054 21.7826 312.929 18.2868 307.685C14.791 302.442 10.572 294.914 8.88432 290.881C7.19669 286.848 4.90634 279.857 3.70089 275.421C1.77217 268.027 1.53108 259.019 1.16945 175.937C0.807815 97.426 0.92836 83.1757 2.49544 75.1095C3.58035 69.8664 6.83506 60.0525 9.84868 53.3307C13.8267 44.1889 17.443 38.2737 23.3497 31.283C27.9304 26.0399 35.0426 19.1837 39.3822 16.0916C43.7218 12.8651 50.2312 8.96644 53.8476 7.21876Z" stroke="#FF7F36"/>
</g>
<defs>
<filter id="filter0_d_6028_68541" x="0.5" y="0.5" width="538" height="352" filterUnits="userSpaceOnUse" color-interpolation-filters="sRGB">
<feFlood flood-opacity="0" result="BackgroundImageFix"/>
<feColorMatrix in="SourceAlpha" type="matrix" values="0 0 0 0 0 0 0 0 0 0 0 0 0 0 0 0 0 0 127 0" result="hardAlpha"/>
<feOffset dx="8" dy="6"/>
<feComposite in2="hardAlpha" operator="out"/>
<feColorMatrix type="matrix" values="0 0 0 0 0 0 0 0 0 0 0 0 0 0 0 0 0 0 1 0"/>
<feBlend mode="normal" in2="BackgroundImageFix" result="effect1_dropShadow_6028_68541"/>
<feBlend mode="normal" in="SourceGraphic" in2="effect1_dropShadow_6028_68541" result="shape"/>
</filter>
</defs>
</svg>
