<svg width="508" height="305" viewBox="0 0 508 305" fill="none" xmlns="http://www.w3.org/2000/svg">
<g filter="url(#filter0_d_84_558)">
<path d="M50.7506 6.35354C54.1551 4.96475 60.283 3.11302 64.3683 2.30289C70.2693 1.02983 105.448 0.798368 398.569 1.14557L407.648 4.61755C412.641 6.585 418.996 9.47832 421.833 11.0986C424.67 12.8346 430.117 16.7695 433.975 20.1257C437.947 23.3663 443.735 29.8473 446.799 34.4766C449.976 38.9902 454.062 46.3971 455.877 50.9106C457.693 55.4242 459.963 63.757 460.87 69.4279C462.346 77.9921 462.686 90.4912 462.686 201.363L480.843 219.88C493.553 232.843 499 239.208 499 241.06C499 242.448 498.092 244.416 496.957 245.457C495.936 246.499 493.893 247.888 492.532 248.351C491.056 248.929 482.432 249.392 456.445 249.392L450.771 258.188C447.707 263.049 441.011 270.919 436.018 275.664C429.436 281.913 424.103 285.732 416.726 289.436C411.052 292.213 403.449 295.338 399.704 296.264C393.803 297.769 372.015 298 70.6098 298L60.3965 295.107C54.836 293.371 47.1193 290.362 43.3744 288.163C39.6295 286.08 33.615 281.797 29.8702 278.673C26.2388 275.664 20.5647 269.53 17.2738 265.016C13.9829 260.503 10.011 254.022 8.42229 250.55C6.83356 247.078 4.67743 241.06 3.54262 237.24C1.72692 230.875 1.49996 223.121 1.15952 151.598C0.819077 84.0102 0.932558 71.7425 2.40781 64.7986C3.42914 60.285 6.49312 51.8365 9.33014 46.0499C13.075 38.18 16.4794 33.0878 22.04 27.0697C26.3523 22.5561 33.0476 16.6538 37.1329 13.9919C41.2183 11.2143 47.3462 7.85806 50.7506 6.35354Z" fill="white"/>
<path d="M50.7506 6.35354C54.1551 4.96475 60.283 3.11302 64.3683 2.30289C70.2693 1.02983 105.448 0.798368 398.569 1.14557L407.648 4.61755C412.641 6.585 418.996 9.47832 421.833 11.0986C424.67 12.8346 430.117 16.7695 433.975 20.1257C437.947 23.3663 443.735 29.8473 446.799 34.4766C449.976 38.9902 454.062 46.3971 455.877 50.9106C457.693 55.4242 459.963 63.757 460.87 69.4279C462.346 77.9921 462.686 90.4912 462.686 201.363L480.843 219.88C493.553 232.843 499 239.208 499 241.06C499 242.448 498.092 244.416 496.957 245.457C495.936 246.499 493.893 247.888 492.532 248.351C491.056 248.929 482.432 249.392 456.445 249.392L450.771 258.188C447.707 263.049 441.011 270.919 436.018 275.664C429.436 281.913 424.103 285.732 416.726 289.436C411.052 292.213 403.449 295.338 399.704 296.264C393.803 297.769 372.015 298 70.6098 298L60.3965 295.107C54.836 293.371 47.1193 290.362 43.3744 288.163C39.6295 286.08 33.615 281.797 29.8702 278.673C26.2388 275.664 20.5647 269.53 17.2738 265.016C13.9829 260.503 10.011 254.022 8.42229 250.55C6.83356 247.078 4.67743 241.06 3.54262 237.24C1.72692 230.875 1.49996 223.121 1.15952 151.598C0.819077 84.0102 0.932558 71.7425 2.40781 64.7986C3.42914 60.285 6.49312 51.8365 9.33014 46.0499C13.075 38.18 16.4794 33.0878 22.04 27.0697C26.3523 22.5561 33.0476 16.6538 37.1329 13.9919C41.2183 11.2143 47.3462 7.85806 50.7506 6.35354Z" stroke="#FF7F36"/>
</g>
<defs>
<filter id="filter0_d_84_558" x="0.5" y="0.5" width="507" height="304" filterUnits="userSpaceOnUse" color-interpolation-filters="sRGB">
<feFlood flood-opacity="0" result="BackgroundImageFix"/>
<feColorMatrix in="SourceAlpha" type="matrix" values="0 0 0 0 0 0 0 0 0 0 0 0 0 0 0 0 0 0 127 0" result="hardAlpha"/>
<feOffset dx="8" dy="6"/>
<feComposite in2="hardAlpha" operator="out"/>
<feColorMatrix type="matrix" values="0 0 0 0 0 0 0 0 0 0 0 0 0 0 0 0 0 0 1 0"/>
<feBlend mode="normal" in2="BackgroundImageFix" result="effect1_dropShadow_84_558"/>
<feBlend mode="normal" in="SourceGraphic" in2="effect1_dropShadow_84_558" result="shape"/>
</filter>
</defs>
</svg>
