<svg width="80" height="80" viewBox="0 0 80 80" fill="none" xmlns="http://www.w3.org/2000/svg">
<rect width="80" height="80" rx="40" fill="url(#paint0_linear_5519_18128)"/>
<g clip-path="url(#clip0_5519_18128)">
<path d="M28.333 38.3302H48.0997L42.0497 31.0635C41.7668 30.7232 41.6307 30.2844 41.6713 29.8437C41.7119 29.403 41.926 28.9964 42.2663 28.7135C42.6067 28.4306 43.0455 28.2945 43.4862 28.3352C43.9269 28.3758 44.3334 28.5899 44.6163 28.9302L52.9497 38.9302C53.0057 39.0098 53.0559 39.0933 53.0997 39.1802C53.0997 39.2635 53.0997 39.3135 53.2163 39.3969C53.2919 39.588 53.3314 39.7914 53.333 39.9969C53.3314 40.2024 53.2919 40.4058 53.2163 40.5969C53.2163 40.6802 53.2163 40.7302 53.0997 40.8135C53.0559 40.9004 53.0057 40.984 52.9497 41.0635L44.6163 51.0635C44.4596 51.2517 44.2634 51.403 44.0416 51.5067C43.8198 51.6104 43.5779 51.6639 43.333 51.6635C42.9436 51.6643 42.5662 51.5287 42.2663 51.2802C42.0976 51.1403 41.9581 50.9685 41.8558 50.7745C41.7536 50.5806 41.6906 50.3685 41.6704 50.1502C41.6503 49.9319 41.6735 49.7118 41.7385 49.5024C41.8036 49.2931 41.9093 49.0986 42.0497 48.9302L48.0997 41.6635H28.333C27.891 41.6635 27.4671 41.488 27.1545 41.1754C26.8419 40.8628 26.6663 40.4389 26.6663 39.9969C26.6663 39.5549 26.8419 39.1309 27.1545 38.8184C27.4671 38.5058 27.891 38.3302 28.333 38.3302Z" fill="white"/>
</g>
<defs>
<linearGradient id="paint0_linear_5519_18128" x1="80" y1="80" x2="15.4604" y2="68.9532" gradientUnits="userSpaceOnUse">
<stop stop-color="#E15404"/>
<stop offset="1" stop-color="#FF9050"/>
</linearGradient>
<clipPath id="clip0_5519_18128">
<rect width="40" height="40" fill="white" transform="matrix(-1 0 0 1 60 20)"/>
</clipPath>
</defs>
</svg>
