<svg width="341" height="112" viewBox="0 0 341 112" fill="none" xmlns="http://www.w3.org/2000/svg">
<rect x="32.5" y="6.5" width="308" height="99" rx="39.5" fill="#FFCC00" fill-opacity="0.1"/>
<rect x="32.5" y="6.5" width="308" height="99" rx="39.5" stroke="url(#paint0_linear_5721_30104)"/>
<path d="M139.824 68C139.227 68 138.747 67.7547 138.384 67.264L130.992 57.536L133.904 54.56L141.552 64.672C141.851 65.0773 142 65.5147 142 65.984C142 66.5813 141.776 67.072 141.328 67.456C140.88 67.8187 140.379 68 139.824 68ZM140.208 45.44C140.72 45.44 141.136 45.6533 141.456 46.08C141.797 46.4853 141.968 46.9013 141.968 47.328C141.968 47.776 141.776 48.192 141.392 48.576L127.984 61.408L127.824 56.832L138.64 46.176C139.131 45.6853 139.653 45.44 140.208 45.44ZM126.384 68C125.787 68 125.307 67.8187 124.944 67.456C124.581 67.072 124.4 66.6027 124.4 66.048V47.552C124.4 46.9973 124.592 46.5387 124.976 46.176C125.36 45.792 125.851 45.6 126.448 45.6C127.045 45.6 127.515 45.792 127.856 46.176C128.219 46.5387 128.4 46.9973 128.4 47.552V66.048C128.4 66.6027 128.219 67.072 127.856 67.456C127.493 67.8187 127.003 68 126.384 68ZM152.425 68.32C150.612 68.32 149.033 67.9467 147.689 67.2C146.367 66.432 145.343 65.3973 144.617 64.096C143.913 62.7947 143.561 61.3227 143.561 59.68C143.561 57.76 143.945 56.128 144.713 54.784C145.503 53.4187 146.527 52.3733 147.785 51.648C149.044 50.9227 150.377 50.56 151.785 50.56C152.873 50.56 153.897 50.784 154.857 51.232C155.839 51.68 156.703 52.2987 157.449 53.088C158.196 53.856 158.783 54.752 159.209 55.776C159.657 56.8 159.881 57.888 159.881 59.04C159.86 59.552 159.657 59.968 159.273 60.288C158.889 60.608 158.441 60.768 157.929 60.768H145.705L144.745 57.568H156.489L155.785 58.208V57.344C155.743 56.7253 155.519 56.1707 155.113 55.68C154.729 55.1893 154.239 54.8053 153.641 54.528C153.065 54.2293 152.447 54.08 151.785 54.08C151.145 54.08 150.548 54.1653 149.993 54.336C149.439 54.5067 148.959 54.7947 148.553 55.2C148.148 55.6053 147.828 56.1493 147.593 56.832C147.359 57.5147 147.241 58.3787 147.241 59.424C147.241 60.576 147.476 61.5573 147.945 62.368C148.436 63.1573 149.055 63.7653 149.801 64.192C150.569 64.5973 151.38 64.8 152.233 64.8C153.023 64.8 153.652 64.736 154.121 64.608C154.591 64.48 154.964 64.3307 155.241 64.16C155.54 63.968 155.807 63.808 156.041 63.68C156.425 63.488 156.788 63.392 157.129 63.392C157.599 63.392 157.983 63.552 158.281 63.872C158.601 64.192 158.761 64.5653 158.761 64.992C158.761 65.568 158.463 66.0907 157.865 66.56C157.311 67.0293 156.532 67.4453 155.529 67.808C154.527 68.1493 153.492 68.32 152.425 68.32ZM171.3 68.32C169.487 68.32 167.908 67.9467 166.564 67.2C165.242 66.432 164.218 65.3973 163.492 64.096C162.788 62.7947 162.436 61.3227 162.436 59.68C162.436 57.76 162.82 56.128 163.588 54.784C164.378 53.4187 165.402 52.3733 166.66 51.648C167.919 50.9227 169.252 50.56 170.66 50.56C171.748 50.56 172.772 50.784 173.732 51.232C174.714 51.68 175.578 52.2987 176.324 53.088C177.071 53.856 177.658 54.752 178.084 55.776C178.532 56.8 178.756 57.888 178.756 59.04C178.735 59.552 178.532 59.968 178.148 60.288C177.764 60.608 177.316 60.768 176.804 60.768H164.58L163.62 57.568H175.364L174.66 58.208V57.344C174.618 56.7253 174.394 56.1707 173.988 55.68C173.604 55.1893 173.114 54.8053 172.516 54.528C171.94 54.2293 171.322 54.08 170.66 54.08C170.02 54.08 169.423 54.1653 168.868 54.336C168.314 54.5067 167.834 54.7947 167.428 55.2C167.023 55.6053 166.703 56.1493 166.468 56.832C166.234 57.5147 166.116 58.3787 166.116 59.424C166.116 60.576 166.351 61.5573 166.82 62.368C167.311 63.1573 167.93 63.7653 168.676 64.192C169.444 64.5973 170.255 64.8 171.108 64.8C171.898 64.8 172.527 64.736 172.996 64.608C173.466 64.48 173.839 64.3307 174.116 64.16C174.415 63.968 174.682 63.808 174.916 63.68C175.3 63.488 175.663 63.392 176.004 63.392C176.474 63.392 176.858 63.552 177.156 63.872C177.476 64.192 177.636 64.5653 177.636 64.992C177.636 65.568 177.338 66.0907 176.74 66.56C176.186 67.0293 175.407 67.4453 174.404 67.808C173.402 68.1493 172.367 68.32 171.3 68.32ZM190.975 50.56C192.469 50.56 193.802 50.944 194.975 51.712C196.17 52.4587 197.109 53.4933 197.791 54.816C198.495 56.1387 198.847 57.6747 198.847 59.424C198.847 61.1733 198.495 62.72 197.791 64.064C197.109 65.3867 196.181 66.432 195.007 67.2C193.855 67.9467 192.554 68.32 191.103 68.32C190.25 68.32 189.45 68.1813 188.703 67.904C187.957 67.6267 187.295 67.2747 186.719 66.848C186.165 66.4213 185.727 65.9947 185.407 65.568C185.109 65.12 184.959 64.7467 184.959 64.448L185.951 64.032V72.448C185.951 73.0027 185.77 73.4613 185.407 73.824C185.045 74.208 184.586 74.4 184.031 74.4C183.477 74.4 183.018 74.2187 182.655 73.856C182.293 73.4933 182.111 73.024 182.111 72.448V52.832C182.111 52.2773 182.293 51.8187 182.655 51.456C183.018 51.072 183.477 50.88 184.031 50.88C184.586 50.88 185.045 51.072 185.407 51.456C185.77 51.8187 185.951 52.2773 185.951 52.832V54.4L185.407 54.112C185.407 53.8347 185.557 53.504 185.855 53.12C186.154 52.7147 186.559 52.32 187.071 51.936C187.583 51.5307 188.17 51.2 188.831 50.944C189.514 50.688 190.229 50.56 190.975 50.56ZM190.495 54.08C189.557 54.08 188.735 54.3147 188.031 54.784C187.327 55.2533 186.773 55.8933 186.367 56.704C185.983 57.4933 185.791 58.4 185.791 59.424C185.791 60.4267 185.983 61.344 186.367 62.176C186.773 62.9867 187.327 63.6267 188.031 64.096C188.735 64.5653 189.557 64.8 190.495 64.8C191.434 64.8 192.245 64.5653 192.927 64.096C193.631 63.6267 194.175 62.9867 194.559 62.176C194.965 61.344 195.167 60.4267 195.167 59.424C195.167 58.4 194.965 57.4933 194.559 56.704C194.175 55.8933 193.631 55.2533 192.927 54.784C192.245 54.3147 191.434 54.08 190.495 54.08ZM222.054 68.32C220.432 68.32 218.918 68.0213 217.51 67.424C216.102 66.8267 214.864 66.0053 213.798 64.96C212.731 63.8933 211.888 62.6667 211.27 61.28C210.672 59.8933 210.374 58.4 210.374 56.8C210.374 55.2 210.672 53.7067 211.27 52.32C211.888 50.9333 212.731 49.7173 213.798 48.672C214.864 47.6053 216.102 46.7733 217.51 46.176C218.918 45.5787 220.432 45.28 222.054 45.28C223.056 45.28 224.027 45.3867 224.966 45.6C225.904 45.8133 226.768 46.1333 227.558 46.56C227.878 46.7307 228.112 46.9653 228.262 47.264C228.432 47.5413 228.518 47.8293 228.518 48.128C228.518 48.64 228.347 49.0987 228.006 49.504C227.664 49.9093 227.227 50.112 226.694 50.112C226.523 50.112 226.342 50.0907 226.15 50.048C225.979 50.0053 225.808 49.9413 225.638 49.856C225.104 49.6213 224.539 49.44 223.942 49.312C223.344 49.184 222.715 49.12 222.054 49.12C220.667 49.12 219.398 49.472 218.246 50.176C217.115 50.8587 216.208 51.7867 215.526 52.96C214.864 54.112 214.534 55.392 214.534 56.8C214.534 58.1867 214.864 59.4667 215.526 60.64C216.208 61.8133 217.115 62.752 218.246 63.456C219.398 64.1387 220.667 64.48 222.054 64.48C222.694 64.48 223.398 64.416 224.166 64.288C224.934 64.16 225.563 63.9893 226.054 63.776L225.766 64.736V59.264L226.31 59.744H222.758C222.203 59.744 221.734 59.5627 221.35 59.2C220.987 58.8373 220.806 58.3787 220.806 57.824C220.806 57.2693 220.987 56.8107 221.35 56.448C221.734 56.0853 222.203 55.904 222.758 55.904H228.006C228.56 55.904 229.019 56.096 229.382 56.48C229.744 56.8427 229.926 57.3013 229.926 57.856V64.64C229.926 65.0667 229.819 65.4187 229.606 65.696C229.414 65.9733 229.19 66.1973 228.934 66.368C227.952 66.9653 226.875 67.4453 225.702 67.808C224.55 68.1493 223.334 68.32 222.054 68.32ZM250.063 59.456C250.063 61.2053 249.668 62.752 248.879 64.096C248.111 65.4187 247.066 66.4533 245.743 67.2C244.442 67.9467 242.98 68.32 241.359 68.32C239.738 68.32 238.266 67.9467 236.943 67.2C235.642 66.4533 234.596 65.4187 233.807 64.096C233.039 62.752 232.655 61.2053 232.655 59.456C232.655 57.7067 233.039 56.1707 233.807 54.848C234.596 53.504 235.642 52.4587 236.943 51.712C238.266 50.944 239.738 50.56 241.359 50.56C242.98 50.56 244.442 50.944 245.743 51.712C247.066 52.4587 248.111 53.504 248.879 54.848C249.668 56.1707 250.063 57.7067 250.063 59.456ZM246.223 59.456C246.223 58.368 245.999 57.4293 245.551 56.64C245.124 55.8293 244.538 55.2 243.791 54.752C243.066 54.304 242.255 54.08 241.359 54.08C240.463 54.08 239.642 54.304 238.895 54.752C238.17 55.2 237.583 55.8293 237.135 56.64C236.708 57.4293 236.495 58.368 236.495 59.456C236.495 60.5227 236.708 61.4613 237.135 62.272C237.583 63.0613 238.17 63.68 238.895 64.128C239.642 64.576 240.463 64.8 241.359 64.8C242.255 64.8 243.066 64.576 243.791 64.128C244.538 63.68 245.124 63.0613 245.551 62.272C245.999 61.4613 246.223 60.5227 246.223 59.456ZM257.04 66.048C257.04 66.6027 256.858 67.072 256.496 67.456C256.133 67.8187 255.674 68 255.12 68C254.565 68 254.106 67.8187 253.744 67.456C253.381 67.072 253.2 66.6027 253.2 66.048V52.832C253.2 52.2773 253.381 51.8187 253.744 51.456C254.106 51.072 254.565 50.88 255.12 50.88C255.674 50.88 256.133 51.072 256.496 51.456C256.858 51.8187 257.04 52.2773 257.04 52.832V66.048ZM255.088 48.8C254.362 48.8 253.85 48.6827 253.552 48.448C253.253 48.2133 253.104 47.7973 253.104 47.2V46.592C253.104 45.9733 253.264 45.5573 253.584 45.344C253.925 45.1093 254.437 44.992 255.12 44.992C255.866 44.992 256.389 45.1093 256.688 45.344C256.986 45.5787 257.136 45.9947 257.136 46.592V47.2C257.136 47.8187 256.976 48.2453 256.656 48.48C256.336 48.6933 255.813 48.8 255.088 48.8ZM270.138 50.56C271.717 50.56 272.912 50.8907 273.722 51.552C274.554 52.2133 275.12 53.0987 275.418 54.208C275.738 55.296 275.898 56.512 275.898 57.856V66.048C275.898 66.6027 275.717 67.072 275.354 67.456C274.992 67.8187 274.533 68 273.978 68C273.424 68 272.965 67.8187 272.602 67.456C272.24 67.072 272.058 66.6027 272.058 66.048V57.856C272.058 57.152 271.962 56.5227 271.77 55.968C271.6 55.392 271.28 54.9333 270.81 54.592C270.341 54.2507 269.669 54.08 268.794 54.08C267.941 54.08 267.216 54.2507 266.618 54.592C266.042 54.9333 265.594 55.392 265.274 55.968C264.976 56.5227 264.826 57.152 264.826 57.856V66.048C264.826 66.6027 264.645 67.072 264.282 67.456C263.92 67.8187 263.461 68 262.906 68C262.352 68 261.893 67.8187 261.53 67.456C261.168 67.072 260.986 66.6027 260.986 66.048V52.832C260.986 52.2773 261.168 51.8187 261.53 51.456C261.893 51.072 262.352 50.88 262.906 50.88C263.461 50.88 263.92 51.072 264.282 51.456C264.645 51.8187 264.826 52.2773 264.826 52.832V54.208L264.346 54.112C264.538 53.7493 264.816 53.3653 265.178 52.96C265.541 52.5333 265.968 52.1387 266.458 51.776C266.949 51.4133 267.504 51.1253 268.122 50.912C268.741 50.6773 269.413 50.56 270.138 50.56ZM287.153 50.56C288.049 50.56 288.87 50.6987 289.617 50.976C290.363 51.2533 291.003 51.6053 291.537 52.032C292.091 52.4587 292.518 52.896 292.817 53.344C293.137 53.7707 293.297 54.1333 293.297 54.432L292.465 54.848V52.512C292.465 51.9573 292.646 51.4987 293.009 51.136C293.371 50.752 293.83 50.56 294.385 50.56C294.939 50.56 295.398 50.7413 295.761 51.104C296.123 51.4667 296.305 51.936 296.305 52.512V66.752C296.305 68.608 295.899 70.0907 295.089 71.2C294.299 72.3307 293.254 73.1413 291.953 73.632C290.651 74.144 289.254 74.4 287.761 74.4C287.334 74.4 286.779 74.3467 286.097 74.24C285.414 74.1333 284.763 74.0053 284.145 73.856C283.526 73.7067 283.057 73.568 282.737 73.44C282.097 73.1627 281.649 72.8107 281.393 72.384C281.158 71.9787 281.115 71.5413 281.265 71.072C281.457 70.4533 281.766 70.0267 282.193 69.792C282.619 69.5787 283.067 69.5573 283.537 69.728C283.75 69.792 284.102 69.92 284.593 70.112C285.083 70.304 285.617 70.4747 286.193 70.624C286.79 70.7947 287.313 70.88 287.761 70.88C289.361 70.88 290.545 70.56 291.313 69.92C292.081 69.28 292.465 68.3947 292.465 67.264V64.48L292.849 64.768C292.849 65.0453 292.699 65.3867 292.401 65.792C292.123 66.176 291.729 66.56 291.217 66.944C290.726 67.328 290.139 67.6587 289.457 67.936C288.774 68.192 288.049 68.32 287.281 68.32C285.766 68.32 284.401 67.9467 283.185 67.2C281.969 66.432 281.009 65.3867 280.305 64.064C279.601 62.72 279.249 61.184 279.249 59.456C279.249 57.7067 279.601 56.1707 280.305 54.848C281.009 53.504 281.958 52.4587 283.153 51.712C284.347 50.944 285.681 50.56 287.153 50.56ZM287.761 54.08C286.801 54.08 285.958 54.3147 285.233 54.784C284.507 55.2533 283.942 55.8933 283.537 56.704C283.131 57.5147 282.929 58.432 282.929 59.456C282.929 60.4587 283.131 61.3653 283.537 62.176C283.942 62.9867 284.507 63.6267 285.233 64.096C285.958 64.5653 286.801 64.8 287.761 64.8C288.742 64.8 289.595 64.5653 290.321 64.096C291.046 63.6267 291.611 62.9867 292.017 62.176C292.422 61.3653 292.625 60.4587 292.625 59.456C292.625 58.432 292.422 57.5147 292.017 56.704C291.611 55.8933 291.046 55.2533 290.321 54.784C289.595 54.3147 288.742 54.08 287.761 54.08ZM302.663 60.928C301.938 60.928 301.543 60.5227 301.479 59.712L300.551 47.936C300.508 47.2747 300.679 46.72 301.063 46.272C301.468 45.824 301.991 45.6 302.631 45.6C303.271 45.6 303.794 45.824 304.199 46.272C304.604 46.72 304.775 47.2747 304.711 47.936L303.815 59.712C303.751 60.5227 303.367 60.928 302.663 60.928ZM302.439 68C301.82 68 301.34 67.84 300.999 67.52C300.679 67.1787 300.519 66.6987 300.519 66.08V65.536C300.519 64.9173 300.679 64.448 300.999 64.128C301.34 63.7867 301.82 63.616 302.439 63.616H302.855C303.474 63.616 303.943 63.7867 304.263 64.128C304.604 64.448 304.775 64.9173 304.775 65.536V66.08C304.775 66.6987 304.604 67.1787 304.263 67.52C303.943 67.84 303.474 68 302.855 68H302.439Z" fill="#333F61"/>
<g clip-path="url(#clip0_5721_30104)">
<rect width="112" height="112" rx="56" fill="#F6F1DD"/>
<path d="M39.5224 109.136C36.3505 103.891 27.1672 102.385 26.1034 110.723C25.1808 117.952 33.8098 121.299 39.9863 119.345C42.2183 118.639 43.4304 115.597 39.5224 109.136Z" fill="#777781"/>
<path d="M39.9867 119.352C33.8108 121.306 25.1818 117.96 26.1033 110.731C26.4919 107.69 27.9583 105.958 29.8225 105.242C29.7902 105.412 29.8558 105.626 29.7405 105.764C24.2199 112.378 31.4397 119.577 36.2281 111.021C38.5322 112.224 39.2808 115.2 41.9339 114.78C42.4415 117.471 41.4242 118.898 39.9867 119.352Z" fill="#626272"/>
<path d="M36.3158 120.819C33.2782 120.819 30.2274 119.842 28.1076 118.056C25.863 116.165 24.8311 113.524 25.2019 110.617C25.6514 107.094 27.5815 104.716 30.4973 104.092C34.0466 103.333 38.262 105.301 40.3006 108.671C42.6585 112.569 43.478 115.772 42.6703 117.934C42.2513 119.055 41.3953 119.871 40.2601 120.23C39.0031 120.627 37.6604 120.819 36.3158 120.819ZM32.0618 105.761C31.6578 105.761 31.2606 105.801 30.8757 105.883C28.6999 106.349 27.362 108.066 27.0067 110.851C26.6363 113.754 28.0361 115.608 29.2756 116.652C31.8842 118.849 36.177 119.602 39.7143 118.483C40.3214 118.291 40.7429 117.889 40.967 117.289C41.3117 116.367 41.4814 114.145 38.7462 109.623C37.3425 107.302 34.5805 105.761 32.0618 105.761Z" fill="#371B45"/>
<g opacity="0.3">
<path d="M35.4742 108.38C35.1275 107.483 32.3381 106.182 30.2469 107.472C27.9692 108.878 30.3788 108.914 32.0076 109.056C33.673 109.201 35.8208 109.276 35.4742 108.38Z" fill="white"/>
</g>
<path d="M68.8162 82.8712C65.1586 84.0981 60.7495 84.8141 56.0018 84.8141C51.2542 84.8141 46.8451 84.0981 43.1875 82.8712C45.5549 80.518 50.3535 76.5938 56.0018 76.5938C61.6502 76.5938 66.4488 80.518 68.8162 82.8712Z" fill="#626272"/>
<path d="M52.9889 80.1408L51.2748 83.1074L45.2625 93.5142L43.7648 96.1072C25.6916 95.8106 8.30975 81.3018 7.33257 75.3724C6.73935 71.7722 9.91109 67.2033 11.7763 65.6907C11.7781 65.6889 11.7781 65.6889 11.7799 65.6889C13.9181 63.9584 19.4991 64.5938 23.981 69.8458C26.3121 71.9297 28.7559 73.5851 31.2216 74.9017C39.363 79.2527 47.7318 79.9138 52.9889 80.1408Z" fill="#777781"/>
<path d="M52.9899 80.1454L51.2758 83.1119C41.7296 82.3062 34.0159 79.0997 31.2227 74.9062C39.364 79.2572 47.7328 79.9183 52.9899 80.1454Z" fill="#626272"/>
<path d="M80.7327 74.9219C77.9267 79.097 70.2384 82.2907 60.725 83.0982L59.0127 80.1353C64.2605 79.9101 72.6059 79.249 80.7327 74.9219Z" fill="#626272"/>
<path d="M74.6477 79.6478C69.9363 81.8947 63.3162 83.2937 55.983 83.2937C48.6676 83.2937 42.0623 81.902 37.3529 79.6643C36.9779 77.0804 40.4153 74.4453 55.9994 74.4453C71.5504 74.4453 75.0062 77.0694 74.6477 79.6478Z" fill="#626272"/>
<path d="M45.2625 93.5128L43.7648 96.1058C25.6915 95.8092 8.30975 81.3004 7.33257 75.371C6.73935 71.7708 9.91091 67.2019 11.7761 65.6893C11.7781 65.6875 11.7781 65.6875 11.7799 65.6875C14.4021 66.5885 17.421 68.004 17.441 69.7418C17.4774 72.8164 15.5631 74.1093 15.4994 77.5117C15.4303 81.1409 19.4027 86.6476 28.5357 87.164C38.2693 87.7152 41.603 85.0306 41.603 85.0306L45.2625 93.5128Z" fill="#626272"/>
<path d="M52.9667 80.6786C50.3396 80.5927 47.6979 80.4155 45.0795 80.0208C42.4614 79.63 39.863 79.0484 37.3309 78.2315C34.7991 77.417 32.3343 76.363 30.0055 75.0518C28.8442 74.392 27.7087 73.6819 26.6256 72.8959C25.5419 72.1116 24.4987 71.2713 23.4982 70.3822C23.4755 70.3621 23.4544 70.3408 23.4349 70.3185L23.4294 70.3119C22.5311 69.2663 21.52 68.3223 20.3978 67.5493C19.2778 66.778 18.0459 66.1726 16.7581 65.8311C16.1148 65.6659 15.4586 65.5579 14.8126 65.552C14.1677 65.5381 13.531 65.6299 12.9743 65.8362C12.6972 65.941 12.4461 66.0803 12.2377 66.2472C11.9961 66.4435 11.7557 66.6751 11.5253 66.9176C11.0637 67.4054 10.6362 67.9456 10.243 68.5076C9.4605 69.6342 8.80468 70.8631 8.3887 72.1411C8.18271 72.7796 8.04277 73.4312 8.00073 74.073C7.97835 74.3941 7.98909 74.7107 8.02185 75.02L8.0526 75.2498L8.09645 75.4659C8.13539 75.6122 8.17543 75.7596 8.23002 75.9085C8.44238 76.5045 8.76355 77.1013 9.13186 77.6728C9.50053 78.246 9.91506 78.8011 10.356 79.3385C11.2398 80.4134 12.2263 81.4195 13.2599 82.3749C15.333 84.2833 17.6044 85.9891 19.984 87.516C22.3664 89.0403 24.8628 90.3888 27.449 91.5251C30.0335 92.6645 32.7092 93.592 35.4444 94.2574C36.8117 94.5905 38.1951 94.8504 39.5859 95.0417C40.9774 95.2278 42.3776 95.3356 43.7779 95.3627L43.7821 95.3629C44.1841 95.3706 44.5036 95.705 44.4958 96.1095C44.4881 96.514 44.156 96.8354 43.7542 96.8277C42.2939 96.7993 40.8373 96.6871 39.3928 96.4935C37.9492 96.2952 36.5166 96.026 35.1032 95.6817C32.2763 94.9938 29.5214 94.038 26.8656 92.8675C24.2077 91.6996 21.6476 90.3163 19.2019 88.7517C16.7586 87.1833 14.4259 85.4333 12.2761 83.4545C11.2034 82.4629 10.1747 81.4155 9.23395 80.2717C8.76446 79.6993 8.31736 79.1023 7.90866 78.4669C7.50086 77.8312 7.12928 77.1566 6.8576 76.3969C6.78881 76.2077 6.73277 76.0084 6.68072 75.8068L6.61722 75.4939L6.57573 75.1888C6.53187 74.7832 6.52077 74.3776 6.54788 73.9802C6.60011 73.1847 6.7688 72.4194 7.0039 71.6895C7.48048 70.2297 8.19817 68.8971 9.05161 67.6656C9.48216 67.0511 9.94709 66.4614 10.4719 65.9064C10.7361 65.6289 11.012 65.3603 11.327 65.1043C11.6785 64.8223 12.0649 64.6159 12.4568 64.467C13.2435 64.1748 14.0502 64.073 14.833 64.0872C15.6187 64.0955 16.3845 64.2231 17.126 64.4137C18.6072 64.8069 19.9815 65.4883 21.2203 66.3404C22.4601 67.1948 23.5623 68.2262 24.5338 69.3575L24.465 69.287C26.395 70.9882 28.4862 72.5048 30.7225 73.774C32.9516 75.0546 35.309 76.117 37.7531 76.9389C40.1953 77.7664 42.7156 78.3705 45.2695 78.7897C47.8251 79.2056 50.4105 79.4478 53.0133 79.5808C53.3142 79.5962 53.5461 79.8544 53.5308 80.1573C53.5157 80.4568 53.2651 80.6881 52.9685 80.6786H52.9667Z" fill="#371B45"/>
<path d="M19.4033 65.6632C18.2691 64.3883 16.0305 57.5482 12.3338 57.7956C8.48238 58.0533 8.88545 64.1327 11.7839 66.3919" fill="#777781"/>
<g opacity="0.3">
<path d="M19.4031 65.6632L18.8352 65.7173C17.5645 63.3378 15.5301 58.9112 12.5432 59.1104C10.4684 59.2492 9.62804 61.0792 9.74978 63.0896C9.11161 60.634 9.80874 57.9632 12.3334 57.7956C16.0296 57.5484 18.268 64.3885 19.4031 65.6632Z" fill="white"/>
</g>
<path d="M11.7817 67.3021C11.5871 67.3021 11.3909 67.2395 11.2251 67.1104C9.1627 65.5027 8.10117 62.1628 8.85894 59.6652C9.36286 58.0046 10.6068 56.9882 12.2718 56.8766C15.602 56.6466 17.705 60.6776 19.097 63.3402C19.4725 64.0584 19.8608 64.8012 20.0796 65.0471C20.4148 65.4238 20.383 66.0027 20.0086 66.3401C19.6343 66.6771 19.059 66.6454 18.7239 66.2685C18.3551 65.8541 17.9718 65.1209 17.4867 64.193C16.3852 62.0859 14.5393 58.5583 12.3926 58.7038C11.4854 58.7646 10.8821 59.268 10.5994 60.2002C10.0626 61.969 10.8758 64.5218 12.3395 65.6627C12.7367 65.9723 12.8093 66.5475 12.5016 66.9472C12.3223 67.1801 12.0534 67.3021 11.7817 67.3021Z" fill="#371B45"/>
<path d="M16.0287 68.1644C15.7101 71.3584 13.5296 78.0545 9.55824 77.4745C6.7428 77.0621 5.74487 74.3964 5.93576 71.4593C6.19852 67.3745 8.75812 62.7644 11.9217 62.9508C12.2913 62.9722 12.7085 63.0418 13.1336 63.1744C14.6924 63.6663 16.3412 65.0343 16.0287 68.1644Z" fill="#777781"/>
<g opacity="0.3">
<path d="M15.8776 65.951C15.3086 64.9952 14.4202 64.4555 13.5595 64.1847C13.1344 64.0521 12.7171 63.9825 12.3476 63.9611C9.18401 63.7746 6.62423 68.3847 6.36147 72.4696C6.29068 73.5477 6.38112 74.5898 6.66335 75.4977C6.0523 74.4008 5.83685 72.9661 5.93475 71.4593C6.19751 67.3745 8.75729 62.7644 11.9208 62.9508C12.2904 62.972 12.7077 63.0418 13.1328 63.1744C14.2612 63.53 15.4338 64.3442 15.8776 65.951Z" fill="white"/>
</g>
<path d="M16.0287 68.1619C15.7101 71.3559 13.5296 78.052 9.55824 77.472C6.7428 77.0596 5.74487 74.3939 5.93576 71.4568C5.93576 71.4568 6.69894 75.7179 9.49455 75.0554C12.0234 74.4562 12.3811 73.2586 10.4479 70.6577C8.81653 68.4608 10.52 64.7253 13.1336 63.1719C14.6924 63.6638 16.3412 65.0318 16.0287 68.1619Z" fill="#626272"/>
<path d="M10.0477 78.428C9.84288 78.428 9.63598 78.4128 9.42717 78.3822C6.31812 77.9271 4.6459 75.0814 5.06316 70.9561C5.51399 66.4985 8.2843 61.8183 11.9739 62.0387H11.974C12.6957 62.0812 14.5118 62.3425 15.785 63.8449C16.728 64.9572 17.1143 66.442 16.9333 68.2578C16.6867 70.7321 15.3418 75.4072 12.7827 77.419C11.9293 78.09 11.0117 78.428 10.0477 78.428ZM11.7375 63.863C9.36598 63.863 7.22629 67.6538 6.87354 71.1414C6.75626 72.3011 6.61264 76.1197 9.68907 76.5702C10.3797 76.6714 11.0253 76.477 11.6625 75.976C13.6627 74.4034 14.8901 70.409 15.1227 68.0749C15.2523 66.7748 15.0093 65.7514 14.4005 65.033C13.5587 64.0399 12.249 63.8894 11.8676 63.8668C11.8243 63.8644 11.7808 63.863 11.7375 63.863Z" fill="#371B45"/>
<path d="M23.9802 69.8347C23.9802 69.8347 18.5112 62.6666 14.7337 63.7429C10.6989 64.8928 10.0624 69.3941 12.1072 70.7136C14.6789 72.3729 17.4405 69.7316 17.4405 69.7316" fill="#777781"/>
<g opacity="0.3">
<path d="M23.9804 69.8351L23.2292 69.8241C21.4462 67.8133 17.8032 64.2323 15.0556 65.0166C12.3907 65.7757 11.2073 67.9993 11.3025 69.7999C10.3774 67.9652 11.3835 64.6974 14.7341 63.743C18.5118 62.6663 23.9804 69.8351 23.9804 69.8351Z" fill="white"/>
</g>
<path d="M23.4031 70.2854C23.0853 69.8771 22.7287 69.4546 22.3733 69.053C22.0152 68.6487 21.6467 68.2541 21.2678 67.8717C20.5097 67.1084 19.7109 66.3891 18.8611 65.7728C18.0156 65.1639 17.0985 64.6383 16.187 64.442C15.7323 64.3473 15.3005 64.3407 14.9025 64.4616C14.4348 64.6011 13.9916 64.7993 13.5943 65.0599C12.7967 65.5742 12.1964 66.3602 11.9176 67.2416C11.7793 67.6803 11.7151 68.1411 11.7506 68.5782C11.7797 69.0157 11.9147 69.4238 12.1327 69.7337C12.245 69.8899 12.3691 70.0137 12.5336 70.1201C12.717 70.2468 12.9123 70.3453 13.1145 70.4246C13.5199 70.5779 13.9652 70.6337 14.4296 70.5879C15.3585 70.5066 16.3453 70.04 17.1899 69.4707L17.2159 69.4533C17.3829 69.3405 17.6095 69.3856 17.7216 69.5538C17.8158 69.6956 17.7989 69.8798 17.6914 70.0016C17.2849 70.4627 16.8385 70.826 16.3277 71.1487C15.8193 71.4649 15.251 71.7182 14.6248 71.8484C14.0019 71.9711 13.315 71.9714 12.6739 71.7678C12.3551 71.6682 12.0452 71.5352 11.7628 71.3649C11.4556 71.1844 11.1665 70.9263 10.9461 70.6405C10.4954 70.0622 10.2857 69.37 10.2248 68.7054C10.1693 68.0358 10.2624 67.3762 10.467 66.7618C10.872 65.5283 11.738 64.4883 12.7989 63.8124C13.3292 63.4724 13.9075 63.2233 14.4978 63.054C15.1604 62.8543 15.8653 62.8754 16.4855 63.0082C17.1125 63.1415 17.683 63.3764 18.2145 63.6502C18.7457 63.9258 19.2407 64.243 19.7107 64.5832C20.65 65.2651 21.4982 66.0321 22.2985 66.8372C22.6981 67.2403 23.0846 67.6545 23.46 68.0783C23.8374 68.5055 24.1957 68.9279 24.5577 69.3932C24.8055 69.7119 24.7496 70.1723 24.4332 70.4215C24.1166 70.6709 23.6593 70.6147 23.4114 70.2962L23.4031 70.2854Z" fill="#371B45"/>
<path d="M59.0107 80.1408L66.7372 93.5142L68.2348 96.1072C86.3081 95.8106 103.69 81.3018 104.667 75.3724C105.26 71.7722 102.089 67.2033 100.223 65.6907C100.222 65.6889 100.222 65.6889 100.22 65.6889C98.0816 63.9584 92.5006 64.5938 88.0186 69.8458C77.9902 78.8114 65.8601 79.8462 59.0107 80.1408Z" fill="#777781"/>
<path d="M80.7327 74.9219C77.9267 79.097 70.2384 82.2907 60.725 83.0982L59.0127 80.1353C64.2605 79.9101 72.6059 79.249 80.7327 74.9219Z" fill="#626272"/>
<path d="M66.7373 93.5128L68.2349 96.1058C86.3082 95.8092 103.69 81.3004 104.667 75.371C105.26 71.7708 102.089 67.2019 100.224 65.6893C100.222 65.6875 100.222 65.6875 100.22 65.6875C97.5976 66.5885 94.5788 68.004 94.5587 69.7418C94.5223 72.8164 96.4367 74.1093 96.5004 77.5117C96.5695 81.1409 92.5971 86.6476 83.464 87.164C73.7304 87.7152 70.3967 85.0306 70.3967 85.0306L66.7373 93.5128Z" fill="#626272"/>
<path d="M58.9871 79.5806C61.5898 79.4477 64.1753 79.2054 66.7309 78.7895C69.2848 78.3704 71.8049 77.7663 74.2471 76.9387C76.6914 76.1169 79.0488 75.0544 81.2777 73.7738C83.5141 72.5046 85.6052 70.988 87.5353 69.287L87.4665 69.3573C88.4381 68.226 89.5403 67.1947 90.78 66.3402C92.0187 65.4881 93.3931 64.8067 94.8744 64.4136C95.6159 64.223 96.3814 64.0953 97.1672 64.0873C97.95 64.0728 98.7569 64.1748 99.5434 64.4669C99.9353 64.6158 100.322 64.8221 100.673 65.1041C100.988 65.3601 101.264 65.6288 101.528 65.9062C102.053 66.4613 102.518 67.0509 102.949 67.6655C103.802 68.897 104.52 70.2297 104.996 71.6894C105.232 72.4193 105.4 73.1846 105.452 73.9802C105.48 74.3774 105.468 74.783 105.424 75.1888L105.383 75.4937L105.32 75.8067C105.268 76.0083 105.211 76.2077 105.143 76.3967C104.871 77.1565 104.499 77.8311 104.092 78.4667C103.683 79.1021 103.236 79.6991 102.766 80.2715C101.826 81.4155 100.797 82.4628 99.7242 83.4544C97.5744 85.4332 95.2416 87.1833 92.7984 88.7515C90.3526 90.3161 87.7925 91.6994 85.1346 92.8674C82.4789 94.0379 79.7239 94.9936 76.897 95.6816C75.4836 96.0259 74.051 96.295 72.6076 96.4934C71.1631 96.6869 69.7062 96.7992 68.2461 96.8276C67.8443 96.8353 67.5122 96.5137 67.5046 96.1092C67.4968 95.7048 67.8163 95.3707 68.2183 95.3628H68.2225C69.6225 95.3355 71.023 95.2276 72.4143 95.0416C73.8053 94.8502 75.1885 94.5904 76.556 94.2573C79.291 93.5918 81.9669 92.6643 84.5512 91.5251C87.1375 90.3886 89.6338 89.0401 92.0163 87.5158C94.396 85.989 96.6671 84.2832 98.7403 82.3747C99.7741 81.4194 100.761 80.4133 101.644 79.3384C102.085 78.8009 102.5 78.2459 102.868 77.6727C103.237 77.1012 103.558 76.5044 103.77 75.9083C103.825 75.7594 103.865 75.612 103.904 75.4657L103.948 75.2498L103.978 75.0198C104.011 74.7105 104.022 74.3939 104 74.0729C103.958 73.431 103.818 72.7795 103.611 72.1411C103.196 70.8629 102.54 69.634 101.757 68.5075C101.364 67.9455 100.937 67.4052 100.475 66.9174C100.245 66.675 100.004 66.4433 99.7625 66.247C99.5543 66.0802 99.3032 65.9408 99.026 65.8361C98.4694 65.6297 97.8327 65.538 97.1878 65.5521C96.5418 65.5577 95.8854 65.6658 95.2423 65.8309C93.9545 66.1725 92.7226 66.7779 91.6024 67.5492C90.4803 68.3223 89.4693 69.2661 88.5709 70.3118L88.568 70.3152C88.548 70.3383 88.524 70.3623 88.502 70.3822C87.5015 71.2711 86.4584 72.1115 85.3748 72.8958C84.2917 73.6817 83.156 74.3919 81.9949 75.0517C79.666 76.3628 77.2012 77.417 74.6695 78.2314C72.1374 79.0483 69.5388 79.6301 66.9208 80.0207C64.3023 80.4153 61.6604 80.5926 59.0337 80.6784H59.0324C58.7311 80.6883 58.4789 80.4505 58.469 80.1472C58.4596 79.8474 58.6907 79.596 58.9871 79.5806Z" fill="#371B45"/>
<path d="M92.5967 65.6632C93.7309 64.3883 95.9695 57.5482 99.6664 57.7956C103.518 58.0533 103.115 64.1327 100.216 66.3919" fill="#777781"/>
<g opacity="0.3">
<path d="M92.5967 65.6632L93.1646 65.7173C94.4353 63.3378 96.4697 58.9112 99.4566 59.1104C101.532 59.2492 102.372 61.0792 102.25 63.0896C102.888 60.634 102.191 57.9632 99.6666 57.7956C95.9702 57.5484 93.7318 64.3885 92.5967 65.6632Z" fill="white"/>
</g>
<path d="M100.217 67.3018C99.9457 67.3018 99.6768 67.1797 99.4976 66.9468C99.1898 66.5471 99.2625 65.9719 99.6597 65.6623C101.123 64.5214 101.937 61.9686 101.4 60.1998C101.117 59.2676 100.514 58.7642 99.6066 58.7034C97.4618 58.5561 95.614 62.0857 94.5124 64.1926C94.0272 65.1207 93.644 65.8536 93.2752 66.2681C92.9401 66.645 92.3648 66.6772 91.9905 66.3396C91.6161 66.0023 91.5843 65.4234 91.9195 65.0467C92.1383 64.8008 92.5266 64.058 92.9021 63.34C94.2942 60.677 96.3945 56.6509 99.7274 56.8763C101.392 56.9878 102.636 58.0042 103.14 59.6651C103.898 62.1625 102.837 65.5023 100.774 67.11C100.608 67.2392 100.412 67.3018 100.217 67.3018Z" fill="#371B45"/>
<path d="M95.973 68.1644C96.2917 71.3584 98.4722 78.0545 102.444 77.4745C105.259 77.0621 106.257 74.3964 106.066 71.4593C105.803 67.3745 103.244 62.7644 100.08 62.9508C99.7104 62.9722 99.2933 63.0418 98.868 63.1744C97.3094 63.6663 95.6604 65.0343 95.973 68.1644Z" fill="#777781"/>
<g opacity="0.3">
<path d="M96.1211 65.951C96.6903 64.9952 97.5785 64.4555 98.4392 64.1847C98.8643 64.0521 99.2816 63.9825 99.6511 63.9611C102.815 63.7746 105.375 68.3847 105.637 72.4696C105.708 73.5477 105.618 74.5898 105.336 75.4977C105.946 74.4008 106.162 72.9661 106.064 71.4593C105.801 67.3745 103.242 62.7644 100.078 62.9508C99.7083 62.972 99.2912 63.0418 98.8659 63.1744C97.7377 63.53 96.5649 64.3442 96.1211 65.951Z" fill="white"/>
</g>
<path d="M95.973 68.1619C96.2917 71.3559 98.4722 78.052 102.444 77.472C105.259 77.0596 106.257 74.3939 106.066 71.4568C106.066 71.4568 105.303 75.7179 102.507 75.0554C99.9784 74.4562 99.6206 73.2586 101.554 70.6577C103.185 68.4608 101.482 64.7253 98.868 63.1719C97.3094 63.6638 95.6604 65.0318 95.973 68.1619Z" fill="#626272"/>
<path d="M101.952 78.4278C100.988 78.4278 100.071 78.0898 99.2173 77.4187C96.6584 75.4069 95.3135 70.7319 95.0668 68.2575C94.8858 66.442 95.2721 64.9572 96.2149 63.8447C97.4883 62.3423 99.3044 62.081 100.026 62.0385H100.026C103.722 61.8221 106.486 66.4985 106.937 70.9558C107.354 75.0814 105.682 77.9268 102.573 78.3819C102.364 78.4126 102.157 78.4278 101.952 78.4278ZM100.132 63.8665C99.7511 63.8891 98.4413 64.0395 97.5994 65.033C96.9907 65.7512 96.7477 66.7746 96.8774 68.0747C97.11 70.4088 98.3374 74.4032 100.338 75.9758C100.975 76.4766 101.62 76.671 102.311 76.57C105.387 76.1195 105.244 72.3008 105.127 71.1411C104.767 67.59 102.559 63.7287 100.132 63.8665Z" fill="#371B45"/>
<path d="M88.0195 69.8347C88.0195 69.8347 93.4886 62.6666 97.266 63.7429C101.301 64.8928 101.937 69.3941 99.8925 70.7136C97.3208 72.3729 94.5592 69.7316 94.5592 69.7316" fill="#777781"/>
<g opacity="0.3">
<path d="M88.0195 69.8351L88.7709 69.8241C90.5536 67.8133 94.1967 64.2323 96.9443 65.0166C99.6092 65.7757 100.793 67.9993 100.697 69.7999C101.623 67.9652 100.616 64.6974 97.266 63.743C93.4883 62.6663 88.0195 69.8351 88.0195 69.8351Z" fill="white"/>
</g>
<path d="M87.4418 69.3934C87.8037 68.9281 88.1622 68.5054 88.5394 68.0782C88.915 67.6544 89.3015 67.2404 89.7011 66.8374C90.5012 66.0322 91.3496 65.2653 92.2889 64.5831C92.7588 64.2431 93.2537 63.9259 93.7849 63.6503C94.3164 63.3765 94.8871 63.1414 95.514 63.0081C96.1343 62.8753 96.8393 62.8545 97.5016 63.0539C98.092 63.2235 98.6702 63.4725 99.2007 63.8124C100.261 64.4883 101.127 65.5284 101.533 66.7619C101.737 67.3761 101.83 68.0359 101.775 68.7054C101.714 69.3701 101.504 70.0621 101.054 70.6406C100.833 70.9263 100.544 71.1843 100.237 71.3649C99.9542 71.5353 99.6445 71.6683 99.3259 71.7679C98.6845 71.9715 97.9975 71.9712 97.3746 71.8485C96.7486 71.7181 96.1802 71.465 95.6719 71.1488C95.1611 70.8259 94.7148 70.4626 94.3081 70.0017C94.1745 69.8503 94.1881 69.6182 94.3388 69.4838C94.4657 69.3705 94.6489 69.3624 94.7835 69.4531L94.8096 69.4708C95.6543 70.0402 96.6411 70.5067 97.5699 70.5881C98.0343 70.6338 98.4795 70.578 98.885 70.4247C99.0873 70.3452 99.2824 70.2469 99.466 70.1202C99.6303 70.0136 99.7544 69.8898 99.8669 69.7336C100.085 69.424 100.22 69.0158 100.249 68.5783C100.285 68.1412 100.22 67.6805 100.082 67.2417C99.8032 66.3603 99.2027 65.5744 98.4051 65.0598C98.0079 64.7994 97.5648 64.6013 97.0971 64.4615C96.6991 64.3409 96.2673 64.3475 95.8124 64.4419C94.9009 64.6384 93.984 65.164 93.1385 65.7729C92.2887 66.3893 91.4897 67.1086 90.7318 67.8718C90.3529 68.254 89.9845 68.6488 89.6262 69.0531C89.2709 69.4545 88.9141 69.8772 88.5966 70.2855L88.5882 70.2962C88.3404 70.6148 87.8831 70.671 87.5664 70.4216C87.2498 70.1722 87.1941 69.712 87.4418 69.3934Z" fill="#371B45"/>
<path d="M51.6136 141.112C49.2664 144.038 41.4851 143.066 38.6027 142.914C35.1544 142.733 34.6467 139.779 35.3109 137.973C36.137 135.732 38.2624 134.979 38.2624 134.979C36.7266 131.731 35.3345 126.206 34.5048 121.119C33.8151 116.898 33.513 112.977 33.8351 110.906L54.4469 116.66C51.3497 127.98 54.456 137.567 51.6136 141.112Z" fill="#777781"/>
<path d="M51.6136 141.112C49.2664 144.038 41.4851 143.066 38.6027 142.914C35.1544 142.733 34.6467 139.779 35.3109 137.973C35.3109 137.973 35.1689 140.2 40.6026 140.2C46.038 140.2 49.2625 140.103 49.9759 135.963C50.9187 130.502 48.5003 128.907 45.7159 127.4C43.5796 126.241 38.0131 124.679 34.5048 121.119C33.8151 116.898 33.513 112.977 33.8351 110.906L54.4469 116.66C51.3497 127.98 54.456 137.567 51.6136 141.112Z" fill="#626272"/>
<path d="M44.1598 144.112C42.564 144.112 41.011 144.001 39.7414 143.909C39.2903 143.877 38.8892 143.848 38.5549 143.83C36.4591 143.719 35.3866 142.728 34.856 141.916C33.9285 140.496 34.0425 138.784 34.4583 137.656C35.0644 136.012 36.253 135.05 37.0771 134.554C34.4701 128.341 32.1951 115.527 32.9358 110.766L34.7335 111.049C34.0713 115.307 36.2897 128.673 39.0848 134.587C39.1955 134.821 39.2023 135.092 39.1032 135.332C39.0041 135.572 38.8086 135.758 38.5653 135.844C38.553 135.849 36.8246 136.502 36.1645 138.293C35.8956 139.022 35.857 140.114 36.3766 140.91C36.8128 141.578 37.5778 141.945 38.6503 142.002C38.9942 142.02 39.4069 142.049 39.8712 142.083C42.8772 142.299 49.1321 142.749 50.9045 140.538C52.0842 139.067 52.059 136.012 52.027 132.145C51.991 127.782 51.9461 122.351 53.5694 116.419L55.3237 116.905C53.7678 122.591 53.8115 127.88 53.8466 132.13C53.8815 136.363 53.9092 139.707 52.3206 141.688C50.7388 143.661 47.3642 144.112 44.1598 144.112Z" fill="#371B45"/>
<path d="M60.387 141.112C62.7344 144.038 70.5154 143.066 73.3979 142.914C76.8462 142.733 77.3539 139.779 76.6897 137.973C75.8636 135.732 73.7382 134.979 73.7382 134.979C75.274 131.731 76.666 126.206 77.4958 121.119C78.1855 116.898 78.4876 112.977 78.1655 110.906L57.5537 116.66C60.6508 127.98 57.5446 137.567 60.387 141.112Z" fill="#777781"/>
<path d="M60.387 141.112C62.7344 144.038 70.5154 143.066 73.3979 142.914C76.8462 142.733 77.3539 139.779 76.6897 137.973C76.6897 137.973 76.8316 140.2 71.398 140.2C65.9626 140.2 62.738 140.103 62.0247 135.963C61.0821 130.502 63.5005 128.907 66.2846 127.4C68.421 126.241 73.9874 124.679 77.4958 121.119C78.1855 116.898 78.4876 112.977 78.1655 110.906L57.5537 116.66C60.6508 127.98 57.5446 137.567 60.387 141.112Z" fill="#626272"/>
<path d="M67.8407 144.112C64.6361 144.112 61.2619 143.662 59.6798 141.688C58.0913 139.707 58.119 136.363 58.1539 132.13C58.189 127.88 58.2327 122.591 56.6768 116.905L58.4311 116.419C60.0544 122.351 60.0095 127.781 59.9735 132.145C59.9415 136.012 59.9163 139.067 61.096 140.538C62.8686 142.749 69.1232 142.299 72.1294 142.083C72.5936 142.049 73.0062 142.02 73.3501 142.002C74.4227 141.945 75.1878 141.578 75.6239 140.91C76.1436 140.114 76.1049 139.022 75.8362 138.293C75.1761 136.502 73.4477 135.849 73.4303 135.842C73.1898 135.754 72.9949 135.566 72.8979 135.328C72.801 135.089 72.8058 134.82 72.9158 134.587C75.7108 128.674 77.9292 115.307 77.267 111.049L79.0647 110.766C79.8053 115.527 77.5304 128.342 74.9234 134.554C75.7476 135.05 76.9363 136.012 77.5422 137.656C77.9581 138.784 78.072 140.496 77.1445 141.916C76.6138 142.728 75.5414 143.719 73.4454 143.83C73.1113 143.848 72.7103 143.877 72.2591 143.909C70.9899 144.001 69.4362 144.112 67.8407 144.112Z" fill="#371B45"/>
<path d="M74.8227 118.403C69.6488 124.174 59.0632 125.1 55.9997 125.1C52.9363 125.1 42.3505 124.174 37.1766 118.403C28.66 108.905 34.3094 96.0499 38.4127 89.2537C40.145 86.3851 41.6022 84.5962 41.6022 84.5962L55.9997 76.5938L70.397 84.5962C70.397 84.5962 71.8544 86.3851 73.5866 89.2537C77.6899 96.0498 83.3393 108.905 74.8227 118.403Z" fill="white"/>
<path d="M74.8225 118.401C69.6481 124.172 59.0628 125.098 55.9998 125.098C52.9371 125.098 42.3515 124.172 37.1774 118.401C33.1429 113.9 32.2856 108.648 32.9404 103.641C33.3926 106.774 34.6733 109.857 37.1774 112.65C42.3515 118.419 52.9371 119.346 55.9998 119.346C59.0628 119.346 69.6481 118.419 74.8225 112.65C77.3267 109.857 78.6075 106.774 79.0595 103.641C79.7142 108.648 78.8571 113.9 74.8225 118.401Z" fill="#D3DDEA"/>
<path d="M73.5867 89.2454C68.6194 90.922 62.5524 91.9059 55.9998 91.9059C49.447 91.9059 43.38 90.922 38.4127 89.2454C40.1451 86.3768 41.6023 84.5877 41.6023 84.5877C41.6023 84.5877 25.4255 74.4453 55.9998 74.4453C86.5739 74.4453 70.3971 84.5877 70.3971 84.5877C70.3971 84.5877 71.8543 86.3768 73.5867 89.2454Z" fill="#777781"/>
<path d="M74.6477 79.6478C69.9363 81.8947 63.3162 83.2937 55.983 83.2937C48.6676 83.2937 42.0623 81.902 37.3529 79.6643C36.9779 77.0804 40.4153 74.4453 55.9994 74.4453C71.5504 74.4453 75.0062 77.0694 74.6477 79.6478Z" fill="#626272"/>
<path d="M36.9057 118.645C36.6279 118.367 36.3542 118.083 36.0818 117.797C35.8263 117.496 35.5688 117.194 35.3177 116.886C35.0873 116.563 34.8497 116.242 34.6255 115.912C34.4204 115.571 34.2026 115.234 34.0075 114.885C33.2394 113.479 32.6795 111.949 32.3543 110.373C32.0269 108.796 31.9252 107.179 32.014 105.585C32.1041 103.99 32.3465 102.414 32.7062 100.874C33.0518 99.3291 33.5296 97.8229 34.0739 96.347C34.344 95.6077 34.6555 94.8864 34.9685 94.1664C35.2942 93.4525 35.6323 92.7444 36.0037 92.0548C36.7341 90.6691 37.5508 89.3336 38.429 88.0441C39.3132 86.7552 40.2569 85.5221 41.3201 84.3604C41.4564 84.2115 41.687 84.202 41.8351 84.3391C41.9692 84.4637 41.9896 84.6658 41.8908 84.8134L41.8832 84.825C41.465 85.4505 41.045 86.0969 40.6487 86.7476C40.2465 87.3964 39.8544 88.0512 39.4739 88.7115C38.7102 90.0306 37.9899 91.3723 37.3228 92.7362C36.6557 94.0997 36.0257 95.4792 35.4824 96.891C34.9324 98.2994 34.4633 99.7393 34.1241 101.206C33.4539 104.138 33.2858 107.176 33.8202 110.085C34.0826 111.538 34.5119 112.962 35.1288 114.312C35.7386 115.667 36.5289 116.948 37.4462 118.154L37.452 118.162C37.5743 118.323 37.5437 118.553 37.384 118.676C37.2373 118.789 37.0329 118.773 36.9057 118.645Z" fill="#371B45"/>
<path d="M70.6793 84.3592C71.7483 85.5165 72.6922 86.75 73.5788 88.0374C74.0151 88.684 74.4461 89.3363 74.8449 90.0085C75.0491 90.3416 75.2429 90.6813 75.4396 91.0195C75.6276 91.3625 75.8205 91.7031 76.0006 92.051C76.7334 93.4356 77.3743 94.872 77.9251 96.346C78.4696 97.8217 78.9478 99.3276 79.2934 100.873C79.6528 102.413 79.8957 103.989 79.986 105.584C80.0737 107.177 79.9714 108.795 79.6397 110.37C79.311 111.946 78.7522 113.475 77.9834 114.879C77.7883 115.228 77.5716 115.565 77.367 115.907C77.1416 116.236 76.9065 116.557 76.6763 116.88L75.9146 117.793C75.6432 118.08 75.3701 118.365 75.0939 118.644C74.9517 118.787 74.721 118.788 74.5785 118.645C74.447 118.513 74.4364 118.305 74.5474 118.161L74.5534 118.153C75.476 116.951 76.2668 115.67 76.8794 114.316C77.4955 112.964 77.9257 111.54 78.1844 110.084C78.7096 107.174 78.5466 104.137 77.8755 101.204C77.5359 99.7379 77.0673 98.2979 76.5174 96.8897C76.2441 96.1846 75.9497 95.4869 75.6431 94.7942C75.3246 94.1068 75.0123 93.416 74.6717 92.7374C74.0015 91.3753 73.2822 90.0338 72.5173 88.7157C72.1385 88.0542 71.7456 87.4001 71.3453 86.75L70.7391 85.7778L70.1164 84.8236L70.1077 84.8102C69.9972 84.641 70.044 84.4136 70.2123 84.3022C70.3632 84.2028 70.5606 84.2303 70.6793 84.3592Z" fill="#371B45"/>
<path d="M77.0245 34.5656C71.9039 29.6011 72.4642 25.7999 73.9971 23.3726C75.9334 20.3066 79.1782 16.9024 83.8559 17.4783C90.5214 18.2989 94.9126 24.1234 92.6057 30.4276C91.2273 34.1947 88.6741 36.2677 86.3347 37.4076C83.7074 38.688 80.8193 38.2445 77.0245 34.5656Z" fill="#777781"/>
<g opacity="0.3">
<path d="M72.3818 26.4162C74.3329 23.0328 77.8804 18.7928 83.1911 19.4475C88.7468 20.1327 92.7953 24.1327 93.0036 29.0656C94.2665 23.3061 90.0397 18.2396 83.858 17.4782C77.4506 16.6901 73.7328 23.3667 72.3818 26.4162Z" fill="white"/>
</g>
<path d="M72.1165 26.1026C72.357 25.1403 72.7444 24.2267 73.2097 23.3525C73.6718 22.4748 74.2462 21.6563 74.8824 20.8824C75.5169 20.1069 76.2299 19.383 77.0288 18.7455C77.4291 18.4276 77.8547 18.1372 78.2976 17.871C78.7471 17.6151 79.2102 17.3756 79.7021 17.1969C80.6776 16.8252 81.7298 16.6301 82.7746 16.625C83.0354 16.6329 83.2976 16.6274 83.556 16.658L83.9447 16.6933L84.3207 16.7488C84.8222 16.8193 85.3179 16.9337 85.8083 17.0643C86.788 17.3339 87.7357 17.7289 88.6252 18.2319C89.5155 18.7342 90.3328 19.37 91.0628 20.0955C92.5068 21.5592 93.5404 23.4838 93.8381 25.5524C94.006 26.5811 93.9784 27.6341 93.8181 28.6543C93.6654 29.6788 93.3156 30.6594 92.9175 31.5809C92.4951 32.5011 91.9922 33.3894 91.3807 34.2043C90.7615 35.0122 90.0505 35.7491 89.2633 36.3899C87.6886 37.677 85.8294 38.5584 83.897 39.0764C83.5085 39.1804 83.1098 38.9479 83.0065 38.5571C82.9027 38.1661 83.134 37.7649 83.5224 37.6607L83.5273 37.6594C85.2822 37.1886 86.954 36.3917 88.3482 35.2508C89.0461 34.6822 89.6733 34.0316 90.222 33.3174C90.7628 32.5961 91.2093 31.8063 91.5886 30.9826C91.9498 30.1428 92.2511 29.2987 92.3814 28.4171C92.5181 27.5409 92.5428 26.6471 92.3994 25.7769C92.1417 24.029 91.2592 22.4069 90.0121 21.1518C88.7553 19.8968 87.1346 19.0202 85.4067 18.56C84.5412 18.3392 83.6379 18.1861 82.7828 18.1872C82.3512 18.1962 81.9196 18.2266 81.4972 18.313C81.0723 18.3866 80.6578 18.5133 80.2518 18.6642C78.6212 19.2709 77.1929 20.4462 76.0135 21.8387C74.8378 23.2485 73.8643 24.8279 72.7792 26.4055C72.6629 26.5745 72.4325 26.6167 72.2644 26.4996C72.1345 26.409 72.0803 26.2486 72.1165 26.1026Z" fill="#371B45"/>
<path d="M34.6276 34.5656C39.7482 29.6011 39.188 25.7999 37.655 23.3726C35.7189 20.3066 32.4742 16.9024 27.7963 17.4783C21.1309 18.2989 16.7396 24.1234 19.0464 30.4276C20.425 34.1947 22.9782 36.2677 25.3176 37.4076C27.9449 38.688 30.833 38.2445 34.6276 34.5656Z" fill="#777781"/>
<g opacity="0.3">
<path d="M39.2711 26.4162C37.3202 23.0328 33.7725 18.7928 28.4619 19.4475C22.9063 20.1327 18.8577 24.1327 18.6493 29.0656C17.3866 23.3061 21.6133 18.2396 27.795 17.4782C34.2023 16.6901 37.9203 23.3667 39.2711 26.4162Z" fill="white"/>
</g>
<path d="M38.8728 26.4055C37.7877 24.8279 36.8142 23.2485 35.6385 21.8387C34.4591 20.4464 33.0308 19.2709 31.4004 18.6642C30.9944 18.5133 30.5797 18.3866 30.155 18.3132C29.7324 18.2266 29.3008 18.1962 28.869 18.1872C28.0141 18.1861 27.1106 18.3392 26.2452 18.56C24.5172 19.0202 22.8969 19.8968 21.6399 21.1519C20.3928 22.4071 19.5104 24.029 19.2526 25.7769C19.1092 26.6471 19.1339 27.5411 19.2704 28.4171C19.4009 29.2987 19.7022 30.1428 20.0635 30.9826C20.4429 31.8065 20.8894 32.5961 21.43 33.3176C21.9785 34.0316 22.6059 34.6823 23.3038 35.2508C24.698 36.3917 26.37 37.1886 28.1247 37.6594L28.1298 37.6607C28.5182 37.7651 28.7491 38.1663 28.6455 38.5573C28.5422 38.9482 28.1435 39.1806 27.755 39.0764C25.8224 38.5584 23.9633 37.677 22.3885 36.3899C21.6016 35.7491 20.8905 35.0122 20.2713 34.2043C19.6598 33.3894 19.1567 32.5013 18.7347 31.5809C18.3364 30.6594 17.9868 29.6788 17.834 28.6543C17.6736 27.6341 17.646 26.5811 17.8139 25.5524C18.1115 23.4838 19.1454 21.5592 20.5892 20.0955C21.319 19.37 22.1365 18.7342 23.0268 18.2319C23.9165 17.7289 24.8642 17.3339 25.8436 17.0643C26.3343 16.9337 26.8297 16.8193 27.3313 16.749L27.7073 16.6933L28.096 16.6581C28.3544 16.6274 28.6166 16.6329 28.8774 16.625C29.9222 16.6301 30.9744 16.8252 31.9499 17.1969C32.4416 17.3756 32.9049 17.6151 33.3546 17.871C33.7973 18.1374 34.2227 18.4276 34.6231 18.7455C35.4221 19.383 36.1352 20.1069 36.7696 20.8824C37.4058 21.6563 37.9804 22.475 38.4423 23.3525C38.9076 24.2269 39.295 25.1403 39.5355 26.1026C39.5856 26.3021 39.4655 26.5044 39.2673 26.5546C39.1139 26.5936 38.9582 26.5289 38.8728 26.4055Z" fill="#371B45"/>
<path d="M66.2503 79.3317C75.4112 77.981 83.9938 76.6884 87.7797 68.6962C90.5771 62.7906 88.5682 56.805 88.5676 56.7963C88.495 56.4434 89.9715 31.8258 71.0989 23.196C65.7775 20.7629 60.7762 20.1099 55.8439 20.0469C50.9118 20.1055 45.91 20.7541 40.5866 23.1825C21.7063 31.7958 23.1608 56.4148 23.0878 56.7675C23.0871 56.7765 21.0732 62.7602 23.8656 68.6682C27.6445 76.6638 36.2261 77.9636 45.3856 79.3226L66.2503 79.3317Z" fill="white"/>
<path d="M87.7796 68.6829C83.9933 76.6758 75.41 77.9679 66.2505 79.319C66.2505 79.319 61.1688 80.4538 55.5679 80.4538C49.9672 80.4538 45.3854 79.31 45.3854 79.31C36.2259 77.9502 27.6448 76.6511 23.8654 68.6551C22.2897 65.3214 22.2444 61.9633 22.5047 59.6695C22.6906 61.1548 23.0953 62.7518 23.8476 64.3439C26.6932 70.3642 32.3134 73.5494 38.8265 75.3363C42.1847 76.2576 45.656 76.6945 49.1367 76.6961L55.549 76.9573L62.6233 76.7018C66.1291 76.7033 69.6277 76.2689 73.0074 75.3308C79.4371 73.5459 84.9223 70.3664 87.7617 64.3717C88.544 62.7209 88.9502 61.0623 89.1287 59.5312C89.4082 61.8289 89.3962 65.2685 87.7796 68.6829Z" fill="#D3DDEA"/>
<path d="M51.2012 80.5613C49.3919 80.5042 47.6011 80.323 45.8166 80.0991C44.0345 79.8724 42.2509 79.5955 40.4639 79.2901C38.6782 78.978 36.89 78.6143 35.1224 78.1128C33.3569 77.6116 31.6065 76.9694 29.958 76.0748C28.3125 75.1837 26.7752 74.022 25.5221 72.5863C24.8943 71.8716 24.335 71.0957 23.8557 70.2763C23.3756 69.4588 22.9631 68.6011 22.6363 67.706C22.3089 66.8133 22.0613 65.8927 21.8911 64.9603C21.7279 64.0269 21.6307 63.0829 21.6152 62.1389C21.5963 61.1953 21.646 60.252 21.7643 59.317C21.8232 58.8495 21.8986 58.384 21.9919 57.9201C22.0398 57.6883 22.0898 57.4568 22.1477 57.2252L22.2385 56.8769L22.2882 56.7013L22.3149 56.6117L22.3289 56.5661L22.3362 56.5433C22.3393 56.5319 22.3218 56.5899 22.3187 56.611C22.3129 56.641 22.3093 56.6714 22.3076 56.7017L22.3217 56.603C22.3147 56.6299 22.3104 56.6581 22.3087 56.6861C22.3071 56.7309 22.3082 56.6883 22.3078 56.6934L22.308 56.655L22.3073 56.5517L22.3047 56.3332L22.3018 55.8897C22.3011 55.5932 22.3029 55.2966 22.3078 55.0001C22.3176 54.407 22.3402 53.8147 22.3721 53.2231C22.4365 52.0401 22.5409 50.8599 22.6874 49.6844C22.9788 47.3339 23.4317 45.0004 24.0708 42.713C24.7102 40.4267 25.5371 38.1855 26.5909 36.0465C27.6401 33.9067 28.9184 31.8691 30.439 30.021C31.9559 28.1717 33.7132 26.5142 35.6604 25.1247C37.6037 23.7337 39.7442 22.6112 41.9502 21.7575C43.0548 21.3242 44.1812 20.9461 45.3241 20.6278C46.4678 20.3125 47.6275 20.0598 48.7943 19.8614C51.1332 19.4644 53.481 19.2996 55.8449 19.2734C58.2089 19.3051 60.556 19.4754 62.8934 19.8779C64.0593 20.0786 65.218 20.3339 66.3605 20.652C67.5021 20.9726 68.6271 21.3532 69.7298 21.7888C71.9331 22.6473 74.0685 23.7735 76.0065 25.1674C77.9489 26.5591 79.7012 28.2173 81.2129 30.0672C82.728 31.9156 84.001 33.9526 85.045 36.0915C86.0937 38.2298 86.9155 40.4698 87.55 42.7546C88.1843 45.0403 88.6325 47.372 88.9193 49.7205C89.0625 50.895 89.1699 52.0736 89.2339 53.2555C89.2662 53.8464 89.2885 54.4379 89.2993 55.0303C89.3049 55.3264 89.3073 55.6227 89.3073 55.919L89.3051 56.3621L89.3033 56.5806L89.3027 56.6843L89.3029 56.7236C89.3027 56.7194 89.3038 56.7601 89.3024 56.7183C89.3007 56.6925 89.2969 56.6667 89.2904 56.6416L89.3034 56.7346C89.3022 56.7062 89.2985 56.6775 89.2931 56.6493C89.2905 56.6299 89.2734 56.5737 89.2772 56.5868L89.2843 56.6097L89.2985 56.6553L89.3256 56.7447L89.3757 56.9208C89.4083 57.0379 89.4385 57.154 89.4672 57.2702C89.5258 57.5026 89.5766 57.7348 89.6248 57.9678C89.7192 58.4334 89.7957 58.9009 89.8554 59.3708C89.9756 60.3101 90.0253 61.2581 90.0075 62.207C89.9911 63.1558 89.8979 64.1054 89.7316 65.0441C89.5598 65.9819 89.3116 66.9085 88.9808 67.8069C88.6473 68.706 88.234 69.5698 87.7471 70.392C87.2601 71.2151 86.6962 71.9971 86.0566 72.7118C84.7817 74.1478 83.226 75.3108 81.5604 76.1951C80.7276 76.6397 79.8681 77.0228 78.9956 77.355C78.1214 77.6839 77.2343 77.9632 76.3426 78.2078C74.5579 78.6956 72.7554 79.0491 70.9561 79.3512C67.3553 79.9451 63.7754 80.4225 60.1365 80.5708C59.9345 80.5791 59.7644 80.421 59.7562 80.2179C59.7489 80.0407 59.8676 79.8876 60.0321 79.846L60.0341 79.8456C61.7992 79.3985 63.579 79.0586 65.364 78.7526C67.1467 78.4486 68.937 78.1902 70.7052 77.8769C72.4734 77.5632 74.2261 77.2014 75.9319 76.7179C77.6346 76.2297 79.2958 75.6273 80.8307 74.8115C82.3657 73.9982 83.7606 72.9524 84.9023 71.6704C86.0416 70.3929 86.942 68.8794 87.5536 67.267C87.8566 66.4587 88.0864 65.6215 88.2482 64.7689C88.4043 63.9154 88.4953 63.0468 88.5155 62.1742C88.5361 61.3018 88.4922 60.4256 88.384 59.5578C88.3301 59.1238 88.2608 58.6918 88.1756 58.2648C88.1321 58.0516 88.0864 57.8388 88.0344 57.6295L87.9538 57.3182L87.9108 57.1657L87.8888 57.0917L87.8777 57.0558L87.8721 57.0379C87.8739 57.0443 87.8548 56.9811 87.8499 56.9551C87.8422 56.9201 87.8366 56.8846 87.8331 56.8494L87.8462 56.9425C87.8386 56.8992 87.8333 56.8551 87.8306 56.8112C87.8273 56.7513 87.8293 56.7736 87.8286 56.7511L87.8282 56.6811L87.8291 56.5661L87.8319 56.3473L87.8351 55.9159L87.8302 55.0554C87.8213 54.4817 87.8015 53.9076 87.772 53.334C87.7118 52.1868 87.616 51.0406 87.4736 49.9003C87.1917 47.6199 86.7531 45.3597 86.1373 43.153C85.5214 40.947 84.7265 38.7938 83.7202 36.7495C82.7181 34.704 81.5029 32.768 80.0646 31.0192C78.6296 29.2686 76.9735 27.7067 75.1378 26.3954C73.3006 25.08 71.2984 24.0245 69.179 23.2016C68.1237 22.7866 67.0489 22.4246 65.9576 22.1199C64.8654 21.8175 63.7568 21.5751 62.6384 21.3841C60.4049 21.0016 58.1139 20.8391 55.8444 20.8118C53.5745 20.8406 51.284 21.0047 49.0514 21.3885C47.9334 21.58 46.8254 21.8232 45.7339 22.1259C44.6434 22.4314 43.5692 22.794 42.5151 23.2091C40.3971 24.0331 38.3978 25.0888 36.5639 26.4038C34.7306 27.7139 33.0766 29.2737 31.6438 31.022C30.2079 32.7686 28.9943 34.7018 27.9938 36.7447C26.9888 38.7863 26.1954 40.9369 25.5802 43.1402C24.9651 45.3443 24.5273 47.602 24.246 49.8798C24.1044 51.0187 24.0038 52.1632 23.9419 53.309C23.911 53.8819 23.8904 54.4551 23.8795 55.0283L23.8711 55.8879L23.8726 56.3189L23.8744 56.5378L23.875 56.6531L23.8744 56.724C23.8735 56.7472 23.8755 56.7229 23.8722 56.7861C23.8691 56.832 23.8637 56.8784 23.8555 56.9236L23.8695 56.8251C23.8657 56.8619 23.8598 56.8991 23.8518 56.9357C23.8467 56.9637 23.8269 57.0283 23.8282 57.0238L23.8225 57.0413L23.8116 57.0767L23.7894 57.1496L23.7465 57.3001L23.6653 57.6077C23.6127 57.8147 23.5667 58.0253 23.5225 58.236C23.436 58.6589 23.3654 59.0866 23.3099 59.5164C23.1984 60.376 23.1502 61.2445 23.1649 62.1096C23.1762 62.9752 23.2632 63.8368 23.4084 64.6856C23.5607 65.5332 23.7821 66.3659 24.0748 67.1716C24.365 67.9763 24.7371 68.7553 25.1691 69.4967C25.5997 70.2378 26.0992 70.9346 26.6602 71.5773C27.7795 72.8673 29.1575 73.92 30.6726 74.7475C32.1894 75.5773 33.836 76.1911 35.5274 76.6767C37.2203 77.1629 38.9607 77.5237 40.7163 77.8359C41.5945 77.9919 42.4772 78.1346 43.3625 78.2723C44.2478 78.4092 45.1365 78.5422 46.0231 78.6978C47.7953 79.0077 49.5613 79.36 51.3088 79.8369C51.504 79.8902 51.6194 80.0927 51.5665 80.2893C51.5211 80.4575 51.367 80.5664 51.2012 80.5613Z" fill="#371B45"/>
<path d="M69.1059 23.5556C67.9546 20.9749 73.7651 21.0046 73.1691 18.6286C72.7358 16.9012 65.7091 14.0569 60.8543 19.0625C60.8543 19.0625 60.7125 17.6906 60.8095 15.8759C60.9258 13.7015 60.6445 11.9217 59.7181 11.687C57.8412 11.2112 54.8817 15.2238 48.6874 19.1732C46.2918 20.7008 41.6524 22.974 39.4932 23.7364L56.3027 34.4779L69.1059 23.5556Z" fill="white"/>
<g opacity="0.4">
<path d="M72.5424 20.1048C70.7948 18.482 64.9357 16.9055 60.7174 21.2545C60.7174 21.2545 60.5768 19.8831 60.6738 18.068C60.7891 15.8934 60.5073 14.114 59.5823 13.8789C57.7049 13.4033 54.7445 17.416 48.5511 21.366C46.7947 22.4847 43.8333 24.0064 41.5261 25.0372L39.4932 23.7369C41.6526 22.9741 46.2916 20.7005 48.6868 19.174C54.8818 15.2244 57.8407 11.2115 59.7181 11.6869C60.6447 11.9222 60.9265 13.7018 60.8095 15.876C60.7125 17.6911 60.8547 19.0629 60.8547 19.0629C65.7083 14.057 72.7362 16.9015 73.1688 18.6283C73.3271 19.2585 73.0345 19.7184 72.5424 20.1048Z" fill="white"/>
</g>
<path d="M68.7739 23.7026C68.6332 23.4874 68.516 23.2274 68.4827 22.9192C68.4498 22.6136 68.5169 22.2715 68.6638 22.002C68.8044 21.726 68.993 21.5097 69.1866 21.3297C69.3806 21.1506 69.5784 20.9968 69.78 20.8668C70.1803 20.6016 70.5768 20.3887 70.9577 20.1894C71.3342 19.9885 71.701 19.7974 71.9864 19.5849C72.129 19.4806 72.2482 19.3716 72.3256 19.2735C72.4029 19.1735 72.4357 19.0973 72.4437 19.0306C72.4482 18.996 72.4497 18.9605 72.4446 18.9164C72.4398 18.8788 72.42 18.7968 72.4185 18.8058C72.4036 18.7671 72.3232 18.6497 72.2122 18.5461C71.9893 18.3282 71.6679 18.1158 71.3307 17.9405C70.9906 17.7627 70.6229 17.6146 70.2455 17.4926C69.4885 17.2516 68.6914 17.1064 67.8924 17.0679C67.0934 17.0319 66.2914 17.0976 65.5166 17.2729C64.743 17.4529 63.9921 17.7308 63.2964 18.1218C62.6005 18.5119 61.9589 19.0048 61.3753 19.5708L61.3751 19.571L61.3608 19.5855C61.076 19.8684 60.6172 19.8655 60.3361 19.5791C60.214 19.4547 60.1454 19.2965 60.1301 19.1352C60.0961 18.7719 60.079 18.4439 60.0655 18.1C60.0528 17.7601 60.0471 17.4206 60.048 17.0809C60.0484 16.7414 60.0577 16.4017 60.072 16.0621L60.0944 15.572C60.101 15.414 60.1039 15.2567 60.1057 15.0997C60.1094 14.4753 60.0782 13.8483 59.9614 13.2905C59.9045 13.0153 59.8191 12.7532 59.7174 12.5829C59.6679 12.4987 59.6171 12.4423 59.5862 12.4188C59.5705 12.4079 59.56 12.4022 59.5512 12.3983C59.5436 12.3971 59.5487 12.3965 59.5312 12.3927C59.5149 12.389 59.4985 12.3852 59.4806 12.3835C59.3451 12.3628 59.1323 12.4011 58.8941 12.5016C58.6563 12.6003 58.4021 12.7454 58.1499 12.91C57.6433 13.2411 57.1383 13.6403 56.6354 14.0466C55.6294 14.8657 54.6208 15.7253 53.5815 16.5495C52.5434 17.3763 51.4765 18.1758 50.3763 18.9292C49.8237 19.3066 49.2747 19.671 48.696 20.0255C48.1211 20.376 47.5421 20.7067 46.9593 21.0263C45.7923 21.6625 44.6137 22.2646 43.4172 22.8352C42.82 23.1221 42.2169 23.3984 41.6073 23.6665C40.9967 23.9343 40.3832 24.1926 39.7341 24.4245C39.3553 24.5598 38.9391 24.3602 38.8048 23.9789C38.6703 23.5979 38.8685 23.1791 39.2474 23.0437H39.2475L39.2521 23.0421C39.8384 22.833 40.4355 22.5826 41.0261 22.3233C41.6175 22.0631 42.2075 21.793 42.7931 21.5117C43.9655 20.9527 45.1252 20.3601 46.2631 19.7397C46.8312 19.4284 47.3924 19.1075 47.9385 18.7746C48.4796 18.4434 49.0252 18.0817 49.5571 17.7182C50.6241 16.9875 51.6612 16.2106 52.6786 15.4004C53.6984 14.5916 54.6905 13.7459 55.7222 12.9056C56.2414 12.487 56.7671 12.0678 57.3598 11.6794C57.6575 11.4864 57.9734 11.3 58.3417 11.1463C58.7056 10.9978 59.1515 10.866 59.6703 10.9312C59.7339 10.9387 59.7978 10.9511 59.8613 10.9658C59.9239 10.9797 60.0069 11.0057 60.076 11.0319C60.2202 11.0881 60.3525 11.1656 60.468 11.2533C60.6977 11.4311 60.8527 11.6391 60.9706 11.8373C61.2014 12.2377 61.3045 12.6174 61.3851 12.9849C61.5367 13.7197 61.5637 14.4191 61.5615 15.1118C61.5595 15.2845 61.5562 15.457 61.5491 15.6286L61.5264 16.1267C61.5129 16.4459 61.5042 16.7656 61.5038 17.0855C61.5031 17.4054 61.5082 17.7255 61.5202 18.0445C61.532 18.3597 61.5507 18.6904 61.5782 18.9838L60.3332 18.5479L60.3335 18.5476C61.5975 17.1672 63.3016 16.1322 65.1528 15.6971C66.0763 15.4755 67.0286 15.3911 67.9707 15.4404C68.9129 15.4885 69.8473 15.6559 70.7472 15.9628C71.197 16.1161 71.6394 16.301 72.0699 16.5341C72.4997 16.7716 72.9221 17.0374 73.3175 17.4404C73.4159 17.5415 73.5127 17.6537 73.605 17.7847C73.6969 17.9149 73.7862 18.0623 73.8565 18.2507C73.9324 18.4648 73.9496 18.601 73.9693 18.781C73.9831 18.9556 73.9735 19.1407 73.9375 19.3214C73.867 19.6886 73.6796 20.008 73.4787 20.2433C73.2753 20.4815 73.0569 20.6562 72.844 20.8045C72.4155 21.0975 71.9996 21.301 71.5966 21.4907C71.1963 21.6806 70.8032 21.8421 70.4502 22.0192C70.2755 22.1102 70.1072 22.1966 69.961 22.2924C69.818 22.3894 69.6925 22.4867 69.6046 22.5856C69.5174 22.6865 69.457 22.7819 69.4275 22.9154C69.3946 23.0474 69.4042 23.2173 69.4377 23.4025L69.4433 23.4325C69.4799 23.6338 69.3474 23.8266 69.1474 23.8634C68.9977 23.8909 68.8527 23.8229 68.7739 23.7026Z" fill="#371B45"/>
<path d="M43.9644 64.7842C45.9229 64.3719 50.4329 62.4299 50.3515 55.3726C50.2715 48.4471 47.6065 46.2035 43.2252 46.1047C38.8441 46.0058 32.749 48.2798 29.4195 52.2786C27.0473 55.1276 26.4745 59.9256 27.5267 61.9168C29.6062 65.8521 42.006 65.1965 43.9644 64.7842Z" fill="#777781"/>
<path d="M67.3267 64.7842C65.3682 64.3719 60.8582 62.4299 60.9396 55.3726C61.0196 48.4471 63.6846 46.2035 68.0659 46.1047C72.447 46.0058 78.5421 48.2798 81.8716 52.2786C84.2438 55.1276 84.8164 59.9256 83.7643 61.9168C81.6849 65.8521 69.2851 65.1965 67.3267 64.7842Z" fill="#777781"/>
<g opacity="0.5">
<path d="M57.2914 59.7409C57.2914 60.317 56.2995 60.5757 55.569 60.5757C54.8386 60.5757 53.8467 60.317 53.8467 59.7409C53.8467 59.4451 55.5694 59.4453 55.5694 59.4453C55.5694 59.4453 57.2914 59.4453 57.2914 59.7409Z" fill="white"/>
</g>
<path d="M60.9398 63.1953C59.9948 64.3929 59.7147 65.7689 59.3735 66.9799C59.0036 68.292 58.5638 69.4147 57.1397 69.919C56.3958 70.1831 55.5733 70.1831 54.8296 69.919C53.4118 69.4171 52.9698 68.3029 52.6024 66.9975C52.2567 65.7821 51.9788 64.3995 51.0293 63.1953H60.9398Z" fill="#371B45"/>
<path d="M59.3736 66.9798C59.0039 68.2921 58.5641 69.4148 57.14 69.9189C56.3961 70.1832 55.5734 70.1832 54.8297 69.9189C53.4119 69.417 52.9701 68.3031 52.6025 66.9974C53.0487 66.7795 53.5499 66.6562 54.077 66.6562C54.7947 66.6562 55.4597 66.883 56.0067 67.2682C56.5537 66.883 57.2209 66.6562 57.9385 66.6562C58.4525 66.6562 58.9382 66.7729 59.3736 66.9798Z" fill="#EE7A7C"/>
<path d="M57.4495 65.9844L57.1183 66.7516C57.1183 66.7516 56.0065 66.9842 56.0065 68.158C56.0065 66.9842 54.8947 66.7516 54.8947 66.7516L54.5635 65.9844L56.0065 66.5575L57.4495 65.9844Z" fill="#371B45"/>
<path d="M55.9846 70.8033C55.5162 70.8033 55.0481 70.7243 54.6024 70.5665C52.6727 69.8827 52.2338 68.2601 51.8092 66.6908C51.5254 65.642 51.2321 64.5574 50.495 63.6206C50.2611 63.3231 50.311 62.8912 50.6065 62.6558C50.902 62.4211 51.3312 62.4707 51.565 62.768C52.4754 63.9255 52.8211 65.203 53.1261 66.3301C53.5573 67.9246 53.8596 68.8473 55.0556 69.2709C55.6548 69.4833 56.3144 69.4833 56.9132 69.2709C58.1093 68.8473 58.4116 67.9246 58.843 66.3301C59.148 65.203 59.4935 63.9255 60.4039 62.768C60.6378 62.4707 61.0672 62.4211 61.3624 62.6558C61.658 62.8912 61.7078 63.3231 61.4739 63.6206C60.737 64.5574 60.4435 65.642 60.1599 66.6908C59.7353 68.2601 59.2963 69.8828 57.3665 70.5665C56.921 70.7244 56.4527 70.8033 55.9846 70.8033Z" fill="#371B45"/>
<path d="M61.6682 62.3215C61.5799 63.8317 59.991 65.2824 58.3492 64.86C55.9354 64.2386 55.9887 60.9591 55.9887 60.9591H55.9878H55.9871C55.9871 60.9591 56.0402 64.2386 53.6266 64.8598C51.9847 65.2822 50.3959 63.8314 50.3076 62.3213C50.3076 62.3213 50.8544 58.2498 55.9876 58.25C61.1207 58.25 61.6682 62.3215 61.6682 62.3215Z" fill="white"/>
<path d="M61.6254 62.6499C61.3487 64.0323 59.8718 65.2511 58.3491 64.8605C55.9358 64.2389 55.9887 60.9599 55.9887 60.9599L55.9876 60.9597C55.9876 60.9597 55.9918 61.2227 55.9434 61.6118C55.8206 62.6019 55.3582 64.4147 53.6264 64.8607C52.0936 65.2557 50.6062 64.0145 50.3447 62.6191C51.0952 63.1225 52.0199 63.3546 52.9578 63.1132C55.6937 62.4084 55.9765 59.0589 56.004 58.2506C56.0067 58.2497 56.0093 58.25 56.0115 58.2502C56.0397 59.0582 56.3214 62.4089 59.0589 63.1139C59.9782 63.3502 60.885 63.1323 61.6254 62.6499Z" fill="#D3DDEA"/>
<path d="M61.9402 62.3367C61.9804 62.7928 61.8796 63.2587 61.6936 63.683C61.5026 64.1062 61.2234 64.4935 60.8673 64.8119C60.5146 65.1337 60.0781 65.38 59.5915 65.521C59.1056 65.657 58.5615 65.6634 58.062 65.5411C57.574 65.4236 57.095 65.1747 56.7127 64.8293C56.3293 64.4845 56.0454 64.0615 55.8429 63.6301C55.6382 63.197 55.5032 62.7544 55.4106 62.3114C55.3652 62.0896 55.3305 61.8679 55.3052 61.6448C55.2921 61.5333 55.2832 61.4211 55.2755 61.3081C55.2688 61.19 55.2637 61.0913 55.2646 60.9462L55.9881 61.6864H55.9874H55.9867L56.7104 60.9462C56.7178 61.0914 56.7191 61.1907 56.7186 61.3094C56.716 61.4231 56.7109 61.5361 56.7024 61.6487C56.6862 61.8739 56.6534 62.0975 56.6123 62.3218C56.5218 62.7685 56.3886 63.2177 56.1697 63.6491C55.9594 64.0824 55.6549 64.4946 55.2686 64.8366C54.879 65.1762 54.3992 65.4186 53.9128 65.5406C53.4138 65.6645 52.8692 65.6603 52.3824 65.5256C51.8949 65.3851 51.4565 65.1401 51.1031 64.8174C50.7461 64.4986 50.4666 64.1102 50.2759 63.6859C50.0907 63.2602 49.9909 62.793 50.0346 62.3365C50.0493 62.1838 50.1842 62.0719 50.3359 62.0865C50.4539 62.0981 50.5474 62.1825 50.5763 62.2911L50.5796 62.3043C50.7638 63.0005 51.2387 63.5658 51.7948 63.9064C52.0758 64.0716 52.3726 64.1877 52.6666 64.2188C52.9603 64.2598 53.2369 64.2221 53.507 64.1267C54.0718 63.9339 54.4679 63.5187 54.754 62.9384C54.8948 62.6504 55.0053 62.3262 55.0877 61.9882C55.1318 61.8194 55.1642 61.6458 55.1944 61.4712C55.21 61.3841 55.2217 61.2965 55.2335 61.2097C55.2461 61.1277 55.2566 61.0259 55.2632 60.9699L55.3503 60.2299H55.9867H55.9876H55.9883L56.7089 60.2266L56.712 60.97C56.7122 61.0261 56.7162 61.1283 56.7224 61.211C56.7291 61.2987 56.7369 61.3868 56.7482 61.4751C56.7691 61.6516 56.7992 61.8274 56.8394 61.9986C56.9196 62.3405 57.0279 62.6712 57.1831 62.9575C57.4948 63.5387 57.9095 63.9263 58.468 64.1263C58.7375 64.2236 59.0145 64.2633 59.3093 64.2237C59.6041 64.1932 59.9029 64.0783 60.1845 63.9122C60.7425 63.5715 61.2178 63.0014 61.3952 62.3044L61.3983 62.2922C61.4361 62.1438 61.5864 62.0543 61.734 62.0924C61.8501 62.1223 61.93 62.223 61.9402 62.3367Z" fill="#371B45"/>
<path d="M59.7732 58.5248C59.7723 59.3801 58.6627 60.1348 57.6445 60.6473C56.5791 61.1835 55.3863 61.1824 54.3221 60.6442C53.3047 60.1298 52.1965 59.373 52.1973 58.5175C52.1998 55.9373 59.7758 55.9445 59.7732 58.5248Z" fill="#371B45"/>
<g opacity="0.5">
<path d="M57.4864 58.0204C57.486 58.2671 57.0462 58.4846 56.6424 58.6322C56.2201 58.7868 55.7471 58.7862 55.3251 58.6309C54.9217 58.4824 54.4821 58.2643 54.4824 58.0175C54.4831 57.2735 57.4871 57.2764 57.4864 58.0204Z" fill="white"/>
</g>
<path d="M34.5319 39.4149C34.1097 38.7517 36.9153 32.8262 42.193 34.5814C44.0939 35.2138 44.2713 37.0798 42.7968 37.4766C41.392 37.8546 40.7598 37.5482 38.5823 38.3171C37.3504 38.7522 34.954 40.0782 34.5319 39.4149Z" fill="#371B45"/>
<path d="M76.5587 39.4486C76.9819 38.786 74.1869 32.8556 68.9059 34.6015C67.004 35.2304 66.8234 37.096 68.2972 37.4954C69.7013 37.8761 70.334 37.5706 72.51 38.3436C73.7414 38.7809 76.1352 40.1111 76.5587 39.4486Z" fill="#371B45"/>
<path d="M42.1144 61.153C44.8328 61.153 47.0364 58.3275 47.0364 54.8421C47.0364 51.3567 44.8328 48.5312 42.1144 48.5312C39.396 48.5312 37.1924 51.3567 37.1924 54.8421C37.1924 58.3275 39.396 61.153 42.1144 61.153Z" fill="#371B45"/>
<path d="M44.329 54.7394C45.0558 54.4802 45.3397 53.4032 44.9632 52.3338C44.5866 51.2644 43.6922 50.6075 42.9654 50.8667C42.2386 51.1258 41.9547 52.2029 42.3312 53.2723C42.7078 54.3417 43.6022 54.9985 44.329 54.7394Z" fill="white"/>
<g opacity="0.67">
<path d="M43.3663 58.9571C43.5637 58.3205 43.0605 57.5963 42.2425 57.3396C41.4246 57.0828 40.6015 57.3906 40.4042 58.0271C40.2068 58.6637 40.71 59.3879 41.528 59.6447C42.3459 59.9014 43.169 59.5936 43.3663 58.9571Z" fill="white"/>
</g>
<path d="M69.5724 61.153C72.2908 61.153 74.4944 58.3275 74.4944 54.8421C74.4944 51.3567 72.2908 48.5312 69.5724 48.5312C66.8541 48.5312 64.6504 51.3567 64.6504 54.8421C64.6504 58.3275 66.8541 61.153 69.5724 61.153Z" fill="#371B45"/>
<path d="M69.3636 53.2756C69.7401 52.2062 69.4562 51.1292 68.7294 50.87C68.0026 50.6108 67.1082 51.2677 66.7316 52.3371C66.3551 53.4065 66.639 54.4835 67.3658 54.7427C68.0926 55.0019 68.987 54.345 69.3636 53.2756Z" fill="white"/>
<g opacity="0.67">
<path d="M70.1547 59.6448C70.9726 59.388 71.4758 58.6638 71.2784 58.0273C71.0811 57.3908 70.258 57.0829 69.4401 57.3397C68.6221 57.5965 68.119 58.3207 68.3163 58.9572C68.5136 59.5938 69.3367 59.9016 70.1547 59.6448Z" fill="white"/>
</g>
</g>
<rect x="0.5" y="0.5" width="111" height="111" rx="55.5" stroke="url(#paint1_linear_5721_30104)"/>
<defs>
<linearGradient id="paint0_linear_5721_30104" x1="186.5" y1="106" x2="186.5" y2="6.00181" gradientUnits="userSpaceOnUse">
<stop stop-color="#F19920"/>
<stop offset="0.23" stop-color="#F39F27"/>
<stop offset="0.58" stop-color="#F7B03B"/>
<stop offset="1" stop-color="#FECC5C"/>
</linearGradient>
<linearGradient id="paint1_linear_5721_30104" x1="56" y1="112" x2="56" y2="0.00202938" gradientUnits="userSpaceOnUse">
<stop stop-color="#F19920"/>
<stop offset="0.23" stop-color="#F39F27"/>
<stop offset="0.58" stop-color="#F7B03B"/>
<stop offset="1" stop-color="#FECC5C"/>
</linearGradient>
<clipPath id="clip0_5721_30104">
<rect width="112" height="112" rx="56" fill="white"/>
</clipPath>
</defs>
</svg>
