<svg width="262" height="360" viewBox="0 0 262 360" fill="none" xmlns="http://www.w3.org/2000/svg">
<path d="M48.3784 124.877C47.9208 125.407 47.4963 125.955 47.095 126.518C46.2918 127.642 45.5936 128.832 44.9858 130.066C44.3841 131.303 43.8904 132.59 43.48 133.901L43.2011 134.893C43.104 135.223 43.0453 135.562 42.9662 135.895C42.8025 136.563 42.7096 137.242 42.5985 137.919C42.4795 138.753 42.4061 139.591 42.3662 140.429C42.0051 139.782 41.6057 139.139 41.0933 138.52C40.5103 137.825 39.8014 137.15 38.8965 136.624C38.0004 136.099 36.886 135.749 35.7658 135.753C34.6462 135.751 33.5849 136.061 32.6974 136.517C31.8041 136.974 31.0607 137.569 30.4284 138.214C29.796 138.862 29.2723 139.566 28.8277 140.299C28.7122 140.482 28.6081 140.667 28.5097 140.856C28.4088 141.042 28.3079 141.226 28.2133 141.445C28.0096 141.867 27.8627 142.29 27.7194 142.713C27.3988 143.772 27.231 144.807 27.1524 145.817C26.3324 145.528 25.5044 145.29 24.6687 145.094C22.8197 144.665 20.9332 144.444 19.0283 144.448C18.0765 144.444 17.1198 144.507 16.165 144.631C15.2107 144.754 14.2562 144.935 13.3152 145.204C12.3753 145.471 11.4428 145.796 10.5437 146.222C9.64538 146.646 8.77491 147.146 7.95351 147.726C7.13901 148.316 6.37688 148.981 5.67787 149.706C4.99401 150.452 4.37631 151.218 3.81814 152.103C2.77486 153.826 2.05656 155.604 1.54581 157.422C0.522647 161.055 0.267681 164.813 0.592657 168.48C0.891447 172.156 1.8151 175.727 3.08275 179.124C4.37053 182.519 6.069 185.719 8.00673 188.73C9.94941 191.741 12.1465 194.558 14.4996 197.215C16.8709 199.855 19.4051 202.323 22.0306 204.674L24.0289 206.401C24.3589 206.693 24.6995 206.971 25.043 207.245L26.0689 208.073C27.4226 209.196 28.8388 210.233 30.2373 211.294C33.0783 213.355 35.9656 215.357 38.9662 217.176L40.0836 217.871L41.2192 218.535C41.9781 218.974 42.7308 219.425 43.4952 219.854C45.0335 220.696 46.5647 221.552 48.133 222.335C48.912 222.737 49.6907 223.14 50.4839 223.512C51.2745 223.89 52.0606 224.279 52.855 224.648L55.2502 225.73C56.0482 226.092 56.8608 226.419 57.6656 226.766C60.8978 228.118 64.1762 229.358 67.4957 230.475C70.816 231.589 74.1774 232.578 77.5696 233.451C80.9616 234.325 84.388 235.067 87.8429 235.679C89.1326 235.908 90.4258 236.118 91.7252 236.305C91.5601 237.041 91.3972 237.776 91.2324 238.512C90.9694 239.657 90.7398 240.808 90.5058 241.959C88.6185 251.165 87.2384 260.498 86.5854 269.929L86.5162 270.812L86.4771 271.698L86.3988 273.471L86.2431 277.018C86.2103 278.202 86.2265 279.39 86.2161 280.576C86.2172 281.763 86.197 282.949 86.2161 284.137L86.3756 287.707L86.4561 289.492L86.4986 290.383L86.5628 291.26C86.7351 293.598 86.9211 295.936 87.1232 298.272C87.9148 307.619 89.005 316.95 90.3517 326.237L91.3892 333.182L91.8967 336.614C91.9747 337.177 92.0502 337.74 92.1078 338.272C92.1309 338.48 92.1488 338.678 92.1632 338.866L91.7936 339.259C91.3699 339.72 90.9531 340.199 90.548 340.695C89.7379 341.687 88.9697 342.745 88.2938 343.924C87.6202 345.1 87.0251 346.406 86.6902 347.921C86.5259 348.676 86.4289 349.487 86.4677 350.336C86.5027 351.181 86.6717 352.056 86.9815 352.877L87.1022 353.183C87.1254 353.239 87.1372 353.275 87.1703 353.346C87.2197 353.446 87.2718 353.544 87.3269 353.641C87.5614 354.067 87.7817 354.297 88.0251 354.565C88.1378 354.678 88.2403 354.764 88.3517 354.862C88.4614 354.957 88.5766 355.054 88.6709 355.116C88.8674 355.254 89.0818 355.407 89.2596 355.503C90.0105 355.94 90.6753 356.206 91.3217 356.439C92.6075 356.889 93.8264 357.19 95.0389 357.452C97.4568 357.961 99.8319 358.298 102.207 358.576C106.951 359.121 111.676 359.384 116.409 359.514C118.776 359.573 121.144 359.593 123.518 359.557C125.893 359.52 128.271 359.441 130.673 359.254C131.875 359.158 133.081 359.043 134.31 358.87C135.548 358.689 136.77 358.498 138.176 358.058C138.537 357.937 138.903 357.81 139.341 357.592L139.67 357.42C139.8 357.341 139.929 357.258 140.055 357.171C140.167 357.102 140.339 356.958 140.488 356.822C140.563 356.753 140.636 356.682 140.708 356.61C140.795 356.513 140.887 356.396 140.969 356.283C141.053 356.167 141.131 356.049 141.202 355.928C141.241 355.854 141.258 355.813 141.287 355.753L141.44 355.418C141.554 355.173 141.595 355.022 141.661 354.836C141.796 354.461 141.873 354.152 141.967 353.823C142.302 352.549 142.518 351.372 142.73 350.181C143.147 347.812 143.459 345.477 143.753 343.136C144.044 340.798 144.305 338.465 144.552 336.132C145.027 331.646 145.416 327.169 145.778 322.671C147.408 322.936 149.055 323.132 150.714 323.275L152.348 323.393C152.895 323.419 153.444 323.427 153.993 323.445L154.817 323.468L154.92 323.466C155.073 326.931 155.24 330.39 155.431 333.853C155.666 338.049 155.923 342.242 156.269 346.455C156.45 348.568 156.634 350.663 156.946 352.846C157.029 353.399 157.115 353.945 157.261 354.577C157.295 354.73 157.344 354.91 157.394 355.088L157.498 355.402C157.516 355.455 157.552 355.539 157.579 355.605L157.625 355.71C157.644 355.751 157.647 355.764 157.683 355.832C157.744 355.947 157.811 356.061 157.883 356.169C157.952 356.277 158.06 356.402 158.158 356.509C158.206 356.561 158.268 356.625 158.308 356.661L158.421 356.757C158.495 356.819 158.579 356.886 158.65 356.937C158.765 357.014 158.903 357.104 159.006 357.161C159.106 357.214 159.215 357.275 159.308 357.319C160.038 357.66 160.594 357.816 161.168 357.982C161.734 358.139 162.282 358.267 162.825 358.385C164.992 358.844 167.108 359.148 169.234 359.406C171.358 359.66 173.479 359.855 175.602 360.003C179.848 360.298 184.102 360.416 188.371 360.32C192.64 360.215 196.922 359.92 201.224 359.153C201.772 359.04 202.317 358.944 202.866 358.815C203.416 358.675 203.963 358.562 204.515 358.385C205.614 358.081 206.723 357.656 207.822 357.12C208.917 356.574 210.03 355.878 211.007 354.83C211.485 354.296 211.943 353.706 212.273 353.005C212.628 352.324 212.835 351.553 212.942 350.795C213.12 349.264 212.819 347.813 212.326 346.611C211.835 345.393 211.185 344.34 210.474 343.382C209.322 341.852 208.014 340.549 206.605 339.383C206.893 337.31 207.154 335.258 207.406 333.193C207.711 330.703 207.99 328.212 208.257 325.72C208.787 320.735 209.252 315.745 209.653 310.75C210.054 305.755 210.391 300.754 210.665 295.748C210.739 294.338 210.807 292.927 210.871 291.516C227.651 287.035 248.2 276.617 257.213 260.257C262.377 250.883 263.187 240.658 259.621 229.866C254.913 215.617 243.734 204.873 227.291 198.794C222.022 196.846 217.036 195.67 213.023 194.96C215.401 194.085 217.745 193.104 220.036 191.994C221.134 191.451 222.237 190.92 223.307 190.318C224.393 189.748 225.443 189.11 226.501 188.487C227.03 188.174 227.54 187.829 228.061 187.502C228.58 187.173 229.098 186.841 229.599 186.483L231.116 185.428L232.595 184.318C233.094 183.956 233.566 183.556 234.047 183.17C234.524 182.779 235.011 182.399 235.469 181.984L236.862 180.76L238.208 179.483C239.977 177.754 241.659 175.931 243.215 174C246.307 170.127 248.947 165.883 250.995 161.376C253.074 156.881 254.578 152.148 255.623 147.343C256.153 144.94 256.536 142.513 256.834 140.08C257.126 137.647 257.327 135.205 257.411 132.764C257.501 130.322 257.503 127.881 257.426 125.446C257.34 123.012 257.173 120.584 256.94 118.165C256.711 115.745 256.391 113.338 256.022 110.941C255.652 108.545 255.219 106.16 254.717 103.791C253.727 99.0508 252.509 94.3699 251.098 89.7466C249.686 85.1013 247.985 80.5423 246.05 76.0831L245.315 74.4144L244.945 73.5811L244.547 72.76C244.013 71.6668 243.49 70.5687 242.948 69.4797L241.229 66.2575C240.951 65.7159 240.637 65.1941 240.33 64.6681L239.407 63.091C239.094 62.5681 238.802 62.0336 238.473 61.5204L237.486 59.981C236.825 58.9567 236.186 57.9181 235.467 56.9316C234.76 55.9374 234.077 54.9255 233.349 53.9467L231.115 51.044C229.319 48.8102 227.429 46.6501 225.456 44.5671C231.493 40.0511 235.408 32.8459 235.408 24.7436C235.408 11.1002 224.308 0.000277588 210.665 0.000277588C198.668 0.000277588 188.641 8.58332 186.395 19.9307L183.09 18.8918C181.915 18.5589 180.727 18.2741 179.546 17.9638L177.772 17.5079C177.179 17.3643 176.578 17.2587 175.981 17.1325L172.394 16.4064C171.194 16.1942 169.986 16.0354 168.782 15.848C166.377 15.434 163.949 15.2628 161.528 15.0084L160.62 14.9185C160.317 14.8946 160.013 14.8855 159.71 14.8681L157.889 14.776C156.676 14.7187 155.462 14.6448 154.248 14.6024C144.532 14.3827 134.844 15.2281 125.319 16.8089L121.75 17.421L120.857 17.5743L119.961 17.7612L118.168 18.1385C116.488 18.5048 114.817 18.9211 113.156 19.3789C110.698 8.30685 100.806 0 89.0052 0C75.3618 0 64.2622 11.0999 64.2622 24.7433C64.2622 32.5199 67.8716 39.4662 73.4996 44.0056C67.2757 51.2116 62.403 59.4776 58.742 68.1627C54.9559 77.1498 52.4324 86.5898 50.8662 96.1384C50.0823 100.916 49.557 105.728 49.2571 110.555C49.1093 112.968 49.0211 115.386 48.9933 117.807C48.9828 119.018 48.9859 120.23 49.0098 121.445C49.0217 122.053 49.038 122.661 49.0622 123.272C49.073 123.545 49.0845 123.812 49.0978 124.082C49.0953 124.084 49.0934 124.087 49.0909 124.089C48.8434 124.349 48.6044 124.611 48.3784 124.877ZM211.99 247.479C212.045 248.198 211.578 248.913 210.901 249.562C210.823 248.071 210.733 246.581 210.634 245.091C211.433 245.917 211.932 246.727 211.99 247.479ZM202.663 198.108L202.664 198.108C202.662 198.108 202.505 198.146 202.229 198.235C202.228 198.227 202.226 198.218 202.225 198.211C202.371 198.176 202.517 198.143 202.663 198.108Z" fill="#39344E"/>
<path d="M217.258 242.926L210.035 253.643L208.848 290.009C208.848 290.009 241.14 277.933 246.602 269.019C252.064 260.105 217.258 242.926 217.258 242.926Z" fill="#777781"/>
<path d="M115.253 190.035L113.099 189.618C112.379 189.484 111.684 189.292 110.975 189.13L109.917 188.877L109.387 188.751L108.866 188.606L106.782 188.022L105.74 187.73C105.395 187.629 105.055 187.514 104.712 187.407L102.659 186.753C101.975 186.535 101.288 186.322 100.618 186.074L96.5717 184.636L92.5783 183.087C91.2393 182.587 89.9396 182.007 88.6213 181.465C87.3139 180.912 85.9776 180.37 84.6946 179.808L76.9208 176.477C71.7297 174.26 66.5163 172.09 61.3187 169.731C58.7216 168.543 56.1276 167.304 53.5683 165.883C52.2913 165.163 51.0239 164.395 49.7822 163.545C48.546 162.682 47.3365 161.726 46.2127 160.629C45.0897 159.534 44.06 158.286 43.2171 156.914C42.3706 155.545 41.7187 154.065 41.2419 152.572C41.1313 152.198 41.015 151.823 40.9122 151.449L40.641 150.324C40.5608 149.949 40.4946 149.575 40.4213 149.201L40.2306 148.186C39.9817 146.889 39.6628 145.621 39.2366 144.446C39.0315 143.851 38.7782 143.303 38.5175 142.776C38.2405 142.27 37.9477 141.786 37.6244 141.399C37.3017 141.014 36.9615 140.714 36.644 140.531C36.3234 140.348 36.0434 140.264 35.7482 140.264C35.4535 140.268 35.1186 140.347 34.7523 140.534C34.3876 140.719 34.0059 141.008 33.6525 141.371C33.298 141.733 32.9708 142.167 32.6847 142.64C32.6098 142.756 32.542 142.878 32.4775 143.003C32.4099 143.127 32.3399 143.252 32.2988 143.359C32.1924 143.572 32.1109 143.819 32.0238 144.062C31.7134 145.081 31.5905 146.298 31.604 147.554C31.6169 148.815 31.7548 150.119 31.9659 151.427C32.1803 152.736 32.4686 154.05 32.8104 155.355C32.9819 156.008 33.1677 156.658 33.365 157.304C33.4642 157.626 33.5659 157.948 33.6712 158.266C33.7738 158.578 33.8898 158.915 33.9888 159.185C34.2636 159.936 34.1186 160.738 33.6729 161.334L33.6158 161.408L33.6153 161.409C32.7189 162.262 31.9637 163.225 31.4356 164.312C31.1751 164.857 30.981 165.433 30.8383 166.033C30.701 166.635 30.6431 167.263 30.6409 167.906C30.6354 169.192 30.9267 170.529 31.4121 171.822C31.8997 173.109 32.5883 174.387 33.4292 175.502L33.4455 175.524C33.5712 175.69 33.5381 175.927 33.3714 176.053C33.2266 176.162 33.029 176.152 32.8973 176.038C31.7352 175.038 30.7553 173.893 29.9058 172.595C29.0692 171.299 28.3826 169.842 28.0303 168.232C27.8548 167.43 27.7484 166.595 27.7517 165.746C27.76 164.899 27.8512 164.04 28.0444 163.2C28.3283 161.981 28.8076 160.815 29.4096 159.732C29.4038 159.715 29.3983 159.698 29.3925 159.681C29.2757 159.329 29.1649 158.977 29.0563 158.625C28.8407 157.921 28.6387 157.213 28.4515 156.5C28.0783 155.075 27.7597 153.628 27.5174 152.151C27.4441 151.695 27.3809 151.235 27.3236 150.774C26.2048 150.216 24.9388 149.785 23.6497 149.488C22.1408 149.137 20.5804 148.955 19.0374 148.959C15.955 148.96 12.9156 149.722 10.5743 151.399C9.99381 151.822 9.45329 152.294 8.95384 152.808C8.47423 153.334 8.00756 153.915 7.64593 154.49C6.90392 155.718 6.29862 157.158 5.88296 158.659C5.03428 161.668 4.79807 164.903 5.085 168.098C5.34272 171.302 6.15942 174.472 7.2978 177.528C8.45602 180.584 10.0057 183.51 11.797 186.293C13.5928 189.077 15.646 191.714 17.8643 194.219C20.1028 196.71 22.5135 199.059 25.0231 201.308L26.9377 202.962C27.2531 203.242 27.5805 203.509 27.9113 203.772L28.8978 204.568C30.1977 205.647 31.5648 206.647 32.9124 207.67C35.652 209.657 38.4356 211.589 41.3328 213.345L42.4111 214.016L43.5079 214.656C44.2411 215.081 44.9674 215.516 45.7058 215.931C47.1926 216.743 48.6711 217.571 50.1879 218.328C50.941 218.716 51.6935 219.107 52.4608 219.467C53.2254 219.832 53.9854 220.208 54.7538 220.565L57.0714 221.612C57.8432 221.962 58.6304 222.279 59.4091 222.614C62.5375 223.923 65.7129 225.124 68.929 226.206C72.1459 227.286 75.4037 228.245 78.6895 229.09C81.9749 229.936 85.293 230.654 88.6276 231.245C90.2947 231.54 91.9667 231.805 93.6392 232.023C94.4755 232.134 95.3112 232.232 96.1459 232.321C96.5172 232.357 96.8901 232.396 97.2597 232.427L121.835 190.707C120.336 190.678 118.871 190.565 117.44 190.368C116.712 190.255 115.972 190.171 115.253 190.035Z" fill="#777781"/>
<path opacity="0.35" d="M121.837 190.714L97.2589 232.433C96.8893 232.403 96.5166 232.364 96.1473 232.328C95.3121 232.237 94.4766 232.141 93.6384 232.03C91.9678 231.811 90.2941 231.546 88.6268 231.252C85.2946 230.66 81.9746 229.942 78.6906 229.095C75.4037 228.251 72.1468 227.292 68.9287 226.213C65.7137 225.129 62.5381 223.93 59.4102 222.62C58.632 222.286 57.8448 221.968 57.0728 221.619L54.7533 220.571C53.987 220.213 53.2271 219.838 52.4608 219.474C51.6945 219.113 50.9404 218.723 50.1893 218.335C48.6719 217.578 47.1937 216.749 45.7066 215.938C44.9674 215.523 44.2402 215.087 43.5073 214.664L42.4106 214.021L41.3347 213.35C38.4353 211.596 35.653 209.664 32.9129 207.678C31.564 206.653 30.1968 205.653 28.8989 204.574L27.9104 203.778C27.5799 203.514 27.2525 203.249 26.9369 202.97L25.0229 201.314C22.514 199.064 20.1014 196.717 17.8629 194.226C15.6454 191.72 13.5933 189.082 11.7967 186.3C10.0059 183.515 8.45573 180.588 7.29889 177.536C6.16023 174.477 5.34297 171.307 5.08442 168.104C4.79887 164.91 5.03344 161.674 5.88378 158.664C6.29833 157.164 6.90528 155.725 7.64757 154.496C8.0081 153.922 8.47393 153.339 8.95464 152.814C9.22201 152.54 9.49848 152.276 9.78983 152.03C9.50427 154.079 9.46814 156.182 9.65475 158.273C9.91302 161.476 10.7303 164.646 11.8662 167.702C13.0261 170.758 14.5763 173.684 16.3671 176.469C18.1637 179.251 20.216 181.889 22.4333 184.392C24.6717 186.883 27.0843 189.233 29.5932 191.483L31.5072 193.135C31.8225 193.415 32.1503 193.682 32.4808 193.947L33.4692 194.743C34.7672 195.821 36.1343 196.822 37.4833 197.843C40.2203 199.829 43.0057 201.761 45.902 203.519L46.9806 204.189L48.0774 204.829C48.8106 205.256 49.5377 205.689 50.2767 206.106C51.764 206.917 53.2422 207.744 54.7566 208.501C55.5107 208.892 56.2649 209.279 57.0311 209.64C57.7974 210.006 58.5546 210.382 59.3236 210.739L61.6431 211.785C62.4124 212.136 63.1996 212.452 63.9808 212.788C67.1087 214.098 70.2843 215.297 73.4993 216.379C76.7171 217.46 79.9743 218.419 83.2613 219.263C86.5452 220.11 89.8622 220.828 93.1974 221.421C94.865 221.715 96.5384 221.979 98.209 222.199C99.0472 222.307 99.8824 222.406 100.718 222.496C101.087 222.532 101.46 222.568 101.829 222.601L120.638 190.671C121.034 190.693 121.434 190.705 121.837 190.714Z" fill="#626272"/>
<path d="M125.029 185.902C125.051 185.888 125.074 185.876 125.097 185.865L125.132 185.849C125.137 185.847 125.128 185.85 125.126 185.85L125.085 185.863L125.045 185.88C125.03 185.886 124.994 185.892 124.97 185.899C124.855 185.924 124.771 185.962 124.633 185.984C124.365 186.029 124.112 186.09 123.804 186.11C123.23 186.189 122.586 186.188 121.96 186.205C120.675 186.181 119.356 186.085 118.026 185.901C117.36 185.797 116.695 185.724 116.027 185.598L114.023 185.21C113.355 185.086 112.688 184.9 112.02 184.749L111.019 184.51L110.519 184.391L110.02 184.252L108.026 183.693L107.029 183.414C106.697 183.317 106.368 183.205 106.037 183.102L104.055 182.47C103.394 182.26 102.732 182.055 102.078 181.813L98.1427 180.414L94.2392 178.9C92.9324 178.413 91.6523 177.841 90.3596 177.309C89.0669 176.762 87.786 176.244 86.4828 175.673L78.6853 172.332C73.4904 170.114 68.2759 167.942 63.189 165.632C60.6512 164.473 58.1471 163.273 55.7681 161.952C54.5861 161.285 53.4381 160.587 52.3491 159.843C51.2716 159.09 50.2611 158.286 49.3647 157.41C48.4676 156.534 47.6905 155.587 47.0544 154.553C46.4168 153.52 45.9182 152.399 45.5356 151.204L45.2688 150.296L45.0439 149.362L44.6574 147.341C44.3735 145.867 44.008 144.387 43.4722 142.906C43.2142 142.166 42.8821 141.426 42.5127 140.691C42.115 139.959 41.6764 139.228 41.0965 138.527C40.5135 137.832 39.8046 137.157 38.8997 136.631C38.0036 136.106 36.8892 135.756 35.769 135.76C34.6494 135.758 33.5882 136.068 32.7006 136.524C31.807 136.981 31.0639 137.576 30.4316 138.221C29.7995 138.869 29.2756 139.573 28.8309 140.306C28.7155 140.489 28.6113 140.674 28.5129 140.863C28.412 141.049 28.3111 141.233 28.2166 141.452C28.0131 141.874 27.8659 142.296 27.7226 142.72C27.4021 143.779 27.2339 144.814 27.1556 145.824C26.3356 145.535 25.5076 145.297 24.6719 145.101C22.8229 144.672 20.9364 144.451 19.0315 144.454C18.0798 144.451 17.123 144.514 16.1682 144.638C15.2137 144.761 14.2594 144.942 13.3184 145.211C12.3785 145.478 11.446 145.803 10.5469 146.229C9.64859 146.653 8.77813 147.153 7.95673 147.733C7.14222 148.323 6.38009 148.988 5.68108 149.713C4.99723 150.459 4.37925 151.225 3.82136 152.11C2.77808 153.833 2.05977 155.611 1.54874 157.429C0.525577 161.062 0.270611 164.82 0.595586 168.487C0.894376 172.163 1.81803 175.734 3.08568 179.131C4.37346 182.526 6.07194 185.726 8.00939 188.737C9.9518 191.748 12.1492 194.565 14.5023 197.222C16.8736 199.861 19.4078 202.33 22.0332 204.681L24.0316 206.408C24.3615 206.7 24.7022 206.978 25.0456 207.252L26.0716 208.08C27.4252 209.203 28.8414 210.24 30.24 211.301C33.081 213.362 35.9683 215.364 38.9688 217.183L40.0863 217.878L41.2219 218.542C41.9807 218.981 42.7335 219.432 43.4978 219.861C45.0362 220.703 46.5673 221.558 48.1357 222.342C48.9146 222.744 49.6933 223.147 50.4866 223.519C51.2771 223.897 52.063 224.286 52.8576 224.655L55.2529 225.737C56.0509 226.099 56.8634 226.426 57.6683 226.773C60.9001 228.125 64.1788 229.364 67.498 230.482C70.8186 231.596 74.18 232.585 77.572 233.458C80.964 234.332 84.3904 235.073 87.8452 235.686C89.5729 235.992 91.3072 236.267 93.0534 236.494C93.9261 236.61 94.8023 236.713 95.6821 236.807C96.1243 236.849 96.5633 236.896 97.0096 236.932L97.6808 236.987L98.3839 237.033C99.1811 237.084 99.9799 236.695 100.413 235.96L100.433 235.926L128.063 189.018L125.029 185.902ZM97.2607 232.429C96.8911 232.397 96.5181 232.358 96.1469 232.323C95.3125 232.234 94.4765 232.135 93.6402 232.025C91.9677 231.807 90.2956 231.542 88.6286 231.246C85.2939 230.655 81.9758 229.938 78.6905 229.091C75.4047 228.246 72.1469 227.287 68.93 226.208C65.7138 225.125 62.5385 223.925 59.41 222.615C58.6314 222.28 57.8442 221.964 57.0724 221.613L54.7548 220.566C53.9861 220.209 53.2264 219.833 52.4618 219.468C51.6942 219.108 50.942 218.718 50.1889 218.329C48.6724 217.572 47.1936 216.745 45.7068 215.932C44.9686 215.517 44.242 215.082 43.5089 214.658L42.4121 214.017L41.3338 213.346C38.4363 211.59 35.6527 209.658 32.9134 207.672C31.5661 206.648 30.1986 205.649 28.8987 204.569L27.9123 203.773C27.5815 203.51 27.254 203.243 26.9387 202.963L25.0241 201.309C22.5145 199.06 20.1035 196.711 17.8653 194.22C15.647 191.715 13.5938 189.079 11.798 186.295C10.0066 183.511 8.45702 180.585 7.2988 177.529C6.16042 174.473 5.3437 171.303 5.08598 168.099C4.79905 164.904 5.03527 161.669 5.88396 158.66C6.29961 157.159 6.90491 155.719 7.64692 154.491C8.00856 153.916 8.47521 153.335 8.95482 152.81C9.45427 152.295 9.99451 151.824 10.5753 151.4C12.9165 149.723 15.9563 148.961 19.0384 148.96C20.5814 148.956 22.1418 149.139 23.6506 149.489C24.9398 149.787 26.2058 150.217 27.3246 150.775C27.3819 151.237 27.445 151.696 27.5184 152.152C27.7606 153.63 28.0793 155.076 28.4525 156.502C28.6397 157.214 28.8417 157.922 29.0572 158.626C29.1658 158.979 29.2767 159.33 29.3935 159.682C29.3993 159.699 29.4048 159.716 29.4106 159.733C28.8086 160.816 28.3293 161.982 28.0454 163.201C27.8522 164.042 27.7612 164.9 27.7527 165.747C27.7494 166.596 27.856 167.431 28.0313 168.234C28.3836 169.843 29.0702 171.3 29.9068 172.596C30.7563 173.894 31.7362 175.039 32.8982 176.039C33.03 176.153 33.2279 176.164 33.3723 176.054C33.5391 175.929 33.5722 175.692 33.4465 175.525L33.4302 175.503C32.589 174.389 31.9004 173.11 31.4131 171.823C30.9277 170.53 30.6364 169.194 30.6419 167.907C30.6441 167.265 30.702 166.636 30.8392 166.035C30.982 165.434 31.1761 164.858 31.4365 164.313C31.9649 163.226 32.7199 162.263 33.6163 161.41L33.6168 161.41L33.6739 161.335C34.1196 160.739 34.2648 159.937 33.9898 159.186C33.8905 158.916 33.7748 158.579 33.6722 158.267C33.5667 157.949 33.4652 157.627 33.366 157.305C33.1686 156.66 32.9829 156.009 32.8114 155.357C32.4696 154.051 32.1813 152.737 31.9669 151.428C31.7557 150.121 31.6179 148.816 31.605 147.556C31.5915 146.299 31.7144 145.082 32.0247 144.064C32.1116 143.82 32.1932 143.573 32.2998 143.36C32.3412 143.253 32.4112 143.128 32.4784 143.004C32.5429 142.879 32.6107 142.757 32.6857 142.642C32.9716 142.168 33.299 141.735 33.6535 141.372C34.0068 141.009 34.3886 140.72 34.7533 140.535C35.1196 140.349 35.4545 140.269 35.7491 140.266C36.0444 140.266 36.3244 140.35 36.645 140.532C36.9625 140.715 37.3026 141.016 37.6254 141.4C37.9487 141.788 38.2414 142.271 38.5185 142.777C38.7795 143.305 39.0325 143.853 39.2376 144.447C39.6637 145.622 39.9827 146.89 40.2316 148.187L40.4223 149.202C40.4953 149.576 40.5617 149.95 40.642 150.325L40.9132 151.45C41.016 151.825 41.1323 152.199 41.2428 152.573C41.7197 154.066 42.3716 155.546 43.2181 156.916C44.061 158.287 45.0907 159.536 46.2137 160.63C47.3375 161.727 48.5469 162.683 49.7832 163.546C51.0249 164.396 52.2923 165.164 53.5693 165.885C56.1286 167.305 58.7226 168.544 61.3196 169.732C66.5173 172.091 71.7304 174.261 76.9218 176.478L84.6955 179.809C85.9786 180.371 87.3149 180.913 88.6223 181.466C89.9406 182.008 91.24 182.588 92.5793 183.089L96.5727 184.637L100.619 186.076C101.289 186.323 101.976 186.536 102.66 186.754L104.713 187.408C105.056 187.516 105.396 187.631 105.741 187.731L106.783 188.023L108.867 188.607L109.388 188.752L109.918 188.879L110.976 189.131C111.685 189.292 112.381 189.485 113.1 189.619L115.254 190.036C115.973 190.172 116.713 190.257 117.442 190.368C118.873 190.565 120.338 190.678 121.836 190.707L97.2607 232.429Z" fill="#626272"/>
<path d="M194.126 357.43C191.019 357.806 187.831 358.01 184.71 358.076C172.463 358.341 161.205 356.535 159.783 354.942C157.999 352.942 157.392 322.24 157.392 322.24L149.15 321.709L144.115 321.384C144.115 321.384 142.078 345.481 140.152 351.478C138.223 357.475 135.011 357.905 116.911 357.154C110.637 356.893 105.758 356.532 101.963 356.045C94.8063 355.132 91.4984 353.783 89.9598 351.872C87.6042 348.942 93.8868 340.554 94.9565 339.592C95.8369 338.799 91.6544 319.638 89.6593 291.2C89.2296 285.031 88.8991 278.427 88.7459 271.478C88.4964 260.154 90.056 248.432 92.3934 237.499C92.5497 236.772 92.7059 236.051 92.868 235.332C92.6759 237.253 92.5136 239.232 92.3934 241.279C108.234 232.737 137.258 218.894 169.587 229.498C178.475 232.412 186.025 236.501 192.53 240.876C198.867 245.134 204.215 249.664 208.848 253.64C209.563 266.223 209.332 279.987 208.71 292.732C207.472 318.067 204.693 339.376 204.693 339.376C204.693 339.376 208.977 342.519 209.834 347.158C210.69 351.8 209.404 355.582 194.126 357.43Z" fill="white"/>
<path d="M208.848 253.646C204.214 249.671 198.866 245.14 192.53 240.883C186.025 236.508 178.474 232.419 169.586 229.504C137.257 218.901 108.233 232.743 92.3926 241.285C92.5128 239.239 92.6751 237.259 92.8672 235.339C98.561 210.037 108.137 189.477 108.44 188.822C108.446 188.81 108.449 188.807 108.449 188.807L200.979 191.809C200.979 191.809 201.285 193.127 201.814 195.943C203.094 202.811 205.678 218.583 208.262 245.783C208.505 248.337 208.697 250.963 208.848 253.646Z" fill="#777781"/>
<path d="M194.126 357.434C178.848 359.282 161.569 356.944 159.784 354.946C157.999 352.946 157.392 322.244 157.392 322.244L144.115 321.388C144.115 321.388 142.078 345.485 140.152 351.482C138.223 357.479 135.011 357.909 116.911 357.157C98.8114 356.409 92.3155 354.802 89.9599 351.875C87.6043 348.946 93.8869 340.557 94.9566 339.596C95.837 338.803 91.6545 319.642 89.6594 291.203C97.6427 297.312 116.28 308.11 149.223 309.18C177.288 310.09 197.314 300.446 208.71 292.736C207.472 318.071 204.693 339.379 204.693 339.379C204.693 339.379 208.978 342.522 209.834 347.161C210.691 351.804 209.405 355.586 194.126 357.434Z" fill="#777781"/>
<path opacity="0.35" d="M194.125 357.435C191.019 357.811 187.831 358.015 184.709 358.081C184.586 349.716 184.207 335.3 183.06 324.655C181.347 308.751 163.199 318.448 153.068 319.382C151.1 319.562 149.865 320.43 149.15 321.714L144.114 321.389C144.114 321.389 142.077 345.486 140.151 351.483C138.222 357.48 135.01 357.91 116.911 357.159C110.637 356.897 105.758 356.537 101.963 356.05C106.593 355.467 117.151 353.736 123.374 349.59C131.513 344.164 131.654 326.173 128.941 323.745C126.228 321.317 114.663 315.822 106.416 303.933C106.416 303.933 130.798 316.606 159.213 307.896C185.082 299.966 191.987 260.498 192.531 240.881C192.585 238.949 192.576 237.21 192.519 235.713C191.878 219.008 187.915 192.222 187.915 192.222L201.815 195.942C203.095 202.81 205.678 218.581 208.263 245.782C208.506 248.336 208.698 250.962 208.849 253.645C209.564 266.228 209.332 279.992 208.71 292.738C207.472 318.072 204.693 339.381 204.693 339.381C204.693 339.381 208.978 342.524 209.834 347.163C210.69 351.804 209.404 355.587 194.125 357.435Z" fill="#626272"/>
<path d="M212.325 346.613C211.834 345.395 211.184 344.342 210.472 343.384C209.321 341.854 208.013 340.551 206.604 339.385C206.892 337.313 207.153 335.261 207.405 333.195C207.709 330.705 207.989 328.214 208.256 325.722C208.786 320.738 209.251 315.748 209.652 310.752C210.053 305.757 210.39 300.756 210.663 295.751C210.928 290.745 211.125 285.735 211.254 280.721C211.385 275.708 211.413 270.69 211.38 265.671C211.344 260.652 211.188 255.631 210.96 250.611C210.714 245.592 210.343 240.575 209.869 235.564C209.359 230.555 208.718 225.554 207.916 220.57C207.718 219.341 206.562 218.505 205.333 218.703C204.104 218.901 203.269 220.057 203.466 221.285L203.469 221.304C204.253 226.179 204.882 231.083 205.384 236.007C205.85 240.936 206.215 245.878 206.458 250.831C206.683 255.785 206.838 260.745 206.873 265.71C206.906 270.675 206.878 275.643 206.748 280.61C206.62 285.577 206.425 290.544 206.163 295.509C205.892 300.473 205.558 305.434 205.159 310.391C204.762 315.348 204.3 320.3 203.774 325.244C203.51 327.715 203.233 330.185 202.931 332.651C202.631 335.111 202.315 337.591 201.964 340.015L201.963 340.023C201.851 340.812 202.159 341.636 202.841 342.15C204.365 343.297 205.778 344.633 206.86 346.079C207.397 346.799 207.844 347.551 208.137 348.277C208.442 349.008 208.526 349.683 208.47 350.236C208.397 350.785 208.159 351.26 207.71 351.76C207.26 352.253 206.58 352.713 205.803 353.093C205.02 353.47 204.169 353.811 203.248 354.062C202.803 354.209 202.322 354.305 201.857 354.425C201.387 354.537 200.9 354.621 200.422 354.721C196.472 355.427 192.369 355.718 188.266 355.817C184.158 355.909 180.028 355.796 175.916 355.51C173.86 355.366 171.808 355.177 169.772 354.933C167.74 354.688 165.706 354.392 163.773 353.981C163.293 353.878 162.82 353.766 162.377 353.643C162.111 353.57 161.838 353.485 161.617 353.405C161.538 353.043 161.467 352.616 161.404 352.19C161.122 350.225 160.936 348.145 160.76 346.084C160.42 341.946 160.164 337.776 159.931 333.606C159.701 329.436 159.498 325.254 159.324 321.086C159.323 321.064 159.321 321.032 159.319 321.009C159.225 319.767 158.141 318.837 156.899 318.932L156.838 318.936L155.349 319.144L154.602 319.247L153.847 319.314C153.344 319.357 152.84 319.41 152.334 319.446L150.808 319.515C148.77 319.579 146.712 319.56 144.652 319.413C142.592 319.278 140.527 319.059 138.471 318.751C136.421 318.44 134.352 318.051 132.36 317.557L132.334 317.551C131.961 317.458 131.57 317.657 131.431 318.025C131.281 318.422 131.482 318.865 131.878 319.014C133.906 319.779 135.93 320.41 137.999 320.979C139.1 321.279 140.209 321.553 141.326 321.804C140.857 326.396 140.321 331.004 139.766 335.589C139.197 340.192 138.584 344.817 137.775 349.287C137.567 350.392 137.342 351.51 137.07 352.49C137.007 352.7 136.945 352.928 136.883 353.098C136.803 353.127 136.71 353.159 136.616 353.188C135.79 353.441 134.697 353.624 133.625 353.762C132.541 353.902 131.42 353.997 130.294 354.073C125.777 354.37 121.155 354.371 116.559 354.233C111.959 354.088 107.355 353.777 102.822 353.262C100.56 352.999 98.308 352.674 96.1566 352.22C95.088 351.991 94.0373 351.722 93.1197 351.4C92.6676 351.241 92.2503 351.054 91.9929 350.903C91.9772 350.895 91.9656 350.888 91.954 350.882C91.7884 350.373 91.7583 349.782 91.9212 349.057C92.088 348.29 92.4485 347.434 92.9375 346.589C93.4218 345.742 94.0249 344.901 94.6916 344.086C95.0252 343.678 95.3758 343.277 95.7401 342.877L96.3044 342.27L96.6285 341.924L96.7341 341.808C96.792 341.746 96.9824 341.502 97.0731 341.339C97.2018 341.117 97.2211 341.05 97.2716 340.932C97.3129 340.829 97.3606 340.69 97.3816 340.612L97.4326 340.402C97.4681 340.242 97.4769 340.16 97.4902 340.062C97.5343 339.686 97.5299 339.461 97.5279 339.247C97.5263 339.14 97.523 339.038 97.518 338.946L97.5017 338.671C97.4767 338.317 97.4439 337.993 97.4075 337.68C97.3353 337.052 97.2517 336.458 97.1663 335.866C96.994 334.685 96.8113 333.528 96.6296 332.373L95.5582 325.471C94.1701 316.283 93.0607 307.062 92.1439 297.811C91.9168 295.499 91.7051 293.184 91.5075 290.868L91.4336 290L91.3834 289.143L91.287 287.431L91.0926 284.006C91.0612 282.861 91.0681 281.711 91.0535 280.564C91.0502 279.416 91.0199 278.269 91.0383 277.12L91.1503 273.668L91.2059 271.942L91.2338 271.079L91.2914 270.216C91.7986 261.004 92.8614 251.794 94.1776 242.604C94.8443 238.009 95.5852 233.419 96.397 228.838C97.1779 224.251 98.064 219.67 98.9706 215.105L98.9728 215.093C99.0312 214.801 98.8672 214.502 98.5775 214.4C98.26 214.288 97.9116 214.454 97.7997 214.772C96.2335 219.211 94.9361 223.713 93.7156 228.246C93.4077 229.379 93.126 230.517 92.8454 231.657C92.5668 232.797 92.2718 233.933 92.0061 235.076C91.7368 236.219 91.4901 237.367 91.2335 238.512C90.9705 239.657 90.7409 240.809 90.5069 241.96C88.6196 251.165 87.2395 260.498 86.5865 269.929L86.5174 270.812L86.4782 271.699L86.3999 273.472L86.2442 277.018C86.2114 278.202 86.2277 279.39 86.2172 280.576C86.2183 281.763 86.1982 282.949 86.2172 284.137L86.3768 287.707L86.4573 289.492L86.4997 290.384L86.5639 291.261C86.7362 293.599 86.9223 295.936 87.1243 298.273C87.9159 307.619 89.0061 316.951 90.3528 326.238L91.3903 333.182L91.8978 336.615C91.9758 337.178 92.0513 337.74 92.1089 338.272C92.1321 338.481 92.15 338.679 92.1643 338.866L91.7947 339.26C91.371 339.721 90.9543 340.2 90.5491 340.695C89.739 341.687 88.9708 342.745 88.2949 343.925C87.6213 345.101 87.0262 346.406 86.6913 347.921C86.527 348.677 86.43 349.487 86.4688 350.336C86.5038 351.181 86.6728 352.056 86.9826 352.878L87.1034 353.184C87.1265 353.239 87.1384 353.275 87.1714 353.347C87.2208 353.446 87.2729 353.545 87.328 353.642C87.5626 354.068 87.7828 354.298 88.0262 354.566C88.1389 354.678 88.2415 354.765 88.3528 354.862C88.4625 354.957 88.5777 355.054 88.672 355.116C88.8685 355.255 89.083 355.408 89.2608 355.503C90.0116 355.941 90.6764 356.207 91.3228 356.44C92.6086 356.89 93.8275 357.19 95.04 357.452C97.4579 357.962 99.8331 358.298 102.208 358.576C106.952 359.121 111.677 359.385 116.41 359.515C118.777 359.574 121.145 359.593 123.519 359.558C125.894 359.521 128.272 359.441 130.674 359.254C131.876 359.158 133.082 359.043 134.311 358.87C135.549 358.689 136.771 358.498 138.177 358.059C138.538 357.938 138.904 357.81 139.342 357.592L139.671 357.421C139.801 357.341 139.93 357.258 140.056 357.172C140.169 357.102 140.341 356.959 140.489 356.822C140.564 356.753 140.637 356.683 140.709 356.611C140.796 356.513 140.888 356.396 140.97 356.283C141.054 356.168 141.132 356.049 141.203 355.928C141.242 355.855 141.26 355.813 141.289 355.753L141.441 355.419C141.555 355.174 141.596 355.022 141.662 354.836C141.798 354.462 141.874 354.153 141.968 353.824C142.303 352.549 142.519 351.372 142.731 350.182C143.148 347.812 143.46 345.477 143.754 343.136C144.045 340.799 144.306 338.465 144.553 336.132C145.028 331.646 145.417 327.17 145.779 322.672C147.409 322.936 149.056 323.133 150.716 323.276L152.349 323.393C152.896 323.42 153.445 323.428 153.994 323.445L154.818 323.468L154.921 323.466C155.074 326.931 155.241 330.39 155.433 333.854C155.667 338.049 155.924 342.243 156.27 346.456C156.451 348.569 156.635 350.664 156.947 352.846C157.03 353.399 157.116 353.946 157.262 354.578C157.296 354.731 157.345 354.911 157.396 355.089L157.499 355.402C157.517 355.456 157.553 355.539 157.581 355.605L157.626 355.71C157.646 355.752 157.648 355.764 157.684 355.833C157.745 355.948 157.812 356.061 157.884 356.17C157.953 356.277 158.061 356.403 158.159 356.51C158.207 356.561 158.269 356.625 158.309 356.661L158.422 356.758C158.496 356.82 158.58 356.886 158.651 356.937C158.767 357.014 158.904 357.104 159.007 357.161C159.107 357.215 159.216 357.275 159.309 357.319C160.04 357.661 160.595 357.817 161.17 357.983C161.735 358.14 162.283 358.268 162.826 358.385C164.993 358.844 167.11 359.148 169.236 359.406C171.359 359.66 173.48 359.856 175.603 360.004C179.849 360.298 184.103 360.416 188.372 360.321C192.641 360.215 196.923 359.92 201.225 359.153C201.773 359.041 202.319 358.945 202.867 358.816C203.417 358.676 203.964 358.562 204.516 358.386C205.615 358.081 206.724 357.656 207.824 357.12C208.918 356.574 210.031 355.878 211.008 354.83C211.486 354.296 211.944 353.707 212.274 353.006C212.629 352.325 212.837 351.553 212.943 350.795C213.118 349.266 212.818 347.815 212.325 346.613ZM161.728 353.849C161.73 353.857 161.732 353.863 161.731 353.857C161.73 353.855 161.729 353.852 161.728 353.849Z" fill="#39344E"/>
<path d="M89.0034 47.2291C101.424 47.2291 111.493 37.1601 111.493 24.7394C111.493 12.3186 101.424 2.24963 89.0034 2.24963C76.5827 2.24963 66.5137 12.3186 66.5137 24.7394C66.5137 37.1601 76.5827 47.2291 89.0034 47.2291Z" fill="#777781"/>
<path opacity="0.5" d="M106.238 10.2897C102.328 7.01153 97.2868 5.03466 91.7884 5.03466C79.3674 5.03466 69.2959 15.1031 69.2959 27.5241C69.2959 33.0286 71.2761 38.0733 74.5631 41.9823C69.6416 37.8569 66.5137 31.6647 66.5137 24.7421C66.5137 12.3211 76.5821 2.24963 89.0031 2.24963C95.9227 2.24936 102.112 5.37425 106.238 10.2897Z" fill="white"/>
<path opacity="0.35" d="M111.495 24.7424C111.495 37.1634 101.427 47.2318 89.006 47.2318C79.6826 47.2318 71.6845 41.5589 68.2773 33.4767C70.9634 34.6126 73.9138 35.2375 77.0117 35.2375C89.4327 35.2375 99.5012 25.166 99.5012 12.7481C99.5012 9.65045 98.8733 6.697 97.7404 4.01093C105.823 7.42082 111.495 15.419 111.495 24.7424Z" fill="#39344E"/>
<path d="M89.0028 49.4871C75.3594 49.4871 64.2598 38.3873 64.2598 24.7438C64.2598 11.1004 75.3594 0.000488281 89.0028 0.000488281C102.646 0.000488281 113.746 11.1004 113.746 24.7438C113.746 38.3875 102.646 49.4871 89.0028 49.4871ZM89.0028 4.5077C77.8445 4.5077 68.7664 13.5858 68.7664 24.7441C68.7664 35.9024 77.8442 44.9805 89.0028 44.9805C100.161 44.9805 109.239 35.9024 109.239 24.7441C109.239 13.5858 100.161 4.5077 89.0028 4.5077Z" fill="#39344E"/>
<path d="M210.664 47.2291C223.084 47.2291 233.153 37.1601 233.153 24.7394C233.153 12.3186 223.084 2.24963 210.664 2.24963C198.243 2.24963 188.174 12.3186 188.174 24.7394C188.174 37.1601 198.243 47.2291 210.664 47.2291Z" fill="#777781"/>
<path opacity="0.5" d="M193.43 10.2897C197.339 7.01153 202.38 5.03466 207.879 5.03466C220.3 5.03466 230.371 15.1031 230.371 27.5241C230.371 33.0286 228.391 38.0733 225.104 41.9823C230.026 37.8569 233.154 31.6647 233.154 24.7421C233.154 12.3211 223.085 2.24963 210.664 2.24963C203.744 2.24936 197.555 5.37425 193.43 10.2897Z" fill="white"/>
<path opacity="0.35" d="M188.173 24.7424C188.173 37.1634 198.241 47.2318 210.662 47.2318C219.985 47.2318 227.984 41.5589 231.391 33.4767C228.705 34.6126 225.754 35.2375 222.657 35.2375C210.236 35.2375 200.167 25.166 200.167 12.7481C200.167 9.65045 200.795 6.697 201.928 4.01093C193.846 7.42082 188.173 15.419 188.173 24.7424Z" fill="#39344E"/>
<path d="M185.92 24.7438C185.92 11.1004 197.02 0.000488281 210.663 0.000488281C224.307 0.000488281 235.406 11.1004 235.406 24.7438C235.406 38.3873 224.307 49.4871 210.663 49.4871C197.02 49.4869 185.92 38.3873 185.92 24.7438ZM190.427 24.7438C190.427 35.9021 199.505 44.9802 210.663 44.9802C221.822 44.9802 230.9 35.9021 230.9 24.7438C230.9 13.5855 221.822 4.50742 210.663 4.50742C199.505 4.50742 190.427 13.5852 190.427 24.7438Z" fill="#39344E"/>
<path d="M177.727 200.373C260.057 190.792 262.195 135.105 248.744 90.8156C235.572 47.4423 197.767 5.6043 121.309 20.1689C44.8504 34.7336 51.4053 124.979 51.4053 124.979C51.4053 124.979 34.4129 139.686 54.404 166.388C74.395 193.091 119.268 200.373 119.268 200.373C119.268 200.373 141.836 204.55 177.727 200.373Z" fill="white"/>
<path opacity="0.35" d="M177.727 200.369C141.838 204.546 119.267 200.369 119.267 200.369C119.267 200.369 83.0917 194.498 61.2305 173.968C82.0402 186.707 106.365 190.655 106.365 190.655C106.365 190.655 128.933 194.832 164.823 190.655C247.155 181.077 249.294 125.39 235.843 81.0988C230.359 63.0443 220.609 45.257 205.58 31.6943C228.115 45.6776 241.827 68.0347 248.744 90.8125C262.195 135.1 260.056 190.788 177.727 200.369Z" fill="#39344E"/>
<path d="M119.169 200.982C117.898 200.841 116.655 200.662 115.407 200.455C114.161 200.254 112.919 200.026 111.68 199.781C109.202 199.295 106.741 198.725 104.294 198.092C99.4006 196.822 94.5646 195.294 89.8308 193.462C85.0962 191.636 80.4511 189.528 75.9861 187.046C71.5183 184.576 67.1925 181.788 63.1902 178.529L61.6977 177.297C61.2043 176.881 60.7343 176.435 60.2517 176.005L59.5323 175.354C59.2914 175.138 59.051 174.921 58.8253 174.688L57.4471 173.315C57.2186 173.085 56.9851 172.86 56.761 172.625L56.1064 171.902L54.7979 170.455C54.3688 169.966 53.9724 169.446 53.5581 168.942L52.9435 168.181C52.7367 167.928 52.5325 167.674 52.3475 167.41C49.2764 163.263 46.5272 158.778 44.6504 153.809C43.7276 151.325 43.0184 148.731 42.6394 146.056C42.2601 143.385 42.2121 140.633 42.5999 137.919C42.7107 137.243 42.8039 136.563 42.9676 135.896C43.0465 135.562 43.1054 135.223 43.2025 134.894L43.4814 133.902C43.8918 132.59 44.3855 131.304 44.9872 130.066C45.5953 128.832 46.2935 127.642 47.0964 126.518C47.498 125.956 47.9222 125.408 48.3798 124.877C48.6058 124.611 48.8448 124.35 49.0895 124.09C49.218 123.96 49.3381 123.832 49.4738 123.701C49.6152 123.564 49.7229 123.458 49.9294 123.277L49.931 123.275L49.1584 125.142C49.1121 124.479 49.0857 123.892 49.0611 123.273C49.0371 122.662 49.0206 122.054 49.0088 121.446C48.985 120.231 48.9817 119.019 48.9922 117.808C49.0203 115.387 49.1085 112.969 49.256 110.556C49.5559 105.73 50.0812 100.917 50.8652 96.1396C52.4313 86.5911 54.9545 77.1511 58.7409 68.1639C62.5235 59.1909 67.5949 50.6616 74.1179 43.2902C77.3728 39.6058 80.9925 36.2359 84.8806 33.2122C88.7914 30.2163 92.9909 27.6013 97.3843 25.3901C101.775 23.1688 106.373 21.3898 111.063 19.9788C113.41 19.2763 115.779 18.6597 118.167 18.1395L119.96 17.7622L120.857 17.5753L121.749 17.4221L125.318 16.8099C134.843 15.2288 144.532 14.3837 154.247 14.6034C155.461 14.6458 156.675 14.7197 157.888 14.777L159.709 14.8691C160.012 14.8865 160.316 14.8956 160.619 14.9195L161.527 15.0094C163.948 15.2638 166.376 15.435 168.781 15.849C169.985 16.0364 171.194 16.1952 172.393 16.4074L175.98 17.1335C176.577 17.2597 177.178 17.365 177.771 17.5089L179.545 17.9648C180.727 18.2751 181.915 18.5599 183.089 18.8928L186.588 19.9926L187.462 20.2683L187.899 20.4066L188.329 20.5671L190.048 21.2096L191.766 21.8529L192.625 22.1748C192.911 22.2837 193.188 22.4155 193.47 22.5348L196.835 24.0042C197.402 24.2369 197.943 24.5244 198.492 24.797L200.134 25.6209L201.775 26.4456C202.314 26.7366 202.841 27.0487 203.374 27.3494L204.97 28.2601L205.768 28.716L206.167 28.9439L206.554 29.192L209.645 31.1799C213.7 33.9302 217.566 36.9589 221.16 40.2855C224.728 43.6381 228.052 47.2382 231.114 51.045L233.348 53.9477C234.077 54.9268 234.759 55.9386 235.466 56.9326C236.185 57.9191 236.824 58.958 237.485 59.982L238.472 61.5214C238.801 62.0343 239.094 62.5691 239.406 63.092L240.329 64.6692C240.636 65.1951 240.95 65.7169 241.228 66.2585L242.947 69.4807C243.489 70.5694 244.013 71.6678 244.546 72.761L244.944 73.5821L245.314 74.4154L246.049 76.0841C247.985 80.5433 249.685 85.1023 251.098 89.7476C252.509 94.3709 253.726 99.0518 254.716 103.792C255.218 106.161 255.651 108.546 256.021 110.942C256.391 113.339 256.71 115.746 256.939 118.166C257.172 120.585 257.339 123.013 257.425 125.447C257.502 127.882 257.5 130.323 257.41 132.765C257.326 135.206 257.125 137.648 256.833 140.081C256.535 142.514 256.153 144.941 255.622 147.344C254.577 152.149 253.073 156.882 250.994 161.377C248.946 165.883 246.307 170.128 243.214 174.001C241.658 175.932 239.976 177.755 238.207 179.484L236.861 180.761L235.468 181.985C235.01 182.4 234.523 182.78 234.046 183.171C233.565 183.557 233.094 183.957 232.594 184.319L231.115 185.429L229.599 186.484C229.097 186.842 228.579 187.174 228.06 187.503C227.54 187.83 227.029 188.175 226.501 188.488C225.442 189.111 224.392 189.749 223.306 190.319C222.237 190.921 221.133 191.452 220.036 191.995C215.629 194.131 211.027 195.794 206.362 197.132C201.693 198.467 196.942 199.432 192.167 200.088C187.392 200.744 182.593 201.115 177.798 201.168C177.356 201.173 176.994 200.818 176.989 200.377C176.985 199.978 177.275 199.644 177.656 199.579C187.018 197.983 196.275 196.108 205.133 193.138C206.235 192.757 207.345 192.399 208.432 191.983L210.068 191.377L211.685 190.727C212.771 190.314 213.822 189.823 214.888 189.368C215.419 189.137 215.936 188.878 216.463 188.637C216.984 188.386 217.517 188.158 218.027 187.887L219.571 187.099C220.09 186.844 220.584 186.548 221.093 186.276C222.113 185.735 223.093 185.131 224.083 184.542C224.577 184.247 225.051 183.921 225.537 183.613C226.021 183.303 226.504 182.99 226.969 182.654L228.378 181.664L229.749 180.624C230.212 180.285 230.646 179.912 231.091 179.551C231.532 179.186 231.983 178.832 232.404 178.445L233.688 177.306L234.925 176.119C236.55 174.513 238.092 172.826 239.515 171.042C242.341 167.462 244.748 163.552 246.618 159.381C248.516 155.223 249.891 150.823 250.846 146.325C251.331 144.077 251.678 141.796 251.946 139.504C252.209 137.211 252.388 134.903 252.456 132.587C252.769 123.319 251.662 113.988 249.729 104.844C248.761 100.269 247.568 95.7303 246.189 91.2534C244.82 86.7936 243.175 82.4245 241.311 78.1585L240.603 76.5623L240.247 75.7652L239.864 74.9813L238.326 71.8484L236.677 68.7756C236.41 68.2582 236.108 67.7621 235.814 67.2612L234.93 65.7598C234.631 65.2623 234.351 64.7518 234.036 64.2645L233.092 62.8014C232.46 61.8282 231.85 60.8392 231.163 59.9045C230.487 58.9618 229.837 58.0001 229.143 57.0721L227.015 54.3229C224.101 50.72 220.945 47.3225 217.568 44.1637C214.164 41.0325 210.51 38.189 206.692 35.5926L203.778 33.7193L203.414 33.4853L203.038 33.2709L202.285 32.8422L200.78 31.9839C200.277 31.7006 199.781 31.4054 199.273 31.1308L197.724 30.3546L196.175 29.5773C195.658 29.3202 195.148 29.0478 194.613 28.8295L191.435 27.4431C191.169 27.3304 190.908 27.2052 190.638 27.1027L189.826 26.7995L188.201 26.1923L186.576 25.5842L186.17 25.432L185.756 25.3017L184.928 25.0417L181.615 24.0001C180.502 23.6851 179.373 23.4166 178.253 23.1217L176.57 22.6881C176.007 22.5514 175.434 22.4527 174.867 22.3328L171.457 21.642C170.314 21.4403 169.161 21.2909 168.014 21.112C165.725 20.7154 163.4 20.556 161.087 20.3113L160.219 20.225C159.929 20.2021 159.638 20.1938 159.348 20.1776L157.603 20.0905C156.44 20.0362 155.278 19.9645 154.114 19.9234C144.79 19.7264 135.428 20.4951 126.177 22.0169L122.708 22.6037L121.841 22.7504L120.99 22.9262L119.289 23.2802C117.026 23.768 114.785 24.346 112.571 25.0037C108.145 26.3246 103.827 27.985 99.7176 30.0539C95.6045 32.114 91.6875 34.546 88.0212 37.3133C84.3814 40.1141 80.9856 43.2376 77.9189 46.6709C71.7749 53.5368 66.9326 61.5545 63.2787 70.0901C59.6216 78.6365 57.1362 87.7044 55.5728 96.9252C54.7855 101.537 54.221 106.192 53.8895 110.864C53.7241 113.2 53.6166 115.539 53.5669 117.877C53.5457 119.046 53.5377 120.214 53.5493 121.378C53.5551 121.96 53.565 122.542 53.5824 123.12C53.5989 123.691 53.6218 124.292 53.6535 124.816C53.6948 125.504 53.4302 126.139 52.9774 126.588L52.8809 126.683H52.8806L52.6554 126.906C52.567 126.994 52.4749 127.096 52.3845 127.191C52.2037 127.391 52.0231 127.595 51.8478 127.809C51.4947 128.234 51.1593 128.684 50.8415 129.147C50.2083 130.075 49.6419 131.057 49.1529 132.075C48.6694 133.098 48.2764 134.161 47.9484 135.243L47.7229 136.061C47.6422 136.332 47.5983 136.613 47.5333 136.889C47.3977 137.439 47.3274 138.003 47.235 138.563C46.6228 143.074 47.3905 147.762 49.028 152.178C49.8274 154.398 50.896 156.542 52.0556 158.639L52.9592 160.198C53.2742 160.711 53.61 161.214 53.9338 161.723C54.5642 162.751 55.3037 163.718 55.9931 164.714C56.1632 164.967 56.3478 165.204 56.5342 165.438L57.0888 166.148C57.4628 166.618 57.8175 167.103 58.207 167.561L59.3969 168.921L59.9915 169.602C60.196 169.824 60.411 170.037 60.6199 170.255L61.8826 171.556C62.0888 171.777 62.3107 171.983 62.5334 172.189L63.1974 172.809C63.6437 173.22 64.0753 173.645 64.5329 174.044L65.9196 175.227L66.612 175.821C66.8471 176.014 67.0891 176.199 67.3273 176.389L68.762 177.522C69.2366 177.904 69.744 178.247 70.2336 178.611C70.7297 178.968 71.216 179.337 71.7204 179.683C73.7422 181.062 75.7954 182.405 77.9282 183.628C78.461 183.934 78.9845 184.256 79.5253 184.55L81.1458 185.434C81.6816 185.737 82.2271 186.023 82.7761 186.303L84.4184 187.153C86.629 188.249 88.8666 189.297 91.1351 190.285C93.3961 191.291 95.7007 192.204 98.015 193.096C100.326 194 102.676 194.806 105.029 195.609C109.74 197.185 114.539 198.602 119.367 199.765L119.382 199.768C119.714 199.848 119.918 200.182 119.838 200.514C119.764 200.819 119.474 201.017 119.169 200.982Z" fill="#39344E"/>
<path d="M136.913 121.669C126.42 121.669 118.311 123.74 122.38 130.522C126.45 137.305 136.913 139.59 136.913 139.59C136.913 139.59 147.375 137.305 151.445 130.522C155.514 123.74 147.405 121.669 136.913 121.669Z" fill="#39344E"/>
<path d="M114.811 163.938C114.811 163.938 113.168 153.015 120.844 151.373C128.519 149.731 133.659 155.157 138.514 154.229C143.369 153.301 154.079 148.802 157.863 154.8C161.646 160.797 155.078 173.006 151.223 175.005C147.367 177.004 137.086 179.646 134.73 179.003C132.374 178.361 121.593 172.72 120.451 171.792C119.308 170.864 114.811 163.938 114.811 163.938Z" fill="#39344E"/>
<path d="M124.521 173.939C124.521 173.939 128.597 169.048 136.912 169.048C145.226 169.048 150.045 173.939 150.045 173.939C150.045 173.939 145.083 177.544 138.158 178.079C131.233 178.615 124.521 173.939 124.521 173.939Z" fill="#EF6880"/>
<path d="M136.911 154.589L120.844 152.911C120.844 152.911 120.879 158.052 125.235 159.729C129.59 161.407 135.45 161.407 136.911 161.407C137.127 161.407 137.441 161.407 137.831 161.402H137.836C140.083 161.37 144.88 161.158 148.587 159.729C152.942 158.052 152.978 152.911 152.978 152.911L136.911 154.589Z" fill="white"/>
<path d="M157.509 150.738C154.161 148.235 149.244 148.631 145.854 150.134C142.11 151.795 137.414 151.993 136.912 152.01C136.411 151.993 131.715 151.795 127.97 150.134C124.582 148.631 119.663 148.234 116.316 150.738C114.253 152.281 111.98 155.527 112.864 162.233C113.857 169.769 118.752 174.373 122.683 176.908C126.981 179.678 132.433 181.399 136.912 181.399C141.391 181.399 146.844 179.678 151.141 176.908C155.073 174.373 159.968 169.769 160.961 162.233C161.844 155.527 159.571 152.281 157.509 150.738ZM156.493 161.645C155.725 167.471 151.831 171.101 148.699 173.119C144.38 175.904 139.65 176.892 136.912 176.892C134.174 176.892 129.445 175.904 125.125 173.119C121.994 171.101 118.099 167.471 117.332 161.645C117.002 159.137 117.026 155.835 119.015 154.347C120.809 153.005 123.959 153.284 126.143 154.253C130.93 156.376 136.628 156.512 136.868 156.517C136.883 156.517 136.896 156.515 136.911 156.515C136.926 156.515 136.942 156.517 136.957 156.517C137.197 156.512 142.896 156.376 147.682 154.253C149.866 153.284 153.016 153.005 154.81 154.347C156.799 155.835 156.823 159.137 156.493 161.645Z" fill="#39344E"/>
<path d="M111.251 79.7151C97.4567 70.8005 77.6627 76.9001 67.0413 93.3382C56.4172 109.773 58.9889 130.324 72.7831 139.239C86.5771 148.154 106.372 142.057 116.996 125.619C127.617 109.184 125.045 88.6298 111.251 79.7151ZM112.516 114.872C109.884 123.765 102.024 129.282 94.96 127.191C87.8932 125.103 84.2998 116.197 86.9288 107.303C89.5608 98.4127 97.4209 92.8963 104.485 94.9873C111.551 97.0758 115.145 105.981 112.516 114.872Z" fill="#777781"/>
<path d="M109.587 110.893C109.587 112.069 109.414 113.195 109.097 114.234C108.025 110.685 105.287 108.165 102.078 108.165C98.868 108.165 96.1298 110.685 95.0576 114.234C94.7406 113.195 94.5684 112.069 94.5684 110.893C94.5684 105.696 97.93 101.482 102.078 101.482C106.225 101.482 109.587 105.696 109.587 110.893Z" fill="#39344E"/>
<path d="M156.658 125.619C167.282 142.057 187.076 148.154 200.871 139.239C214.665 130.324 217.237 109.773 206.612 93.3382C195.991 76.9001 176.197 70.8005 162.403 79.7151C148.609 88.6298 146.037 109.184 156.658 125.619ZM169.169 94.9876C176.233 92.8963 184.093 98.4129 186.725 107.304C189.354 116.197 185.761 125.103 178.694 127.191C171.63 129.282 163.77 123.766 161.138 114.872C158.509 105.981 162.102 97.0758 169.169 94.9876Z" fill="#777781"/>
<path d="M164.067 110.893C164.067 112.069 164.24 113.195 164.557 114.234C165.629 110.685 168.367 108.165 171.577 108.165C174.786 108.165 177.524 110.685 178.596 114.234C178.913 113.195 179.086 112.069 179.086 110.893C179.086 105.696 175.724 101.482 171.576 101.482C167.429 101.482 164.067 105.696 164.067 110.893Z" fill="#39344E"/>
<path d="M254.028 262.629C252.015 265.592 249.361 268.389 246.42 270.961C237.118 260.424 217.675 248.772 210.314 244.56L210.332 241.639L197.98 237.027C197.98 237.027 187.701 231.965 189.306 216.437C190.913 200.906 202.664 198.106 202.664 198.106C202.664 198.106 214.472 196.802 227.647 202.228C240.819 207.655 251.17 217.648 254.028 224.219C256.882 230.786 263.735 248.348 254.028 262.629Z" fill="#777781"/>
<path opacity="0.35" d="M259.049 242.926C259.049 242.926 247.601 261.201 233.465 267.055C219.328 272.91 209.761 256.06 209.904 256.632C210.047 257.203 209.902 289.606 209.902 289.606C209.902 289.606 258.217 278.769 259.049 242.926Z" fill="#39344E"/>
<path d="M208.85 255.903C208.035 255.903 207.249 255.459 206.848 254.685C206.275 253.58 206.707 252.22 207.812 251.648C209.428 250.81 212.12 249.156 211.991 247.483C211.736 244.174 203.01 239.738 197.193 237.783C196.014 237.386 195.379 236.109 195.775 234.93C196.171 233.75 197.448 233.114 198.627 233.51C198.796 233.567 202.807 234.921 206.942 237.103C213.092 240.349 216.213 243.63 216.484 247.134C216.736 250.385 214.516 253.25 209.885 255.649C209.554 255.821 209.2 255.903 208.85 255.903Z" fill="#39344E"/>
<path d="M208.847 291.964C207.837 291.964 206.918 291.28 206.662 290.256C206.361 289.048 207.095 287.825 208.303 287.524C224.414 283.501 244.686 273.654 253.264 258.081C257.799 249.849 258.497 240.832 255.341 231.278C251.029 218.229 241.106 208.737 225.847 203.064C214.262 198.757 203.803 198.396 203.699 198.393C202.456 198.355 201.477 197.318 201.514 196.074C201.55 194.831 202.598 193.853 203.83 193.888C204.282 193.901 215.027 194.259 227.291 198.793C243.733 204.872 254.913 215.616 259.621 229.865C263.186 240.656 262.376 250.882 257.212 260.256C247.934 277.098 226.428 287.644 209.395 291.896C209.211 291.942 209.027 291.964 208.847 291.964Z" fill="#39344E"/>
<path d="M202.664 198.103L202.663 198.103C202.517 198.138 202.371 198.171 202.225 198.206C202.226 198.214 202.227 198.222 202.229 198.23C202.505 198.141 202.662 198.103 202.664 198.103Z" fill="#39344E"/>
<path d="M211.99 247.476C211.932 246.724 211.433 245.914 210.634 245.088C210.733 246.578 210.823 248.068 210.901 249.559C211.578 248.91 212.045 248.195 211.99 247.476Z" fill="#39344E"/>
</svg>
