<svg width="140" height="140" viewBox="0 0 140 140" fill="none" xmlns="http://www.w3.org/2000/svg">
<g clip-path="url(#clip0_6028_67469)">
<rect width="140" height="140" rx="70" fill="#F6F1DD"/>
<path d="M49.4021 136.421C45.4372 129.866 33.958 127.984 32.6283 138.405C31.475 147.443 42.2613 151.626 49.9819 149.183C52.7719 148.3 54.287 144.498 49.4021 136.421Z" fill="#777781"/>
<path d="M49.9824 149.184C42.2625 151.627 31.4762 147.445 32.6281 138.408C33.114 134.607 34.9468 132.442 37.2772 131.547C37.2367 131.759 37.3188 132.026 37.1746 132.199C30.2739 140.466 39.2987 149.466 45.2841 138.771C48.1643 140.274 49.1 143.994 52.4164 143.469C53.0508 146.833 51.7793 148.617 49.9824 149.184Z" fill="#626272"/>
<path d="M45.3911 151.018C41.5941 151.018 37.7806 149.797 35.1309 147.564C32.325 145.201 31.0352 141.899 31.4987 138.266C32.0606 133.862 34.4732 130.889 38.1179 130.109C42.5546 129.16 47.8238 131.62 50.3721 135.833C53.3195 140.706 54.3438 144.71 53.3342 147.411C52.8105 148.813 51.7405 149.832 50.3214 150.281C48.7502 150.778 47.0718 151.018 45.3911 151.018ZM40.0736 132.196C39.5686 132.196 39.072 132.245 38.591 132.348C35.8712 132.93 34.1989 135.077 33.7548 138.558C33.2918 142.187 35.0415 144.504 36.5908 145.809C39.8516 148.556 45.2176 149.497 49.6392 148.098C50.3981 147.857 50.925 147.356 51.2051 146.606C51.636 145.453 51.8481 142.675 48.4291 137.023C46.6745 134.122 43.222 132.196 40.0736 132.196Z" fill="#371B45"/>
<g opacity="0.3">
<path d="M44.3403 135.469C43.907 134.348 40.4202 132.722 37.8062 134.334C34.959 136.091 37.9711 136.136 40.0071 136.314C42.0888 136.496 44.7736 136.589 44.3403 135.469Z" fill="white"/>
</g>
<path d="M86.0202 103.589C81.4482 105.123 75.9368 106.018 70.0023 106.018C64.0678 106.018 58.5564 105.123 53.9844 103.589C56.9437 100.648 62.9419 95.7422 70.0023 95.7422C77.0628 95.7422 83.0609 100.648 86.0202 103.589Z" fill="#626272"/>
<path d="M66.2357 100.172L64.093 103.88L56.5776 116.889L54.7056 120.13C32.114 119.759 10.3867 101.623 9.16522 94.2115C8.42369 89.7113 12.3884 84.0002 14.7199 82.1095C14.7221 82.1072 14.7221 82.1072 14.7244 82.1072C17.3971 79.9441 24.3734 80.7384 29.9758 87.3033C32.8896 89.9082 35.9444 91.9775 39.0265 93.6233C49.2032 99.062 59.6643 99.8883 66.2357 100.172Z" fill="#777781"/>
<path d="M66.2364 100.182L64.0937 103.89C52.161 102.883 42.5189 98.8747 39.0273 93.6328C49.204 99.0715 59.665 99.8979 66.2364 100.182Z" fill="#626272"/>
<path d="M100.916 93.6484C97.4081 98.8674 87.7978 102.859 75.9061 103.869L73.7656 100.165C80.3254 99.8837 90.7571 99.0574 100.916 93.6484Z" fill="#626272"/>
<path d="M93.3082 99.5578C87.4189 102.366 79.1438 104.115 69.9773 104.115C60.8331 104.115 52.5764 102.376 46.6897 99.5784C46.2209 96.3486 50.5177 93.0547 69.9978 93.0547C89.4365 93.0547 93.7563 96.3348 93.3082 99.5578Z" fill="#626272"/>
<path d="M56.5776 116.891L54.7056 120.132C32.1139 119.761 10.3867 101.626 9.16523 94.2137C8.4237 89.7135 12.3881 84.0024 14.7196 82.1117C14.7221 82.1094 14.7221 82.1094 14.7244 82.1094C18.0022 83.2356 21.7758 85.005 21.8008 87.1773C21.8463 91.0205 19.4534 92.6366 19.3738 96.8896C19.2873 101.426 24.2528 108.309 35.6692 108.955C47.8362 109.644 52.0033 106.288 52.0033 106.288L56.5776 116.891Z" fill="#626272"/>
<path d="M66.2059 100.85C62.922 100.743 59.6199 100.521 56.347 100.028C53.0743 99.5395 49.8263 98.8125 46.6612 97.7914C43.4965 96.7732 40.4155 95.4557 37.5044 93.8167C36.0528 92.992 34.6334 92.1043 33.2795 91.1219C31.925 90.1415 30.6209 89.0911 29.3703 87.9797C29.3419 87.9546 29.3155 87.928 29.2912 87.9001L29.2844 87.8918C28.1614 86.5848 26.8976 85.4048 25.4948 84.4386C24.0948 83.4745 22.5549 82.7177 20.9451 82.2908C20.141 82.0844 19.3208 81.9493 18.5133 81.942C17.7072 81.9246 16.9113 82.0393 16.2155 82.2972C15.8691 82.4282 15.5552 82.6024 15.2947 82.8109C14.9927 83.0563 14.6922 83.3458 14.4042 83.6489C13.8271 84.2587 13.2928 84.934 12.8013 85.6365C11.8232 87.0447 11.0034 88.5808 10.4834 90.1783C10.2259 90.9765 10.051 91.791 9.99848 92.5933C9.9705 92.9945 9.98392 93.3903 10.0249 93.7769L10.0633 94.0642L10.1181 94.3343C10.1668 94.5172 10.2168 94.7014 10.2851 94.8875C10.5505 95.6326 10.952 96.3786 11.4124 97.093C11.8732 97.8095 12.3914 98.5033 12.9425 99.1751C14.0473 100.519 15.2804 101.776 16.5724 102.971C19.1639 105.356 22.0031 107.488 24.9776 109.397C27.9555 111.302 31.0761 112.988 34.3088 114.408C37.5394 115.833 40.8841 116.992 44.3031 117.824C46.0122 118.24 47.7414 118.565 49.4799 118.804C51.2193 119.037 52.9696 119.172 54.7199 119.205L54.7252 119.206C55.2276 119.215 55.6271 119.633 55.6173 120.139C55.6077 120.644 55.1926 121.046 54.6904 121.037C52.865 121.001 51.0441 120.861 49.2385 120.619C47.4341 120.371 45.6433 120.034 43.8766 119.604C40.3429 118.744 36.8994 117.55 33.5795 116.086C30.2572 114.626 27.0571 112.897 24 110.942C20.9458 108.981 18.03 106.794 15.3427 104.32C14.0018 103.081 12.716 101.771 11.54 100.342C10.9531 99.626 10.3943 98.8798 9.88338 98.0855C9.37364 97.291 8.90916 96.4477 8.56956 95.498C8.48357 95.2616 8.41352 95.0125 8.34846 94.7605L8.26908 94.3693L8.21722 93.988C8.1624 93.4809 8.14852 92.9739 8.18241 92.4772C8.2477 91.4828 8.45855 90.5263 8.75244 89.6139C9.34816 87.7891 10.2453 86.1233 11.3121 84.584C11.8503 83.8158 12.4314 83.0787 13.0874 82.3849C13.4177 82.0381 13.7625 81.7023 14.1563 81.3823C14.5957 81.0298 15.0786 80.7718 15.5686 80.5857C16.5519 80.2204 17.5603 80.0931 18.5388 80.111C19.521 80.1213 20.4781 80.2808 21.4051 80.5191C23.2566 81.0106 24.9744 81.8623 26.523 82.9274C28.0727 83.9955 29.4504 85.2846 30.6648 86.6988L30.5789 86.6107C32.9913 88.7372 35.6053 90.6329 38.4006 92.2195C41.187 93.8202 44.1338 95.1483 47.1889 96.1756C50.2417 97.21 53.392 97.9651 56.5845 98.4891C59.7789 99.0089 63.0107 99.3118 66.2641 99.4779C66.6404 99.4972 66.9301 99.8199 66.911 100.199C66.8922 100.573 66.5789 100.862 66.2082 100.85H66.2059Z" fill="#371B45"/>
<path d="M24.2551 82.0771C22.8374 80.4835 20.0391 71.9333 15.4182 72.2426C10.604 72.5646 11.1078 80.1639 14.7308 82.9879" fill="#777781"/>
<g opacity="0.3">
<path d="M24.2549 82.0771L23.545 82.1446C21.9566 79.1703 19.4136 73.637 15.68 73.8861C13.0865 74.0596 12.036 76.347 12.1882 78.8601C11.3905 75.7905 12.2619 72.452 15.4177 72.2425C20.0379 71.9335 22.836 80.4837 24.2549 82.0771Z" fill="white"/>
</g>
<path d="M14.7288 84.1218C14.4856 84.1218 14.2404 84.0436 14.0331 83.8821C11.4551 81.8725 10.1282 77.6977 11.0754 74.5757C11.7053 72.4999 13.2602 71.2294 15.3415 71.0899C19.5042 70.8024 22.133 75.8412 23.873 79.1694C24.3423 80.0671 24.8277 80.9957 25.1012 81.303C25.5202 81.7739 25.4805 82.4976 25.0125 82.9192C24.5446 83.3406 23.8255 83.3009 23.4066 82.8298C22.9455 82.3117 22.4664 81.3952 21.86 80.2353C20.4833 77.6015 18.1758 73.192 15.4925 73.3739C14.3585 73.4499 13.6044 74.0791 13.2509 75.2444C12.5799 77.4554 13.5965 80.6464 15.4261 82.0726C15.9226 82.4596 16.0134 83.1785 15.6287 83.6781C15.4046 83.9692 15.0685 84.1218 14.7288 84.1218Z" fill="#371B45"/>
<path d="M20.0352 85.2036C19.6369 89.1961 16.9112 97.5661 11.9471 96.8412C8.42776 96.3257 7.18036 92.9936 7.41897 89.3222C7.74742 84.2161 10.9469 78.4535 14.9014 78.6865C15.3633 78.7133 15.8849 78.8003 16.4163 78.966C18.3647 79.5809 20.4257 81.291 20.0352 85.2036Z" fill="#777781"/>
<g opacity="0.3">
<path d="M19.8475 82.4369C19.1362 81.242 18.0257 80.5674 16.9498 80.2289C16.4185 80.0631 15.8969 79.9762 15.4349 79.9494C11.4805 79.7164 8.28078 85.479 7.95232 90.5851C7.86384 91.9326 7.97689 93.2353 8.32968 94.3702C7.56586 92.9991 7.29654 91.2056 7.41892 89.3222C7.74738 84.2161 10.9471 78.4535 14.9015 78.6865C15.3635 78.7131 15.8851 78.8003 16.4164 78.966C17.8269 79.4105 19.2927 80.4282 19.8475 82.4369Z" fill="white"/>
</g>
<path d="M20.0352 85.1985C19.6369 89.191 16.9112 97.5611 11.9471 96.8361C8.42776 96.3206 7.18036 92.9885 7.41897 89.3171C7.41897 89.3171 8.37295 94.6435 11.8675 93.8153C15.0285 93.0663 15.4757 91.5693 13.0591 88.3182C11.0199 85.5721 13.1492 80.9027 16.4163 78.9609C18.3647 79.5758 20.4257 81.2859 20.0352 85.1985Z" fill="#626272"/>
<path d="M12.5596 98.035C12.3036 98.035 12.045 98.016 11.784 97.9778C7.89765 97.4089 5.80738 93.8518 6.32895 88.6951C6.89249 83.1232 10.3554 77.2729 14.9674 77.5484H14.9675C15.8696 77.6015 18.1397 77.9282 19.7313 79.8061C20.91 81.1966 21.3928 83.0525 21.1667 85.3222C20.8584 88.4151 19.1772 94.259 15.9784 96.7737C14.9116 97.6125 13.7646 98.035 12.5596 98.035ZM14.6718 79.8288C11.7075 79.8288 9.03286 84.5672 8.59192 88.9267C8.44532 90.3763 8.26579 95.1497 12.1113 95.7127C12.9746 95.8393 13.7817 95.5962 14.5781 94.97C17.0783 93.0043 18.6126 88.0113 18.9034 85.0936C19.0653 83.4685 18.7617 82.1893 18.0006 81.2913C16.9484 80.0498 15.3112 79.8618 14.8345 79.8335C14.7804 79.8305 14.726 79.8288 14.6718 79.8288Z" fill="#371B45"/>
<path d="M29.9757 87.2914C29.9757 87.2914 23.1395 78.3312 18.4176 79.6767C13.3741 81.114 12.5784 86.7406 15.1344 88.3901C18.3492 90.4642 21.8011 87.1625 21.8011 87.1625" fill="#777781"/>
<g opacity="0.3">
<path d="M29.9747 87.2919L29.0358 87.2782C26.8071 84.7646 22.2533 80.2884 18.8188 81.2688C15.4876 82.2176 14.0084 84.9972 14.1274 87.248C12.971 84.9546 14.2286 80.8698 18.4169 79.6768C23.139 78.3309 29.9747 87.2919 29.9747 87.2919Z" fill="white"/>
</g>
<path d="M29.2543 87.8568C28.8572 87.3463 28.4113 86.8182 27.9671 86.3163C27.5195 85.8108 27.0588 85.3176 26.5853 84.8396C25.6377 83.8856 24.6391 82.9864 23.5768 82.2159C22.5201 81.4548 21.3736 80.7979 20.2343 80.5525C19.6658 80.4342 19.1261 80.4259 18.6286 80.577C18.044 80.7514 17.4899 80.9991 16.9934 81.3248C15.9964 81.9678 15.246 82.9503 14.8975 84.052C14.7247 84.6004 14.6444 85.1763 14.6887 85.7227C14.7251 86.2696 14.8939 86.7798 15.1664 87.1671C15.3068 87.3623 15.4619 87.5171 15.6675 87.6501C15.8968 87.8085 16.1409 87.9316 16.3936 88.0307C16.9004 88.2223 17.457 88.2921 18.0374 88.2349C19.1986 88.1333 20.4322 87.55 21.4878 86.8384L21.5204 86.8166C21.7292 86.6756 22.0124 86.7319 22.1525 86.9423C22.2703 87.1195 22.2491 87.3498 22.1147 87.502C21.6066 88.0784 21.0486 88.5325 20.4101 88.9358C19.7746 89.3311 19.0642 89.6477 18.2815 89.8105C17.5029 89.9638 16.6442 89.9643 15.8429 89.7097C15.4444 89.5852 15.057 89.419 14.704 89.2061C14.32 88.9804 13.9586 88.6579 13.6831 88.3006C13.1197 87.5777 12.8577 86.7125 12.7815 85.8818C12.7121 85.0447 12.8285 84.2202 13.0842 83.4522C13.5905 81.9104 14.673 80.6104 15.9991 79.7655C16.662 79.3405 17.3848 79.0292 18.1227 78.8174C18.9509 78.5679 19.8321 78.5943 20.6073 78.7602C21.3912 78.9269 22.1042 79.2205 22.7687 79.5627C23.4326 79.9072 24.0513 80.3037 24.6389 80.729C25.813 81.5814 26.8732 82.5401 27.8736 83.5465C28.3731 84.0504 28.8563 84.5681 29.3255 85.0978C29.7973 85.6318 30.2451 86.1599 30.6976 86.7416C31.0074 87.1398 30.9375 87.7153 30.542 88.0268C30.1462 88.3386 29.5746 88.2683 29.2648 87.8703L29.2543 87.8568Z" fill="#371B45"/>
<path d="M73.7617 100.172L83.4198 116.889L85.2918 120.13C107.883 119.759 129.611 101.623 130.832 94.2115C131.574 89.7113 127.609 84.0002 125.278 82.1095C125.275 82.1072 125.275 82.1072 125.273 82.1072C122.6 79.9441 115.624 80.7384 110.022 87.3033C97.4861 98.5103 82.3234 99.8039 73.7617 100.172Z" fill="#777781"/>
<path d="M100.916 93.6484C97.4081 98.8674 87.7978 102.859 75.9061 103.869L73.7656 100.165C80.3254 99.8837 90.7571 99.0574 100.916 93.6484Z" fill="#626272"/>
<path d="M83.4219 116.891L85.2939 120.132C107.885 119.761 129.613 101.626 130.834 94.2137C131.576 89.7135 127.611 84.0024 125.28 82.1117C125.277 82.1094 125.277 82.1094 125.275 82.1094C121.997 83.2356 118.224 85.005 118.199 87.1773C118.153 91.0205 120.546 92.6366 120.626 96.8896C120.712 101.426 115.747 108.309 104.33 108.955C92.1633 109.644 87.9961 106.288 87.9961 106.288L83.4219 116.891Z" fill="#626272"/>
<path d="M73.7339 99.4777C76.9873 99.3116 80.2191 99.0087 83.4136 98.4889C86.606 97.9649 89.7561 97.2098 92.8089 96.1754C95.8642 95.1481 98.811 93.82 101.597 92.2193C104.393 90.6327 107.006 88.737 109.419 86.6107L109.333 86.6986C110.548 85.2844 111.925 83.9953 113.475 82.9272C115.023 81.8621 116.741 81.0104 118.593 80.5189C119.52 80.2807 120.477 80.1211 121.459 80.111C122.438 80.093 123.446 80.2205 124.429 80.5856C124.919 80.7716 125.402 81.0296 125.842 81.3821C126.235 81.7021 126.58 82.0379 126.91 82.3847C127.566 83.0785 128.148 83.8156 128.686 84.5838C129.753 86.1231 130.65 87.7891 131.246 89.6137C131.539 90.5261 131.75 91.4827 131.816 92.4772C131.849 92.9737 131.836 93.4807 131.781 93.988L131.729 94.3691L131.65 94.7603C131.585 95.0123 131.514 95.2616 131.428 95.4978C131.089 96.4475 130.624 97.2908 130.115 98.0853C129.604 98.8796 129.045 99.6258 128.458 100.341C127.282 101.771 125.996 103.08 124.655 104.32C121.968 106.793 119.052 108.981 115.998 110.941C112.941 112.897 109.741 114.626 106.418 116.086C103.099 117.549 99.6549 118.744 96.1212 119.604C94.3545 120.034 92.5637 120.371 90.7595 120.619C88.9539 120.861 87.1328 121.001 85.3076 121.036C84.8054 121.046 84.3903 120.644 84.3807 120.138C84.3709 119.633 84.7704 119.215 85.2728 119.205H85.2781C87.0282 119.171 88.7787 119.036 90.5179 118.804C92.2566 118.565 93.9856 118.24 95.695 117.824C99.1137 116.992 102.459 115.832 105.689 114.408C108.922 112.988 112.042 111.302 115.02 109.397C117.995 107.488 120.834 105.356 123.425 102.97C124.718 101.776 125.951 100.519 127.055 99.1749C127.607 98.5031 128.125 97.8093 128.586 97.0928C129.046 96.3784 129.447 95.6324 129.713 94.8873C129.781 94.7012 129.831 94.517 129.88 94.3341L129.935 94.0642L129.973 93.7767C130.014 93.3901 130.027 92.9943 130 92.5931C129.947 91.7908 129.772 90.9763 129.514 90.1784C128.995 88.5806 128.175 87.0445 127.197 85.6363C126.705 84.9338 126.171 84.2585 125.594 83.6487C125.306 83.3456 125.005 83.0561 124.703 82.8107C124.443 82.6022 124.129 82.428 123.783 82.297C123.087 82.0391 122.291 81.9244 121.485 81.942C120.677 81.9491 119.857 82.0842 119.053 82.2906C117.443 82.7175 115.903 83.4743 114.503 84.4384C113.1 85.4049 111.837 86.5846 110.714 87.8916L110.71 87.896C110.685 87.9248 110.655 87.9548 110.627 87.9798C109.377 89.0909 108.073 90.1413 106.718 91.1217C105.365 92.1041 103.945 92.9918 102.494 93.8165C99.5825 95.4555 96.5015 96.7733 93.3369 97.7912C90.1717 98.8123 86.9235 99.5395 83.651 100.028C80.3778 100.521 77.0755 100.743 73.7921 100.85H73.7905C73.4138 100.862 73.0986 100.565 73.0863 100.186C73.0745 99.8112 73.3633 99.4969 73.7339 99.4777Z" fill="#371B45"/>
<path d="M115.742 82.0771C117.16 80.4835 119.958 71.9333 124.579 72.2426C129.393 72.5646 128.89 80.1639 125.267 82.9879" fill="#777781"/>
<g opacity="0.3">
<path d="M115.742 82.0771L116.452 82.1446C118.04 79.1703 120.584 73.637 124.317 73.8861C126.911 74.0596 127.961 76.347 127.809 78.8601C128.607 75.7905 127.735 72.452 124.58 72.2425C119.959 71.9335 117.161 80.4837 115.742 82.0771Z" fill="white"/>
</g>
<path d="M125.272 84.1214C124.932 84.1214 124.596 83.9688 124.372 83.6776C123.987 83.1781 124.078 82.4591 124.575 82.0721C126.404 80.6459 127.421 77.4549 126.75 75.2438C126.396 74.0787 125.642 73.4494 124.508 73.3734C121.827 73.1892 119.518 77.6013 118.141 80.2348C117.534 81.395 117.055 82.3112 116.594 82.8293C116.175 83.3003 115.456 83.3406 114.988 82.9187C114.52 82.4971 114.48 81.7733 114.899 81.3025C115.173 80.9952 115.658 80.0666 116.128 79.1692C117.868 75.8404 120.493 70.8078 124.659 71.0895C126.741 71.2289 128.296 72.4994 128.925 74.5755C129.873 77.6972 128.546 81.872 125.967 83.8816C125.76 84.0431 125.515 84.1214 125.272 84.1214Z" fill="#371B45"/>
<path d="M119.966 85.2036C120.364 89.1961 123.09 97.5661 128.054 96.8412C131.573 96.3257 132.821 92.9936 132.582 89.3222C132.254 84.2161 129.054 78.4535 125.1 78.6865C124.638 78.7133 124.116 78.8003 123.585 78.966C121.637 79.5809 119.575 81.291 119.966 85.2036Z" fill="#777781"/>
<g opacity="0.3">
<path d="M120.152 82.4369C120.864 81.242 121.974 80.5674 123.05 80.2289C123.581 80.0631 124.103 79.9762 124.565 79.9494C128.519 79.7164 131.719 85.479 132.048 90.5851C132.136 91.9326 132.023 93.2353 131.67 94.3702C132.434 92.9991 132.703 91.2056 132.581 89.3222C132.252 84.2161 129.053 78.4535 125.098 78.6865C124.636 78.7131 124.115 78.8003 123.583 78.966C122.173 79.4105 120.707 80.4282 120.152 82.4369Z" fill="white"/>
</g>
<path d="M119.966 85.1985C120.364 89.191 123.09 97.5611 128.054 96.8361C131.573 96.3206 132.821 92.9885 132.582 89.3171C132.582 89.3171 131.628 94.6435 128.134 93.8153C124.973 93.0663 124.526 91.5693 126.942 88.3182C128.981 85.5721 126.852 80.9027 123.585 78.9609C121.637 79.5758 119.575 81.2859 119.966 85.1985Z" fill="#626272"/>
<path d="M127.442 98.0347C126.237 98.0347 125.09 97.6122 124.024 96.7734C120.825 94.2586 119.144 88.4148 118.835 85.3219C118.609 83.0525 119.092 81.1965 120.271 79.8058C121.862 77.9279 124.132 77.6012 125.035 77.5481H125.035C129.654 77.2776 133.11 83.1231 133.673 88.6948C134.195 93.8518 132.104 97.4085 128.218 97.9774C127.957 98.0157 127.698 98.0347 127.442 98.0347ZM125.168 79.8332C124.691 79.8614 123.054 80.0494 122.001 81.2912C121.24 82.189 120.937 83.4682 121.099 85.0933C121.39 88.011 122.924 93.004 125.424 94.9698C126.22 95.5957 127.027 95.8387 127.891 95.7124C131.736 95.1494 131.557 90.3761 131.41 88.9264C130.961 84.4875 128.201 79.6608 125.168 79.8332Z" fill="#371B45"/>
<path d="M110.023 87.2914C110.023 87.2914 116.86 78.3312 121.582 79.6767C126.625 81.114 127.421 86.7406 124.865 88.3901C121.65 90.4642 118.198 87.1625 118.198 87.1625" fill="#777781"/>
<g opacity="0.3">
<path d="M110.023 87.2919L110.963 87.2782C113.191 84.7646 117.745 80.2884 121.179 81.2688C124.511 82.2176 125.99 84.9972 125.871 87.248C127.027 84.9546 125.77 80.8698 121.582 79.6768C116.859 78.3309 110.023 87.2919 110.023 87.2919Z" fill="white"/>
</g>
<path d="M109.303 86.7417C109.755 86.1601 110.203 85.6318 110.675 85.0977C111.144 84.5681 111.627 84.0505 112.127 83.5467C113.127 82.5402 114.187 81.5816 115.362 80.7289C115.949 80.3038 116.568 79.9074 117.232 79.5629C117.896 79.2207 118.609 78.9268 119.393 78.7601C120.168 78.5942 121.05 78.5681 121.878 78.8174C122.615 79.0293 123.338 79.3406 124.001 79.7655C125.327 80.6103 126.41 81.9105 126.916 83.4524C127.172 84.2201 127.288 85.0449 127.219 85.8817C127.143 86.7126 126.881 87.5777 126.317 88.3008C126.042 88.6578 125.68 88.9804 125.296 89.2061C124.943 89.4192 124.556 89.5854 124.158 89.7099C123.356 89.9644 122.497 89.964 121.719 89.8106C120.936 89.6476 120.226 89.3313 119.59 88.936C118.952 88.5324 118.394 88.0783 117.886 87.5021C117.719 87.3128 117.736 87.0228 117.924 86.8548C118.083 86.7131 118.312 86.703 118.48 86.8163L118.512 86.8385C119.568 87.5502 120.802 88.1334 121.963 88.2351C122.543 88.2923 123.1 88.2225 123.607 88.0309C123.86 87.9315 124.103 87.8086 124.333 87.6502C124.538 87.517 124.694 87.3623 124.834 87.167C125.107 86.7799 125.275 86.2697 125.312 85.7229C125.356 85.1765 125.276 84.6006 125.103 84.0521C124.754 82.9504 124.004 81.968 123.007 81.3247C122.51 80.9993 121.956 80.7516 121.372 80.5769C120.874 80.4261 120.335 80.4343 119.766 80.5524C118.627 80.798 117.48 81.455 116.424 82.2161C115.361 82.9866 114.363 83.8857 113.415 84.8398C112.942 85.3175 112.481 85.811 112.033 86.3164C111.589 86.8182 111.143 87.3465 110.746 87.8569L110.736 87.8702C110.426 88.2685 109.854 88.3388 109.459 88.027C109.063 87.7152 108.993 87.14 109.303 86.7417Z" fill="#371B45"/>
<path d="M64.5172 176.39C61.5832 180.048 51.8567 178.833 48.2537 178.643C43.9432 178.416 43.3086 174.724 44.1389 172.467C45.1715 169.665 47.8283 168.724 47.8283 168.724C45.9085 164.664 44.1684 157.758 43.1312 151.399C42.2691 146.123 41.8915 141.222 42.2941 138.633L68.0588 145.825C64.1874 159.976 68.0702 171.959 64.5172 176.39Z" fill="#777781"/>
<path d="M64.5172 176.39C61.5832 180.048 51.8567 178.833 48.2537 178.643C43.9432 178.416 43.3086 174.724 44.1389 172.467C44.1389 172.467 43.9614 175.25 50.7535 175.25C57.5478 175.25 61.5784 175.129 62.4701 169.953C63.6486 163.128 60.6256 161.134 57.1452 159.25C54.4748 157.801 47.5167 155.849 43.1312 151.399C42.2691 146.123 41.8915 141.222 42.2941 138.633L68.0588 145.825C64.1874 159.976 68.0702 171.959 64.5172 176.39Z" fill="#626272"/>
<path d="M55.1995 180.137C53.2048 180.137 51.2635 179.997 49.6765 179.883C49.1126 179.842 48.6112 179.806 48.1933 179.784C45.5736 179.645 44.233 178.406 43.5698 177.391C42.4104 175.616 42.5529 173.477 43.0726 172.066C43.8303 170.011 45.316 168.809 46.3462 168.189C43.0874 160.423 40.2437 144.405 41.1695 138.453L43.4167 138.807C42.5888 144.129 45.3619 160.838 48.8557 168.23C48.9941 168.523 49.0026 168.861 48.8787 169.161C48.7549 169.461 48.5105 169.693 48.2064 169.801C48.191 169.807 46.0305 170.624 45.2054 172.863C44.8693 173.774 44.821 175.139 45.4706 176.133C46.0157 176.968 46.972 177.427 48.3126 177.498C48.7425 177.521 49.2584 177.558 49.8387 177.6C53.5963 177.87 61.4148 178.433 63.6303 175.669C65.105 173.83 65.0735 170.012 65.0335 165.177C64.9885 159.723 64.9324 152.935 66.9615 145.52L69.1544 146.127C67.2095 153.235 67.2641 159.846 67.308 165.158C67.3517 170.45 67.3863 174.63 65.4006 177.106C63.4232 179.573 59.205 180.137 55.1995 180.137Z" fill="#371B45"/>
<path d="M75.483 176.39C78.4173 180.048 88.1436 178.833 91.7466 178.643C96.057 178.416 96.6916 174.724 95.8614 172.467C94.8287 169.665 92.172 168.724 92.172 168.724C94.0917 164.664 95.8318 157.758 96.8691 151.399C97.7311 146.123 98.1087 141.222 97.7061 138.633L71.9414 145.825C75.8128 159.976 71.93 171.959 75.483 176.39Z" fill="#777781"/>
<path d="M75.483 176.39C78.4173 180.048 88.1436 178.833 91.7466 178.643C96.057 178.416 96.6916 174.724 95.8614 172.467C95.8614 172.467 96.0388 175.25 89.2468 175.25C82.4525 175.25 78.4218 175.129 77.5302 169.953C76.3519 163.128 79.3749 161.134 82.8551 159.25C85.5255 157.801 92.4836 155.849 96.8691 151.399C97.7311 146.123 98.1087 141.222 97.7061 138.633L71.9414 145.825C75.8128 159.976 71.93 171.959 75.483 176.39Z" fill="#626272"/>
<path d="M84.8026 180.137C80.7968 180.137 76.5791 179.573 74.6014 177.106C72.6158 174.63 72.6504 170.45 72.6941 165.158C72.738 159.846 72.7926 153.235 70.8477 146.127L73.0406 145.52C75.0696 152.935 75.0136 159.723 74.9686 165.177C74.9286 170.012 74.8971 173.83 76.3716 175.669C78.5874 178.432 86.4058 177.87 90.1634 177.599C90.7437 177.558 91.2595 177.521 91.6893 177.498C93.0301 177.427 93.9864 176.968 94.5316 176.133C95.1812 175.139 95.1329 173.774 94.7969 172.862C93.9719 170.624 91.8114 169.807 91.7895 169.799C91.4889 169.688 91.2453 169.454 91.1241 169.156C91.0029 168.858 91.009 168.521 91.1464 168.23C94.6402 160.838 97.4132 144.13 96.5855 138.807L98.8326 138.453C99.7583 144.405 96.9147 160.423 93.656 168.189C94.6863 168.809 96.1721 170.011 96.9295 172.066C97.4493 173.477 97.5918 175.616 96.4323 177.391C95.769 178.406 94.4284 179.645 91.8085 179.784C91.3908 179.806 90.8896 179.842 90.3255 179.883C88.739 179.997 86.797 180.137 84.8026 180.137Z" fill="#371B45"/>
<path d="M93.5304 148.004C87.0629 155.217 73.831 156.374 70.0016 156.374C66.1723 156.374 52.9401 155.217 46.4726 148.004C35.8269 136.132 42.8887 120.062 48.0178 111.567C50.1832 107.981 52.0048 105.745 52.0048 105.745L70.0016 95.7422L87.9982 105.745C87.9982 105.745 89.82 107.981 91.9852 111.567C97.1143 120.062 104.176 136.132 93.5304 148.004Z" fill="white"/>
<path d="M93.53 147.997C87.0621 155.211 73.8304 156.369 70.0017 156.369C66.1733 156.369 52.9413 155.211 46.4737 147.997C41.4306 142.371 40.359 135.806 41.1774 129.547C41.7427 133.464 43.3436 137.317 46.4737 140.809C52.9413 148.02 66.1733 149.178 70.0017 149.178C73.8304 149.178 87.0621 148.02 93.53 140.809C96.6604 137.317 98.2613 133.464 98.8263 129.547C99.6447 135.806 98.5733 142.371 93.53 147.997Z" fill="#D3DDEA"/>
<path d="M91.9819 111.555C85.7728 113.651 78.189 114.88 69.9983 114.88C61.8073 114.88 54.2235 113.651 48.0145 111.555C50.1799 107.969 52.0014 105.733 52.0014 105.733C52.0014 105.733 31.7804 93.0547 69.9983 93.0547C108.216 93.0547 87.9949 105.733 87.9949 105.733C87.9949 105.733 89.8164 107.969 91.9819 111.555Z" fill="#777781"/>
<path d="M93.3082 99.5578C87.4189 102.366 79.1438 104.115 69.9773 104.115C60.8331 104.115 52.5764 102.376 46.6897 99.5784C46.2209 96.3486 50.5177 93.0547 69.9978 93.0547C89.4365 93.0547 93.7563 96.3348 93.3082 99.5578Z" fill="#626272"/>
<path d="M46.1295 148.301C45.7821 147.953 45.44 147.599 45.0995 147.24C44.7802 146.864 44.4583 146.486 44.1444 146.101C43.8564 145.697 43.5594 145.297 43.2791 144.884C43.0228 144.457 42.7505 144.037 42.5067 143.6C41.5466 141.843 40.8467 139.931 40.4402 137.96C40.031 135.99 39.9038 133.967 40.0148 131.975C40.1274 129.982 40.4304 128.012 40.8801 126.086C41.312 124.156 41.9094 122.273 42.5897 120.428C42.9273 119.504 43.3167 118.602 43.7079 117.702C44.1151 116.81 44.5377 115.925 45.0019 115.063C45.915 113.331 46.9358 111.661 48.0336 110.049C49.1388 108.438 50.3184 106.897 51.6475 105.445C51.8179 105.259 52.1061 105.247 52.2912 105.418C52.4589 105.574 52.4843 105.826 52.3608 106.011L52.3513 106.025C51.8286 106.807 51.3036 107.615 50.8082 108.429C50.3055 109.24 49.8153 110.058 49.3397 110.884C48.385 112.532 47.4847 114.21 46.6508 115.914C45.817 117.619 45.0295 119.343 44.3503 121.108C43.6629 122.868 43.0765 124.668 42.6525 126.501C41.8147 130.166 41.6046 133.964 42.2726 137.6C42.6006 139.417 43.1372 141.196 43.9083 142.885C44.6705 144.578 45.6584 146.179 46.805 147.687L46.8123 147.697C46.9652 147.898 46.927 148.186 46.7273 148.339C46.5439 148.48 46.2885 148.46 46.1295 148.301Z" fill="#371B45"/>
<path d="M88.3518 105.443C89.6881 106.89 90.868 108.432 91.9762 110.041C92.5216 110.849 93.0603 111.664 93.5589 112.505C93.8141 112.921 94.0563 113.346 94.3022 113.769C94.5372 114.197 94.7783 114.623 95.0035 115.058C95.9195 116.789 96.7206 118.584 97.4091 120.427C98.0897 122.271 98.6875 124.154 99.1194 126.085C99.5686 128.01 99.8723 129.98 99.9851 131.974C100.095 133.966 99.9669 135.988 99.5523 137.957C99.1415 139.926 98.4429 141.837 97.4819 143.593C97.2381 144.03 96.9672 144.45 96.7115 144.877C96.4297 145.289 96.1358 145.691 95.848 146.095L94.8959 147.235C94.5567 147.595 94.2153 147.95 93.87 148.299C93.6924 148.478 93.404 148.479 93.2258 148.3C93.0614 148.135 93.0482 147.875 93.1869 147.695L93.1945 147.686C94.3477 146.183 95.3362 144.581 96.1019 142.889C96.8721 141.199 97.4098 139.419 97.7332 137.6C98.3897 133.962 98.1859 130.165 97.347 126.5C96.9226 124.667 96.3369 122.866 95.6495 121.106C95.3078 120.225 94.9398 119.353 94.5565 118.487C94.1584 117.628 93.7681 116.764 93.3423 115.916C92.5046 114.213 91.6054 112.536 90.6494 110.889C90.1758 110.062 89.6847 109.244 89.1843 108.432L88.4266 107.216L87.6482 106.024L87.6373 106.007C87.4992 105.795 87.5577 105.511 87.7681 105.372C87.9567 105.248 88.2035 105.282 88.3518 105.443Z" fill="#371B45"/>
<path d="M96.2797 43.205C89.8789 36.9995 90.5792 32.2479 92.4954 29.2138C94.9158 25.3813 98.9717 21.126 104.819 21.8459C113.151 22.8716 118.64 30.1523 115.756 38.0325C114.033 42.7415 110.842 45.3326 107.917 46.7576C104.633 48.358 101.023 47.8036 96.2797 43.205Z" fill="#777781"/>
<g opacity="0.3">
<path d="M90.4766 33.0183C92.9154 28.7891 97.3498 23.4891 103.988 24.3074C110.933 25.164 115.993 30.1639 116.254 36.33C117.832 29.1306 112.549 22.7976 104.822 21.8458C96.8125 20.8606 92.1652 29.2064 90.4766 33.0183Z" fill="white"/>
</g>
<path d="M90.1466 32.6283C90.4473 31.4254 90.9315 30.2834 91.5132 29.1906C92.0907 28.0935 92.8088 27.0703 93.604 26.103C94.3972 25.1336 95.2884 24.2287 96.2869 23.4319C96.7873 23.0346 97.3194 22.6715 97.873 22.3387C98.4349 22.0189 99.0137 21.7195 99.6286 21.4961C100.848 21.0314 102.163 20.7877 103.469 20.7812C103.795 20.7911 104.123 20.7842 104.446 20.8225L104.932 20.8666L105.402 20.936C106.029 21.0241 106.648 21.1672 107.261 21.3304C108.486 21.6673 109.671 22.1611 110.782 22.7899C111.895 23.4177 112.917 24.2125 113.83 25.1194C115.634 26.949 116.926 29.3548 117.299 31.9404C117.509 33.2264 117.474 34.5426 117.274 35.8178C117.083 37.0985 116.646 38.3243 116.148 39.4761C115.62 40.6264 114.991 41.7368 114.227 42.7554C113.453 43.7653 112.564 44.6864 111.58 45.4873C109.612 47.0963 107.288 48.198 104.872 48.8455C104.387 48.9756 103.888 48.6849 103.759 48.1964C103.629 47.7077 103.919 47.2061 104.404 47.0759L104.41 47.0743C106.604 46.4858 108.693 45.4896 110.436 44.0636C111.309 43.3528 112.093 42.5395 112.778 41.6468C113.454 40.7452 114.013 39.7579 114.487 38.7283C114.938 37.6786 115.315 36.6233 115.478 35.5214C115.649 34.4261 115.679 33.3088 115.5 32.2211C115.178 30.0362 114.075 28.0086 112.516 26.4397C110.945 24.871 108.919 23.7753 106.759 23.2001C105.677 22.924 104.548 22.7326 103.48 22.734C102.94 22.7452 102.4 22.7832 101.872 22.8913C101.341 22.9833 100.823 23.1417 100.316 23.3303C98.2774 24.0887 96.4921 25.5577 95.0179 27.2983C93.5483 29.0606 92.3313 31.0349 90.975 33.0069C90.8296 33.2182 90.5417 33.2708 90.3315 33.1246C90.1691 33.0113 90.1013 32.8107 90.1466 32.6283Z" fill="#371B45"/>
<path d="M43.2835 43.205C49.6843 36.9995 48.984 32.2479 47.0678 29.2138C44.6476 25.3813 40.5917 21.126 34.7443 21.8459C26.4126 22.8716 20.9235 30.1523 23.807 38.0325C25.5303 42.7415 28.7218 45.3326 31.6461 46.7576C34.9302 48.358 38.5403 47.8036 43.2835 43.205Z" fill="#777781"/>
<g opacity="0.3">
<path d="M49.0879 33.0183C46.6493 28.7891 42.2147 23.4891 35.5764 24.3074C28.6319 25.164 23.5711 30.1639 23.3107 36.33C21.7323 29.1306 27.0156 22.7976 34.7427 21.8458C42.7519 20.8606 47.3994 29.2064 49.0879 33.0183Z" fill="white"/>
</g>
<path d="M48.5908 33.0069C47.2344 31.0349 46.0175 29.0606 44.5478 27.2983C43.0737 25.558 41.2883 24.0887 39.2502 23.3303C38.7428 23.1417 38.2244 22.9833 37.6935 22.8915C37.1653 22.7832 36.6258 22.7452 36.086 22.734C35.0174 22.7326 33.888 22.924 32.8062 23.2001C30.6462 23.7753 28.6209 24.871 27.0496 26.4399C25.4908 28.0088 24.3878 30.0362 24.0655 32.2211C23.8863 33.3088 23.9172 34.4263 24.0878 35.5214C24.2509 36.6233 24.6276 37.6786 25.0791 38.7283C25.5533 39.7581 26.1115 40.7452 26.7873 41.647C27.4729 42.5395 28.2572 43.3528 29.1295 44.0636C30.8723 45.4896 32.9622 46.4858 35.1557 47.0743L35.162 47.0759C35.6475 47.2064 35.9361 47.7079 35.8067 48.1966C35.6775 48.6853 35.1791 48.9758 34.6935 48.8455C32.2778 48.198 29.9538 47.0963 27.9854 45.4873C27.0018 44.6864 26.1129 43.7653 25.3388 42.7554C24.5746 41.7368 23.9456 40.6266 23.4181 39.4761C22.9202 38.3243 22.4833 37.0985 22.2922 35.8178C22.0918 34.5426 22.0572 33.2264 22.2672 31.9404C22.6391 29.3548 23.9315 26.949 25.7362 25.1194C26.6486 24.2125 27.6703 23.4177 28.7833 22.7899C29.8954 22.1611 31.08 21.6673 32.3042 21.3304C32.9177 21.1672 33.5368 21.0241 34.1639 20.9362L34.6339 20.8666L35.1197 20.8227C35.4427 20.7842 35.7705 20.7911 36.0965 20.7812C37.4026 20.7877 38.7177 21.0314 39.9372 21.4961C40.5518 21.7195 41.1309 22.0189 41.693 22.3387C42.2464 22.6718 42.7782 23.0346 43.2786 23.4319C44.2774 24.2287 45.1688 25.1336 45.9617 26.103C46.757 27.0703 47.4753 28.0938 48.0526 29.1906C48.6342 30.2837 49.1185 31.4254 49.4192 32.6283C49.4817 32.8776 49.3316 33.1305 49.0839 33.1932C48.8922 33.242 48.6974 33.1612 48.5908 33.0069Z" fill="#371B45"/>
<path d="M82.8123 99.1608C94.2635 97.4724 104.992 95.8566 109.724 85.8664C113.221 78.4843 110.71 71.0024 110.709 70.9914C110.618 70.5503 112.464 39.7783 88.8731 28.9911C82.2214 25.9497 75.9698 25.1334 69.8044 25.0547C63.6393 25.1279 57.387 25.9387 50.7328 28.9742C27.1324 39.7408 28.9505 70.5146 28.8593 70.9555C28.8584 70.9667 26.3411 78.4463 29.8315 85.8313C34.5552 95.8259 45.2821 97.4506 56.7314 99.1493L82.8123 99.1608Z" fill="white"/>
<path d="M109.724 85.8537C104.991 95.8448 94.2619 97.4599 82.8126 99.1488C82.8126 99.1488 76.4605 100.567 69.4594 100.567C62.4586 100.567 56.7313 99.1375 56.7313 99.1375C45.2819 97.4377 34.5555 95.8139 29.8313 85.8189C27.8617 81.6517 27.8051 77.4541 28.1303 74.5869C28.3628 76.4435 28.8687 78.4398 29.809 80.4298C33.3661 87.9552 40.3913 91.9367 48.5326 94.1704C52.7304 95.322 57.0695 95.8681 61.4204 95.8702L69.4358 96.1966L78.2786 95.8773C82.6609 95.8791 87.0341 95.3362 91.2588 94.1635C99.2959 91.9324 106.152 87.958 109.702 80.4646C110.68 78.4011 111.187 76.3279 111.41 74.4141C111.76 77.2861 111.745 81.5856 109.724 85.8537Z" fill="#D3DDEA"/>
<path d="M64.003 100.704C61.7414 100.632 59.5029 100.406 57.2722 100.126C55.0446 99.8424 52.815 99.4963 50.5814 99.1145C48.3493 98.7245 46.114 98.2699 43.9044 97.6429C41.6976 97.0164 39.5096 96.2137 37.449 95.0955C35.3921 93.9816 33.4705 92.5295 31.9041 90.7349C31.1194 89.8415 30.4202 88.8716 29.821 87.8473C29.221 86.8255 28.7053 85.7533 28.2968 84.6344C27.8876 83.5185 27.578 82.3678 27.3654 81.2023C27.1613 80.0356 27.0399 78.8556 27.0205 77.6756C26.9969 76.496 27.059 75.317 27.2068 74.1482C27.2805 73.5638 27.3747 72.9819 27.4914 72.4021C27.5512 72.1123 27.6137 71.823 27.6861 71.5334L27.7996 71.0981L27.8617 70.8786L27.8951 70.7666L27.9126 70.7096L27.9217 70.681C27.9256 70.6668 27.9038 70.7394 27.8999 70.7657C27.8926 70.8032 27.8881 70.8413 27.886 70.879L27.9035 70.7556C27.8949 70.7893 27.8894 70.8245 27.8874 70.8596C27.8853 70.9156 27.8867 70.8623 27.8862 70.8687L27.8865 70.8206L27.8856 70.6916L27.8824 70.4185L27.8787 69.8641C27.8778 69.4935 27.8801 69.1227 27.8862 68.7521C27.8985 68.0106 27.9267 67.2704 27.9665 66.5308C28.0471 65.0521 28.1776 63.5768 28.3607 62.1075C28.7249 59.1693 29.2911 56.2524 30.0899 53.3932C30.8892 50.5354 31.9228 47.7338 33.24 45.06C34.5516 42.3853 36.1495 39.8383 38.0502 37.5282C39.9463 35.2166 42.1429 33.1448 44.577 31.4079C47.0061 29.6691 49.6817 28.2659 52.4393 27.1988C53.82 26.6572 55.228 26.1845 56.6567 25.7867C58.0863 25.3925 59.5359 25.0767 60.9944 24.8288C63.9179 24.3325 66.8527 24.1265 69.8076 24.0938C72.7626 24.1334 75.6964 24.3462 78.6182 24.8494C80.0755 25.1002 81.524 25.4193 82.952 25.8169C84.3791 26.2177 85.7853 26.6934 87.1637 27.2379C89.9179 28.311 92.5871 29.7188 95.0096 31.4612C97.4376 33.2008 99.628 35.2736 101.518 37.5859C103.411 39.8965 105.003 42.4428 106.308 45.1163C107.619 47.7892 108.646 50.5891 109.439 53.4452C110.232 56.3023 110.792 59.2169 111.151 62.1526C111.33 63.6208 111.464 65.094 111.544 66.5713C111.584 67.31 111.612 68.0493 111.626 68.7898C111.633 69.16 111.636 69.5303 111.636 69.9007L111.633 70.4546L111.631 70.7277L111.63 70.8573L111.63 70.9065C111.63 70.9012 111.631 70.952 111.629 70.8999C111.627 70.8676 111.623 70.8353 111.614 70.8039L111.631 70.9202C111.629 70.8847 111.625 70.8488 111.618 70.8136C111.615 70.7893 111.593 70.719 111.598 70.7355L111.607 70.7641L111.625 70.8211L111.659 70.9328L111.721 71.153C111.762 71.2993 111.8 71.4444 111.835 71.5898C111.909 71.8802 111.972 72.1705 112.032 72.4616C112.151 73.0437 112.246 73.6281 112.321 74.2155C112.471 75.3895 112.533 76.5746 112.511 77.7607C112.49 78.9467 112.374 80.1338 112.166 81.3071C111.951 82.4793 111.641 83.6376 111.227 84.7605C110.811 85.8845 110.294 86.9642 109.685 87.992C109.077 89.0209 108.372 89.9983 107.572 90.8917C105.979 92.6867 104.034 94.1405 101.952 95.2459C100.911 95.8016 99.8366 96.2805 98.7459 96.6957C97.6532 97.1068 96.5443 97.4559 95.4297 97.7617C93.1988 98.3715 90.9458 98.8133 88.6966 99.191C84.1956 99.9333 79.7207 100.53 75.1721 100.715C74.9196 100.726 74.707 100.528 74.6967 100.274C74.6876 100.053 74.8359 99.8614 75.0416 99.8095L75.0441 99.809C77.2505 99.25 79.4753 98.8252 81.7064 98.4427C83.9349 98.0627 86.1727 97.7397 88.3829 97.3481C90.5932 96.956 92.7841 96.5037 94.9164 95.8994C97.0447 95.2891 99.1212 94.536 101.04 93.5163C102.959 92.4997 104.702 91.1925 106.129 89.5899C107.554 87.9931 108.679 86.1012 109.443 84.0857C109.822 83.0754 110.109 82.0288 110.312 80.9631C110.507 79.8962 110.621 78.8105 110.646 77.7197C110.672 76.6293 110.617 75.534 110.481 74.4492C110.414 73.9067 110.327 73.3667 110.221 72.8329C110.167 72.5665 110.109 72.3005 110.044 72.0389L109.944 71.6497L109.89 71.4591L109.862 71.3666L109.849 71.3217L109.842 71.2993C109.844 71.3073 109.82 71.2283 109.814 71.1958C109.804 71.1521 109.797 71.1077 109.793 71.0637L109.809 71.18C109.8 71.126 109.793 71.0708 109.79 71.0159C109.786 70.9411 109.788 70.969 109.787 70.9408L109.787 70.8534L109.788 70.7096L109.791 70.4361L109.795 69.8968L109.789 68.8212C109.778 68.104 109.753 67.3864 109.716 66.6695C109.641 65.2354 109.522 63.8027 109.343 62.3774C108.991 59.5269 108.443 56.7015 107.673 53.9433C106.903 51.1857 105.91 48.4942 104.652 45.9388C103.399 43.3819 101.88 40.962 100.082 38.776C98.2885 36.5877 96.2183 34.6354 93.9237 32.9962C91.6272 31.352 89.1245 30.0326 86.4752 29.0039C85.1562 28.4852 83.8125 28.0327 82.4484 27.6518C81.0832 27.2739 79.6975 26.9708 78.2995 26.7321C75.5076 26.2539 72.6439 26.0509 69.807 26.0168C66.9696 26.0527 64.1065 26.2578 61.3158 26.7376C59.9182 26.977 58.5332 27.281 57.1689 27.6594C55.8057 28.0412 54.463 28.4944 53.1453 29.0133C50.4979 30.0434 47.9987 31.363 45.7064 33.0067C43.4147 34.6443 41.3473 36.5941 39.5562 38.7794C37.7613 40.9627 36.2444 43.3792 34.9938 45.9328C33.7375 48.4849 32.7458 51.1731 31.9767 53.9272C31.2079 56.6823 30.6606 59.5044 30.3089 62.3517C30.132 63.7753 30.0062 65.2059 29.9289 66.6382C29.8902 67.3544 29.8645 68.0709 29.8508 68.7873L29.8404 69.8618L29.8422 70.4006L29.8445 70.6741L29.8452 70.8184L29.8445 70.9069C29.8433 70.936 29.8458 70.9056 29.8417 70.9845C29.8379 71.042 29.8311 71.0999 29.8208 71.1564L29.8383 71.0333C29.8336 71.0793 29.8263 71.1258 29.8163 71.1716C29.8099 71.2066 29.7851 71.2874 29.7867 71.2817L29.7796 71.3036L29.766 71.3478L29.7383 71.4389L29.6846 71.6271L29.5831 72.0116C29.5174 72.2703 29.4598 72.5335 29.4046 72.797C29.2965 73.3255 29.2083 73.8602 29.1389 74.3975C28.9995 75.4719 28.9392 76.5576 28.9576 77.6389C28.9717 78.721 29.0804 79.798 29.2619 80.8589C29.4523 81.9185 29.7292 82.9593 30.0949 83.9665C30.4577 84.9723 30.9229 85.946 31.4629 86.8729C32.0011 87.7992 32.6254 88.6702 33.3267 89.4736C34.7258 91.086 36.4484 92.402 38.3423 93.4364C40.2382 94.4735 42.2965 95.2408 44.4107 95.8479C46.5268 96.4556 48.7023 96.9065 50.8968 97.2968C51.9946 97.4918 53.098 97.6702 54.2046 97.8423C55.3112 98.0135 56.4221 98.1797 57.5303 98.3743C59.7456 98.7616 61.9531 99.202 64.1374 99.798C64.3815 99.8646 64.5257 100.118 64.4595 100.364C64.4029 100.574 64.2102 100.71 64.003 100.704Z" fill="#371B45"/>
<path d="M86.3831 29.4465C84.944 26.2206 92.2071 26.2576 91.4621 23.2876C90.9205 21.1284 82.1371 17.5731 76.0686 23.8301C76.0686 23.8301 75.8914 22.1152 76.0126 19.8468C76.158 17.1288 75.8063 14.9041 74.6483 14.6107C72.3023 14.016 68.6028 19.0317 60.86 23.9684C57.8654 25.8779 52.0663 28.7195 49.3672 29.6724L70.3791 43.0993L86.3831 29.4465Z" fill="white"/>
<g opacity="0.4">
<path d="M90.6788 25.133C88.4942 23.1044 81.1704 21.1338 75.8975 26.57C75.8975 26.57 75.7217 24.8558 75.843 22.5869C75.9872 19.8687 75.6348 17.6445 74.4786 17.3505C72.1319 16.7561 68.4313 21.772 60.6896 26.7094C58.4941 28.1078 54.7924 30.01 51.9084 31.2984L49.3672 29.673C52.0665 28.7196 57.8652 25.8776 60.8593 23.9695C68.603 19.0325 72.3016 14.0164 74.6483 14.6106C75.8066 14.9047 76.1589 17.1292 76.0126 19.8469C75.8914 22.1158 76.0691 23.8305 76.0691 23.8305C82.1362 17.5733 90.921 21.1288 91.4617 23.2873C91.6596 24.075 91.2938 24.65 90.6788 25.133Z" fill="white"/>
</g>
<path d="M85.9671 29.6263C85.7913 29.3574 85.6448 29.0323 85.6031 28.6471C85.562 28.265 85.6459 27.8374 85.8295 27.5005C86.0053 27.1555 86.241 26.8852 86.483 26.6602C86.7255 26.4363 86.9727 26.2441 87.2247 26.0815C87.7252 25.7501 88.2208 25.4839 88.6969 25.2348C89.1675 24.9837 89.6261 24.7448 89.9827 24.4792C90.161 24.3488 90.31 24.2126 90.4067 24.0899C90.5034 23.9649 90.5443 23.8697 90.5543 23.7863C90.56 23.7431 90.5618 23.6987 90.5555 23.6435C90.5496 23.5966 90.5248 23.494 90.5229 23.5052C90.5043 23.457 90.4037 23.3102 90.265 23.1807C89.9864 22.9083 89.5847 22.6427 89.1632 22.4237C88.738 22.2014 88.2783 22.0162 87.8066 21.8638C86.8603 21.5626 85.8641 21.381 84.8653 21.333C83.8665 21.2879 82.864 21.3701 81.8955 21.5891C80.9286 21.8141 79.9898 22.1616 79.1202 22.6503C78.2504 23.1379 77.4484 23.7541 76.7189 24.4616L76.7187 24.4618L76.7007 24.4799C76.3447 24.8336 75.7713 24.8299 75.4199 24.4719C75.2672 24.3165 75.1815 24.1187 75.1624 23.917C75.1198 23.4629 75.0985 23.0529 75.0816 22.6231C75.0657 22.1982 75.0586 21.7738 75.0598 21.3492C75.0602 20.9248 75.0718 20.5002 75.0898 20.0756L75.1178 19.4631C75.126 19.2655 75.1296 19.0689 75.1319 18.8727C75.1364 18.0922 75.0975 17.3084 74.9515 16.6112C74.8803 16.2671 74.7736 15.9396 74.6465 15.7267C74.5846 15.6214 74.5212 15.5509 74.4825 15.5216C74.4629 15.5079 74.4497 15.5008 74.4388 15.496C74.4293 15.4944 74.4356 15.4937 74.4138 15.4889C74.3933 15.4843 74.3728 15.4795 74.3506 15.4774C74.1811 15.4516 73.9152 15.4994 73.6174 15.6251C73.3202 15.7484 73.0024 15.9297 72.6871 16.1355C72.0539 16.5494 71.4227 17.0484 70.7939 17.5563C69.5365 18.5802 68.2757 19.6547 66.9767 20.6849C65.679 21.7184 64.3454 22.7178 62.9701 23.6595C62.2793 24.1313 61.5931 24.5868 60.8697 25.03C60.1512 25.4681 59.4274 25.8815 58.6988 26.2809C57.2401 27.0761 55.7668 27.8287 54.2713 28.542C53.5247 28.9007 52.7709 29.2461 52.0089 29.5812C51.2456 29.9159 50.4788 30.2389 49.6674 30.5286C49.1939 30.6978 48.6736 30.4483 48.5058 29.9717C48.3377 29.4954 48.5854 28.9719 49.059 28.8027H49.0592L49.0649 28.8007C49.7978 28.5393 50.5441 28.2264 51.2824 27.9022C52.0217 27.577 52.7591 27.2393 53.4911 26.8877C54.9566 26.1889 56.4062 25.4482 57.8286 24.6726C58.5387 24.2835 59.2402 23.8825 59.9228 23.4663C60.5993 23.0522 61.2812 22.6002 61.9461 22.1458C63.2799 21.2325 64.5763 20.2612 65.848 19.2486C67.1227 18.2375 68.3628 17.1805 69.6525 16.13C70.3015 15.6068 70.9586 15.0828 71.6995 14.5973C72.0716 14.356 72.4665 14.123 72.9269 13.931C73.3818 13.7453 73.9391 13.5805 74.5876 13.662C74.6672 13.6714 74.747 13.687 74.8264 13.7053C74.9047 13.7227 75.0084 13.7552 75.0948 13.7879C75.275 13.8582 75.4403 13.955 75.5848 14.0646C75.8718 14.2869 76.0656 14.5469 76.213 14.7946C76.5014 15.2952 76.6304 15.7697 76.7312 16.2291C76.9207 17.1477 76.9543 18.0219 76.9516 18.8878C76.9491 19.1037 76.945 19.3193 76.9361 19.5338L76.9077 20.1564C76.8909 20.5554 76.8799 20.955 76.8795 21.3549C76.8786 21.7548 76.8849 22.155 76.9 22.5537C76.9147 22.9476 76.9382 23.361 76.9725 23.7277L75.4162 23.183L75.4167 23.1825C76.9966 21.457 79.1268 20.1633 81.4408 19.6194C82.5952 19.3424 83.7855 19.2369 84.9631 19.2985C86.1409 19.3587 87.3089 19.5679 88.4337 19.9515C88.996 20.1431 89.5489 20.3743 90.0871 20.6657C90.6244 20.9626 91.1523 21.2947 91.6466 21.7986C91.7697 21.9249 91.8907 22.0652 92.006 22.2289C92.1209 22.3916 92.2325 22.5759 92.3204 22.8114C92.4152 23.079 92.4368 23.2493 92.4614 23.4743C92.4787 23.6925 92.4666 23.9239 92.4216 24.1498C92.3335 24.6088 92.0993 25.008 91.8481 25.3021C91.5938 25.5999 91.3209 25.8183 91.0548 26.0037C90.5191 26.37 89.9993 26.6243 89.4955 26.8614C88.9951 27.0988 88.5038 27.3007 88.0625 27.522C87.8441 27.6358 87.6337 27.7438 87.4511 27.8635C87.2723 27.9849 87.1153 28.1064 87.0055 28.23C86.8965 28.3561 86.821 28.4754 86.7841 28.6423C86.743 28.8073 86.755 29.0197 86.7969 29.2511L86.8039 29.2887C86.8496 29.5402 86.6841 29.7813 86.4341 29.8273C86.2469 29.8616 86.0656 29.7767 85.9671 29.6263Z" fill="#371B45"/>
<path d="M54.956 80.9782C57.4042 80.463 63.0416 78.0355 62.9399 69.2138C62.8398 60.557 59.5086 57.7525 54.032 57.6289C48.5556 57.5053 40.9368 60.3478 36.7749 65.3463C33.8097 68.9076 33.0936 74.905 34.4088 77.3941C37.0083 82.3132 52.508 81.4937 54.956 80.9782Z" fill="#777781"/>
<path d="M84.1572 80.9782C81.709 80.463 76.0716 78.0355 76.1732 69.2138C76.2733 60.557 79.6045 57.7525 85.0811 57.6289C90.5575 57.5053 98.1764 60.3478 102.338 65.3463C105.303 68.9076 106.019 74.905 104.704 77.3941C102.105 82.3132 86.6051 81.4937 84.1572 80.9782Z" fill="#777781"/>
<g opacity="0.5">
<path d="M71.6106 74.6741C71.6106 75.3943 70.3707 75.7177 69.4576 75.7177C68.5446 75.7177 67.3047 75.3943 67.3047 74.6741C67.3047 74.3045 69.4581 74.3047 69.4581 74.3047C69.4581 74.3047 71.6106 74.3047 71.6106 74.6741Z" fill="white"/>
</g>
<path d="M76.1771 78.9922C74.9959 80.4892 74.6459 82.2092 74.2194 83.7229C73.7569 85.363 73.2072 86.7664 71.427 87.3968C70.4972 87.7269 69.469 87.7269 68.5394 87.3968C66.7672 86.7694 66.2147 85.3767 65.7555 83.7449C65.3233 82.2257 64.976 80.4974 63.7891 78.9922H76.1771Z" fill="#371B45"/>
<path d="M74.2139 83.7248C73.7517 85.3651 73.2019 86.7685 71.4218 87.3987C70.4919 87.729 69.4636 87.729 68.5339 87.3987C66.7618 86.7712 66.2095 85.3788 65.75 83.7468C66.3077 83.4744 66.9342 83.3203 67.5931 83.3203C68.4902 83.3203 69.3214 83.6037 70.0051 84.0853C70.6889 83.6037 71.523 83.3203 72.4199 83.3203C73.0625 83.3203 73.6696 83.4661 74.2139 83.7248Z" fill="#EE7A7C"/>
<path d="M71.8107 82.4766L71.3967 83.4357C71.3967 83.4357 70.0069 83.7264 70.0069 85.1936C70.0069 83.7264 68.6171 83.4357 68.6171 83.4357L68.2031 82.4766L70.0069 83.193L71.8107 82.4766Z" fill="#371B45"/>
<path d="M69.9798 88.5021C69.3943 88.5021 68.8091 88.4035 68.252 88.2062C65.8399 87.3514 65.2913 85.3231 64.7605 83.3616C64.4058 82.0506 64.0391 80.6948 63.1178 79.5238C62.8254 79.1519 62.8878 78.612 63.2572 78.3178C63.6265 78.0244 64.1631 78.0864 64.4553 78.4581C65.5933 79.9049 66.0254 81.5018 66.4066 82.9107C66.9457 84.9038 67.3236 86.0572 68.8186 86.5867C69.5675 86.8522 70.3921 86.8522 71.1405 86.5867C72.6357 86.0572 73.0135 84.9038 73.5527 82.9107C73.934 81.5018 74.3659 79.905 75.5039 78.4581C75.7963 78.0864 76.333 78.0244 76.702 78.3178C77.0715 78.6121 77.1338 79.1519 76.8414 79.5238C75.9202 80.6948 75.5534 82.0506 75.1989 83.3616C74.6682 85.3231 74.1193 87.3515 71.7071 88.2062C71.1502 88.4035 70.565 88.5021 69.9798 88.5021Z" fill="#371B45"/>
<path d="M77.0875 77.9019C76.9771 79.7897 74.9909 81.603 72.9388 81.0749C69.9215 80.2983 69.9881 76.1989 69.9881 76.1989H69.987H69.9861C69.9861 76.1989 70.0525 80.2983 67.0354 81.0747C64.983 81.6028 62.997 79.7892 62.8867 77.9017C62.8867 77.9017 63.5702 72.8123 69.9867 72.8125C76.403 72.8125 77.0875 77.9019 77.0875 77.9019Z" fill="white"/>
<path d="M77.0306 78.3124C76.6846 80.0404 74.8385 81.5639 72.9351 81.0757C69.9185 80.2986 69.9847 76.1998 69.9847 76.1998L69.9833 76.1996C69.9833 76.1996 69.9885 76.5283 69.928 77.0147C69.7745 78.2524 69.1965 80.5183 67.0318 81.0759C65.1158 81.5697 63.2566 80.0182 62.9297 78.2739C63.8677 78.9032 65.0237 79.1932 66.1961 78.8915C69.616 78.0105 69.9694 73.8236 70.0038 72.8132C70.0072 72.8121 70.0104 72.8126 70.0131 72.8128C70.0484 73.8227 70.4005 78.0111 73.8224 78.8924C74.9716 79.1877 76.105 78.9153 77.0306 78.3124Z" fill="#D3DDEA"/>
<path d="M77.426 77.9189C77.4762 78.4891 77.3502 79.0714 77.1178 79.6018C76.8789 80.1308 76.53 80.6149 76.0848 81.013C75.644 81.4151 75.0983 81.723 74.4901 81.8993C73.8828 82.0693 73.2027 82.0773 72.5783 81.9244C71.9682 81.7775 71.3695 81.4664 70.8916 81.0347C70.4124 80.6037 70.0575 80.0749 69.8044 79.5356C69.5485 78.9943 69.3797 78.441 69.2639 77.8873C69.2073 77.6101 69.1638 77.3329 69.1322 77.0541C69.1158 76.9147 69.1047 76.7744 69.0951 76.6331C69.0867 76.4855 69.0804 76.3621 69.0815 76.1808L69.9859 77.1061H69.985H69.9841L70.8887 76.1808C70.898 76.3624 70.8996 76.4864 70.8989 76.6347C70.8957 76.7769 70.8894 76.9181 70.8787 77.0589C70.8584 77.3404 70.8175 77.6199 70.7661 77.9003C70.653 78.4586 70.4865 79.0201 70.2129 79.5594C69.9499 80.101 69.5694 80.6163 69.0865 81.0439C68.5995 81.4682 67.9997 81.7713 67.3917 81.9238C66.768 82.0787 66.0872 82.0735 65.4787 81.905C64.8693 81.7294 64.3214 81.4231 63.8797 81.0198C63.4334 80.6213 63.084 80.1358 62.8456 79.6054C62.6141 79.0732 62.4894 78.4893 62.544 77.9187C62.5624 77.7278 62.731 77.5879 62.9207 77.6062C63.0681 77.6206 63.185 77.7261 63.2211 77.8619L63.2252 77.8784C63.4554 78.7487 64.0491 79.4553 64.7442 79.881C65.0954 80.0875 65.4664 80.2326 65.834 80.2715C66.2011 80.3228 66.5469 80.2757 66.8844 80.1564C67.5905 79.9154 68.0857 79.3964 68.4432 78.6711C68.6193 78.311 68.7574 77.9058 68.8604 77.4833C68.9155 77.2722 68.9559 77.0552 68.9937 76.8371C69.0133 76.7281 69.0278 76.6187 69.0426 76.5102C69.0583 76.4077 69.0715 76.2804 69.0797 76.2104L69.1886 75.2854H69.9841H69.9852H69.9861L70.8869 75.2812L70.8907 76.2106C70.891 76.2806 70.896 76.4084 70.9037 76.5118C70.9121 76.6215 70.9219 76.7316 70.936 76.8419C70.9622 77.0626 70.9997 77.2823 71.05 77.4963C71.1503 77.9237 71.2856 78.3371 71.4796 78.6949C71.8693 79.4214 72.3877 79.906 73.0858 80.1559C73.4226 80.2775 73.7688 80.3272 74.1373 80.2777C74.5058 80.2395 74.8793 80.096 75.2314 79.8884C75.9288 79.4624 76.5229 78.7498 76.7447 77.8786L76.7486 77.8633C76.7959 77.6779 76.9838 77.5659 77.1683 77.6135C77.3134 77.6509 77.4132 77.7768 77.426 77.9189Z" fill="#371B45"/>
<path d="M74.7161 73.1579C74.7149 74.2271 73.3278 75.1704 72.0552 75.8111C70.7234 76.4813 69.2324 76.48 67.9022 75.8072C66.6304 75.1642 65.2452 74.2182 65.2461 73.1488C65.2493 69.9236 74.7192 69.9325 74.7161 73.1579Z" fill="#371B45"/>
<g opacity="0.5">
<path d="M71.8565 72.5275C71.8561 72.8358 71.3063 73.1077 70.8015 73.2922C70.2736 73.4854 69.6824 73.4847 69.1549 73.2906C68.6507 73.105 68.1011 72.8324 68.1016 72.5238C68.1025 71.5938 71.8574 71.5975 71.8565 72.5275Z" fill="white"/>
</g>
<path d="M43.1653 49.2667C42.6376 48.4376 46.1446 41.0308 52.7417 43.2248C55.1178 44.0152 55.3396 46.3478 53.4964 46.8438C51.7404 47.3162 50.9502 46.9333 48.2284 47.8944C46.6885 48.4383 43.693 50.0958 43.1653 49.2667Z" fill="#371B45"/>
<path d="M95.6988 49.3107C96.2279 48.4825 92.7341 41.0695 86.1329 43.2519C83.7554 44.0379 83.5298 46.37 85.372 46.8692C87.1271 47.3451 87.918 46.9633 90.638 47.9295C92.1773 48.4762 95.1695 50.1389 95.6988 49.3107Z" fill="#371B45"/>
<path d="M52.6447 76.4412C56.0427 76.4412 58.7972 72.9094 58.7972 68.5527C58.7972 64.1959 56.0427 60.6641 52.6447 60.6641C49.2468 60.6641 46.4922 64.1959 46.4922 68.5527C46.4922 72.9094 49.2468 76.4412 52.6447 76.4412Z" fill="#371B45"/>
<path d="M55.412 68.4184C56.3205 68.0944 56.6754 66.7481 56.2047 65.4114C55.734 64.0746 54.616 63.2535 53.7075 63.5775C52.799 63.9014 52.4441 65.2477 52.9148 66.5845C53.3854 67.9213 54.5035 68.7423 55.412 68.4184Z" fill="white"/>
<g opacity="0.67">
<path d="M54.2118 73.6983C54.4585 72.9026 53.8296 71.9974 52.8071 71.6764C51.7846 71.3554 50.7558 71.7402 50.5091 72.5359C50.2625 73.3315 50.8914 74.2368 51.9139 74.5578C52.9363 74.8788 53.9652 74.494 54.2118 73.6983Z" fill="white"/>
</g>
<path d="M86.965 76.4412C90.363 76.4412 93.1176 72.9094 93.1176 68.5527C93.1176 64.1959 90.363 60.6641 86.965 60.6641C83.5671 60.6641 80.8125 64.1959 80.8125 68.5527C80.8125 72.9094 83.5671 76.4412 86.965 76.4412Z" fill="#371B45"/>
<path d="M86.7047 66.5886C87.1754 65.2519 86.8205 63.9056 85.912 63.5816C85.0035 63.2577 83.8855 64.0787 83.4148 65.4155C82.9441 66.7523 83.299 68.0986 84.2075 68.4225C85.116 68.7465 86.234 67.9254 86.7047 66.5886Z" fill="white"/>
<g opacity="0.67">
<path d="M87.6938 74.558C88.7163 74.237 89.3452 73.3318 89.0985 72.5361C88.8519 71.7404 87.823 71.3556 86.8006 71.6766C85.7781 71.9976 85.1492 72.9028 85.3958 73.6985C85.6425 74.4942 86.6713 74.879 87.6938 74.558Z" fill="white"/>
</g>
</g>
<rect x="0.625" y="0.625" width="138.75" height="138.75" rx="69.375" stroke="url(#paint0_linear_6028_67469)" stroke-width="1.25"/>
<defs>
<linearGradient id="paint0_linear_6028_67469" x1="70" y1="140" x2="70" y2="0.00253673" gradientUnits="userSpaceOnUse">
<stop stop-color="#F19920"/>
<stop offset="0.23" stop-color="#F39F27"/>
<stop offset="0.58" stop-color="#F7B03B"/>
<stop offset="1" stop-color="#FECC5C"/>
</linearGradient>
<clipPath id="clip0_6028_67469">
<rect width="140" height="140" rx="70" fill="white"/>
</clipPath>
</defs>
</svg>
