<svg width="217" height="317" viewBox="0 0 217 317" fill="none" xmlns="http://www.w3.org/2000/svg">
<path d="M131.481 235.191C138.931 222.951 160.499 219.437 162.998 238.896C165.165 255.77 144.898 263.581 130.392 259.019C125.149 257.371 122.303 250.271 131.481 235.191Z" fill="#777781"/>
<path d="M130.391 259.025C144.895 263.587 165.162 255.777 162.998 238.905C162.085 231.807 158.641 227.765 154.262 226.094C154.339 226.49 154.185 226.989 154.456 227.312C167.422 242.748 150.465 259.551 139.218 239.582C133.806 242.388 132.048 249.335 125.817 248.355C124.625 254.636 127.014 257.966 130.391 259.025Z" fill="#626272"/>
<path d="M139.015 262.435C146.148 262.435 153.314 260.154 158.293 255.987C163.565 251.574 165.988 245.408 165.117 238.625C164.062 230.402 159.529 224.851 152.681 223.395C144.344 221.621 134.443 226.216 129.655 234.082C124.117 243.181 122.193 250.657 124.09 255.702C125.074 258.319 127.085 260.221 129.751 261.06C132.704 261.988 135.856 262.435 139.015 262.435ZM149.006 227.291C149.954 227.291 150.888 227.383 151.791 227.575C156.902 228.662 160.044 232.671 160.878 239.169C161.749 245.946 158.461 250.273 155.549 252.71C149.423 257.839 139.341 259.596 131.033 256.982C129.607 256.534 128.617 255.597 128.09 254.197C127.281 252.045 126.883 246.857 133.306 236.304C136.603 230.887 143.09 227.291 149.006 227.291Z" fill="#371B45"/>
<g opacity="0.3">
<path d="M140.99 233.416C141.803 231.323 148.355 228.286 153.267 231.297C158.617 234.577 152.957 234.661 149.132 234.994C145.22 235.333 140.176 235.508 140.99 233.416Z" fill="white"/>
</g>
<path d="M110.751 163.011L116.431 175.709L122.927 190.228L127.351 200.118C180.441 213.243 207.166 178.534 210.132 164.43C211.667 157.13 206.675 147.86 202.478 142.919C201.755 142.064 201.054 141.342 200.413 140.778C195.438 136.405 187.263 133.033 170.564 149.471C161.281 158.609 149.797 163.464 139.095 165.391C127.424 167.499 116.679 166.118 110.751 163.011Z" fill="#777781"/>
<path d="M110.752 163.016L116.432 175.714C125.868 173.436 133.753 169.833 139.096 165.396C127.424 167.503 116.68 166.123 110.752 163.016Z" fill="#626272"/>
<path d="M52.947 169.714C57.9902 172.45 64.1745 174.664 71.1324 176.169L84.5098 158.688C74.7349 160.089 63.7172 163.385 52.947 169.714Z" fill="#626272"/>
<path d="M62.6833 173.87C71.2738 176.733 81.6295 178.404 92.7801 178.404C103.931 178.404 114.286 176.733 122.877 173.87C117.317 168.377 106.046 159.219 92.7801 159.219C79.5139 159.219 68.2436 168.377 62.6833 173.87Z" fill="#626272"/>
<path d="M122.927 190.23L127.351 200.121C180.441 213.246 207.166 178.537 210.132 164.433C211.667 157.133 206.675 147.862 202.478 142.922C194.562 145.118 188.199 147.183 187.378 148.379C185.066 151.752 191.754 176.331 173.5 186.799C150.875 199.77 126.594 180.661 126.594 180.661L122.927 190.23Z" fill="#626272"/>
<path d="M110.155 164.15C112.374 165.329 114.716 166.086 117.077 166.647C119.443 167.197 121.838 167.543 124.239 167.718C129.042 168.069 133.864 167.811 138.605 167.057C148.071 165.537 157.308 161.991 165.145 156.305C167.101 154.886 168.964 153.341 170.728 151.688L173.265 149.246C174.108 148.465 174.953 147.688 175.822 146.944C177.556 145.452 179.353 144.048 181.228 142.806C182.172 142.2 183.124 141.609 184.107 141.106C185.083 140.587 186.085 140.142 187.099 139.785C189.122 139.06 191.219 138.714 193.197 139.009C195.179 139.281 197.017 140.201 198.671 141.553C200.311 142.859 201.723 144.6 203.015 146.428C204.298 148.263 205.426 150.223 206.355 152.253C207.281 154.282 208.013 156.393 208.407 158.52C208.602 159.582 208.71 160.648 208.701 161.692C208.7 162.214 208.662 162.73 208.598 163.237C208.573 163.493 208.514 163.738 208.475 163.989C208.427 164.241 208.362 164.503 208.3 164.76C207.758 166.835 206.861 168.903 205.81 170.883C204.757 172.868 203.52 174.773 202.176 176.601C196.756 183.904 189.527 189.868 181.421 194.043C173.298 198.223 164.271 200.575 155.125 201.151C145.967 201.771 136.718 200.665 127.76 198.463L127.756 198.462C126.839 198.237 125.913 198.798 125.688 199.714C125.462 200.631 126.023 201.557 126.94 201.783C136.175 204.052 145.774 205.209 155.35 204.563C164.911 203.961 174.418 201.493 182.984 197.084C191.538 192.674 199.157 186.402 204.925 178.633C206.359 176.684 207.683 174.647 208.828 172.49C209.97 170.331 210.966 168.073 211.612 165.607C211.688 165.295 211.764 164.987 211.827 164.664C211.882 164.337 211.954 164.009 211.989 163.681C212.072 163.026 212.118 162.37 212.121 161.721C212.131 160.42 211.997 159.144 211.769 157.901C211.307 155.415 210.482 153.064 209.465 150.831C208.442 148.597 207.22 146.477 205.818 144.469C205.116 143.465 204.366 142.49 203.551 141.55C203.141 141.08 202.717 140.618 202.257 140.17C202.033 139.944 201.789 139.724 201.548 139.504C201.305 139.299 201.072 139.09 200.819 138.892C199.829 138.088 198.728 137.359 197.524 136.787C196.325 136.205 195.01 135.817 193.681 135.624C191 135.23 188.334 135.711 185.96 136.561C184.763 136.983 183.617 137.495 182.523 138.076C181.419 138.643 180.377 139.289 179.349 139.95C177.314 141.298 175.411 142.788 173.591 144.353C172.679 145.135 171.798 145.944 170.921 146.756L168.387 149.188C166.723 150.734 164.966 152.181 163.121 153.508C155.751 158.832 147.105 162.408 138.09 163.994C133.585 164.788 128.985 165.109 124.428 164.851C122.151 164.716 119.885 164.453 117.672 163.987C115.465 163.518 113.295 162.859 111.344 161.879L111.332 161.872C110.699 161.554 109.928 161.809 109.61 162.442C109.297 163.066 109.541 163.824 110.155 164.15Z" fill="#371B45"/>
<path d="M182.027 139.941C184.893 137.004 190.993 120.849 199.879 121.824C209.138 122.84 207.541 137.362 200.322 142.474" fill="#777781"/>
<g opacity="0.3">
<path d="M182.028 139.941L183.391 140.129C186.699 134.56 192.059 124.166 199.239 124.952C204.226 125.499 206.064 129.97 205.564 134.774C207.355 128.957 205.949 122.486 199.88 121.824C190.994 120.849 184.895 137.005 182.028 139.941Z" fill="white"/>
</g>
<path d="M200.325 144.61C200.752 144.61 201.183 144.482 201.559 144.217C206.677 140.591 209.569 132.728 208.005 126.688C206.967 122.682 204.091 120.134 200.114 119.698C192.146 118.821 186.675 128.226 183.052 134.448C182.072 136.133 181.057 137.875 180.499 138.447C179.675 139.292 179.692 140.645 180.536 141.469C181.382 142.294 182.734 142.276 183.559 141.432C184.485 140.482 185.483 138.768 186.746 136.599C189.811 131.333 194.437 123.375 199.648 123.946C201.855 124.189 203.275 125.472 203.868 127.76C204.985 132.074 202.752 138.134 199.088 140.729C198.125 141.411 197.898 142.745 198.58 143.708C198.996 144.296 199.655 144.61 200.325 144.61Z" fill="#371B45"/>
<path d="M189.908 146.277C190.348 153.962 194.917 170.229 204.55 169.25C211.38 168.553 214.06 162.271 213.902 155.214C213.688 145.401 207.991 134.092 200.345 134.212C199.452 134.225 198.439 134.349 197.4 134.622C193.592 135.639 189.476 138.747 189.908 146.277Z" fill="#777781"/>
<g opacity="0.3">
<path d="M190.498 140.99C191.968 138.759 194.165 137.558 196.267 136.999C197.306 136.725 198.319 136.601 199.212 136.588C206.858 136.469 212.555 147.778 212.769 157.591C212.829 160.181 212.504 162.669 211.73 164.814C213.316 162.249 213.983 158.834 213.902 155.214C213.688 145.401 207.991 134.092 200.345 134.212C199.452 134.225 198.439 134.349 197.4 134.622C194.643 135.357 191.733 137.187 190.498 140.99Z" fill="white"/>
</g>
<path d="M189.908 146.272C190.348 153.957 194.917 170.224 204.55 169.245C211.38 168.548 214.06 162.266 213.902 155.209C213.902 155.209 211.624 165.339 204.952 163.462C198.917 161.766 198.178 158.859 203.106 152.829C207.264 147.734 203.542 138.609 197.4 134.617C193.592 135.634 189.476 138.742 189.908 146.272Z" fill="#626272"/>
<path d="M203.707 171.426C204.057 171.426 204.411 171.408 204.768 171.372C212.276 170.606 216.579 163.985 215.999 154.093C215.371 143.395 209.172 131.939 200.314 132.071C198.578 132.098 194.192 132.534 190.983 135.985C188.607 138.541 187.528 142.043 187.776 146.395C188.116 152.338 190.871 163.657 196.821 168.731C198.921 170.522 201.234 171.426 203.707 171.426ZM200.465 136.344C206.315 136.344 211.232 145.813 211.732 154.343C211.897 157.147 211.849 166.354 204.334 167.12C202.643 167.293 201.091 166.755 199.594 165.479C194.92 161.493 192.365 151.777 192.044 146.151C191.864 143.007 192.56 140.565 194.113 138.895C196.26 136.586 199.453 136.359 200.381 136.345C200.409 136.344 200.437 136.344 200.465 136.344Z" fill="#371B45"/>
<path d="M170.564 149.47C170.564 149.47 184.485 132.863 193.482 135.832C203.091 139.004 204.163 149.853 199.098 152.803C192.727 156.513 186.341 149.899 186.341 149.899" fill="#777781"/>
<g opacity="0.3">
<path d="M170.565 149.471L172.377 149.522C176.881 144.888 186.032 136.687 192.576 138.849C198.922 140.944 201.546 146.393 201.132 150.697C203.551 146.398 201.461 138.465 193.481 135.832C184.485 132.862 170.565 149.471 170.565 149.471Z" fill="white"/>
</g>
<path d="M171.874 150.572C172.684 149.624 173.587 148.649 174.485 147.723C175.391 146.791 176.321 145.883 177.274 145.006C179.181 143.254 181.183 141.612 183.298 140.221C184.354 139.527 185.442 138.903 186.55 138.391C187.658 137.88 188.792 137.486 189.899 137.303C191.011 137.122 192.061 137.151 193.017 137.484C194.133 137.868 195.186 138.39 196.121 139.058C197.999 140.379 199.374 142.332 199.959 144.484C200.249 145.555 200.358 146.672 200.226 147.723C200.109 148.775 199.739 149.748 199.174 150.475C198.884 150.842 198.566 151.13 198.154 151.37C197.695 151.656 197.211 151.873 196.712 152.042C195.711 152.369 194.624 152.455 193.504 152.294C191.263 151.997 188.931 150.77 186.955 149.309L186.897 149.265C186.517 148.984 185.981 149.065 185.7 149.445C185.462 149.766 185.484 150.2 185.726 150.496C186.659 151.637 187.699 152.55 188.895 153.372C190.087 154.178 191.429 154.84 192.92 155.214C194.404 155.569 196.052 155.639 197.612 155.219C198.386 155.014 199.143 154.728 199.838 154.351C200.592 153.952 201.311 153.368 201.868 152.709C203.006 151.379 203.58 149.751 203.794 148.173C203.995 146.582 203.839 144.998 203.411 143.511C202.565 140.526 200.592 137.953 198.112 136.23C196.873 135.363 195.509 134.708 194.107 134.242C193.339 133.978 192.499 133.825 191.698 133.787C190.891 133.745 190.101 133.804 189.342 133.929C187.822 134.183 186.427 134.685 185.12 135.285C183.814 135.889 182.589 136.597 181.423 137.362C179.091 138.897 176.969 140.645 174.959 142.489C173.955 143.414 172.981 144.365 172.033 145.341C171.08 146.324 170.173 147.3 169.254 148.375C168.641 149.093 168.726 150.172 169.444 150.785C170.161 151.399 171.24 151.314 171.854 150.596L171.874 150.572Z" fill="#371B45"/>
<path d="M17.6573 239.107C18.8455 240.671 20.2306 241.855 21.709 242.607C27.1839 245.385 35.8214 243.039 38.1934 231.132C43.3781 205.116 60.4011 190.195 60.4011 190.195L67.1449 181.378L84.5098 158.688C64.0292 161.628 38.0913 172.856 20.3841 202.957C10.9601 218.976 12.5757 232.461 17.6573 239.107Z" fill="#777781"/>
<path d="M52.947 169.714C57.9902 172.45 64.1745 174.664 71.1324 176.169L84.5098 158.688C74.7349 160.089 63.7172 163.385 52.947 169.714Z" fill="#626272"/>
<path d="M17.657 239.103C18.8451 240.667 20.2303 241.851 21.7086 242.603C27.1835 245.381 35.8211 243.035 38.1931 231.127C43.3778 205.112 60.4007 190.191 60.4007 190.191L67.1445 181.374L58.9643 177.891C58.9643 177.891 44.2236 186.742 37.8944 201.876C32.0601 215.818 35.2526 231.495 27.5083 238.282C24.8115 240.646 20.9953 240.239 17.657 239.103Z" fill="#626272"/>
<path d="M26.1546 245.795C27.9991 245.795 29.8551 245.381 31.563 244.552C35.9428 242.426 39.0418 237.809 40.2889 231.551C45.2601 206.608 61.6436 191.948 61.8087 191.802C62.6938 191.023 62.7812 189.674 62.0027 188.787C61.224 187.901 59.8759 187.813 58.9895 188.59C58.2721 189.219 41.3633 204.294 36.0974 230.716C35.1179 235.631 32.8445 239.179 29.6965 240.707C27.451 241.797 24.827 241.796 22.6776 240.704C20.0205 239.354 17.8267 236.289 16.6587 232.295C14.3267 224.321 16.3556 214.024 22.2251 204.044C41.3698 171.495 69.6571 162.984 84.8148 160.808C85.9832 160.64 86.7941 159.557 86.6265 158.389C86.4591 157.22 85.3778 156.408 84.2076 156.577C68.2899 158.862 38.5928 167.787 18.5414 201.877C9.6902 216.926 10.9924 228.146 12.5565 233.495C14.0544 238.616 17.0375 242.633 20.7415 244.515C22.4214 245.368 24.2819 245.795 26.1546 245.795Z" fill="#371B45"/>
<path d="M103.085 309.812C108.598 316.642 126.874 314.372 133.644 314.017C141.743 313.595 142.935 306.701 141.375 302.486C139.435 297.255 134.443 295.499 134.443 295.499C138.05 287.917 141.319 275.022 143.269 263.148C144.889 253.297 145.598 244.146 144.841 239.312L96.4311 252.742C103.705 279.163 96.4097 301.538 103.085 309.812Z" fill="#777781"/>
<path d="M103.085 309.812C108.598 316.642 126.874 314.372 133.644 314.017C141.743 313.595 142.935 306.701 141.375 302.486C141.375 302.486 141.708 307.684 128.947 307.684C116.181 307.684 108.607 307.457 106.932 297.793C104.718 285.049 110.398 281.326 116.937 277.808C121.954 275.103 135.028 271.458 143.269 263.148C144.889 253.297 145.598 244.146 144.841 239.312L96.4311 252.742C103.705 279.163 96.4097 301.538 103.085 309.812Z" fill="#626272"/>
<path d="M120.591 316.807C124.337 316.807 127.985 316.546 130.965 316.333C132.026 316.258 132.969 316.19 133.754 316.149C138.677 315.89 141.196 313.576 142.442 311.681C144.62 308.366 144.353 304.372 143.376 301.738C141.953 297.901 139.161 295.656 137.225 294.498C143.348 279.999 148.691 250.091 146.952 238.977L142.73 239.638C144.285 249.576 139.074 280.774 132.51 294.575C132.25 295.122 132.234 295.754 132.467 296.314C132.7 296.873 133.159 297.307 133.73 297.509C133.759 297.519 137.819 299.045 139.369 303.225C140 304.927 140.091 307.476 138.871 309.333C137.846 310.891 136.049 311.748 133.531 311.881C132.722 311.923 131.752 311.992 130.66 312.07C123.601 312.575 108.911 313.625 104.749 308.466C101.978 305.032 102.037 297.902 102.113 288.875C102.197 278.691 102.303 266.017 98.4903 252.172L94.3699 253.306C98.0239 266.578 97.9215 278.921 97.839 288.839C97.7568 298.721 97.6919 306.526 101.423 311.149C105.138 315.755 113.064 316.807 120.591 316.807Z" fill="#371B45"/>
<path d="M120.523 302.067C120.945 302.54 121.389 303.086 121.731 303.622C122.081 304.163 122.364 304.72 122.553 305.282C122.655 305.561 122.726 305.845 122.776 306.13C122.832 306.43 122.883 306.764 122.906 307.074C122.965 307.704 122.931 308.315 122.828 308.881C122.616 310.017 122.022 310.938 121.094 311.658C120.166 312.38 118.948 312.882 117.662 313.272L117.644 313.277C116.987 313.476 116.616 314.17 116.816 314.827C117.002 315.44 117.624 315.802 118.239 315.686C119.771 315.392 121.346 314.861 122.746 313.815C123.439 313.292 124.07 312.626 124.543 311.846C125.021 311.069 125.311 310.187 125.446 309.32C125.581 308.45 125.546 307.59 125.429 306.777C125.37 306.364 125.295 305.979 125.185 305.571C125.066 305.148 124.914 304.737 124.726 304.348C124.339 303.573 123.817 302.898 123.222 302.334C122.604 301.777 121.966 301.329 121.168 301.007C120.848 300.877 120.483 301.032 120.354 301.352C120.261 301.581 120.313 301.831 120.466 302.003L120.523 302.067Z" fill="#371B45"/>
<path d="M131.517 301.739C131.939 302.212 132.383 302.758 132.725 303.294C133.075 303.835 133.358 304.391 133.547 304.954C133.649 305.233 133.72 305.517 133.77 305.801C133.826 306.102 133.877 306.436 133.9 306.746C133.959 307.376 133.925 307.987 133.822 308.553C133.61 309.689 133.016 310.61 132.088 311.329C131.16 312.052 129.942 312.554 128.656 312.944L128.638 312.949C127.982 313.148 127.611 313.842 127.81 314.498C127.996 315.111 128.618 315.474 129.233 315.358C130.765 315.064 132.34 314.533 133.74 313.487C134.433 312.964 135.064 312.297 135.537 311.518C136.015 310.741 136.306 309.859 136.44 308.992C136.576 308.122 136.54 307.262 136.423 306.448C136.364 306.036 136.289 305.651 136.179 305.243C136.06 304.82 135.908 304.409 135.72 304.02C135.334 303.245 134.812 302.57 134.216 302.006C133.598 301.449 132.96 301 132.162 300.679C131.842 300.549 131.477 300.704 131.348 301.024C131.256 301.252 131.308 301.503 131.46 301.675L131.517 301.739Z" fill="#371B45"/>
<path d="M82.4768 309.812C76.9635 316.642 58.6883 314.372 51.9184 314.017C43.8194 313.595 42.6269 306.701 44.1869 302.486C46.1272 297.255 51.1192 295.499 51.1192 295.499C47.5116 287.917 44.2425 275.022 42.2931 263.148C40.6733 253.297 39.9639 244.146 40.7208 239.312L89.1309 252.742C81.8571 279.163 89.1527 301.538 82.4768 309.812Z" fill="#777781"/>
<path d="M82.4768 309.812C76.9635 316.642 58.6883 314.372 51.9184 314.017C43.8194 313.595 42.6269 306.701 44.1869 302.486C44.1869 302.486 43.8535 307.684 56.6154 307.684C69.3811 307.684 76.9549 307.457 78.6303 297.793C80.8442 285.049 75.1642 281.326 68.6251 277.808C63.6075 275.103 50.5337 271.458 42.2931 263.148C40.6733 253.297 39.9639 244.146 40.7208 239.312L89.1309 252.742C81.8571 279.163 89.1527 301.538 82.4768 309.812Z" fill="#626272"/>
<path d="M64.9683 316.807C72.4954 316.807 80.4205 315.755 84.1367 311.149C87.8675 306.526 87.8025 298.721 87.7203 288.839C87.638 278.921 87.5354 266.578 91.1895 253.306L87.069 252.172C83.2566 266.017 83.3619 278.691 83.4468 288.875C83.5219 297.902 83.5811 305.032 80.8105 308.466C76.6477 313.625 61.9587 312.576 54.8994 312.07C53.8078 311.992 52.8373 311.923 52.0286 311.881C49.5098 311.748 47.713 310.891 46.6886 309.333C45.4678 307.476 45.5586 304.927 46.1901 303.225C47.7385 299.05 51.7889 297.523 51.8292 297.509C52.4008 297.307 52.8599 296.873 53.0926 296.314C53.3253 295.754 53.3094 295.122 53.0493 294.575C46.4848 280.775 41.2742 249.576 42.8297 239.638L38.6072 238.977C36.8678 250.091 42.2112 280 48.3341 294.498C46.3982 295.656 43.6065 297.901 42.183 301.738C41.2061 304.372 40.9385 308.367 43.1174 311.681C44.3636 313.576 46.8824 315.89 51.8048 316.149C52.5905 316.19 53.5335 316.258 54.5947 316.334C57.5746 316.546 61.2226 316.807 64.9683 316.807Z" fill="#371B45"/>
<path d="M64.3925 301.006C63.5946 301.329 62.9565 301.777 62.3389 302.333C61.7435 302.898 61.2213 303.573 60.8349 304.347C60.6469 304.737 60.4947 305.147 60.3755 305.571C60.266 305.978 60.1904 306.363 60.1314 306.776C60.0147 307.589 59.9793 308.449 60.1143 309.32C60.2494 310.186 60.5396 311.069 61.0178 311.846C61.4909 312.625 62.1214 313.292 62.815 313.815C64.2147 314.86 65.7901 315.391 67.3218 315.686C67.9954 315.815 68.6463 315.374 68.7763 314.701C68.8972 314.072 68.5207 313.462 67.9223 313.279L67.8984 313.271C66.6119 312.881 65.3947 312.379 64.4665 311.658C63.5386 310.937 62.9445 310.016 62.7325 308.881C62.6295 308.314 62.5958 307.704 62.6543 307.073C62.677 306.763 62.7283 306.429 62.7847 306.129C62.8347 305.845 62.9056 305.561 63.0073 305.282C63.1971 304.719 63.48 304.163 63.8296 303.622C64.1711 303.086 64.6152 302.54 65.0374 302.066L65.0943 302.003C65.3242 301.745 65.3016 301.35 65.043 301.119C64.8601 300.956 64.6062 300.92 64.3925 301.006Z" fill="#371B45"/>
<path d="M53.3984 300.678C52.6004 301 51.9623 301.449 51.3443 302.005C50.7494 302.57 50.2271 303.245 49.8408 304.019C49.6527 304.409 49.5006 304.819 49.3813 305.243C49.2719 305.65 49.1963 306.035 49.1373 306.448C49.0206 307.261 48.9851 308.121 49.1202 308.992C49.2548 309.858 49.5454 310.741 50.0237 311.518C50.4968 312.297 51.1272 312.963 51.8204 313.487C53.2206 314.532 54.7959 315.063 56.3277 315.358C57.0013 315.487 57.6522 315.046 57.7821 314.372C57.9031 313.743 57.5265 313.134 56.9282 312.951L56.9042 312.943C55.6178 312.553 54.4006 312.051 53.4723 311.329C52.5444 310.609 51.9504 309.688 51.7384 308.553C51.6354 307.986 51.6016 307.376 51.6602 306.745C51.6828 306.435 51.7341 306.101 51.7905 305.8C51.8405 305.517 51.9115 305.233 52.0132 304.954C52.203 304.391 52.4859 303.835 52.8355 303.294C53.177 302.758 53.621 302.212 54.0433 301.738L54.1001 301.675C54.3301 301.417 54.3074 301.022 54.0489 300.791C53.8659 300.627 53.6121 300.592 53.3984 300.678Z" fill="#371B45"/>
<path d="M48.5701 256.801C60.7225 270.269 85.5847 272.429 92.7799 272.429C99.975 272.429 124.837 270.269 136.99 256.801C156.992 234.633 143.724 204.629 134.086 188.767C130.018 182.071 126.595 177.896 126.595 177.896L92.7799 159.219L58.9647 177.896C58.9647 177.896 55.5417 182.071 51.4738 188.767C41.8367 204.629 28.5679 234.633 48.5701 256.801Z" fill="white"/>
<path d="M48.573 256.793C60.7254 270.263 85.5871 272.425 92.781 272.425C99.9744 272.425 124.837 270.263 136.989 256.793C146.465 246.289 148.479 234.031 146.941 222.344C145.879 229.658 142.871 236.851 136.989 243.372C124.837 256.837 99.9744 258.999 92.781 258.999C85.5871 258.999 60.7254 256.837 48.573 243.372C42.6912 236.851 39.6833 229.658 38.6212 222.344C37.0834 234.031 39.0969 246.289 48.573 256.793Z" fill="#D3DDEA"/>
<path d="M51.4735 188.767C63.14 192.68 77.3892 194.977 92.7795 194.977C108.17 194.977 122.419 192.68 134.086 188.767C130.017 182.072 126.595 177.896 126.595 177.896C126.595 177.896 111.727 159.219 92.7795 159.219C73.8324 159.219 58.9644 177.896 58.9644 177.896C58.9644 177.896 55.5419 182.072 51.4735 188.767Z" fill="#777781"/>
<path d="M62.6833 173.87C71.2738 176.733 81.6295 178.404 92.7801 178.404C103.931 178.404 114.286 176.733 122.877 173.87C117.317 168.377 106.046 159.219 92.7801 159.219C79.5139 159.219 68.2436 168.377 62.6833 173.87Z" fill="#626272"/>
<path d="M137.625 257.374C138.277 256.725 138.92 256.062 139.56 255.393C140.16 254.69 140.765 253.985 141.355 253.267C141.895 252.513 142.454 251.765 142.98 250.995C143.462 250.197 143.973 249.412 144.432 248.597C146.235 245.316 147.551 241.745 148.314 238.066C149.083 234.386 149.322 230.611 149.114 226.891C148.902 223.169 148.333 219.491 147.488 215.895C146.676 212.29 145.554 208.775 144.276 205.33C143.641 203.605 142.91 201.921 142.175 200.241C141.409 198.575 140.615 196.922 139.743 195.312C138.028 192.078 136.109 188.962 134.047 185.952C131.97 182.944 129.754 180.065 127.256 177.354C126.936 177.007 126.395 176.984 126.047 177.304C125.732 177.595 125.685 178.067 125.916 178.412L125.934 178.438C126.916 179.899 127.903 181.407 128.834 182.926C129.778 184.44 130.7 185.968 131.593 187.509C133.387 190.588 135.079 193.719 136.645 196.903C138.212 200.086 139.692 203.305 140.968 206.6C142.26 209.887 143.361 213.248 144.158 216.67C145.732 223.513 146.127 230.606 144.871 237.394C144.255 240.786 143.247 244.108 141.798 247.261C140.366 250.422 138.51 253.411 136.355 256.228L136.342 256.246C136.054 256.621 136.126 257.159 136.501 257.446C136.846 257.709 137.326 257.671 137.625 257.374Z" fill="#371B45"/>
<path d="M73.6733 270.826C76.709 271.909 79.8499 272.677 83.0272 273.218C86.2116 273.765 89.4094 274.091 92.7016 274.134C95.9989 274.106 99.1958 273.78 102.382 273.24C105.56 272.706 108.702 271.941 111.738 270.861C112.186 270.702 112.42 270.21 112.261 269.763C112.123 269.377 111.739 269.151 111.349 269.197L111.344 269.198C108.207 269.57 105.102 269.948 101.99 270.222C100.434 270.343 98.8821 270.49 97.3289 270.562C95.7796 270.657 94.2244 270.728 92.708 270.716C91.189 270.726 89.6333 270.646 88.0841 270.553C86.5305 270.478 84.9791 270.331 83.4229 270.205C80.3107 269.927 77.2074 269.544 74.072 269.163L74.0661 269.163C73.5942 269.106 73.166 269.442 73.1091 269.913C73.0596 270.319 73.3032 270.694 73.6733 270.826Z" fill="#371B45"/>
<path d="M58.3038 177.351C55.7933 180.052 53.5764 182.931 51.4942 185.936C50.4689 187.445 49.4572 188.967 48.52 190.536C48.0404 191.314 47.5857 192.107 47.1237 192.896C46.6822 193.697 46.2292 194.491 45.806 195.304C44.0845 198.535 42.5793 201.888 41.286 205.328C40.0072 208.773 38.8836 212.287 38.0724 215.893C37.2279 219.488 36.6573 223.165 36.4458 226.888C36.2398 230.607 36.4799 234.384 37.2587 238.06C38.0305 241.737 39.3435 245.305 41.1488 248.583C41.6074 249.399 42.116 250.184 42.5963 250.982C43.1259 251.75 43.6785 252.501 44.2187 253.254L46.0078 255.384C46.6454 256.055 47.2869 256.719 47.9357 257.371C48.2691 257.705 48.811 257.706 49.1457 257.372C49.4547 257.065 49.4795 256.579 49.2192 256.243L49.2051 256.225C47.0382 253.419 45.1803 250.428 43.7417 247.268C42.295 244.112 41.2847 240.789 40.6765 237.393C39.443 230.6 39.8264 223.511 41.4027 216.667C42.2002 213.244 43.3002 209.883 44.5922 206.597C45.2338 204.951 45.9257 203.323 46.6454 201.706C47.3938 200.102 48.1272 198.489 48.9269 196.905C50.5009 193.726 52.1904 190.595 53.9867 187.519C54.877 185.976 55.7997 184.448 56.7395 182.931L58.1632 180.662L59.6261 178.435L59.6467 178.404C59.9061 178.009 59.7958 177.478 59.4009 177.218C59.0466 176.986 58.5829 177.051 58.3038 177.351Z" fill="#371B45"/>
<path d="M41.3338 57.409C53.8594 45.3418 52.4883 36.1023 48.7388 30.2025C44.0029 22.75 36.0662 14.4751 24.6241 15.8749C8.32005 17.8695 -2.42072 32.0271 3.22169 47.3506C6.59338 56.5076 12.8388 61.5462 18.5612 64.317C24.9878 67.4289 32.0518 66.3515 41.3338 57.409Z" fill="#777781"/>
<g opacity="0.3">
<path d="M52.6953 37.6002C47.9235 29.3766 39.2458 19.0703 26.2557 20.6615C12.6668 22.3275 2.76369 32.0495 2.25381 44.0398C-0.834942 30.0403 9.50365 17.7253 24.6243 15.8747C40.2967 13.9591 49.3912 30.1874 52.6953 37.6002Z" fill="white"/>
</g>
<path d="M53.3069 36.8749C52.703 34.5439 51.7499 32.3296 50.6088 30.2097C49.4753 28.0821 48.0722 26.0951 46.5182 24.2175C44.9685 22.3361 43.2273 20.5808 41.2776 19.0358C40.3005 18.2652 39.2628 17.5617 38.1824 16.9167C37.0857 16.2974 35.9561 15.717 34.7577 15.2836C32.3793 14.3835 29.8154 13.9113 27.2681 13.8984C26.6326 13.9177 25.9932 13.904 25.3632 13.9784L24.4157 14.0638L23.4985 14.1985C22.2741 14.3694 21.065 14.6468 19.8679 14.9627C17.477 15.6166 15.1648 16.5735 12.9945 17.7929C10.8213 19.0101 8.82748 20.5513 7.04697 22.3101C3.52485 25.8575 1.00325 30.5208 0.277538 35.5333C-0.132328 38.0264 -0.064785 40.5779 0.325848 43.0508C0.698536 45.5345 1.55116 47.9116 2.5239 50.1469C3.55433 52.3792 4.78224 54.5338 6.27426 56.51C7.78551 58.4692 9.52073 60.2566 11.4414 61.8102C15.2845 64.9315 19.823 67.0702 24.5409 68.3268C25.4534 68.57 26.3903 68.0272 26.633 67.1147C26.8762 66.2026 26.3338 65.2657 25.4214 65.023L25.4098 65.02C21.1086 63.8733 17.0103 61.9316 13.5908 59.1518C11.8795 57.7662 10.3409 56.1805 8.99546 54.4402C7.67012 52.6823 6.5747 50.7577 5.6447 48.7511C4.75958 46.7055 4.0202 44.6472 3.70008 42.4974C3.36501 40.3608 3.30433 38.1802 3.65607 36.0573C4.28861 31.7936 6.45462 27.8363 9.51431 24.7753C12.5988 21.7143 16.5731 19.5764 20.8111 18.4541C22.9335 17.9151 25.1474 17.5424 27.2489 17.5446C28.3092 17.5664 29.3692 17.6407 30.4077 17.8519C31.451 18.0314 32.4695 18.3404 33.4666 18.7088C37.4712 20.1902 40.9724 23.058 43.8611 26.4494C46.7422 29.8827 49.1245 33.7306 51.7499 37.5814C52.02 37.9776 52.5598 38.0798 52.956 37.8097C53.2659 37.5982 53.3949 37.2191 53.3069 36.8749Z" fill="#371B45"/>
<path d="M145.044 57.409C132.518 45.3418 133.889 36.1023 137.639 30.2025C142.375 22.75 150.311 14.4751 161.753 15.8749C178.057 17.8695 188.798 32.0271 183.156 47.3506C179.784 56.5076 173.538 61.5462 167.816 64.317C161.39 67.4289 154.325 66.3515 145.044 57.409Z" fill="#777781"/>
<g opacity="0.3">
<path d="M133.684 37.6002C138.455 29.3766 147.133 19.0703 160.123 20.6615C173.712 22.3275 183.615 32.0495 184.125 44.0398C187.214 30.0403 176.875 17.7253 161.755 15.8747C146.082 13.9591 136.988 30.1874 133.684 37.6002Z" fill="white"/>
</g>
<path d="M134.627 37.5814C137.253 33.7306 139.635 29.8823 142.515 26.4494C145.404 23.058 148.905 20.1902 152.91 18.7084C153.907 18.34 154.926 18.0314 155.97 17.8514C157.007 17.6403 158.068 17.5659 159.128 17.5446C161.229 17.542 163.444 17.9151 165.566 18.4541C169.804 19.5764 173.778 21.7143 176.863 24.7753C179.922 27.8359 182.088 31.7936 182.721 36.0573C183.073 38.1798 183.012 40.3604 182.677 42.497C182.357 44.6472 181.617 46.7055 180.732 48.7506C179.802 50.7577 178.707 52.6823 177.381 54.4402C176.036 56.1805 174.497 57.7662 172.786 59.1514C169.367 61.9316 165.268 63.8733 160.967 65.0196L160.956 65.023C160.043 65.2662 159.501 66.2026 159.744 67.1151C159.987 68.0272 160.923 68.57 161.836 68.3268C166.554 67.0702 171.092 64.9315 174.935 61.8102C176.856 60.2562 178.591 58.4692 180.102 56.5101C181.595 54.5338 182.823 52.3792 183.853 50.1469C184.825 47.9112 185.678 45.534 186.051 43.0504C186.442 40.5779 186.509 38.0264 186.1 35.5333C185.374 30.5208 182.852 25.857 179.33 22.3101C177.55 20.5509 175.556 19.0101 173.383 17.7929C171.212 16.5735 168.899 15.6162 166.509 14.9627C165.312 14.6468 164.103 14.369 162.879 14.1985L161.961 14.0638L161.013 13.9784C160.384 13.904 159.745 13.9172 159.108 13.8984C156.562 13.9108 153.998 14.3835 151.62 15.2836C150.421 15.717 149.291 16.297 148.194 16.9163C147.114 17.5617 146.076 18.2652 145.099 19.0358C143.15 20.5808 141.408 22.3361 139.859 24.2171C138.304 26.0951 136.902 28.0817 135.768 30.2092C134.627 32.3296 133.674 34.5439 133.07 36.8749C132.95 37.3387 133.229 37.8122 133.692 37.9323C134.056 38.0269 134.426 37.8747 134.627 37.5814Z" fill="#371B45"/>
<path d="M67.69 166.205C45.2823 162.922 24.2889 159.781 15.0287 140.354C8.18573 125.999 13.0994 111.45 13.1007 111.428C13.2785 110.571 9.66661 50.7325 55.8308 29.7563C68.8461 23.8419 81.0797 22.2546 93.1441 22.1016C105.208 22.2443 117.443 23.821 130.464 29.7238C176.646 50.6599 173.088 110.501 173.267 111.359C173.268 111.38 178.194 125.925 171.364 140.285C162.121 159.72 141.13 162.881 118.726 166.183L67.69 166.205Z" fill="white"/>
<path d="M15.0288 140.354C24.2895 159.783 45.2846 162.923 67.6893 166.207C67.6893 166.207 80.1195 168.966 93.8191 168.966C107.519 168.966 118.726 166.185 118.726 166.185C141.13 162.88 162.12 159.722 171.365 140.287C175.219 132.183 175.329 124.021 174.693 118.445C174.239 122.056 173.248 125.938 171.408 129.807C164.448 144.441 150.7 152.183 134.77 156.526C126.555 158.766 118.064 159.828 109.55 159.832L93.8657 160.467L76.5619 159.846C67.9859 159.849 59.4291 158.794 51.1617 156.513C35.4341 152.174 22.0179 144.446 15.0724 129.875C13.1585 125.862 12.1657 121.831 11.7285 118.109C11.0451 123.694 11.0741 132.055 15.0288 140.354Z" fill="#D3DDEA"/>
<path d="M104.495 169.167C108.918 169.009 113.297 168.559 117.661 168.011C122.02 167.456 126.383 166.785 130.752 166.042C135.118 165.283 139.49 164.4 143.81 163.181C148.125 161.964 152.401 160.404 156.427 158.233C160.446 156.069 164.198 153.251 167.257 149.768C168.789 148.035 170.154 146.153 171.325 144.165C172.496 142.181 173.504 140.101 174.301 137.929C175.1 135.763 175.704 133.53 176.12 131.268C176.519 129.003 176.755 126.712 176.793 124.422C176.84 122.131 176.718 119.842 176.429 117.574C176.285 116.439 176.101 115.309 175.873 114.184C175.756 113.621 175.634 113.06 175.492 112.498L175.271 111.653L175.149 111.227L175.084 111.011L175.05 110.9L175.033 110.845C175.025 110.818 175.066 110.953 175.073 111.002C175.087 111.072 175.095 111.142 175.099 111.212L175.066 110.982C175.082 111.044 175.092 111.109 175.096 111.173C175.1 111.277 175.097 111.177 175.098 111.188L175.098 111.093L175.1 110.842L175.106 110.31L175.113 109.233C175.115 108.512 175.11 107.792 175.098 107.072C175.074 105.631 175.019 104.193 174.941 102.756C174.783 99.882 174.528 97.015 174.17 94.1595C173.458 88.4491 172.351 82.7809 170.789 77.2252C169.226 71.672 167.205 66.2286 164.63 61.0336C162.066 55.8373 158.942 50.8897 155.227 46.4025C151.521 41.9122 147.227 37.8883 142.47 34.5144C137.721 31.1371 132.493 28.412 127.101 26.3383C124.402 25.286 121.649 24.3675 118.856 23.5948C116.061 22.8285 113.227 22.2147 110.375 21.7331C104.66 20.7688 98.9195 20.3684 93.142 20.3047C87.3642 20.3812 81.6256 20.7945 75.9135 21.7719C73.0637 22.2596 70.2322 22.8798 67.44 23.6516C64.65 24.4304 61.9007 25.3548 59.2051 26.4122C53.8209 28.4975 48.6037 31.2316 43.8682 34.6161C39.122 37.9947 34.8404 42.0208 31.1473 46.5123C27.4449 51.0004 24.3335 55.9467 21.7819 61.1413C19.2189 66.3342 17.2097 71.775 15.6591 77.3248C14.1086 82.8771 13.0123 88.541 12.311 94.2467C11.9605 97.0996 11.6989 99.9628 11.5425 102.834C11.4635 104.269 11.4092 105.707 11.3827 107.145C11.3694 107.865 11.3634 108.585 11.3634 109.304L11.3686 110.381L11.3733 110.912L11.375 111.164L11.3741 111.261C11.3746 111.252 11.3724 111.348 11.3754 111.252C11.3793 111.192 11.3882 111.132 11.4036 111.075L11.3724 111.292C11.3758 111.226 11.384 111.16 11.3968 111.094C11.4028 111.049 11.4425 110.918 11.4335 110.949L11.416 111.005L11.3818 111.115L11.316 111.332L11.1938 111.759C11.1143 112.042 11.0403 112.324 10.9702 112.606C10.8271 113.169 10.7036 113.734 10.5852 114.299C10.3548 115.429 10.1689 116.563 10.0227 117.704C9.72951 119.983 9.60814 122.284 9.65173 124.587C9.69234 126.889 9.91971 129.194 10.3262 131.471C10.7454 133.747 11.3523 135.995 12.1597 138.174C12.9738 140.355 13.9834 142.45 15.1728 144.445C16.3618 146.442 17.7384 148.339 19.2996 150.072C22.411 153.555 26.2084 156.376 30.2767 158.523C32.3103 159.601 34.4096 160.532 36.5414 161.338C38.6771 162.136 40.8444 162.815 43.0241 163.41C47.3852 164.595 51.792 165.454 56.1916 166.189C64.9963 167.634 73.7539 168.794 82.65 169.191C83.1236 169.212 83.5249 168.844 83.5458 168.371C83.5642 167.955 83.2839 167.595 82.8945 167.499L82.8898 167.498C78.5697 166.43 74.2146 165.612 69.8488 164.873C65.4865 164.138 61.1074 163.509 56.7809 162.748C52.454 161.987 48.1648 161.108 43.9883 159.932C39.82 158.745 35.7512 157.28 31.9897 155.293C28.2295 153.313 24.8096 150.765 22.0106 147.641C19.2167 144.529 17.011 140.842 15.5117 136.914C14.7697 134.945 14.206 132.906 13.8102 130.829C13.4277 128.75 13.205 126.635 13.1559 124.51C13.1055 122.386 13.2136 120.253 13.479 118.14C13.6107 117.083 13.7803 116.032 13.9889 114.992C14.0957 114.472 14.2077 113.954 14.336 113.445L14.5338 112.686L14.639 112.314L14.6928 112.134L14.7197 112.046L14.7338 112.002C14.73 112.017 14.7749 111.869 14.7864 111.808C14.8044 111.726 14.8176 111.643 14.8257 111.56L14.7954 111.777C14.8133 111.676 14.8257 111.572 14.8326 111.468C14.8403 111.327 14.8351 111.379 14.8369 111.326L14.8381 111.157L14.8356 110.878L14.8291 110.346L14.821 109.297C14.8189 108.599 14.8227 107.902 14.8334 107.204C14.8552 105.808 14.9039 104.412 14.9762 103.017C15.1236 100.227 15.3578 97.4394 15.707 94.6664C16.3964 89.1197 17.4696 83.622 18.977 78.2548C20.4848 72.8888 22.4294 67.6506 24.8933 62.677C27.3461 57.7008 30.3221 52.99 33.8433 48.7339C37.3573 44.4741 41.4128 40.6732 45.9086 37.4818C50.4068 34.2806 55.3112 31.7119 60.4997 29.7096C63.0824 28.7005 65.7147 27.8196 68.3867 27.0777C71.0605 26.3425 73.774 25.7523 76.5123 25.2877C81.9803 24.3568 87.5864 23.9615 93.1433 23.8948C98.6998 23.9645 104.305 24.3633 109.772 25.2971C112.509 25.763 115.221 26.3545 117.894 27.0913C120.564 27.8342 123.194 28.7159 125.775 29.7263C130.959 31.7308 135.857 34.2998 140.348 37.4998C144.838 40.6886 148.888 44.4843 152.397 48.7386C155.914 52.9891 158.885 57.6935 161.335 62.6633C163.795 67.6309 165.738 72.8623 167.243 78.2223C168.749 83.5836 169.821 89.0748 170.51 94.6152C170.856 97.3855 171.102 100.169 171.254 102.956C171.33 104.35 171.38 105.744 171.407 107.138C171.42 107.835 171.427 108.531 171.427 109.228L171.423 110.277L171.419 110.809L171.418 111.089L171.419 111.259C171.421 111.315 171.416 111.259 171.424 111.407C171.431 111.515 171.444 111.624 171.464 111.731L171.431 111.5C171.44 111.587 171.454 111.674 171.472 111.76C171.484 111.825 171.531 111.977 171.528 111.966L171.542 112.009L171.569 112.096L171.623 112.274L171.729 112.641L171.928 113.391C172.057 113.895 172.17 114.408 172.278 114.921C172.49 115.951 172.662 116.992 172.798 118.039C173.072 120.132 173.19 122.246 173.153 124.353C173.126 126.461 172.913 128.56 172.556 130.626C172.183 132.691 171.64 134.719 170.922 136.682C170.211 138.642 169.299 140.54 168.24 142.345C167.184 144.151 165.959 145.848 164.584 147.414C161.84 150.556 158.461 153.121 154.749 155.135C151.033 157.155 147 158.649 142.859 159.829C138.714 161.012 134.455 161.889 130.159 162.648C128.01 163.027 125.851 163.374 123.685 163.709C121.519 164.041 119.345 164.364 117.176 164.741C112.84 165.489 108.52 166.338 104.243 167.476C103.784 167.599 103.511 168.07 103.633 168.529C103.738 168.924 104.102 169.181 104.495 169.167Z" fill="#371B45"/>
<path d="M60.7049 30.6461C63.5215 24.3732 49.3086 24.4454 50.766 18.67C51.8263 14.4708 69.0134 7.55763 80.8889 19.7248C80.8889 19.7248 81.2351 16.3902 80.9979 11.9791C80.7136 6.69386 81.4022 2.36731 83.6682 1.79673C88.2593 0.640617 95.498 10.3938 110.649 19.9941C116.509 23.7069 127.857 29.2323 133.139 31.0855L92.022 57.1948L60.7049 30.6461Z" fill="white"/>
<g opacity="0.4">
<path d="M52.2994 22.2583C56.5742 18.3138 70.9055 14.4818 81.224 25.053C81.224 25.053 81.5672 21.7193 81.3304 17.3077C81.0483 12.0217 81.7373 7.69639 83.9999 7.12496C88.5922 5.96928 95.8335 15.7229 110.983 25.3236C115.279 28.0431 122.523 31.7418 128.166 34.2477L133.139 31.0871C127.857 29.2326 116.51 23.7063 110.65 19.9956C95.4975 10.3954 88.2605 0.641332 83.6682 1.79659C81.4013 2.36888 80.7119 6.69415 80.9979 11.9794C81.2355 16.391 80.888 19.7255 80.888 19.7255C69.0156 7.55792 51.8255 14.4719 50.7673 18.6694C50.3801 20.2016 51.0959 21.3193 52.2994 22.2583Z" fill="white"/>
</g>
<path d="M61.486 30.9999C61.8249 30.4781 62.1061 29.8511 62.1843 29.1099C62.2617 28.3757 62.0984 27.5559 61.7424 26.9088C61.4005 26.2464 60.9423 25.7267 60.4713 25.2933C59.9991 24.862 59.517 24.4915 59.0246 24.1773C58.048 23.5371 57.0783 23.0217 56.1457 22.5378C55.2234 22.0506 54.3233 21.5847 53.6185 21.0646C53.2664 20.8086 52.9698 20.5406 52.7745 20.2953C52.5796 20.0457 52.4915 19.8487 52.4689 19.6726C52.4565 19.5815 52.4522 19.4871 52.4659 19.3738C52.4774 19.2759 52.5261 19.0742 52.5334 19.0849C52.5761 18.9746 52.7787 18.684 53.0544 18.4271C53.6079 17.8882 54.399 17.3697 55.2285 16.9402C56.0645 16.5055 56.9676 16.144 57.8946 15.8461C59.7529 15.2571 61.7091 14.9024 63.6704 14.8088C65.6321 14.7203 67.6006 14.8814 69.5038 15.3093C71.4031 15.7486 73.2469 16.4286 74.9539 17.3839C76.6618 18.3365 78.2363 19.5401 79.6663 20.9219L79.6667 20.9223L79.7005 20.956C80.3698 21.6164 81.4468 21.6095 82.1071 20.9411C82.3939 20.6509 82.555 20.2816 82.5905 19.9051C82.6734 19.0255 82.7162 18.228 82.7486 17.3937C82.7794 16.5684 82.7931 15.7439 82.7914 14.9195C82.7905 14.095 82.7679 13.2706 82.7324 12.4457L82.6777 11.2541C82.6619 10.8694 82.6542 10.4865 82.6504 10.1044C82.641 8.58286 82.7174 7.05534 83.0047 5.69109C83.1453 5.01751 83.3547 4.3747 83.6098 3.94944C83.7342 3.73959 83.8633 3.59512 83.9492 3.53058C83.9919 3.50024 84.0236 3.48272 84.0513 3.47075C84.0736 3.46647 84.0655 3.46391 84.1103 3.45408C84.1522 3.4451 84.1949 3.43485 84.2407 3.431C84.5916 3.37886 85.1228 3.47588 85.7117 3.72292C86.2998 3.96525 86.9243 4.31957 87.5435 4.72132C88.7864 5.52868 90.0233 6.50015 91.2537 7.4883C93.7159 9.4804 96.1828 11.5691 98.7232 13.5719C101.262 15.5807 103.87 17.5232 106.559 19.3533C107.91 20.2696 109.253 21.1556 110.666 22.016C112.071 22.8674 113.487 23.6705 114.911 24.447C117.765 25.9925 120.647 27.4555 123.572 28.842C125.033 29.5391 126.507 30.2105 127.997 30.8619C129.489 31.5124 130.989 32.1398 132.574 32.7022C133.464 33.0181 134.441 32.5522 134.757 31.6624C135.072 30.7725 134.607 29.7955 133.717 29.4796H133.717L133.706 29.4758C132.269 28.9663 130.807 28.3577 129.362 27.7269C127.915 27.0943 126.471 26.437 125.038 25.7532C122.169 24.3936 119.331 22.9524 116.546 21.4441C115.156 20.6868 113.783 19.9063 112.445 19.0964C111.12 18.2899 109.785 17.4112 108.484 16.5269C105.872 14.7498 103.333 12.8598 100.844 10.8895C98.3484 8.92307 95.9208 6.86686 93.3988 4.82518C92.1294 3.8084 90.8443 2.79076 89.3988 1.8492C88.6727 1.38163 87.9034 0.930294 87.0089 0.559312C86.1246 0.200725 85.0455 -0.115121 83.7953 0.0408793C83.6419 0.0592574 83.4876 0.0891719 83.3346 0.124219C83.1842 0.157128 82.985 0.219106 82.8187 0.281506C82.4726 0.416137 82.1554 0.600772 81.8776 0.810198C81.3255 1.2346 80.9519 1.73295 80.6664 2.2095C80.1082 3.17157 79.8565 4.08877 79.6603 4.97776C79.2919 6.7553 79.2257 8.45165 79.2312 10.1322C79.2355 10.5515 79.244 10.9699 79.2611 11.3862L79.3167 12.5966C79.35 13.3731 79.3714 14.1514 79.3723 14.9302C79.374 15.7089 79.3611 16.4876 79.3321 17.2642C79.303 18.0318 79.2573 18.8353 79.1898 19.5516L82.1135 18.5344L82.1131 18.534C79.0261 15.19 74.8718 12.685 70.3582 11.6319C68.1063 11.0951 65.7847 10.8912 63.487 11.0101C61.1894 11.1267 58.9101 11.5323 56.7163 12.2752C55.6188 12.6466 54.5409 13.0941 53.4921 13.6578C52.4458 14.2322 51.4171 14.8754 50.4584 15.8465C50.2195 16.0901 49.9853 16.3598 49.7622 16.6739C49.5404 16.9859 49.325 17.3394 49.1562 17.789C48.9745 18.2989 48.9314 18.6271 48.8844 19.058C48.851 19.476 48.8737 19.9187 48.9604 20.3513C49.1297 21.2291 49.581 21.9933 50.0661 22.5592C50.5576 23.1311 51.0867 23.5525 51.6043 23.9111C52.6454 24.6193 53.6604 25.1133 54.6451 25.5749C55.623 26.037 56.5846 26.4319 57.451 26.867C57.8796 27.0901 58.2921 27.3033 58.6519 27.5401C59.0045 27.7799 59.3148 28.0222 59.5324 28.2714C59.7486 28.5244 59.8965 28.7685 59.9653 29.101C60.0427 29.4305 60.014 29.8481 59.9268 30.2998L59.9136 30.3652C59.823 30.8332 60.129 31.2867 60.5974 31.3773C60.953 31.4461 61.2996 31.2858 61.486 30.9999Z" fill="#371B45"/>
<path d="M122.203 130.873C117.413 129.87 106.381 125.15 106.581 107.996C106.776 91.1623 113.295 85.7091 124.011 85.4685C134.728 85.2279 149.637 90.7554 157.781 100.475C163.583 107.4 164.984 119.063 162.411 123.903C157.324 133.468 126.994 131.875 122.203 130.873Z" fill="#777781"/>
<path d="M65.06 130.873C69.8502 129.87 80.882 125.15 80.6829 107.996C80.4876 91.1623 73.9686 85.7091 63.2522 85.4685C52.5354 85.2279 37.6267 90.7554 29.4828 100.475C23.6801 107.4 22.2791 119.063 24.8528 123.903C29.9388 133.468 60.2694 131.875 65.06 130.873Z" fill="#777781"/>
<g opacity="0.5">
<path d="M89.6057 118.593C89.6057 119.994 92.032 120.623 93.818 120.623C95.6045 120.623 98.0312 119.994 98.0312 118.593C98.0312 117.875 93.8172 117.875 93.8172 117.875C93.8172 117.875 89.6057 117.875 89.6057 118.593Z" fill="white"/>
</g>
<path d="M80.6807 126.984C82.992 129.895 83.6776 133.24 84.5123 136.183C85.4162 139.373 86.4924 142.102 89.9756 143.327C91.795 143.97 93.8072 143.97 95.6266 143.327C99.0944 142.107 100.175 139.399 101.075 136.226C101.919 133.272 102.599 129.912 104.922 126.984H80.6807Z" fill="#371B45"/>
<path d="M84.512 136.185C85.4159 139.374 86.4921 142.103 89.9753 143.329C91.7947 143.971 93.8069 143.971 95.6263 143.329C99.0941 142.109 100.175 139.401 101.074 136.228C99.9822 135.698 98.7569 135.398 97.467 135.398C95.7122 135.398 94.0851 135.949 92.7478 136.886C91.4096 135.949 89.7774 135.398 88.0221 135.398C86.7648 135.398 85.5766 135.682 84.512 136.185Z" fill="#EE7A7C"/>
<path d="M92.802 145.414C93.9398 145.414 95.0774 145.223 96.1603 144.842C100.848 143.192 101.917 139.265 102.951 135.467C103.646 132.911 104.366 130.268 106.177 127.981C106.727 127.286 106.609 126.278 105.916 125.729C105.221 125.18 104.214 125.297 103.664 125.991C101.446 128.793 100.602 131.891 99.8576 134.625C98.7968 138.522 98.0525 140.778 95.0962 141.819C93.6171 142.339 91.9876 142.339 90.5074 141.819C87.5511 140.778 86.8068 138.522 85.746 134.625C85.0018 131.892 84.1584 128.793 81.9397 125.991C81.3903 125.297 80.3824 125.18 79.6882 125.729C78.9944 126.279 78.8773 127.286 79.4266 127.981C81.2377 130.268 81.9571 132.911 82.6528 135.467C83.6869 139.265 84.7561 143.192 89.4432 144.842C90.5262 145.223 91.6644 145.414 92.802 145.414Z" fill="#371B45"/>
<path d="M78.899 124.881C79.1152 128.552 83.0015 132.078 87.0173 131.051C92.9217 129.541 92.7913 121.569 92.7913 121.569H92.793H92.7952C92.7952 121.569 92.6652 129.541 98.5692 131.051C102.585 132.078 106.472 128.551 106.688 124.881C106.688 124.881 105.35 114.984 92.7939 114.984C80.2385 114.984 78.899 124.881 78.899 124.881Z" fill="white"/>
<path d="M79.0045 125.679C79.6814 129.039 83.2938 132.002 87.0189 131.053C92.9216 129.542 92.7921 121.571 92.7921 121.571L92.7951 121.571C92.7951 121.571 92.784 122.21 92.9028 123.156C93.2036 125.563 94.3345 129.969 98.57 131.053C102.319 132.013 105.957 128.996 106.598 125.604C104.762 126.828 102.5 127.392 100.206 126.805C93.5131 125.092 92.8216 116.95 92.7545 114.986C92.7481 114.984 92.7421 114.984 92.7361 114.985C92.6673 116.949 91.9783 125.094 85.282 126.807C83.0335 127.381 80.8157 126.852 79.0045 125.679Z" fill="#D3DDEA"/>
<path d="M78.2593 124.916C78.1674 126.02 78.4165 127.145 78.8734 128.168C79.341 129.19 80.0231 130.124 80.8899 130.891C81.7493 131.665 82.8106 132.258 83.9914 132.595C85.1706 132.921 86.4887 132.934 87.699 132.638C88.8829 132.353 90.0424 131.753 90.969 130.921C91.899 130.09 92.5884 129.071 93.082 128.029C93.5799 126.983 93.9086 125.913 94.1351 124.841C94.245 124.304 94.3304 123.768 94.392 123.228C94.4236 122.958 94.4458 122.686 94.4642 122.413C94.4809 122.128 94.4933 121.887 94.4911 121.539L92.7914 123.266H92.7931H92.7953L91.0955 121.539C91.078 121.887 91.0754 122.129 91.0771 122.416C91.084 122.691 91.0968 122.964 91.1182 123.237C91.1583 123.782 91.2383 124.323 91.3391 124.865C91.5601 125.946 91.8845 127.032 92.4161 128.073C92.9273 129.119 93.6654 130.114 94.6018 130.938C95.5459 131.756 96.708 132.342 97.8885 132.637C99.0971 132.937 100.416 132.928 101.598 132.606C102.78 132.27 103.846 131.68 104.707 130.903C105.576 130.136 106.259 129.199 106.726 128.175C107.181 127.148 107.428 126.02 107.327 124.916C107.295 124.559 106.979 124.296 106.623 124.329C106.344 124.354 106.121 124.554 106.055 124.812L106.048 124.84C105.61 126.543 104.45 127.935 103.083 128.777C102.391 129.186 101.659 129.475 100.93 129.555C100.202 129.66 99.513 129.57 98.8407 129.337C97.4384 128.866 96.4473 127.839 95.7413 126.414C95.3929 125.708 95.122 124.914 94.9194 124.087C94.8121 123.674 94.733 123.249 94.6599 122.823C94.6219 122.61 94.5937 122.396 94.5651 122.183C94.5352 121.982 94.5099 121.735 94.4946 121.594L94.3048 119.867H92.7953H92.7931H92.7914L91.0977 119.859L91.0917 121.594C91.0912 121.735 91.081 121.984 91.066 122.186C91.0494 122.4 91.0305 122.616 91.0028 122.832C90.951 123.263 90.8771 123.692 90.7792 124.111C90.5822 124.947 90.316 125.756 89.9335 126.459C89.168 127.885 88.1337 128.849 86.7455 129.336C86.075 129.574 85.3847 129.668 84.6543 129.567C83.9239 129.487 83.1866 129.202 82.4938 128.791C81.1219 127.948 79.9611 126.546 79.5389 124.841L79.5325 124.814C79.4466 124.467 79.0957 124.256 78.7491 124.342C78.4725 124.41 78.2819 124.648 78.2593 124.916Z" fill="#371B45"/>
<path d="M83.5356 115.642C83.5378 117.722 86.2517 119.556 88.7429 120.802C91.3483 122.105 94.2661 122.102 96.8693 120.794C99.358 119.544 102.069 117.704 102.066 115.625C102.061 109.353 83.5296 109.37 83.5356 115.642Z" fill="#371B45"/>
<g opacity="0.5">
<path d="M89.1254 114.407C89.1258 115.006 90.202 115.535 91.1893 115.894C92.2223 116.269 93.3792 116.268 94.4114 115.891C95.3986 115.53 96.4731 114.999 96.4727 114.399C96.4709 112.591 89.1233 112.598 89.1254 114.407Z" fill="white"/>
</g>
<path d="M145.273 69.1839C146.306 67.5718 139.443 53.1684 126.534 57.4352C121.884 58.9717 121.45 63.5076 125.057 64.4723C128.493 65.3912 130.039 64.6462 135.365 66.5152C138.379 67.5731 144.24 70.7956 145.273 69.1839Z" fill="#371B45"/>
<path d="M42.474 69.2712C41.4385 67.6607 48.2754 53.2454 61.1925 57.4895C65.845 59.0179 66.2869 63.5526 62.6819 64.5236C59.247 65.4489 57.6998 64.7066 52.3771 66.585C49.3653 67.6483 43.5096 70.8816 42.474 69.2712Z" fill="#371B45"/>
<path d="M21.6062 232.145C21.2228 233.406 21.0335 234.609 20.9343 235.879C20.8463 237.14 20.8741 238.438 21.1703 239.768C21.3199 240.432 21.5412 241.103 21.8759 241.758C22.2088 242.41 22.6657 243.044 23.2487 243.577C23.8291 244.11 24.5287 244.535 25.2574 244.806C25.9878 245.078 26.731 245.215 27.4593 245.283C28.4013 245.369 29.2356 244.676 29.3227 243.734C29.4095 242.792 28.7163 241.958 27.7743 241.871C27.7089 241.865 27.6448 241.862 27.5807 241.864L27.5568 241.865C27.0995 241.877 26.6592 241.851 26.2562 241.761C25.854 241.668 25.4967 241.508 25.1664 241.281C24.5077 240.832 23.9795 240.037 23.6397 239.076C23.2948 238.116 23.1247 237.021 23.0709 235.912C23.0192 234.81 23.0713 233.634 23.2572 232.59L23.2653 232.543C23.3478 232.079 23.0384 231.635 22.5738 231.552C22.1431 231.476 21.7303 231.737 21.6062 232.145Z" fill="#371B45"/>
<path d="M15.5315 228.13C15.0422 229.278 14.7216 230.493 14.5785 231.75C14.4336 233.005 14.4789 234.302 14.737 235.569C14.9917 236.838 15.458 238.067 16.0726 239.209C16.6829 240.361 17.4873 241.371 18.3309 242.338C18.9528 243.052 20.0358 243.127 20.7495 242.505C21.4637 241.883 21.5381 240.8 20.9158 240.086C20.873 240.037 20.8282 239.99 20.7807 239.947L20.7141 239.887C19.9503 239.196 19.1998 238.473 18.6173 237.636C18.0292 236.805 17.5458 235.901 17.2197 234.929C16.5624 232.993 16.5483 230.78 17.1377 228.716L17.1419 228.7C17.2714 228.245 17.0082 227.772 16.5538 227.642C16.1341 227.523 15.6982 227.738 15.5315 228.13Z" fill="#371B45"/>
<path d="M126.082 121.084C119.698 121.084 114.522 114.489 114.522 106.354C114.522 98.2196 119.698 91.625 126.082 91.625C132.467 91.625 137.643 98.2196 137.643 106.354C137.643 114.489 132.467 121.084 126.082 121.084Z" fill="#371B45"/>
<path d="M120.882 106.092C119.175 105.487 118.508 102.973 119.393 100.477C120.277 97.9814 122.378 96.4483 124.085 97.0532C125.792 97.6581 126.459 100.172 125.574 102.668C124.69 105.164 122.589 106.697 120.882 106.092Z" fill="white"/>
<g opacity="0.67">
<path d="M123.141 115.957C122.678 114.471 123.859 112.781 125.781 112.182C127.702 111.582 129.635 112.301 130.098 113.787C130.562 115.272 129.38 116.962 127.459 117.562C125.538 118.161 123.605 117.443 123.141 115.957Z" fill="white"/>
</g>
<path d="M61.2932 121.084C54.9087 121.084 49.733 114.489 49.733 106.354C49.733 98.2196 54.9087 91.625 61.2932 91.625C67.6778 91.625 72.8535 98.2196 72.8535 106.354C72.8535 114.489 67.6778 121.084 61.2932 121.084Z" fill="#371B45"/>
<path d="M61.7892 102.663C60.9048 100.167 61.5717 97.6536 63.2787 97.0487C64.9857 96.4438 67.0865 97.9769 67.9709 100.473C68.8553 102.969 68.1885 105.483 66.4814 106.087C64.7744 106.692 62.6736 105.159 61.7892 102.663Z" fill="white"/>
<g opacity="0.67">
<path d="M59.929 117.568C58.0078 116.969 56.8261 115.279 57.2896 113.793C57.753 112.307 59.6862 111.589 61.6073 112.188C63.5285 112.788 64.7102 114.478 64.2468 115.963C63.7833 117.449 61.8502 118.168 59.929 117.568Z" fill="white"/>
</g>
</svg>
