<svg width="174" height="64" viewBox="0 0 174 64" fill="none" xmlns="http://www.w3.org/2000/svg">
<path d="M0 10C0 4.47715 4.47715 0 10 0H164C169.523 0 174 4.47715 174 10V54C174 59.5228 169.523 64 164 64H10C4.47715 64 0 59.5228 0 54V10Z" fill="url(#paint0_linear_6028_68024)"/>
<path d="M32.8 26.18C33.1467 26.3533 33.3467 26.6267 33.4 27C33.4667 27.3733 33.3733 27.7133 33.12 28.02C32.9467 28.26 32.72 28.3933 32.44 28.42C32.1733 28.4467 31.9 28.3933 31.62 28.26C31.3 28.1133 30.96 28 30.6 27.92C30.2533 27.84 29.8867 27.8 29.5 27.8C28.78 27.8 28.1333 27.9133 27.56 28.14C27 28.3667 26.52 28.6933 26.12 29.12C25.72 29.5333 25.4133 30.0267 25.2 30.6C25 31.1733 24.9 31.8067 24.9 32.5C24.9 33.3133 25.0133 34.02 25.24 34.62C25.48 35.22 25.8067 35.72 26.22 36.12C26.6333 36.52 27.12 36.82 27.68 37.02C28.24 37.2067 28.8467 37.3 29.5 37.3C29.86 37.3 30.22 37.2667 30.58 37.2C30.94 37.1333 31.2867 37.0133 31.62 36.84C31.9 36.7067 32.1733 36.66 32.44 36.7C32.72 36.74 32.9533 36.88 33.14 37.12C33.4067 37.4533 33.5 37.8 33.42 38.16C33.3533 38.5067 33.1533 38.76 32.82 38.92C32.4733 39.0933 32.1133 39.24 31.74 39.36C31.38 39.4667 31.0133 39.5467 30.64 39.6C30.2667 39.6667 29.8867 39.7 29.5 39.7C28.54 39.7 27.6267 39.5467 26.76 39.24C25.9067 38.9333 25.14 38.48 24.46 37.88C23.7933 37.28 23.2667 36.5333 22.88 35.64C22.4933 34.7333 22.3 33.6867 22.3 32.5C22.3 31.4733 22.4733 30.5267 22.82 29.66C23.18 28.7933 23.68 28.0467 24.32 27.42C24.9733 26.78 25.74 26.2867 26.62 25.94C27.5 25.58 28.46 25.4 29.5 25.4C30.0867 25.4 30.66 25.4667 31.22 25.6C31.78 25.7333 32.3067 25.9267 32.8 26.18ZM40.9591 28.6C41.9191 28.6 42.6457 28.8067 43.1391 29.22C43.6457 29.6333 43.9924 30.1867 44.1791 30.88C44.3657 31.56 44.4591 32.32 44.4591 33.16V38.28C44.4591 38.6267 44.3457 38.92 44.1191 39.16C43.8924 39.3867 43.6057 39.5 43.2591 39.5C42.9124 39.5 42.6257 39.3867 42.3991 39.16C42.1724 38.92 42.0591 38.6267 42.0591 38.28V33.16C42.0591 32.72 42.0057 32.3267 41.8991 31.98C41.7924 31.62 41.5991 31.3333 41.3191 31.12C41.0391 30.9067 40.6391 30.8 40.1191 30.8C39.6124 30.8 39.1791 30.9067 38.8191 31.12C38.4591 31.3333 38.1857 31.62 37.9991 31.98C37.8257 32.3267 37.7391 32.72 37.7391 33.16V38.28C37.7391 38.6267 37.6257 38.92 37.3991 39.16C37.1724 39.3867 36.8857 39.5 36.5391 39.5C36.1924 39.5 35.9057 39.3867 35.6791 39.16C35.4524 38.92 35.3391 38.6267 35.3391 38.28V25.92C35.3391 25.5733 35.4524 25.2867 35.6791 25.06C35.9057 24.82 36.1924 24.7 36.5391 24.7C36.8857 24.7 37.1724 24.82 37.3991 25.06C37.6257 25.2867 37.7391 25.5733 37.7391 25.92V30.88L37.4391 30.82C37.5591 30.5933 37.7257 30.3533 37.9391 30.1C38.1524 29.8333 38.4124 29.5867 38.7191 29.36C39.0257 29.1333 39.3657 28.9533 39.7391 28.82C40.1124 28.6733 40.5191 28.6 40.9591 28.6ZM52.0978 39.7C50.9645 39.7 49.9778 39.4667 49.1378 39C48.3111 38.52 47.6711 37.8733 47.2178 37.06C46.7778 36.2467 46.5578 35.3267 46.5578 34.3C46.5578 33.1 46.7978 32.08 47.2778 31.24C47.7711 30.3867 48.4111 29.7333 49.1978 29.28C49.9845 28.8267 50.8178 28.6 51.6978 28.6C52.3778 28.6 53.0178 28.74 53.6178 29.02C54.2311 29.3 54.7711 29.6867 55.2378 30.18C55.7045 30.66 56.0711 31.22 56.3378 31.86C56.6178 32.5 56.7578 33.18 56.7578 33.9C56.7445 34.22 56.6178 34.48 56.3778 34.68C56.1378 34.88 55.8578 34.98 55.5378 34.98H47.8978L47.2978 32.98H54.6378L54.1978 33.38V32.84C54.1711 32.4533 54.0311 32.1067 53.7778 31.8C53.5378 31.4933 53.2311 31.2533 52.8578 31.08C52.4978 30.8933 52.1111 30.8 51.6978 30.8C51.2978 30.8 50.9245 30.8533 50.5778 30.96C50.2311 31.0667 49.9311 31.2467 49.6778 31.5C49.4245 31.7533 49.2245 32.0933 49.0778 32.52C48.9311 32.9467 48.8578 33.4867 48.8578 34.14C48.8578 34.86 49.0045 35.4733 49.2978 35.98C49.6045 36.4733 49.9911 36.8533 50.4578 37.12C50.9378 37.3733 51.4445 37.5 51.9778 37.5C52.4711 37.5 52.8645 37.46 53.1578 37.38C53.4511 37.3 53.6845 37.2067 53.8578 37.1C54.0445 36.98 54.2111 36.88 54.3578 36.8C54.5978 36.68 54.8245 36.62 55.0378 36.62C55.3311 36.62 55.5711 36.72 55.7578 36.92C55.9578 37.12 56.0578 37.3533 56.0578 37.62C56.0578 37.98 55.8711 38.3067 55.4978 38.6C55.1511 38.8933 54.6645 39.1533 54.0378 39.38C53.4111 39.5933 52.7645 39.7 52.0978 39.7ZM63.6147 28.6C64.3747 28.6 65.0347 28.68 65.5947 28.84C66.168 29 66.608 29.2267 66.9147 29.52C67.2347 29.8 67.3947 30.14 67.3947 30.54C67.3947 30.8067 67.3147 31.06 67.1547 31.3C66.9947 31.5267 66.7614 31.64 66.4547 31.64C66.2414 31.64 66.0614 31.6133 65.9147 31.56C65.7814 31.4933 65.6614 31.4133 65.5547 31.32C65.448 31.2267 65.3214 31.14 65.1747 31.06C65.0414 30.98 64.8347 30.92 64.5547 30.88C64.288 30.8267 64.088 30.8 63.9547 30.8C63.2747 30.8 62.6947 30.9467 62.2147 31.24C61.748 31.5333 61.388 31.9333 61.1347 32.44C60.8814 32.9333 60.7547 33.5067 60.7547 34.16C60.7547 34.8 60.8814 35.3733 61.1347 35.88C61.4014 36.3733 61.7614 36.7667 62.2147 37.06C62.6814 37.3533 63.2147 37.5 63.8147 37.5C64.148 37.5 64.4347 37.48 64.6747 37.44C64.9147 37.4 65.1147 37.34 65.2747 37.26C65.4614 37.1533 65.628 37.04 65.7747 36.92C65.9214 36.8 66.1414 36.74 66.4347 36.74C66.7814 36.74 67.048 36.8533 67.2347 37.08C67.4214 37.2933 67.5147 37.56 67.5147 37.88C67.5147 38.2133 67.328 38.52 66.9547 38.8C66.5814 39.0667 66.088 39.2867 65.4747 39.46C64.8747 39.62 64.2214 39.7 63.5147 39.7C62.4614 39.7 61.548 39.46 60.7747 38.98C60.0014 38.4867 59.4014 37.82 58.9747 36.98C58.5614 36.14 58.3547 35.2 58.3547 34.16C58.3547 33.0667 58.5747 32.1067 59.0147 31.28C59.468 30.44 60.088 29.7867 60.8747 29.32C61.6747 28.84 62.588 28.6 63.6147 28.6ZM70.6453 39.5C70.2986 39.5 70.012 39.3867 69.7853 39.16C69.5586 38.92 69.4453 38.6267 69.4453 38.28V25.92C69.4453 25.5733 69.5586 25.2867 69.7853 25.06C70.012 24.82 70.2986 24.7 70.6453 24.7C70.992 24.7 71.2786 24.82 71.5053 25.06C71.732 25.2867 71.8453 25.5733 71.8453 25.92V38.28C71.8453 38.6267 71.732 38.92 71.5053 39.16C71.2786 39.3867 70.992 39.5 70.6453 39.5ZM77.0053 28.8C77.312 28.8 77.5786 28.9267 77.8053 29.18C78.032 29.4333 78.1453 29.68 78.1453 29.92C78.1453 30.24 77.9853 30.54 77.6653 30.82L71.6453 36.36L71.5453 33.6L76.1253 29.18C76.3786 28.9267 76.672 28.8 77.0053 28.8ZM77.3053 39.48C76.9586 39.48 76.6653 39.3467 76.4253 39.08L72.7253 35.16L74.5453 33.48L78.1453 37.4C78.3986 37.6667 78.5253 37.9667 78.5253 38.3C78.5253 38.6467 78.3853 38.9333 78.1053 39.16C77.8386 39.3733 77.572 39.48 77.3053 39.48ZM87.8775 39.5C87.5042 39.5 87.1708 39.3867 86.8775 39.16C86.5842 38.92 86.4375 38.6267 86.4375 38.28V26.72C86.4375 26.3733 86.5508 26.0867 86.7775 25.86C87.0175 25.62 87.3108 25.5 87.6575 25.5H93.4175C94.1108 25.5 94.7575 25.6867 95.3575 26.06C95.9708 26.42 96.4642 26.9267 96.8375 27.58C97.2108 28.22 97.3975 28.96 97.3975 29.8C97.3975 30.3067 97.2908 30.8 97.0775 31.28C96.8775 31.76 96.5975 32.1933 96.2375 32.58C95.8908 32.9667 95.4975 33.2667 95.0575 33.48L95.0775 33.02C95.4508 33.22 95.7575 33.46 95.9975 33.74C96.2508 34.0067 96.4442 34.3 96.5775 34.62C96.7242 34.9267 96.8108 35.26 96.8375 35.62C96.8908 35.9533 96.9242 36.2467 96.9375 36.5C96.9642 36.7533 97.0042 36.9667 97.0575 37.14C97.1242 37.3133 97.2442 37.4467 97.4175 37.54C97.7108 37.7133 97.8908 37.9667 97.9575 38.3C98.0375 38.62 97.9642 38.9067 97.7375 39.16C97.5908 39.3333 97.4042 39.4467 97.1775 39.5C96.9508 39.54 96.7242 39.54 96.4975 39.5C96.2708 39.4467 96.0842 39.38 95.9375 39.3C95.7108 39.1667 95.4842 38.9733 95.2575 38.72C95.0308 38.4533 94.8442 38.1 94.6975 37.66C94.5642 37.22 94.4975 36.6533 94.4975 35.96C94.4975 35.7333 94.4575 35.5267 94.3775 35.34C94.2975 35.14 94.1842 34.9733 94.0375 34.84C93.8908 34.6933 93.7042 34.5867 93.4775 34.52C93.2508 34.44 92.9842 34.4 92.6775 34.4H88.6375L88.9375 33.94V38.28C88.9375 38.6267 88.8442 38.92 88.6575 39.16C88.4708 39.3867 88.2108 39.5 87.8775 39.5ZM88.6575 32.34H93.3175C93.5575 32.34 93.7908 32.2333 94.0175 32.02C94.2442 31.7933 94.4308 31.4933 94.5775 31.12C94.7242 30.7333 94.7975 30.3133 94.7975 29.86C94.7975 29.2733 94.6375 28.7867 94.3175 28.4C94.0108 28 93.6775 27.8 93.3175 27.8H88.6975L88.9375 27.16V32.82L88.6575 32.34ZM104.91 39.7C103.777 39.7 102.79 39.4667 101.95 39C101.124 38.52 100.484 37.8733 100.03 37.06C99.5903 36.2467 99.3703 35.3267 99.3703 34.3C99.3703 33.1 99.6103 32.08 100.09 31.24C100.584 30.3867 101.224 29.7333 102.01 29.28C102.797 28.8267 103.63 28.6 104.51 28.6C105.19 28.6 105.83 28.74 106.43 29.02C107.044 29.3 107.584 29.6867 108.05 30.18C108.517 30.66 108.884 31.22 109.15 31.86C109.43 32.5 109.57 33.18 109.57 33.9C109.557 34.22 109.43 34.48 109.19 34.68C108.95 34.88 108.67 34.98 108.35 34.98H100.71L100.11 32.98H107.45L107.01 33.38V32.84C106.984 32.4533 106.844 32.1067 106.59 31.8C106.35 31.4933 106.044 31.2533 105.67 31.08C105.31 30.8933 104.924 30.8 104.51 30.8C104.11 30.8 103.737 30.8533 103.39 30.96C103.044 31.0667 102.744 31.2467 102.49 31.5C102.237 31.7533 102.037 32.0933 101.89 32.52C101.744 32.9467 101.67 33.4867 101.67 34.14C101.67 34.86 101.817 35.4733 102.11 35.98C102.417 36.4733 102.804 36.8533 103.27 37.12C103.75 37.3733 104.257 37.5 104.79 37.5C105.284 37.5 105.677 37.46 105.97 37.38C106.264 37.3 106.497 37.2067 106.67 37.1C106.857 36.98 107.024 36.88 107.17 36.8C107.41 36.68 107.637 36.62 107.85 36.62C108.144 36.62 108.384 36.72 108.57 36.92C108.77 37.12 108.87 37.3533 108.87 37.62C108.87 37.98 108.684 38.3067 108.31 38.6C107.964 38.8933 107.477 39.1533 106.85 39.38C106.224 39.5933 105.577 39.7 104.91 39.7ZM117.207 28.6C118.141 28.6 118.974 28.84 119.707 29.32C120.454 29.7867 121.041 30.4333 121.467 31.26C121.907 32.0867 122.127 33.0467 122.127 34.14C122.127 35.2333 121.907 36.2 121.467 37.04C121.041 37.8667 120.461 38.52 119.727 39C119.007 39.4667 118.194 39.7 117.287 39.7C116.754 39.7 116.254 39.6133 115.787 39.44C115.321 39.2667 114.907 39.0467 114.547 38.78C114.201 38.5133 113.927 38.2467 113.727 37.98C113.541 37.7 113.447 37.4667 113.447 37.28L114.067 37.02V42.28C114.067 42.6267 113.954 42.9133 113.727 43.14C113.501 43.38 113.214 43.5 112.867 43.5C112.521 43.5 112.234 43.3867 112.007 43.16C111.781 42.9333 111.667 42.64 111.667 42.28V30.02C111.667 29.6733 111.781 29.3867 112.007 29.16C112.234 28.92 112.521 28.8 112.867 28.8C113.214 28.8 113.501 28.92 113.727 29.16C113.954 29.3867 114.067 29.6733 114.067 30.02V31L113.727 30.82C113.727 30.6467 113.821 30.44 114.007 30.2C114.194 29.9467 114.447 29.7 114.767 29.46C115.087 29.2067 115.454 29 115.867 28.84C116.294 28.68 116.741 28.6 117.207 28.6ZM116.907 30.8C116.321 30.8 115.807 30.9467 115.367 31.24C114.927 31.5333 114.581 31.9333 114.327 32.44C114.087 32.9333 113.967 33.5 113.967 34.14C113.967 34.7667 114.087 35.34 114.327 35.86C114.581 36.3667 114.927 36.7667 115.367 37.06C115.807 37.3533 116.321 37.5 116.907 37.5C117.494 37.5 118.001 37.3533 118.427 37.06C118.867 36.7667 119.207 36.3667 119.447 35.86C119.701 35.34 119.827 34.7667 119.827 34.14C119.827 33.5 119.701 32.9333 119.447 32.44C119.207 31.9333 118.867 31.5333 118.427 31.24C118.001 30.9467 117.494 30.8 116.907 30.8ZM134.606 34.16C134.606 35.2533 134.359 36.22 133.866 37.06C133.386 37.8867 132.732 38.5333 131.906 39C131.092 39.4667 130.179 39.7 129.166 39.7C128.152 39.7 127.232 39.4667 126.406 39C125.592 38.5333 124.939 37.8867 124.446 37.06C123.966 36.22 123.726 35.2533 123.726 34.16C123.726 33.0667 123.966 32.1067 124.446 31.28C124.939 30.44 125.592 29.7867 126.406 29.32C127.232 28.84 128.152 28.6 129.166 28.6C130.179 28.6 131.092 28.84 131.906 29.32C132.732 29.7867 133.386 30.44 133.866 31.28C134.359 32.1067 134.606 33.0667 134.606 34.16ZM132.206 34.16C132.206 33.48 132.066 32.8933 131.786 32.4C131.519 31.8933 131.152 31.5 130.686 31.22C130.232 30.94 129.726 30.8 129.166 30.8C128.606 30.8 128.092 30.94 127.626 31.22C127.172 31.5 126.806 31.8933 126.526 32.4C126.259 32.8933 126.126 33.48 126.126 34.16C126.126 34.8267 126.259 35.4133 126.526 35.92C126.806 36.4133 127.172 36.8 127.626 37.08C128.092 37.36 128.606 37.5 129.166 37.5C129.726 37.5 130.232 37.36 130.686 37.08C131.152 36.8 131.519 36.4133 131.786 35.92C132.066 35.4133 132.206 34.8267 132.206 34.16ZM137.906 39.5C137.56 39.5 137.273 39.3867 137.046 39.16C136.82 38.92 136.706 38.6267 136.706 38.28V30.02C136.706 29.6733 136.82 29.3867 137.046 29.16C137.273 28.92 137.56 28.8 137.906 28.8C138.253 28.8 138.54 28.92 138.766 29.16C138.993 29.3867 139.106 29.6733 139.106 30.02V31.9L138.966 30.56C139.113 30.24 139.3 29.96 139.526 29.72C139.766 29.4667 140.033 29.26 140.326 29.1C140.62 28.9267 140.933 28.8 141.266 28.72C141.6 28.64 141.933 28.6 142.266 28.6C142.666 28.6 143 28.7133 143.266 28.94C143.546 29.1667 143.686 29.4333 143.686 29.74C143.686 30.18 143.573 30.5 143.346 30.7C143.12 30.8867 142.873 30.98 142.606 30.98C142.353 30.98 142.12 30.9333 141.906 30.84C141.706 30.7467 141.473 30.7 141.206 30.7C140.966 30.7 140.72 30.76 140.466 30.88C140.226 30.9867 140 31.16 139.786 31.4C139.586 31.64 139.42 31.94 139.286 32.3C139.166 32.6467 139.106 33.06 139.106 33.54V38.28C139.106 38.6267 138.993 38.92 138.766 39.16C138.54 39.3867 138.253 39.5 137.906 39.5ZM145.498 29H150.238C150.558 29 150.825 29.1067 151.038 29.32C151.251 29.5333 151.358 29.8 151.358 30.12C151.358 30.4267 151.251 30.6867 151.038 30.9C150.825 31.1 150.558 31.2 150.238 31.2H145.498C145.178 31.2 144.911 31.0933 144.698 30.88C144.485 30.6667 144.378 30.4 144.378 30.08C144.378 29.7733 144.485 29.52 144.698 29.32C144.911 29.1067 145.178 29 145.498 29ZM147.638 26.5C147.985 26.5 148.265 26.62 148.478 26.86C148.705 27.0867 148.818 27.3733 148.818 27.72V36.62C148.818 36.8067 148.851 36.96 148.918 37.08C148.998 37.2 149.098 37.2867 149.218 37.34C149.351 37.3933 149.491 37.42 149.638 37.42C149.798 37.42 149.945 37.3933 150.078 37.34C150.211 37.2733 150.365 37.24 150.538 37.24C150.725 37.24 150.891 37.3267 151.038 37.5C151.198 37.6733 151.278 37.9133 151.278 38.22C151.278 38.5933 151.071 38.9 150.658 39.14C150.258 39.38 149.825 39.5 149.358 39.5C149.078 39.5 148.765 39.48 148.418 39.44C148.085 39.3867 147.765 39.2733 147.458 39.1C147.165 38.9133 146.918 38.6333 146.718 38.26C146.518 37.8867 146.418 37.3733 146.418 36.72V27.72C146.418 27.3733 146.531 27.0867 146.758 26.86C146.998 26.62 147.291 26.5 147.638 26.5Z" fill="white"/>
<defs>
<linearGradient id="paint0_linear_6028_68024" x1="174" y1="64" x2="20.6899" y2="-3.10073" gradientUnits="userSpaceOnUse">
<stop stop-color="#0780B9"/>
<stop offset="1" stop-color="#4CC5FF"/>
</linearGradient>
</defs>
</svg>
