<svg width="155" height="72" viewBox="0 0 155 72" fill="none" xmlns="http://www.w3.org/2000/svg">
<rect width="155" height="72" rx="10" fill="url(#paint0_linear_20_101)"/>
<path d="M54.7 45.74C53.58 45.74 52.572 45.604 51.676 45.332C50.78 45.044 49.924 44.548 49.108 43.844C48.9 43.668 48.74 43.468 48.628 43.244C48.516 43.02 48.46 42.796 48.46 42.572C48.46 42.204 48.588 41.884 48.844 41.612C49.116 41.324 49.452 41.18 49.852 41.18C50.156 41.18 50.428 41.276 50.668 41.468C51.276 41.964 51.876 42.34 52.468 42.596C53.076 42.852 53.82 42.98 54.7 42.98C55.292 42.98 55.836 42.892 56.332 42.716C56.828 42.524 57.228 42.276 57.532 41.972C57.836 41.652 57.988 41.292 57.988 40.892C57.988 40.412 57.844 40.004 57.556 39.668C57.268 39.332 56.828 39.052 56.236 38.828C55.644 38.588 54.892 38.404 53.98 38.276C53.116 38.148 52.356 37.956 51.7 37.7C51.044 37.428 50.492 37.092 50.044 36.692C49.612 36.276 49.284 35.796 49.06 35.252C48.836 34.692 48.724 34.068 48.724 33.38C48.724 32.34 48.988 31.452 49.516 30.716C50.06 29.98 50.788 29.42 51.7 29.036C52.612 28.652 53.62 28.46 54.724 28.46C55.764 28.46 56.724 28.62 57.604 28.94C58.5 29.244 59.228 29.636 59.788 30.116C60.252 30.484 60.484 30.908 60.484 31.388C60.484 31.74 60.348 32.06 60.076 32.348C59.804 32.636 59.484 32.78 59.116 32.78C58.876 32.78 58.66 32.708 58.468 32.564C58.212 32.34 57.868 32.132 57.436 31.94C57.004 31.732 56.548 31.564 56.068 31.436C55.588 31.292 55.14 31.22 54.724 31.22C54.036 31.22 53.452 31.308 52.972 31.484C52.508 31.66 52.156 31.9 51.916 32.204C51.676 32.508 51.556 32.86 51.556 33.26C51.556 33.74 51.692 34.14 51.964 34.46C52.252 34.764 52.66 35.012 53.188 35.204C53.716 35.38 54.348 35.54 55.084 35.684C56.044 35.86 56.884 36.068 57.604 36.308C58.34 36.548 58.948 36.86 59.428 37.244C59.908 37.612 60.268 38.084 60.508 38.66C60.748 39.22 60.868 39.908 60.868 40.724C60.868 41.764 60.58 42.66 60.004 43.412C59.428 44.164 58.668 44.74 57.724 45.14C56.796 45.54 55.788 45.74 54.7 45.74ZM63.5243 32.9H69.2123C69.5963 32.9 69.9163 33.028 70.1723 33.284C70.4283 33.54 70.5563 33.86 70.5563 34.244C70.5563 34.612 70.4283 34.924 70.1723 35.18C69.9163 35.42 69.5963 35.54 69.2123 35.54H63.5243C63.1403 35.54 62.8203 35.412 62.5643 35.156C62.3083 34.9 62.1803 34.58 62.1803 34.196C62.1803 33.828 62.3083 33.524 62.5643 33.284C62.8203 33.028 63.1403 32.9 63.5243 32.9ZM66.0923 29.9C66.5083 29.9 66.8443 30.044 67.1003 30.332C67.3723 30.604 67.5083 30.948 67.5083 31.364V42.044C67.5083 42.268 67.5483 42.452 67.6283 42.596C67.7243 42.74 67.8443 42.844 67.9883 42.908C68.1483 42.972 68.3163 43.004 68.4923 43.004C68.6843 43.004 68.8603 42.972 69.0203 42.908C69.1803 42.828 69.3643 42.788 69.5723 42.788C69.7963 42.788 69.9963 42.892 70.1723 43.1C70.3643 43.308 70.4603 43.596 70.4603 43.964C70.4603 44.412 70.2123 44.78 69.7163 45.068C69.2363 45.356 68.7163 45.5 68.1563 45.5C67.8203 45.5 67.4443 45.476 67.0283 45.428C66.6283 45.364 66.2443 45.228 65.8763 45.02C65.5243 44.796 65.2283 44.46 64.9883 44.012C64.7483 43.564 64.6283 42.948 64.6283 42.164V31.364C64.6283 30.948 64.7643 30.604 65.0363 30.332C65.3243 30.044 65.6763 29.9 66.0923 29.9ZM83.7126 32.42C84.1286 32.42 84.4726 32.556 84.7446 32.828C85.0166 33.1 85.1526 33.452 85.1526 33.884V44.036C85.1526 44.452 85.0166 44.804 84.7446 45.092C84.4726 45.364 84.1286 45.5 83.7126 45.5C83.2966 45.5 82.9526 45.364 82.6806 45.092C82.4086 44.804 82.2726 44.452 82.2726 44.036V42.86L82.8006 43.076C82.8006 43.284 82.6886 43.54 82.4646 43.844C82.2406 44.132 81.9366 44.42 81.5526 44.708C81.1686 44.996 80.7126 45.244 80.1846 45.452C79.6726 45.644 79.1126 45.74 78.5046 45.74C77.4006 45.74 76.4006 45.46 75.5046 44.9C74.6086 44.324 73.8966 43.54 73.3686 42.548C72.8566 41.54 72.6006 40.388 72.6006 39.092C72.6006 37.78 72.8566 36.628 73.3686 35.636C73.8966 34.628 74.6006 33.844 75.4806 33.284C76.3606 32.708 77.3366 32.42 78.4086 32.42C79.0966 32.42 79.7286 32.524 80.3046 32.732C80.8806 32.94 81.3766 33.204 81.7926 33.524C82.2246 33.844 82.5526 34.172 82.7766 34.508C83.0166 34.828 83.1366 35.1 83.1366 35.324L82.2726 35.636V33.884C82.2726 33.468 82.4086 33.124 82.6806 32.852C82.9526 32.564 83.2966 32.42 83.7126 32.42ZM78.8646 43.1C79.5686 43.1 80.1846 42.924 80.7126 42.572C81.2406 42.22 81.6486 41.74 81.9366 41.132C82.2406 40.524 82.3926 39.844 82.3926 39.092C82.3926 38.324 82.2406 37.636 81.9366 37.028C81.6486 36.42 81.2406 35.94 80.7126 35.588C80.1846 35.236 79.5686 35.06 78.8646 35.06C78.1766 35.06 77.5686 35.236 77.0406 35.588C76.5126 35.94 76.0966 36.42 75.7926 37.028C75.5046 37.636 75.3606 38.324 75.3606 39.092C75.3606 39.844 75.5046 40.524 75.7926 41.132C76.0966 41.74 76.5126 42.22 77.0406 42.572C77.5686 42.924 78.1766 43.1 78.8646 43.1ZM89.7109 45.5C89.2949 45.5 88.9509 45.364 88.6789 45.092C88.4069 44.804 88.2709 44.452 88.2709 44.036V34.124C88.2709 33.708 88.4069 33.364 88.6789 33.092C88.9509 32.804 89.2949 32.66 89.7109 32.66C90.1269 32.66 90.4709 32.804 90.7429 33.092C91.0149 33.364 91.1509 33.708 91.1509 34.124V36.38L90.9829 34.772C91.1589 34.388 91.3829 34.052 91.6549 33.764C91.9429 33.46 92.2629 33.212 92.6149 33.02C92.9669 32.812 93.3429 32.66 93.7429 32.564C94.1429 32.468 94.5429 32.42 94.9429 32.42C95.4229 32.42 95.8229 32.556 96.1429 32.828C96.4789 33.1 96.6469 33.42 96.6469 33.788C96.6469 34.316 96.5109 34.7 96.2389 34.94C95.9669 35.164 95.6709 35.276 95.3509 35.276C95.0469 35.276 94.7669 35.22 94.5109 35.108C94.2709 34.996 93.9909 34.94 93.6709 34.94C93.3829 34.94 93.0869 35.012 92.7829 35.156C92.4949 35.284 92.2229 35.492 91.9669 35.78C91.7269 36.068 91.5269 36.428 91.3669 36.86C91.2229 37.276 91.1509 37.772 91.1509 38.348V44.036C91.1509 44.452 91.0149 44.804 90.7429 45.092C90.4709 45.364 90.1269 45.5 89.7109 45.5ZM98.8212 32.9H104.509C104.893 32.9 105.213 33.028 105.469 33.284C105.725 33.54 105.853 33.86 105.853 34.244C105.853 34.612 105.725 34.924 105.469 35.18C105.213 35.42 104.893 35.54 104.509 35.54H98.8212C98.4372 35.54 98.1172 35.412 97.8612 35.156C97.6052 34.9 97.4772 34.58 97.4772 34.196C97.4772 33.828 97.6052 33.524 97.8612 33.284C98.1172 33.028 98.4372 32.9 98.8212 32.9ZM101.389 29.9C101.805 29.9 102.141 30.044 102.397 30.332C102.669 30.604 102.805 30.948 102.805 31.364V42.044C102.805 42.268 102.845 42.452 102.925 42.596C103.021 42.74 103.141 42.844 103.285 42.908C103.445 42.972 103.613 43.004 103.789 43.004C103.981 43.004 104.157 42.972 104.317 42.908C104.477 42.828 104.661 42.788 104.869 42.788C105.093 42.788 105.293 42.892 105.469 43.1C105.661 43.308 105.757 43.596 105.757 43.964C105.757 44.412 105.509 44.78 105.013 45.068C104.533 45.356 104.013 45.5 103.453 45.5C103.117 45.5 102.741 45.476 102.325 45.428C101.925 45.364 101.541 45.228 101.173 45.02C100.821 44.796 100.525 44.46 100.285 44.012C100.045 43.564 99.9252 42.948 99.9252 42.164V31.364C99.9252 30.948 100.061 30.604 100.333 30.332C100.621 30.044 100.973 29.9 101.389 29.9Z" fill="white"/>
<defs>
<linearGradient id="paint0_linear_20_101" x1="155" y1="72" x2="9.71842" y2="21.6503" gradientUnits="userSpaceOnUse">
<stop stop-color="#0780B9"/>
<stop offset="1" stop-color="#4CC5FF"/>
</linearGradient>
</defs>
</svg>
