<svg width="441" height="258" viewBox="0 0 441 258" fill="none" xmlns="http://www.w3.org/2000/svg">
<path d="M44.8565 5.6145C47.8576 4.41742 53.2595 2.82133 56.8609 2.12303C62.0627 1.02571 93.074 0.826202 351.468 1.12547L359.471 4.11816C363.872 5.81401 369.474 8.30791 371.975 9.7045C374.476 11.2008 379.278 14.5926 382.679 17.4855C386.18 20.2787 391.282 25.865 393.983 29.8552C396.784 33.7457 400.386 40.1301 401.986 44.0206C403.587 47.9111 405.587 55.0936 406.388 59.9816C407.688 67.3636 407.988 78.1372 407.988 173.704L423.994 189.665C435.198 200.837 440 206.324 440 207.92C440 209.117 439.2 210.813 438.199 211.711C437.299 212.609 435.498 213.806 434.298 214.205C432.997 214.703 425.395 215.102 402.486 215.102L397.485 222.684C394.784 226.874 388.881 233.657 384.48 237.747C378.678 243.134 373.976 246.426 367.474 249.618C362.472 252.012 355.769 254.706 352.468 255.504C347.266 256.801 328.059 257 62.3629 257L53.3596 254.506C48.4578 253.01 41.6553 250.416 38.3541 248.521C35.0529 246.725 29.751 243.034 26.4498 240.341C23.2486 237.747 18.2468 232.46 15.3458 228.57C12.4447 224.679 8.94345 219.093 7.54295 216.1C6.14244 213.107 4.24175 207.92 3.24138 204.628C1.6408 199.141 1.44073 192.458 1.14062 130.808C0.840511 72.5509 0.940548 61.9767 2.24102 55.9914C3.14135 52.1009 5.84233 44.8187 8.34324 39.8309C11.6444 33.0474 14.6455 28.6582 19.5473 23.4708C23.3487 19.5804 29.2508 14.4928 32.8521 12.1984C36.4534 9.80426 41.8554 6.91133 44.8565 5.6145Z" fill="#FF7F36" fill-opacity="0.1" stroke="#FF7F36"/>
</svg>
